<?xml version='1.0' encoding='UTF-8' standalone='no'?>
<svg height="432pt" viewBox="0 0 576 432" width="576pt" xmlns:xlink="http://www.w3.org/1999/xlink" xmlns="http://www.w3.org/2000/svg">
 <title>gl2ps_renderer figure</title>
 <desc>
Creator: GL2PS 1.4.0, (C) 1999-2017 C. Geuzaine
For: Octave
CreationDate: Sun Nov 22 21:49:50 2020
</desc>
 <defs/>
 <polygon points="0,0 576,0 576,432 0,432" fill="#ffffff"/>
 <g>
  <polygon points="0,432 576,432 576,0 0,0" shape-rendering="crispEdges" fill="#ffffff"/>
  <clipPath id="cp00576432">
   <polygon points="0,432 576,432 576,0 0,0"/>
  </clipPath>
  <g clip-path="url(#cp00576432)">
   <polygon points="74.8799,384.48 521.28,384.48 521.28,32.4004 74.8799,32.4004" shape-rendering="crispEdges" fill="#ffffff"/>
   <polyline stroke-dasharray="16,0" points="74.8799,384.48 74.8799,32.4004" stroke="#262626" stroke-linecap="butt" stroke-width="0.5" stroke-linejoin="miter" stroke-opacity="0.15" fill="none"/>
   <polyline stroke-dasharray="16,0" points="138.651,384.48 138.651,32.4004" stroke="#262626" stroke-linecap="butt" stroke-width="0.5" stroke-linejoin="miter" stroke-opacity="0.15" fill="none"/>
   <polyline stroke-dasharray="16,0" points="202.423,384.48 202.423,32.4004" stroke="#262626" stroke-linecap="butt" stroke-width="0.5" stroke-linejoin="miter" stroke-opacity="0.15" fill="none"/>
   <polyline stroke-dasharray="16,0" points="266.194,384.48 266.194,32.4004" stroke="#262626" stroke-linecap="butt" stroke-width="0.5" stroke-linejoin="miter" stroke-opacity="0.15" fill="none"/>
   <polyline stroke-dasharray="16,0" points="329.966,384.48 329.966,32.4004" stroke="#262626" stroke-linecap="butt" stroke-width="0.5" stroke-linejoin="miter" stroke-opacity="0.15" fill="none"/>
   <polyline stroke-dasharray="16,0" points="393.737,384.48 393.737,32.4004" stroke="#262626" stroke-linecap="butt" stroke-width="0.5" stroke-linejoin="miter" stroke-opacity="0.15" fill="none"/>
   <polyline stroke-dasharray="16,0" points="457.509,384.48 457.509,32.4004" stroke="#262626" stroke-linecap="butt" stroke-width="0.5" stroke-linejoin="miter" stroke-opacity="0.15" fill="none"/>
   <polyline stroke-dasharray="16,0" points="521.28,384.48 521.28,32.4004" stroke="#262626" stroke-linecap="butt" stroke-width="0.5" stroke-linejoin="miter" stroke-opacity="0.15" fill="none"/>
   <polyline points="74.8799,384.48 74.8799,380.015" stroke="#262626" stroke-linecap="butt" stroke-width="0.5" stroke-linejoin="miter" fill="none"/>
   <polyline points="74.8799,32.4004 74.8799,36.8652" stroke="#262626" stroke-linecap="butt" stroke-width="0.5" stroke-linejoin="miter" fill="none"/>
   <polyline points="138.651,384.48 138.651,380.015" stroke="#262626" stroke-linecap="butt" stroke-width="0.5" stroke-linejoin="miter" fill="none"/>
   <polyline points="138.651,32.4004 138.651,36.8652" stroke="#262626" stroke-linecap="butt" stroke-width="0.5" stroke-linejoin="miter" fill="none"/>
   <polyline points="202.423,384.48 202.423,380.015" stroke="#262626" stroke-linecap="butt" stroke-width="0.5" stroke-linejoin="miter" fill="none"/>
   <polyline points="202.423,32.4004 202.423,36.8652" stroke="#262626" stroke-linecap="butt" stroke-width="0.5" stroke-linejoin="miter" fill="none"/>
   <polyline points="266.194,384.48 266.194,380.015" stroke="#262626" stroke-linecap="butt" stroke-width="0.5" stroke-linejoin="miter" fill="none"/>
   <polyline points="266.194,32.4004 266.194,36.8652" stroke="#262626" stroke-linecap="butt" stroke-width="0.5" stroke-linejoin="miter" fill="none"/>
   <polyline points="329.966,384.48 329.966,380.015" stroke="#262626" stroke-linecap="butt" stroke-width="0.5" stroke-linejoin="miter" fill="none"/>
   <polyline points="329.966,32.4004 329.966,36.8652" stroke="#262626" stroke-linecap="butt" stroke-width="0.5" stroke-linejoin="miter" fill="none"/>
   <polyline points="393.737,384.48 393.737,380.015" stroke="#262626" stroke-linecap="butt" stroke-width="0.5" stroke-linejoin="miter" fill="none"/>
   <polyline points="393.737,32.4004 393.737,36.8652" stroke="#262626" stroke-linecap="butt" stroke-width="0.5" stroke-linejoin="miter" fill="none"/>
   <polyline points="457.509,384.48 457.509,380.015" stroke="#262626" stroke-linecap="butt" stroke-width="0.5" stroke-linejoin="miter" fill="none"/>
   <polyline points="457.509,32.4004 457.509,36.8652" stroke="#262626" stroke-linecap="butt" stroke-width="0.5" stroke-linejoin="miter" fill="none"/>
   <polyline points="521.28,384.48 521.28,380.015" stroke="#262626" stroke-linecap="butt" stroke-width="0.5" stroke-linejoin="miter" fill="none"/>
   <polyline points="521.28,32.4004 521.28,36.8652" stroke="#262626" stroke-linecap="butt" stroke-width="0.5" stroke-linejoin="miter" fill="none"/>
   <text font-size="10" font-family="FreeSans" font-weight="normal" font-style="normal" xml:space="preserve" transform="translate(61.38,399.982) rotate(-0,13.5,-8)">
    <tspan x="0 6 9 15 21 " y="-0" fill="rgb(38,38,38)">0.005</tspan>
   </text>
   <text font-size="10" font-family="FreeSans" font-weight="normal" font-style="normal" xml:space="preserve" transform="translate(128.151,399.982) rotate(-0,10.5,-8)">
    <tspan x="0 6 9 15 " y="-0" fill="rgb(38,38,38)">0.01</tspan>
   </text>
   <text font-size="10" font-family="FreeSans" font-weight="normal" font-style="normal" xml:space="preserve" transform="translate(188.923,399.982) rotate(-0,13.5,-8)">
    <tspan x="0 6 9 15 21 " y="-0" fill="rgb(38,38,38)">0.015</tspan>
   </text>
   <text font-size="10" font-family="FreeSans" font-weight="normal" font-style="normal" xml:space="preserve" transform="translate(255.694,399.982) rotate(-0,10.5,-8)">
    <tspan x="0 6 9 15 " y="-0" fill="rgb(38,38,38)">0.02</tspan>
   </text>
   <text font-size="10" font-family="FreeSans" font-weight="normal" font-style="normal" xml:space="preserve" transform="translate(316.466,399.982) rotate(-0,13.5,-8)">
    <tspan x="0 6 9 15 21 " y="-0" fill="rgb(38,38,38)">0.025</tspan>
   </text>
   <text font-size="10" font-family="FreeSans" font-weight="normal" font-style="normal" xml:space="preserve" transform="translate(383.237,399.982) rotate(-0,10.5,-8)">
    <tspan x="0 6 9 15 " y="-0" fill="rgb(38,38,38)">0.03</tspan>
   </text>
   <text font-size="10" font-family="FreeSans" font-weight="normal" font-style="normal" xml:space="preserve" transform="translate(444.009,399.982) rotate(-0,13.5,-8)">
    <tspan x="0 6 9 15 21 " y="-0" fill="rgb(38,38,38)">0.035</tspan>
   </text>
   <text font-size="10" font-family="FreeSans" font-weight="normal" font-style="normal" xml:space="preserve" transform="translate(510.78,399.982) rotate(-0,10.5,-8)">
    <tspan x="0 6 9 15 " y="-0" fill="rgb(38,38,38)">0.04</tspan>
   </text>
   <polyline stroke-dasharray="16,0" points="74.8799,384.48 521.28,384.48" stroke="#262626" stroke-linecap="butt" stroke-width="0.5" stroke-linejoin="miter" stroke-opacity="0.15" fill="none"/>
   <polyline stroke-dasharray="16,0" points="74.8799,296.46 521.28,296.46" stroke="#262626" stroke-linecap="butt" stroke-width="0.5" stroke-linejoin="miter" stroke-opacity="0.15" fill="none"/>
   <polyline stroke-dasharray="16,0" points="74.8799,208.44 521.28,208.44" stroke="#262626" stroke-linecap="butt" stroke-width="0.5" stroke-linejoin="miter" stroke-opacity="0.15" fill="none"/>
   <polyline stroke-dasharray="16,0" points="74.8799,120.42 521.28,120.42" stroke="#262626" stroke-linecap="butt" stroke-width="0.5" stroke-linejoin="miter" stroke-opacity="0.15" fill="none"/>
   <polyline stroke-dasharray="16,0" points="74.8799,32.4004 521.28,32.4004" stroke="#262626" stroke-linecap="butt" stroke-width="0.5" stroke-linejoin="miter" stroke-opacity="0.15" fill="none"/>
   <polyline points="74.8799,384.48 79.3481,384.48" stroke="#262626" stroke-linecap="butt" stroke-width="0.5" stroke-linejoin="miter" fill="none"/>
   <polyline points="521.28,384.48 516.812,384.48" stroke="#262626" stroke-linecap="butt" stroke-width="0.5" stroke-linejoin="miter" fill="none"/>
   <polyline points="74.8799,296.46 79.3481,296.46" stroke="#262626" stroke-linecap="butt" stroke-width="0.5" stroke-linejoin="miter" fill="none"/>
   <polyline points="521.28,296.46 516.812,296.46" stroke="#262626" stroke-linecap="butt" stroke-width="0.5" stroke-linejoin="miter" fill="none"/>
   <polyline points="74.8799,208.44 79.3481,208.44" stroke="#262626" stroke-linecap="butt" stroke-width="0.5" stroke-linejoin="miter" fill="none"/>
   <polyline points="521.28,208.44 516.812,208.44" stroke="#262626" stroke-linecap="butt" stroke-width="0.5" stroke-linejoin="miter" fill="none"/>
   <polyline points="74.8799,120.42 79.3481,120.42" stroke="#262626" stroke-linecap="butt" stroke-width="0.5" stroke-linejoin="miter" fill="none"/>
   <polyline points="521.28,120.42 516.812,120.42" stroke="#262626" stroke-linecap="butt" stroke-width="0.5" stroke-linejoin="miter" fill="none"/>
   <polyline points="74.8799,32.4004 79.3481,32.4004" stroke="#262626" stroke-linecap="butt" stroke-width="0.5" stroke-linejoin="miter" fill="none"/>
   <polyline points="521.28,32.4004 516.812,32.4004" stroke="#262626" stroke-linecap="butt" stroke-width="0.5" stroke-linejoin="miter" fill="none"/>
   <text font-size="10" font-family="FreeSans" font-weight="normal" font-style="normal" xml:space="preserve" transform="translate(57.8755,388.48) rotate(-0,12,-4)">
    <tspan x="0 6 " y="-0" fill="rgb(38,38,38)">38</tspan>
   </text>
   <text font-size="10" font-family="FreeSans" font-weight="normal" font-style="normal" xml:space="preserve" transform="translate(48.8755,300.46) rotate(-0,21,-4)">
    <tspan x="0 6 12 15 " y="-0" fill="rgb(38,38,38)">38.5</tspan>
   </text>
   <text font-size="10" font-family="FreeSans" font-weight="normal" font-style="normal" xml:space="preserve" transform="translate(57.8755,212.44) rotate(-0,12,-4)">
    <tspan x="0 6 " y="-0" fill="rgb(38,38,38)">39</tspan>
   </text>
   <text font-size="10" font-family="FreeSans" font-weight="normal" font-style="normal" xml:space="preserve" transform="translate(48.8755,124.42) rotate(-0,21,-4)">
    <tspan x="0 6 12 15 " y="-0" fill="rgb(38,38,38)">39.5</tspan>
   </text>
   <text font-size="10" font-family="FreeSans" font-weight="normal" font-style="normal" xml:space="preserve" transform="translate(57.8755,36.4) rotate(-0,12,-4)">
    <tspan x="0 6 " y="-0" fill="rgb(38,38,38)">40</tspan>
   </text>
   <polyline stroke-dasharray="16,0" points="74.8799,384.48 521.28,384.48" stroke="#262626" stroke-linecap="square" stroke-width="0.5" stroke-linejoin="miter" fill="none"/>
   <polyline stroke-dasharray="16,0" points="74.8799,32.4004 521.28,32.4004" stroke="#262626" stroke-linecap="square" stroke-width="0.5" stroke-linejoin="miter" fill="none"/>
   <polyline stroke-dasharray="16,0" points="74.8799,384.48 74.8799,32.4004" stroke="#262626" stroke-linecap="square" stroke-width="0.5" stroke-linejoin="miter" fill="none"/>
   <polyline stroke-dasharray="16,0" points="521.28,384.48 521.28,32.4004" stroke="#262626" stroke-linecap="square" stroke-width="0.5" stroke-linejoin="miter" fill="none"/>
   <text font-size="11" font-family="FreeSans" font-weight="bold" font-style="normal" xml:space="preserve" transform="translate(58.08,22.4) rotate(-0,240,0)">
    <tspan x="0 3 10 17 24 28 32 39 46 49 53 59 66 72 75 81 87 90 97 100 110 116 119 123 130 134 137 141 148 151 158 164 170 176 182 185 192 195 198 205 208 215 221 227 233 239 242 249 252 255 262 265 272 278 284 290 296 299 306 309 312 316 323 327 330 333 341 345 352 362 366 372 378 384 387 393 400 403 407 413 420 426 429 433 439 446 453 456 462 466 473 477 " y="-3" fill="rgb(0,0,0)">Input-Voltage vs Time for:(Vin=100 V ;Vin=110 V ;Vin=120 V  )of IC-LM-317 voltage regulator.</tspan>
   </text>
   <text font-size="11" font-family="FreeSans" font-weight="normal" font-style="normal" xml:space="preserve" transform="translate(13.3755,208.44) rotate(-90,30.5,0)">
    <tspan x="0 7 13 15 18 24 30 36 39 41 47 50 52 59 " y="-2" fill="rgb(38,38,38)">Voltage in 'V'</tspan>
   </text>
   <text font-size="11" font-family="FreeSans" font-weight="normal" font-style="normal" xml:space="preserve" transform="translate(274.58,413.982) rotate(-0,23.5,-9)">
    <tspan x="0 7 9 18 24 27 29 35 38 40 45 " y="-0" fill="rgb(38,38,38)">Time in 's'</tspan>
   </text>
   <polyline points="113.245,36.001 113.756,36.002 114.266,36.0029 114.777,36.0034 115.288,36.0044 115.798,36.0054 116.309,36.0054 116.82,36.0068 117.331,36.0083 117.841,36.0103 118.352,36.0127 118.862,36.0161 119.373,36.021 119.884,36.0273 120.395,36.0391 120.905,36.063 121.416,36.146 121.927,38.5947 122.438,43.1772 122.948,47.7593 123.458,52.3413 123.969,56.9233 124.48,61.5054 124.991,66.0879 125.501,70.6699 126.012,75.252 126.522,79.834 127.033,84.416 127.544,88.9985 128.055,93.5796 128.565,98.1626 129.076,102.745 129.587,107.326 130.098,111.908 130.608,116.49 131.119,121.072 131.629,125.654 132.14,130.237 132.651,134.819 133.162,139.4 133.672,143.982 134.183,148.564 134.694,153.146 135.204,157.728 135.715,162.31 136.226,166.892 136.736,171.474 137.247,176.056 137.758,180.638 138.269,185.22 138.779,189.801 139.29,194.383 139.8,198.965 140.311,203.546 140.822,208.128 141.333,212.71 141.843,217.292 142.354,221.874 142.865,226.456 143.375,231.037 143.886,235.619 144.396,240.201 144.907,244.782 145.418,249.364 145.929,253.946 146.439,258.527 146.95,263.109 147.461,267.691 147.971,272.272 148.482,276.854 148.993,281.437 149.503,286.018 150.014,290.6 150.525,295.182 151.036,299.763 151.546,304.345 152.057,308.926 152.567,313.508 153.078,318.089 153.589,322.671 154.1,327.252 154.61,331.834 155.121,322.708 155.632,240.691 156.142,116.652 156.653,58.5469 157.164,42.1914 157.674,37.7026 158.185,36.4775 158.696,36.1426 159.207,36.0488 159.717,36.0215 160.228,36.0127 160.738,36.0093 161.249,36.0078 161.76,36.0059 162.271,36.0054 162.781,36.0044 163.292,36.0034 163.803,36.0029 164.313,36.002 164.824,36.001 165.334,36.001 165.845,36.001 166.356,36.0005 166.867,36.0005 167.377,35.9995 167.888,35.9995 168.398,35.9995 168.909,35.9985 169.42,35.9985 169.931,35.9985 170.441,35.998 170.952,35.998 171.463,35.998 171.974,35.998 172.484,35.998 172.995,35.998 173.505,35.998 174.016,35.998 174.527,35.998 175.038,35.998 175.548,35.998 176.059,35.9971 176.569,35.9971 177.08,35.9971 177.591,35.9971 178.102,35.9971 178.612,35.9971 179.123,35.9971 179.634,35.9971 180.145,35.9971 180.655,35.9971 181.166,35.9961 181.676,35.9961 182.187,35.9961 182.698,35.9961 183.208,35.9961 183.719,35.9961 184.23,35.9961 184.74,35.9961 185.251,35.9961 185.762,35.9961 186.272,35.9961 186.783,35.9961 187.294,35.9961 187.805,35.9961 188.315,35.9961 188.826,35.9961 189.336,35.9961 189.847,35.9961 190.358,35.9961 190.869,35.9961 191.379,35.9961 191.89,35.9951 192.401,35.9951 192.912,35.9951 193.422,35.9951 193.933,35.9951 194.443,35.9951 194.954,35.9951 195.465,35.9951 195.976,35.9951 196.486,35.9951 196.997,35.9951 197.507,35.9951 198.018,35.9951 198.529,35.9951 199.04,35.9951 199.55,35.9951 200.061,35.9951 200.572,35.9951 201.083,35.9951 201.593,35.9951 202.104,35.9951 202.614,35.9951 203.125,35.9951 203.636,35.9951 204.146,35.9951 204.657,35.9951 205.168,35.9951 205.678,35.9951 206.189,35.9951 206.7,35.9951 207.21,35.9951 207.721,35.9951 208.232,35.9951 208.743,35.9951 209.253,35.9951 209.764,35.9951 210.274,35.9951 210.785,35.9951 211.296,35.9951 211.807,35.9951 212.317,35.9951 212.828,35.9951 213.339,35.9951 213.849,35.9961 214.36,35.9961 214.871,35.9961 215.381,35.9961 215.892,35.9961 216.403,35.9961 216.914,35.9961 217.424,35.9961 217.935,35.9961 218.445,35.9961 218.956,35.9961 219.467,35.9961 219.978,35.9961 220.488,35.9961 220.999,35.9961 221.51,35.9961 222.021,35.9961 222.531,35.9961 223.042,35.9961 223.552,35.9961 224.063,35.9961 224.574,35.9961 225.084,35.9971 225.595,35.9971 226.106,35.9971 226.616,35.9971 227.127,35.9971 227.638,35.9971 228.148,35.9971 228.659,35.9971 229.17,35.9971 229.681,35.9971 230.191,35.998 230.702,35.998 231.212,35.998 231.723,35.998 232.234,35.998 232.745,35.998 233.255,35.998 233.766,35.998 234.277,35.998 234.787,35.998 235.298,35.998 235.809,35.9985 236.319,35.9985 236.83,35.9985 237.341,35.9995 237.852,35.9995 238.362,35.9995 238.873,36.0005 239.383,36.0005 239.894,36.001 240.405,36.001 240.916,36.001 241.426,36.002 241.937,36.0029 242.448,36.0034 242.958,36.0044 243.469,36.0054 243.979,36.0059 244.49,36.0078 245.001,36.0083 245.512,36.0107 246.022,36.0137 246.533,36.0166 247.044,36.0225 247.554,36.0298 248.065,36.043 248.576,36.0737 249.086,36.2202 249.597,39.7402 250.108,44.3223 250.619,48.9053 251.129,53.4868 251.64,58.0688 252.15,62.6519 252.661,67.2329 253.172,71.8149 253.683,76.3975 254.193,80.9805 254.704,85.5615 255.215,90.1436 255.725,94.7256 256.236,99.3081 256.747,103.89 257.257,108.472 257.768,113.054 258.279,117.636 258.79,122.218 259.3,126.8 259.811,131.382 260.321,135.964 260.832,140.546 261.343,145.128 261.854,149.709 262.364,154.292 262.875,158.874 263.386,163.456 263.896,168.038 264.407,172.619 264.917,177.202 265.428,181.783 265.939,186.365 266.45,190.946 266.96,195.528 267.471,200.11 267.981,204.692 268.492,209.274 269.003,213.856 269.514,218.438 270.024,223.019 270.535,227.601 271.046,232.183 271.557,236.765 272.067,241.346 272.578,245.928 273.088,250.51 273.599,255.092 274.11,259.673 274.621,264.255 275.131,268.837 275.642,273.418 276.152,278 276.663,282.582 277.174,287.164 277.685,291.745 278.195,296.326 278.706,300.908 279.217,305.489 279.728,310.071 280.238,314.653 280.749,319.234 281.259,323.816 281.77,328.397 282.281,332.979 282.792,308.885 283.302,209.925 283.813,94.6621 284.324,52.4731 284.834,40.5801 285.345,37.2793 285.855,36.3672 286.366,36.1133 286.877,36.0415 287.388,36.019 287.898,36.0127 288.409,36.0083 288.919,36.0068 289.43,36.0054 289.941,36.0054 290.452,36.0034 290.962,36.0029 291.473,36.002 291.984,36.002 292.495,36.001 293.005,36.001 293.516,36.001 294.026,36.0005 294.537,36.0005 295.048,35.9995 295.559,35.9995 296.069,35.9985 296.58,35.9985 297.09,35.9985 297.601,35.9985 298.112,35.998 298.623,35.998 299.133,35.998 299.644,35.998 300.155,35.998 300.666,35.998 301.176,35.998 301.687,35.998 302.197,35.998 302.708,35.998 303.219,35.998 303.729,35.9971 304.24,35.9971 304.751,35.9971 305.261,35.9971 305.772,35.9971 306.283,35.9971 306.793,35.9971 307.304,35.9971 307.815,35.9971 308.326,35.9971 308.836,35.9961 309.347,35.9961 309.857,35.9961 310.368,35.9961 310.879,35.9961 311.39,35.9961 311.9,35.9961 312.411,35.9961 312.922,35.9961 313.432,35.9961 313.943,35.9961 314.454,35.9961 314.964,35.9961 315.475,35.9961 315.986,35.9961 316.497,35.9961 317.007,35.9961 317.518,35.9961 318.028,35.9961 318.539,35.9961 319.05,35.9961 319.561,35.9951 320.071,35.9951 320.582,35.9951 321.093,35.9951 321.604,35.9951 322.114,35.9951 322.625,35.9951 323.135,35.9951 323.646,35.9951 324.157,35.9951 324.667,35.9951 325.178,35.9951 325.689,35.9951 326.199,35.9951 326.71,35.9951 327.221,35.9951 327.731,35.9951 328.242,35.9951 328.753,35.9951 329.264,35.9951 329.774,35.9951 330.285,35.9951 330.795,35.9951 331.306,35.9951 331.817,35.9951 332.328,35.9951 332.838,35.9951 333.349,35.9951 333.86,35.9951 334.37,35.9951 334.881,35.9951 335.392,35.9951 335.902,35.9951 336.413,35.9951 336.924,35.9951 337.435,35.9951 337.945,35.9951 338.456,35.9951 338.966,35.9951 339.477,35.9951 339.988,35.9951 340.499,35.9951 341.009,35.9951 341.52,35.9961 342.031,35.9961 342.542,35.9961 343.052,35.9961 343.562,35.9961 344.073,35.9961 344.584,35.9961 345.095,35.9961 345.605,35.9961 346.116,35.9961 346.626,35.9961 347.137,35.9961 347.648,35.9961 348.159,35.9961 348.669,35.9961 349.18,35.9961 349.691,35.9961 350.202,35.9961 350.712,35.9961 351.223,35.9961 351.733,35.9961 352.244,35.9961 352.755,35.9971 353.266,35.9971 353.776,35.9971 354.287,35.9971 354.798,35.9971 355.308,35.9971 355.819,35.9971 356.33,35.9971 356.84,35.9971 357.351,35.9971 357.862,35.998 358.373,35.998 358.883,35.998 359.394,35.998 359.904,35.998 360.415,35.998 360.926,35.998 361.437,35.998 361.947,35.998 362.458,35.998 362.969,35.998 363.479,35.9985 363.99,35.9985 364.5,35.9985 365.011,35.9995 365.522,35.9995 366.033,36.0005 366.543,36.0005 367.054,36.0005 367.564,36.001 368.075,36.001 368.586,36.001 369.097,36.002 369.607,36.0029 370.118,36.0034 370.629,36.0044 371.14,36.0054 371.65,36.0059 372.161,36.0078 372.671,36.0093 373.182,36.0117 373.693,36.0142 374.204,36.0186 374.714,36.0234 375.225,36.0322 375.735,36.0488 376.246,36.0884 376.757,36.48 377.268,40.8862 377.778,45.4688 378.289,50.0508 378.8,54.6328 379.311,59.2148 379.821,63.7969 380.332,68.3794 380.842,72.9614 381.353,77.5425 381.864,82.1255 382.375,86.7075 382.885,91.2891 383.396,95.8711 383.907,100.454 384.417,105.035 384.928,109.618 385.438,114.2 385.949,118.782 386.46,123.363 386.971,127.945 387.481,132.527 387.992,137.109 388.502,141.691 389.013,146.273 389.524,150.856 390.035,155.437 390.545,160.019 391.056,164.601 391.567,169.183 392.078,173.765 392.588,178.347 393.099,182.928 393.609,187.51 394.12,192.092 394.631,196.674 395.142,201.256 395.652,205.838 396.163,210.419 396.673,215.002 397.184,219.583 397.695,224.165 398.206,228.747 398.716,233.329 399.227,237.911 399.738,242.492 400.249,247.074 400.759,251.655 401.27,256.237 401.78,260.819 402.291,265.4 402.802,269.982 403.312,274.564 403.823,279.146 404.334,283.727 404.845,288.309 405.355,292.891 405.866,297.472 406.376,302.054 406.887,306.635 407.398,311.217 407.909,315.798 408.419,320.38 408.93,324.961 409.44,329.543 409.951,333.487 410.462,290.788 410.973,177.134 411.483,80.0327 411.994,48.1055 412.505,39.3062 413.015,36.9116 413.526,36.2598 414.037,36.082 414.547,36.0317 415.058,36.0161 415.569,36.0107 416.08,36.0083 416.59,36.0068 417.101,36.0054 417.611,36.0044 418.122,36.0034 418.633,36.0029 419.144,36.002 419.654,36.001 420.165,36.001 420.676,36.001 421.187,36.001 421.697,36.0005 422.208,36.0005 422.718,35.9995 423.229,35.9995 423.74,35.9985 424.25,35.9985 424.761,35.9985 425.272,35.9985 425.782,35.998 426.293,35.998 426.804,35.998 427.314,35.998 427.825,35.998 428.336,35.998 428.847,35.998 429.357,35.998 429.868,35.998 430.378,35.998 430.889,35.9971 431.4,35.9971 431.911,35.9971 432.421,35.9971 432.932,35.9971 433.443,35.9971 433.953,35.9971 434.464,35.9971 434.975,35.9971 435.485,35.9971 435.996,35.9971 436.507,35.9961 437.018,35.9961 437.528,35.9961 438.039,35.9961 438.549,35.9961 439.06,35.9961 439.571,35.9961 440.082,35.9961 440.592,35.9961 441.103,35.9961 441.614,35.9961 442.124,35.9961 442.635,35.9961 443.146,35.9961 443.656,35.9961 444.167,35.9961 444.678,35.9961 445.188,35.9961 445.699,35.9961 446.21,35.9961 446.72,35.9961 447.231,35.9951 447.742,35.9951 448.252,35.9951 448.763,35.9951 449.274,35.9951 449.785,35.9951 450.295,35.9951 450.806,35.9951 451.316,35.9951 451.827,35.9951 452.338,35.9951 452.849,35.9951 453.359,35.9951 453.87,35.9951 454.381,35.9951 454.891,35.9951 455.402,35.9951 455.913,35.9951 456.423,35.9951 456.934,35.9951 457.445,35.9951 457.956,35.9951 458.466,35.9951 458.977,35.9951 459.487,35.9951 459.998,35.9951 460.509,35.9951 461.02,35.9951 461.53,35.9951 462.041,35.9951 462.552,35.9951 463.062,35.9951 463.573,35.9951 464.083,35.9951 464.594,35.9951 465.105,35.9951 465.616,35.9951 466.126,35.9951 466.637,35.9951 467.147,35.9951 467.658,35.9951 468.169,35.9951 468.68,35.9951 469.19,35.9961 469.701,35.9961 470.212,35.9961 470.723,35.9961 471.233,35.9961 471.744,35.9961 472.254,35.9961 472.765,35.9961 473.276,35.9961 473.787,35.9961 474.297,35.9961 474.808,35.9961 475.318,35.9961 475.829,35.9961 476.34,35.9961 476.851,35.9961 477.361,35.9961 477.872,35.9961 478.383,35.9961 478.894,35.9961 479.404,35.9961 479.915,35.9971 480.425,35.9971 480.936,35.9971 481.447,35.9971 481.958,35.9971 482.468,35.9971 482.979,35.9971 483.489,35.9971 484,35.9971 484.511,35.9971 485.021,35.998 485.532,35.998 486.043,35.998 486.554,35.998 487.064,35.998 487.575,35.998 488.085,35.998 488.596,35.998 489.107,35.998 489.618,35.998 490.128,35.998 490.639,35.9985 491.15,35.9985 491.661,35.9985 492.171,35.9985 492.682,35.9995 493.192,35.9995 493.703,36.0005 494.214,36.0005 494.725,36.001 495.235,36.001 495.746,36.001 496.256,36.002 496.767,36.002 497.278,36.0029 497.789,36.0034 498.299,36.0054 498.81,36.0054 499.321,36.0068 499.832,36.0083 500.342,36.0103 500.853,36.0127 501.363,36.0151 501.874,36.019 502.385,36.0259 502.896,36.0356 503.406,36.0547 503.917,36.1108 504.428,37.4653 504.938,42.0449 505.449,46.6265 505.959,51.209 506.47,55.7915 506.981,60.3726 507.492,64.9556 508.002,69.5376 508.513,74.1191 509.023,78.7012 509.534,83.2842 510.045,87.8662 510.556,92.4473 511.066,97.0298 511.577,101.612 512.088,106.194 512.598,110.776 513.109,115.358 513.62,119.94 514.13,124.521 514.641,129.104 515.152,133.686 515.663,138.268 516.173,142.85 516.684,147.432 517.194,152.014 517.705,156.596 518.216,161.178 518.727,165.76 519.237,170.341 519.748,174.924 520.259,179.505 520.77,184.086 521.28,188.669" stroke="#0071bc" stroke-linecap="butt" stroke-width="0.5" stroke-linejoin="round" fill="none"/>
   <polyline points="113.245,35.9995 113.756,35.9995 114.266,36.0005 114.777,36.0005 115.288,36.001 115.798,36.001 116.309,36.002 116.82,36.0029 117.331,36.0034 117.841,36.0044 118.352,36.0054 118.862,36.0068 119.373,36.0083 119.884,36.0103 120.395,36.0127 120.905,36.0166 121.416,36.0225 121.927,36.0317 122.438,36.0498 122.948,36.1035 123.458,37.7329 123.969,42.3154 124.48,46.8975 124.991,51.4795 125.501,56.0615 126.012,60.6436 126.522,65.2256 127.033,69.8081 127.544,74.3901 128.055,78.9722 128.565,83.5542 129.076,88.1362 129.587,92.7188 130.098,97.2998 130.608,101.882 131.119,106.465 131.629,111.047 132.14,115.628 132.651,120.21 133.162,124.792 133.672,129.375 134.183,133.956 134.694,138.538 135.204,143.12 135.715,147.702 136.226,152.285 136.736,156.867 137.247,161.449 137.758,166.03 138.269,170.611 138.779,175.193 139.29,179.775 139.8,184.357 140.311,188.939 140.822,193.521 141.333,198.103 141.843,202.685 142.354,207.267 142.865,211.849 143.375,216.43 143.886,221.012 144.396,225.594 144.907,230.176 145.418,234.758 145.929,239.339 146.439,243.921 146.95,248.503 147.461,253.084 147.971,257.666 148.482,262.248 148.993,266.83 149.503,271.411 150.014,275.993 150.525,280.574 151.036,285.156 151.546,289.738 152.057,294.319 152.567,298.901 153.078,303.482 153.589,297.47 154.1,212.479 154.61,95.6636 155.121,52.8696 155.632,40.7256 156.142,37.3286 156.653,36.3818 157.164,36.1162 157.674,36.0405 158.185,36.0186 158.696,36.0103 159.207,36.0078 159.717,36.0054 160.228,36.0044 160.738,36.0034 161.249,36.0029 161.76,36.002 162.271,36.001 162.781,36.001 163.292,36.0005 163.803,36.0005 164.313,35.9995 164.824,35.9995 165.334,35.9995 165.845,35.9985 166.356,35.9985 166.867,35.998 167.377,35.998 167.888,35.998 168.398,35.998 168.909,35.998 169.42,35.998 169.931,35.998 170.441,35.998 170.952,35.998 171.463,35.9971 171.974,35.9971 172.484,35.9971 172.995,35.9971 173.505,35.9971 174.016,35.9971 174.527,35.9971 175.038,35.9971 175.548,35.9961 176.059,35.9961 176.569,35.9961 177.08,35.9961 177.591,35.9961 178.102,35.9961 178.612,35.9961 179.123,35.9961 179.634,35.9961 180.145,35.9961 180.655,35.9961 181.166,35.9961 181.676,35.9961 182.187,35.9961 182.698,35.9951 183.208,35.9951 183.719,35.9951 184.23,35.9951 184.74,35.9951 185.251,35.9951 185.762,35.9951 186.272,35.9951 186.783,35.9951 187.294,35.9951 187.805,35.9951 188.315,35.9951 188.826,35.9951 189.336,35.9951 189.847,35.9951 190.358,35.9951 190.869,35.9951 191.379,35.9951 191.89,35.9951 192.401,35.9951 192.912,35.9951 193.422,35.9951 193.933,35.9951 194.443,35.9951 194.954,35.9951 195.465,35.9951 195.976,35.9951 196.486,35.9951 196.997,35.9951 197.507,35.9951 198.018,35.9951 198.529,35.9951 199.04,35.9951 199.55,35.9951 200.061,35.9951 200.572,35.9951 201.083,35.9951 201.593,35.9951 202.104,35.9951 202.614,35.9951 203.125,35.9951 203.636,35.9951 204.146,35.9951 204.657,35.9951 205.168,35.9951 205.678,35.9951 206.189,35.9951 206.7,35.9951 207.21,35.9951 207.721,35.9951 208.232,35.9951 208.743,35.9951 209.253,35.9951 209.764,35.9951 210.274,35.9951 210.785,35.9951 211.296,35.9951 211.807,35.9951 212.317,35.9951 212.828,35.9951 213.339,35.9951 213.849,35.9951 214.36,35.9951 214.871,35.9951 215.381,35.9951 215.892,35.9951 216.403,35.9951 216.914,35.9951 217.424,35.9951 217.935,35.9951 218.445,35.9951 218.956,35.9951 219.467,35.9951 219.978,35.9951 220.488,35.9951 220.999,35.9951 221.51,35.9951 222.021,35.9951 222.531,35.9951 223.042,35.9951 223.552,35.9961 224.063,35.9961 224.574,35.9961 225.084,35.9961 225.595,35.9961 226.106,35.9961 226.616,35.9961 227.127,35.9961 227.638,35.9961 228.148,35.9961 228.659,35.9961 229.17,35.9961 229.681,35.9961 230.191,35.9961 230.702,35.9971 231.212,35.9971 231.723,35.9971 232.234,35.9971 232.745,35.9971 233.255,35.9971 233.766,35.9971 234.277,35.9971 234.787,35.998 235.298,35.998 235.809,35.998 236.319,35.998 236.83,35.998 237.341,35.998 237.852,35.998 238.362,35.998 238.873,35.9985 239.383,35.9985 239.894,35.9985 240.405,35.9995 240.916,35.9995 241.426,35.9995 241.937,36.0005 242.448,36.001 242.958,36.001 243.469,36.001 243.979,36.002 244.49,36.0029 245.001,36.0034 245.512,36.0044 246.022,36.0054 246.533,36.0068 247.044,36.0083 247.554,36.0107 248.065,36.0137 248.576,36.0186 249.086,36.0244 249.597,36.0347 250.108,36.0571 250.619,36.1421 251.129,38.8784 251.64,43.4604 252.15,48.0425 252.661,52.625 253.172,57.207 253.683,61.7891 254.193,66.3711 254.704,70.9531 255.215,75.5352 255.725,80.1177 256.236,84.6997 256.747,89.2817 257.257,93.8638 257.768,98.4458 258.279,103.028 258.79,107.609 259.3,112.191 259.811,116.773 260.321,121.356 260.832,125.938 261.343,130.52 261.854,135.102 262.364,139.684 262.875,144.266 263.386,148.848 263.896,153.43 264.407,158.011 264.917,162.593 265.428,167.175 265.939,171.757 266.45,176.339 266.96,180.921 267.471,185.503 267.981,190.085 268.492,194.667 269.003,199.248 269.514,203.83 270.024,208.412 270.535,212.994 271.046,217.575 271.557,222.158 272.067,226.739 272.578,231.321 273.088,235.903 273.599,240.484 274.11,245.066 274.621,249.648 275.131,254.229 275.642,258.812 276.152,263.393 276.663,267.975 277.174,272.556 277.685,277.138 278.195,281.72 278.706,286.301 279.217,290.883 279.728,295.465 280.238,300.046 280.749,304.628 281.259,283.528 281.77,179.478 282.281,79.9131 282.792,48.4512 283.302,39.4121 283.813,36.9355 284.324,36.2646 284.834,36.0811 285.345,36.0298 285.855,36.0142 286.366,36.0083 286.877,36.0068 287.388,36.0054 287.898,36.0044 288.409,36.0034 288.919,36.002 289.43,36.002 289.941,36.001 290.452,36.001 290.962,36.0005 291.473,36.0005 291.984,35.9995 292.495,35.9995 293.005,35.9985 293.516,35.9985 294.026,35.9985 294.537,35.998 295.048,35.998 295.559,35.998 296.069,35.998 296.58,35.998 297.09,35.998 297.601,35.998 298.112,35.998 298.623,35.998 299.133,35.9971 299.644,35.9971 300.155,35.9971 300.666,35.9971 301.176,35.9971 301.687,35.9971 302.197,35.9971 302.708,35.9971 303.219,35.9961 303.729,35.9961 304.24,35.9961 304.751,35.9961 305.261,35.9961 305.772,35.9961 306.283,35.9961 306.793,35.9961 307.304,35.9961 307.815,35.9961 308.326,35.9961 308.836,35.9961 309.347,35.9961 309.857,35.9961 310.368,35.9951 310.879,35.9951 311.39,35.9951 311.9,35.9951 312.411,35.9951 312.922,35.9951 313.432,35.9951 313.943,35.9951 314.454,35.9951 314.964,35.9951 315.475,35.9951 315.986,35.9951 316.497,35.9951 317.007,35.9951 317.518,35.9951 318.028,35.9951 318.539,35.9951 319.05,35.9951 319.561,35.9951 320.071,35.9951 320.582,35.9951 321.093,35.9951 321.604,35.9951 322.114,35.9951 322.625,35.9951 323.135,35.9951 323.646,35.9951 324.157,35.9951 324.667,35.9951 325.178,35.9951 325.689,35.9951 326.199,35.9951 326.71,35.9951 327.221,35.9951 327.731,35.9951 328.242,35.9951 328.753,35.9951 329.264,35.9951 329.774,35.9951 330.285,35.9951 330.795,35.9951 331.306,35.9951 331.817,35.9951 332.328,35.9951 332.838,35.9951 333.349,35.9951 333.86,35.9951 334.37,35.9951 334.881,35.9951 335.392,35.9951 335.902,35.9951 336.413,35.9951 336.924,35.9951 337.435,35.9951 337.945,35.9951 338.456,35.9951 338.966,35.9951 339.477,35.9951 339.988,35.9951 340.499,35.9951 341.009,35.9951 341.52,35.9951 342.031,35.9951 342.542,35.9951 343.052,35.9951 343.562,35.9951 344.073,35.9951 344.584,35.9951 345.095,35.9951 345.605,35.9951 346.116,35.9951 346.626,35.9951 347.137,35.9951 347.648,35.9951 348.159,35.9951 348.669,35.9951 349.18,35.9951 349.691,35.9951 350.202,35.9951 350.712,35.9951 351.223,35.9961 351.733,35.9961 352.244,35.9961 352.755,35.9961 353.266,35.9961 353.776,35.9961 354.287,35.9961 354.798,35.9961 355.308,35.9961 355.819,35.9961 356.33,35.9961 356.84,35.9961 357.351,35.9961 357.862,35.9971 358.373,35.9971 358.883,35.9971 359.394,35.9971 359.904,35.9971 360.415,35.9971 360.926,35.9971 361.437,35.9971 361.947,35.998 362.458,35.998 362.969,35.998 363.479,35.998 363.99,35.998 364.5,35.998 365.011,35.998 365.522,35.998 366.033,35.998 366.543,35.9985 367.054,35.9985 367.564,35.9985 368.075,35.9995 368.586,35.9995 369.097,36.0005 369.607,36.0005 370.118,36.001 370.629,36.001 371.14,36.001 371.65,36.002 372.161,36.0029 372.671,36.0034 373.182,36.0054 373.693,36.0059 374.204,36.0078 374.714,36.0083 375.225,36.0117 375.735,36.0151 376.246,36.019 376.757,36.0269 377.268,36.0391 377.778,36.0669 378.289,36.2275 378.8,40.0239 379.311,44.6064 379.821,49.189 380.332,53.77 380.842,58.353 381.353,62.9351 381.864,67.5166 382.375,72.0996 382.885,76.6816 383.396,81.2627 383.907,85.8447 384.417,90.4277 384.928,95.0103 385.438,99.5913 385.949,104.173 386.46,108.755 386.971,113.337 387.481,117.92 387.992,122.502 388.502,127.084 389.013,131.666 389.524,136.248 390.035,140.83 390.545,145.412 391.056,149.993 391.567,154.575 392.078,159.157 392.588,163.739 393.099,168.321 393.609,172.903 394.12,177.484 394.631,182.067 395.142,186.648 395.652,191.23 396.163,195.812 396.673,200.395 397.184,204.976 397.695,209.557 398.206,214.14 398.716,218.721 399.227,223.303 399.738,227.885 400.249,232.466 400.759,237.048 401.27,241.63 401.78,246.211 402.291,250.793 402.802,255.375 403.312,259.957 403.823,264.538 404.334,269.121 404.845,273.702 405.355,278.283 405.866,282.866 406.376,287.446 406.887,292.028 407.398,296.61 407.909,301.191 408.419,305.69 408.93,265.522 409.44,145.754 409.951,67.6353 410.462,44.873 410.973,38.4839 411.483,36.7021 411.994,36.2061 412.505,36.0669 413.015,36.0259 413.526,36.0137 414.037,36.0083 414.547,36.0059 415.058,36.0054 415.569,36.0044 416.08,36.0029 416.59,36.002 417.101,36.001 417.611,36.001 418.122,36.001 418.633,36.0005 419.144,36.0005 419.654,35.9995 420.165,35.9995 420.676,35.9985 421.187,35.9985 421.697,35.9985 422.208,35.998 422.718,35.998 423.229,35.998 423.74,35.998 424.25,35.998 424.761,35.998 425.272,35.998 425.782,35.998 426.293,35.998 426.804,35.9971 427.314,35.9971 427.825,35.9971 428.336,35.9971 428.847,35.9971 429.357,35.9971 429.868,35.9971 430.378,35.9971 430.889,35.9961 431.4,35.9961 431.911,35.9961 432.421,35.9961 432.932,35.9961 433.443,35.9961 433.953,35.9961 434.464,35.9961 434.975,35.9961 435.485,35.9961 435.996,35.9961 436.507,35.9961 437.018,35.9961 437.528,35.9951 438.039,35.9951 438.549,35.9951 439.06,35.9951 439.571,35.9951 440.082,35.9951 440.592,35.9951 441.103,35.9951 441.614,35.9951 442.124,35.9951 442.635,35.9951 443.146,35.9951 443.656,35.9951 444.167,35.9951 444.678,35.9951 445.188,35.9951 445.699,35.9951 446.21,35.9951 446.72,35.9951 447.231,35.9951 447.742,35.9951 448.252,35.9951 448.763,35.9951 449.274,35.9951 449.785,35.9951 450.295,35.9951 450.806,35.9951 451.316,35.9951 451.827,35.9951 452.338,35.9951 452.849,35.9951 453.359,35.9951 453.87,35.9951 454.381,35.9951 454.891,35.9951 455.402,35.9951 455.913,35.9951 456.423,35.9951 456.934,35.9951 457.445,35.9951 457.956,35.9951 458.466,35.9951 458.977,35.9951 459.487,35.9951 459.998,35.9951 460.509,35.9951 461.02,35.9951 461.53,35.9951 462.041,35.9951 462.552,35.9951 463.062,35.9951 463.573,35.9951 464.083,35.9951 464.594,35.9951 465.105,35.9951 465.616,35.9951 466.126,35.9951 466.637,35.9951 467.147,35.9951 467.658,35.9951 468.169,35.9951 468.68,35.9951 469.19,35.9951 469.701,35.9951 470.212,35.9951 470.723,35.9951 471.233,35.9951 471.744,35.9951 472.254,35.9951 472.765,35.9951 473.276,35.9951 473.787,35.9951 474.297,35.9951 474.808,35.9951 475.318,35.9951 475.829,35.9951 476.34,35.9951 476.851,35.9951 477.361,35.9951 477.872,35.9951 478.383,35.9961 478.894,35.9961 479.404,35.9961 479.915,35.9961 480.425,35.9961 480.936,35.9961 481.447,35.9961 481.958,35.9961 482.468,35.9961 482.979,35.9961 483.489,35.9961 484,35.9961 484.511,35.9961 485.021,35.9961 485.532,35.9971 486.043,35.9971 486.554,35.9971 487.064,35.9971 487.575,35.9971 488.085,35.9971 488.596,35.9971 489.107,35.9971 489.618,35.998 490.128,35.998 490.639,35.998 491.15,35.998 491.661,35.998 492.171,35.998 492.682,35.998 493.192,35.998 493.703,35.998 494.214,35.9985 494.725,35.9985 495.235,35.9985 495.746,35.9995 496.256,35.9995 496.767,36.0005 497.278,36.0005 497.789,36.001 498.299,36.001 498.81,36.001 499.321,36.002 499.832,36.0029 500.342,36.0044 500.853,36.0054 501.363,36.0059 501.874,36.0078 502.385,36.0093 502.896,36.0127 503.406,36.0161 503.917,36.021 504.428,36.0293 504.938,36.0439 505.449,36.082 505.959,36.7285 506.47,41.0991 506.981,45.6812 507.492,50.2632 508.002,54.8452 508.513,59.4277 509.023,64.0098 509.534,68.5918 510.045,73.1738 510.556,77.7559 511.066,82.3374 511.577,86.9204 512.088,91.5024 512.598,96.0845 513.109,100.666 513.62,105.248 514.13,109.831 514.641,114.412 515.152,118.994 515.663,123.576 516.173,128.159 516.684,132.74 517.194,137.322 517.705,141.904 518.216,146.486 518.727,151.067 519.237,155.649 519.748,160.232 520.259,164.813 520.77,169.396 521.28,173.978" stroke="#d85218" stroke-linecap="butt" stroke-width="0.5" stroke-linejoin="round" fill="none"/>
   <polyline points="113.245,35.998 113.756,35.998 114.266,35.9985 114.777,35.9985 115.288,35.9995 115.798,35.9995 116.309,36.0005 116.82,36.0005 117.331,36.001 117.841,36.001 118.352,36.002 118.862,36.0029 119.373,36.0034 119.884,36.0044 120.395,36.0054 120.905,36.0078 121.416,36.0093 121.927,36.0127 122.438,36.0161 122.948,36.0225 123.458,36.0322 123.969,36.0557 124.48,36.1611 124.991,39.4644 125.501,44.0464 126.012,48.6284 126.522,53.2104 127.033,57.793 127.544,62.375 128.055,66.957 128.565,71.5391 129.076,76.1211 129.587,80.7031 130.098,85.2856 130.608,89.8677 131.119,94.4497 131.629,99.0317 132.14,103.613 132.651,108.195 133.162,112.778 133.672,117.359 134.183,121.941 134.694,126.524 135.204,131.106 135.715,135.687 136.226,140.27 136.736,144.852 137.247,149.434 137.758,154.015 138.269,158.597 138.779,163.179 139.29,167.761 139.8,172.343 140.311,176.925 140.822,181.507 141.333,186.088 141.843,190.67 142.354,195.252 142.865,199.834 143.375,204.416 143.886,208.998 144.396,213.579 144.907,218.161 145.418,222.743 145.929,227.325 146.439,231.906 146.95,236.488 147.461,241.07 147.971,245.652 148.482,250.233 148.993,254.815 149.503,259.397 150.014,263.979 150.525,268.56 151.036,273.142 151.546,277.724 152.057,282.305 152.567,245.428 153.078,128.009 153.589,62.23 154.1,43.2793 154.61,38.0181 155.121,36.5664 155.632,36.165 156.142,36.0532 156.653,36.021 157.164,36.0107 157.674,36.0068 158.185,36.0054 158.696,36.0034 159.207,36.0029 159.717,36.002 160.228,36.001 160.738,36.001 161.249,36.0005 161.76,36.0005 162.271,35.9995 162.781,35.9995 163.292,35.9985 163.803,35.9985 164.313,35.998 164.824,35.998 165.334,35.998 165.845,35.998 166.356,35.998 166.867,35.998 167.377,35.998 167.888,35.998 168.398,35.9971 168.909,35.9971 169.42,35.9971 169.931,35.9971 170.441,35.9971 170.952,35.9971 171.463,35.9961 171.974,35.9961 172.484,35.9961 172.995,35.9961 173.505,35.9961 174.016,35.9961 174.527,35.9961 175.038,35.9961 175.548,35.9961 176.059,35.9961 176.569,35.9961 177.08,35.9951 177.591,35.9951 178.102,35.9951 178.612,35.9951 179.123,35.9951 179.634,35.9951 180.145,35.9951 180.655,35.9951 181.166,35.9951 181.676,35.9951 182.187,35.9951 182.698,35.9951 183.208,35.9951 183.719,35.9951 184.23,35.9951 184.74,35.9951 185.251,35.9951 185.762,35.9951 186.272,35.9951 186.783,35.9951 187.294,35.9951 187.805,35.9951 188.315,35.9951 188.826,35.9951 189.336,35.9951 189.847,35.9946 190.358,35.9946 190.869,35.9946 191.379,35.9946 191.89,35.9946 192.401,35.9946 192.912,35.9946 193.422,35.9946 193.933,35.9946 194.443,35.9946 194.954,35.9946 195.465,35.9946 195.976,35.9946 196.486,35.9946 196.997,35.9946 197.507,35.9946 198.018,35.9946 198.529,35.9946 199.04,35.9946 199.55,35.9946 200.061,35.9946 200.572,35.9946 201.083,35.9946 201.593,35.9946 202.104,35.9946 202.614,35.9946 203.125,35.9946 203.636,35.9946 204.146,35.9946 204.657,35.9946 205.168,35.9946 205.678,35.9946 206.189,35.9946 206.7,35.9946 207.21,35.9946 207.721,35.9946 208.232,35.9946 208.743,35.9946 209.253,35.9946 209.764,35.9946 210.274,35.9946 210.785,35.9946 211.296,35.9946 211.807,35.9946 212.317,35.9946 212.828,35.9946 213.339,35.9946 213.849,35.9946 214.36,35.9946 214.871,35.9946 215.381,35.9946 215.892,35.9946 216.403,35.9951 216.914,35.9951 217.424,35.9951 217.935,35.9951 218.445,35.9951 218.956,35.9951 219.467,35.9951 219.978,35.9951 220.488,35.9951 220.999,35.9951 221.51,35.9951 222.021,35.9951 222.531,35.9951 223.042,35.9951 223.552,35.9951 224.063,35.9951 224.574,35.9951 225.084,35.9951 225.595,35.9951 226.106,35.9951 226.616,35.9951 227.127,35.9951 227.638,35.9951 228.148,35.9951 228.659,35.9951 229.17,35.9961 229.681,35.9961 230.191,35.9961 230.702,35.9961 231.212,35.9961 231.723,35.9961 232.234,35.9961 232.745,35.9961 233.255,35.9961 233.766,35.9961 234.277,35.9971 234.787,35.9971 235.298,35.9971 235.809,35.9971 236.319,35.9971 236.83,35.9971 237.341,35.9971 237.852,35.998 238.362,35.998 238.873,35.998 239.383,35.998 239.894,35.998 240.405,35.998 240.916,35.998 241.426,35.998 241.937,35.9985 242.448,35.9985 242.958,35.9995 243.469,35.9995 243.979,36.0005 244.49,36.0005 245.001,36.001 245.512,36.001 246.022,36.002 246.533,36.0029 247.044,36.0034 247.554,36.0054 248.065,36.0059 248.576,36.0078 249.086,36.0103 249.597,36.0127 250.108,36.0176 250.619,36.0244 251.129,36.0366 251.64,36.0669 252.15,36.3438 252.661,40.5488 253.172,45.1309 253.683,49.7129 254.193,54.2949 254.704,58.877 255.215,63.459 255.725,68.0415 256.236,72.6235 256.747,77.2056 257.257,81.7876 257.768,86.3696 258.279,90.9521 258.79,95.5342 259.3,100.116 259.811,104.698 260.321,109.28 260.832,113.862 261.343,118.445 261.854,123.026 262.364,127.608 262.875,132.19 263.386,136.772 263.896,141.354 264.407,145.936 264.917,150.518 265.428,155.1 265.939,159.681 266.45,164.264 266.96,168.846 267.471,173.427 267.981,178.009 268.492,182.591 269.003,187.173 269.514,191.755 270.024,196.337 270.535,200.918 271.046,205.5 271.557,210.082 272.067,214.664 272.578,219.246 273.088,223.828 273.599,228.409 274.11,232.991 274.621,237.573 275.131,242.155 275.642,246.736 276.152,251.317 276.663,255.9 277.174,260.481 277.685,265.062 278.195,269.645 278.706,274.227 279.217,278.808 279.728,281.334 280.238,221.117 280.749,105.57 281.259,55.7759 281.77,41.5249 282.281,37.5459 282.792,36.4395 283.302,36.1304 283.813,36.0439 284.324,36.0176 284.834,36.0093 285.345,36.0059 285.855,36.0044 286.366,36.0034 286.877,36.002 287.388,36.001 287.898,36.001 288.409,36.001 288.919,36.0005 289.43,35.9995 289.941,35.9995 290.452,35.9985 290.962,35.9985 291.473,35.9985 291.984,35.998 292.495,35.998 293.005,35.998 293.516,35.998 294.026,35.998 294.537,35.998 295.048,35.998 295.559,35.998 296.069,35.9971 296.58,35.9971 297.09,35.9971 297.601,35.9971 298.112,35.9971 298.623,35.9971 299.133,35.9961 299.644,35.9961 300.155,35.9961 300.666,35.9961 301.176,35.9961 301.687,35.9961 302.197,35.9961 302.708,35.9961 303.219,35.9961 303.729,35.9961 304.24,35.9961 304.751,35.9951 305.261,35.9951 305.772,35.9951 306.283,35.9951 306.793,35.9951 307.304,35.9951 307.815,35.9951 308.326,35.9951 308.836,35.9951 309.347,35.9951 309.857,35.9951 310.368,35.9951 310.879,35.9951 311.39,35.9951 311.9,35.9951 312.411,35.9951 312.922,35.9951 313.432,35.9951 313.943,35.9951 314.454,35.9951 314.964,35.9951 315.475,35.9951 315.986,35.9951 316.497,35.9951 317.007,35.9946 317.518,35.9946 318.028,35.9946 318.539,35.9946 319.05,35.9946 319.561,35.9946 320.071,35.9946 320.582,35.9946 321.093,35.9946 321.604,35.9946 322.114,35.9946 322.625,35.9946 323.135,35.9946 323.646,35.9946 324.157,35.9946 324.667,35.9946 325.178,35.9946 325.689,35.9946 326.199,35.9946 326.71,35.9946 327.221,35.9946 327.731,35.9946 328.242,35.9946 328.753,35.9946 329.264,35.9946 329.774,35.9946 330.285,35.9946 330.795,35.9946 331.306,35.9946 331.817,35.9946 332.328,35.9946 332.838,35.9946 333.349,35.9946 333.86,35.9946 334.37,35.9946 334.881,35.9946 335.392,35.9946 335.902,35.9946 336.413,35.9946 336.924,35.9946 337.435,35.9946 337.945,35.9946 338.456,35.9946 338.966,35.9946 339.477,35.9946 339.988,35.9946 340.499,35.9946 341.009,35.9946 341.52,35.9946 342.031,35.9946 342.542,35.9946 343.052,35.9946 343.562,35.9946 344.073,35.9951 344.584,35.9951 345.095,35.9951 345.605,35.9951 346.116,35.9951 346.626,35.9951 347.137,35.9951 347.648,35.9951 348.159,35.9951 348.669,35.9951 349.18,35.9951 349.691,35.9951 350.202,35.9951 350.712,35.9951 351.223,35.9951 351.733,35.9951 352.244,35.9951 352.755,35.9951 353.266,35.9951 353.776,35.9951 354.287,35.9951 354.798,35.9951 355.308,35.9951 355.819,35.9951 356.33,35.9961 356.84,35.9961 357.351,35.9961 357.862,35.9961 358.373,35.9961 358.883,35.9961 359.394,35.9961 359.904,35.9961 360.415,35.9961 360.926,35.9961 361.437,35.9961 361.947,35.9971 362.458,35.9971 362.969,35.9971 363.479,35.9971 363.99,35.9971 364.5,35.9971 365.011,35.9971 365.522,35.998 366.033,35.998 366.543,35.998 367.054,35.998 367.564,35.998 368.075,35.998 368.586,35.998 369.097,35.9985 369.607,35.9985 370.118,35.9985 370.629,35.9995 371.14,35.9995 371.65,36.0005 372.161,36.0005 372.671,36.001 373.182,36.001 373.693,36.002 374.204,36.0029 374.714,36.0044 375.225,36.0054 375.735,36.0059 376.246,36.0083 376.757,36.0107 377.268,36.0142 377.778,36.019 378.289,36.0269 378.8,36.0415 379.311,36.0825 379.821,37.3481 380.332,41.9277 380.842,46.5103 381.353,51.0923 381.864,55.6743 382.375,60.2563 382.885,64.8384 383.396,69.4209 383.907,74.0034 384.417,78.585 384.928,83.167 385.438,87.749 385.949,92.3306 386.46,96.9136 386.971,101.496 387.481,106.078 387.992,110.659 388.502,115.241 389.013,119.823 389.524,124.405 390.035,128.987 390.545,133.569 391.056,138.152 391.567,142.733 392.078,147.315 392.588,151.897 393.099,156.479 393.609,161.061 394.12,165.643 394.631,170.225 395.142,174.807 395.652,179.389 396.163,183.971 396.673,188.553 397.184,193.134 397.695,197.716 398.206,202.297 398.716,206.879 399.227,211.461 399.738,216.043 400.249,220.625 400.759,225.206 401.27,229.789 401.78,234.37 402.291,238.952 402.802,243.534 403.312,248.115 403.823,252.697 404.334,257.279 404.845,261.86 405.355,266.442 405.866,271.024 406.376,275.605 406.887,280.187 407.398,275.384 407.909,190.485 408.419,84.4946 408.93,49.4971 409.44,39.6851 409.951,37.0112 410.462,36.2847 410.973,36.085 411.483,36.0308 411.994,36.0137 412.505,36.0083 413.015,36.0054 413.526,36.0044 414.037,36.0029 414.547,36.002 415.058,36.001 415.569,36.001 416.08,36.001 416.59,36.0005 417.101,35.9995 417.611,35.9995 418.122,35.9985 418.633,35.9985 419.144,35.9985 419.654,35.998 420.165,35.998 420.676,35.998 421.187,35.998 421.697,35.998 422.208,35.998 422.718,35.998 423.229,35.9971 423.74,35.9971 424.25,35.9971 424.761,35.9971 425.272,35.9971 425.782,35.9971 426.293,35.9971 426.804,35.9961 427.314,35.9961 427.825,35.9961 428.336,35.9961 428.847,35.9961 429.357,35.9961 429.868,35.9961 430.378,35.9961 430.889,35.9961 431.4,35.9961 431.911,35.9961 432.421,35.9951 432.932,35.9951 433.443,35.9951 433.953,35.9951 434.464,35.9951 434.975,35.9951 435.485,35.9951 435.996,35.9951 436.507,35.9951 437.018,35.9951 437.528,35.9951 438.039,35.9951 438.549,35.9951 439.06,35.9951 439.571,35.9951 440.082,35.9951 440.592,35.9951 441.103,35.9951 441.614,35.9951 442.124,35.9951 442.635,35.9951 443.146,35.9951 443.656,35.9951 444.167,35.9951 444.678,35.9946 445.188,35.9946 445.699,35.9946 446.21,35.9946 446.72,35.9946 447.231,35.9946 447.742,35.9946 448.252,35.9946 448.763,35.9946 449.274,35.9946 449.785,35.9946 450.295,35.9946 450.806,35.9946 451.316,35.9946 451.827,35.9946 452.338,35.9946 452.849,35.9946 453.359,35.9946 453.87,35.9946 454.381,35.9946 454.891,35.9946 455.402,35.9946 455.913,35.9946 456.423,35.9946 456.934,35.9946 457.445,35.9946 457.956,35.9946 458.466,35.9946 458.977,35.9946 459.487,35.9946 459.998,35.9946 460.509,35.9946 461.02,35.9946 461.53,35.9946 462.041,35.9946 462.552,35.9946 463.062,35.9946 463.573,35.9946 464.083,35.9946 464.594,35.9946 465.105,35.9946 465.616,35.9946 466.126,35.9946 466.637,35.9946 467.147,35.9946 467.658,35.9946 468.169,35.9946 468.68,35.9946 469.19,35.9946 469.701,35.9946 470.212,35.9946 470.723,35.9946 471.233,35.9946 471.744,35.9951 472.254,35.9951 472.765,35.9951 473.276,35.9951 473.787,35.9951 474.297,35.9951 474.808,35.9951 475.318,35.9951 475.829,35.9951 476.34,35.9951 476.851,35.9951 477.361,35.9951 477.872,35.9951 478.383,35.9951 478.894,35.9951 479.404,35.9951 479.915,35.9951 480.425,35.9951 480.936,35.9951 481.447,35.9951 481.958,35.9951 482.468,35.9951 482.979,35.9951 483.489,35.9951 484,35.9961 484.511,35.9961 485.021,35.9961 485.532,35.9961 486.043,35.9961 486.554,35.9961 487.064,35.9961 487.575,35.9961 488.085,35.9961 488.596,35.9961 489.107,35.9961 489.618,35.9971 490.128,35.9971 490.639,35.9971 491.15,35.9971 491.661,35.9971 492.171,35.9971 492.682,35.9971 493.192,35.998 493.703,35.998 494.214,35.998 494.725,35.998 495.235,35.998 495.746,35.998 496.256,35.998 496.767,35.9985 497.278,35.9985 497.789,35.9985 498.299,35.9995 498.81,35.9995 499.321,36.0005 499.832,36.001 500.342,36.001 500.853,36.001 501.363,36.002 501.874,36.0034 502.385,36.0044 502.896,36.0054 503.406,36.0068 503.917,36.0083 504.428,36.0117 504.938,36.0151 505.449,36.02 505.959,36.0293 506.47,36.0479 506.981,36.1099 507.492,38.4004 508.002,42.9819 508.513,47.564 509.023,52.147 509.534,56.728 510.045,61.3105 510.556,65.8931 511.066,70.4746 511.577,75.0566 512.088,79.6387 512.598,84.2217 513.109,88.8032 513.62,93.3853 514.13,97.9673 514.641,102.549 515.152,107.131 515.663,111.714 516.173,116.296 516.684,120.877 517.194,125.459 517.705,130.042 518.216,134.624 518.727,139.205 519.237,143.787 519.748,148.369 520.259,152.951 520.77,157.533 521.28,162.115" stroke="#ecb01f" stroke-linecap="butt" stroke-width="0.5" stroke-linejoin="round" fill="none"/>
  </g>
  <clipPath id="cp00576432">
   <polygon points="0,432 576,432 576,0 0,0"/>
  </clipPath>
  <g clip-path="url(#cp00576432)">
   <polygon points="453.934,372.83 509.63,372.83 509.63,330.668 453.934,330.668" shape-rendering="crispEdges" fill="#ffffff"/>
   <polyline stroke-dasharray="16,0" points="453.934,372.83 509.63,372.83" stroke="#262626" stroke-linecap="square" stroke-width="0.5" stroke-linejoin="miter" fill="none"/>
   <polyline stroke-dasharray="16,0" points="453.934,330.668 509.63,330.668" stroke="#262626" stroke-linecap="square" stroke-width="0.5" stroke-linejoin="miter" fill="none"/>
   <polyline stroke-dasharray="16,0" points="453.934,372.83 453.934,330.668" stroke="#262626" stroke-linecap="square" stroke-width="0.5" stroke-linejoin="miter" fill="none"/>
   <polyline stroke-dasharray="16,0" points="509.63,372.83 509.63,330.668" stroke="#262626" stroke-linecap="square" stroke-width="0.5" stroke-linejoin="miter" fill="none"/>
   <text font-size="9" font-family="FreeSans" font-weight="normal" font-style="normal" xml:space="preserve" transform="translate(482.575,341.695) rotate(-0,-0,-4)">
    <tspan x="0 5 10 15 17 " y="-0" fill="rgb(0,0,0)">100 V</tspan>
   </text>
   <text font-size="9" font-family="FreeSans" font-weight="normal" font-style="normal" xml:space="preserve" transform="translate(482.575,355.749) rotate(-0,-0,-4)">
    <tspan x="0 5 10 15 17 " y="-0" fill="rgb(0,0,0)">110 V</tspan>
   </text>
   <text font-size="9" font-family="FreeSans" font-weight="normal" font-style="normal" xml:space="preserve" transform="translate(482.575,369.803) rotate(-0,-0,-4)">
    <tspan x="0 5 10 15 17 " y="-0" fill="rgb(0,0,0)">120 V</tspan>
   </text>
   <polyline points="457.332,337.695 479.177,337.695" stroke="#0071bc" stroke-linecap="butt" stroke-width="0.5" stroke-linejoin="round" fill="none"/>
   <polyline points="457.332,351.749 479.177,351.749" stroke="#d85218" stroke-linecap="butt" stroke-width="0.5" stroke-linejoin="round" fill="none"/>
   <polyline points="457.332,365.803 479.177,365.803" stroke="#ecb01f" stroke-linecap="butt" stroke-width="0.5" stroke-linejoin="round" fill="none"/>
  </g>
 </g>
</svg>
