<?xml version='1.0' encoding='UTF-8' standalone='no'?>
<svg xmlns="http://www.w3.org/2000/svg" xmlns:xlink="http://www.w3.org/1999/xlink" width="576pt" viewBox="0 0 576 432" height="432pt">
 <title>gl2ps_renderer figure</title>
 <desc>
Creator: GL2PS 1.4.0, (C) 1999-2017 C. Geuzaine
For: Octave
CreationDate: Sun Nov 22 22:08:52 2020
</desc>
 <defs/>
 <polygon fill="#ffffff" points="0,0 576,0 576,432 0,432"/>
 <g>
  <polygon shape-rendering="crispEdges" fill="#ffffff" points="0,432 576,432 576,0 0,0"/>
  <clipPath id="cp00576432">
   <polygon points="0,432 576,432 576,0 0,0"/>
  </clipPath>
  <g clip-path="url(#cp00576432)">
   <polygon shape-rendering="crispEdges" fill="#ffffff" points="74.8799,384.48 521.28,384.48 521.28,32.3999 74.8799,32.3999"/>
   <polyline stroke="#262626" stroke-linecap="butt" stroke-opacity="0.15" stroke-linejoin="miter" fill="none" points="74.8799,384.48 74.8799,32.3999" stroke-width="0.5" stroke-dasharray="16,0"/>
   <polyline stroke="#262626" stroke-linecap="butt" stroke-opacity="0.15" stroke-linejoin="miter" fill="none" points="149.28,384.48 149.28,32.3999" stroke-width="0.5" stroke-dasharray="16,0"/>
   <polyline stroke="#262626" stroke-linecap="butt" stroke-opacity="0.15" stroke-linejoin="miter" fill="none" points="223.68,384.48 223.68,32.3999" stroke-width="0.5" stroke-dasharray="16,0"/>
   <polyline stroke="#262626" stroke-linecap="butt" stroke-opacity="0.15" stroke-linejoin="miter" fill="none" points="298.08,384.48 298.08,32.3999" stroke-width="0.5" stroke-dasharray="16,0"/>
   <polyline stroke="#262626" stroke-linecap="butt" stroke-opacity="0.15" stroke-linejoin="miter" fill="none" points="372.48,384.48 372.48,32.3999" stroke-width="0.5" stroke-dasharray="16,0"/>
   <polyline stroke="#262626" stroke-linecap="butt" stroke-opacity="0.15" stroke-linejoin="miter" fill="none" points="446.88,384.48 446.88,32.3999" stroke-width="0.5" stroke-dasharray="16,0"/>
   <polyline stroke="#262626" stroke-linecap="butt" stroke-opacity="0.15" stroke-linejoin="miter" fill="none" points="521.28,384.48 521.28,32.3999" stroke-width="0.5" stroke-dasharray="16,0"/>
   <polyline stroke="#262626" stroke-linecap="butt" stroke-linejoin="miter" fill="none" points="74.8799,384.48 74.8799,380.015" stroke-width="0.5"/>
   <polyline stroke="#262626" stroke-linecap="butt" stroke-linejoin="miter" fill="none" points="74.8799,32.3999 74.8799,36.8652" stroke-width="0.5"/>
   <polyline stroke="#262626" stroke-linecap="butt" stroke-linejoin="miter" fill="none" points="149.28,384.48 149.28,380.015" stroke-width="0.5"/>
   <polyline stroke="#262626" stroke-linecap="butt" stroke-linejoin="miter" fill="none" points="149.28,32.3999 149.28,36.8652" stroke-width="0.5"/>
   <polyline stroke="#262626" stroke-linecap="butt" stroke-linejoin="miter" fill="none" points="223.68,384.48 223.68,380.015" stroke-width="0.5"/>
   <polyline stroke="#262626" stroke-linecap="butt" stroke-linejoin="miter" fill="none" points="223.68,32.3999 223.68,36.8652" stroke-width="0.5"/>
   <polyline stroke="#262626" stroke-linecap="butt" stroke-linejoin="miter" fill="none" points="298.08,384.48 298.08,380.015" stroke-width="0.5"/>
   <polyline stroke="#262626" stroke-linecap="butt" stroke-linejoin="miter" fill="none" points="298.08,32.3999 298.08,36.8652" stroke-width="0.5"/>
   <polyline stroke="#262626" stroke-linecap="butt" stroke-linejoin="miter" fill="none" points="372.48,384.48 372.48,380.015" stroke-width="0.5"/>
   <polyline stroke="#262626" stroke-linecap="butt" stroke-linejoin="miter" fill="none" points="372.48,32.3999 372.48,36.8652" stroke-width="0.5"/>
   <polyline stroke="#262626" stroke-linecap="butt" stroke-linejoin="miter" fill="none" points="446.88,384.48 446.88,380.015" stroke-width="0.5"/>
   <polyline stroke="#262626" stroke-linecap="butt" stroke-linejoin="miter" fill="none" points="446.88,32.3999 446.88,36.8652" stroke-width="0.5"/>
   <polyline stroke="#262626" stroke-linecap="butt" stroke-linejoin="miter" fill="none" points="521.28,384.48 521.28,380.015" stroke-width="0.5"/>
   <polyline stroke="#262626" stroke-linecap="butt" stroke-linejoin="miter" fill="none" points="521.28,32.3999 521.28,36.8652" stroke-width="0.5"/>
   <text font-style="normal" font-family="FreeSans" transform="translate(71.88,399.982) rotate(-0,3,-8)" font-size="10" font-weight="normal" xml:space="preserve">
    <tspan fill="rgb(38,38,38)" x="0 " y="-0">0</tspan>
   </text>
   <text font-style="normal" font-family="FreeSans" transform="translate(138.78,399.982) rotate(-0,10.5,-8)" font-size="10" font-weight="normal" xml:space="preserve">
    <tspan fill="rgb(38,38,38)" x="0 6 9 15 " y="-0">0.01</tspan>
   </text>
   <text font-style="normal" font-family="FreeSans" transform="translate(213.18,399.982) rotate(-0,10.5,-8)" font-size="10" font-weight="normal" xml:space="preserve">
    <tspan fill="rgb(38,38,38)" x="0 6 9 15 " y="-0">0.02</tspan>
   </text>
   <text font-style="normal" font-family="FreeSans" transform="translate(287.58,399.982) rotate(-0,10.5,-8)" font-size="10" font-weight="normal" xml:space="preserve">
    <tspan fill="rgb(38,38,38)" x="0 6 9 15 " y="-0">0.03</tspan>
   </text>
   <text font-style="normal" font-family="FreeSans" transform="translate(361.98,399.982) rotate(-0,10.5,-8)" font-size="10" font-weight="normal" xml:space="preserve">
    <tspan fill="rgb(38,38,38)" x="0 6 9 15 " y="-0">0.04</tspan>
   </text>
   <text font-style="normal" font-family="FreeSans" transform="translate(436.38,399.982) rotate(-0,10.5,-8)" font-size="10" font-weight="normal" xml:space="preserve">
    <tspan fill="rgb(38,38,38)" x="0 6 9 15 " y="-0">0.05</tspan>
   </text>
   <text font-style="normal" font-family="FreeSans" transform="translate(510.78,399.982) rotate(-0,10.5,-8)" font-size="10" font-weight="normal" xml:space="preserve">
    <tspan fill="rgb(38,38,38)" x="0 6 9 15 " y="-0">0.06</tspan>
   </text>
   <polyline stroke="#262626" stroke-linecap="butt" stroke-opacity="0.15" stroke-linejoin="miter" fill="none" points="74.8799,384.48 521.28,384.48" stroke-width="0.5" stroke-dasharray="16,0"/>
   <polyline stroke="#262626" stroke-linecap="butt" stroke-opacity="0.15" stroke-linejoin="miter" fill="none" points="74.8799,325.8 521.28,325.8" stroke-width="0.5" stroke-dasharray="16,0"/>
   <polyline stroke="#262626" stroke-linecap="butt" stroke-opacity="0.15" stroke-linejoin="miter" fill="none" points="74.8799,267.12 521.28,267.12" stroke-width="0.5" stroke-dasharray="16,0"/>
   <polyline stroke="#262626" stroke-linecap="butt" stroke-opacity="0.15" stroke-linejoin="miter" fill="none" points="74.8799,208.44 521.28,208.44" stroke-width="0.5" stroke-dasharray="16,0"/>
   <polyline stroke="#262626" stroke-linecap="butt" stroke-opacity="0.15" stroke-linejoin="miter" fill="none" points="74.8799,149.76 521.28,149.76" stroke-width="0.5" stroke-dasharray="16,0"/>
   <polyline stroke="#262626" stroke-linecap="butt" stroke-opacity="0.15" stroke-linejoin="miter" fill="none" points="74.8799,91.0801 521.28,91.0801" stroke-width="0.5" stroke-dasharray="16,0"/>
   <polyline stroke="#262626" stroke-linecap="butt" stroke-opacity="0.15" stroke-linejoin="miter" fill="none" points="74.8799,32.3999 521.28,32.3999" stroke-width="0.5" stroke-dasharray="16,0"/>
   <polyline stroke="#262626" stroke-linecap="butt" stroke-linejoin="miter" fill="none" points="74.8799,384.48 79.3481,384.48" stroke-width="0.5"/>
   <polyline stroke="#262626" stroke-linecap="butt" stroke-linejoin="miter" fill="none" points="521.28,384.48 516.812,384.48" stroke-width="0.5"/>
   <polyline stroke="#262626" stroke-linecap="butt" stroke-linejoin="miter" fill="none" points="74.8799,325.8 79.3481,325.8" stroke-width="0.5"/>
   <polyline stroke="#262626" stroke-linecap="butt" stroke-linejoin="miter" fill="none" points="521.28,325.8 516.812,325.8" stroke-width="0.5"/>
   <polyline stroke="#262626" stroke-linecap="butt" stroke-linejoin="miter" fill="none" points="74.8799,267.12 79.3481,267.12" stroke-width="0.5"/>
   <polyline stroke="#262626" stroke-linecap="butt" stroke-linejoin="miter" fill="none" points="521.28,267.12 516.812,267.12" stroke-width="0.5"/>
   <polyline stroke="#262626" stroke-linecap="butt" stroke-linejoin="miter" fill="none" points="74.8799,208.44 79.3481,208.44" stroke-width="0.5"/>
   <polyline stroke="#262626" stroke-linecap="butt" stroke-linejoin="miter" fill="none" points="521.28,208.44 516.812,208.44" stroke-width="0.5"/>
   <polyline stroke="#262626" stroke-linecap="butt" stroke-linejoin="miter" fill="none" points="74.8799,149.76 79.3481,149.76" stroke-width="0.5"/>
   <polyline stroke="#262626" stroke-linecap="butt" stroke-linejoin="miter" fill="none" points="521.28,149.76 516.812,149.76" stroke-width="0.5"/>
   <polyline stroke="#262626" stroke-linecap="butt" stroke-linejoin="miter" fill="none" points="74.8799,91.0801 79.3481,91.0801" stroke-width="0.5"/>
   <polyline stroke="#262626" stroke-linecap="butt" stroke-linejoin="miter" fill="none" points="521.28,91.0801 516.812,91.0801" stroke-width="0.5"/>
   <polyline stroke="#262626" stroke-linecap="butt" stroke-linejoin="miter" fill="none" points="74.8799,32.3999 79.3481,32.3999" stroke-width="0.5"/>
   <polyline stroke="#262626" stroke-linecap="butt" stroke-linejoin="miter" fill="none" points="521.28,32.3999 516.812,32.3999" stroke-width="0.5"/>
   <text font-style="normal" font-family="FreeSans" transform="translate(63.8755,388.48) rotate(-0,6,-4)" font-size="10" font-weight="normal" xml:space="preserve">
    <tspan fill="rgb(38,38,38)" x="0 " y="-0">0</tspan>
   </text>
   <text font-style="normal" font-family="FreeSans" transform="translate(63.8755,329.8) rotate(-0,6,-4)" font-size="10" font-weight="normal" xml:space="preserve">
    <tspan fill="rgb(38,38,38)" x="0 " y="-0">1</tspan>
   </text>
   <text font-style="normal" font-family="FreeSans" transform="translate(63.8755,271.12) rotate(-0,6,-4)" font-size="10" font-weight="normal" xml:space="preserve">
    <tspan fill="rgb(38,38,38)" x="0 " y="-0">2</tspan>
   </text>
   <text font-style="normal" font-family="FreeSans" transform="translate(63.8755,212.44) rotate(-0,6,-4)" font-size="10" font-weight="normal" xml:space="preserve">
    <tspan fill="rgb(38,38,38)" x="0 " y="-0">3</tspan>
   </text>
   <text font-style="normal" font-family="FreeSans" transform="translate(63.8755,153.76) rotate(-0,6,-4)" font-size="10" font-weight="normal" xml:space="preserve">
    <tspan fill="rgb(38,38,38)" x="0 " y="-0">4</tspan>
   </text>
   <text font-style="normal" font-family="FreeSans" transform="translate(63.8755,95.08) rotate(-0,6,-4)" font-size="10" font-weight="normal" xml:space="preserve">
    <tspan fill="rgb(38,38,38)" x="0 " y="-0">5</tspan>
   </text>
   <text font-style="normal" font-family="FreeSans" transform="translate(63.8755,36.4) rotate(-0,6,-4)" font-size="10" font-weight="normal" xml:space="preserve">
    <tspan fill="rgb(38,38,38)" x="0 " y="-0">6</tspan>
   </text>
   <polyline stroke="#262626" stroke-linecap="square" stroke-linejoin="miter" fill="none" points="74.8799,384.48 521.28,384.48" stroke-width="0.5" stroke-dasharray="16,0"/>
   <polyline stroke="#262626" stroke-linecap="square" stroke-linejoin="miter" fill="none" points="74.8799,32.3999 521.28,32.3999" stroke-width="0.5" stroke-dasharray="16,0"/>
   <polyline stroke="#262626" stroke-linecap="square" stroke-linejoin="miter" fill="none" points="74.8799,384.48 74.8799,32.3999" stroke-width="0.5" stroke-dasharray="16,0"/>
   <polyline stroke="#262626" stroke-linecap="square" stroke-linejoin="miter" fill="none" points="521.28,384.48 521.28,32.3999" stroke-width="0.5" stroke-dasharray="16,0"/>
   <text font-style="normal" font-family="FreeSans" transform="translate(274.58,413.982) rotate(-0,23.5,-9)" font-size="11" font-weight="normal" xml:space="preserve">
    <tspan fill="rgb(38,38,38)" x="0 7 9 18 24 27 29 35 38 40 45 " y="-0">Time in 's'</tspan>
   </text>
   <text font-style="normal" font-family="FreeSans" transform="translate(28.3755,208.44) rotate(-90,30.5,0)" font-size="11" font-weight="normal" xml:space="preserve">
    <tspan fill="rgb(38,38,38)" x="0 7 13 15 18 24 30 36 39 41 47 50 52 59 " y="-2">Voltage in 'V'</tspan>
   </text>
   <text font-style="normal" font-family="FreeSans" transform="translate(39.58,22.4) rotate(-0,258.5,0)" font-size="11" font-weight="bold" xml:space="preserve">
    <tspan fill="rgb(0,0,0)" x="0 9 16 20 27 34 38 42 49 56 59 63 69 76 82 85 91 97 100 107 110 120 126 129 133 140 144 147 151 158 161 168 174 180 186 189 196 199 202 209 212 219 225 231 237 240 247 250 253 260 263 270 276 282 288 291 298 301 304 308 315 319 322 329 335 342 348 352 355 363 366 373 380 386 389 396 402 408 414 421 424 430 437 440 444 450 457 463 466 470 476 483 490 493 499 503 510 514 " y="-3">Output-Voltage vs Time for:(Vin=10 V ;Vin=12 V ;Vin=14 V  )of Zener Diode based voltage regulator.</tspan>
   </text>
   <polyline stroke="#0071bc" stroke-linecap="butt" stroke-linejoin="round" fill="none" points="74.8799,384.48 75.3267,384.48 75.7734,384.48 76.2207,384.48 76.6675,384.48 77.1143,384.48 77.561,384.48 78.0078,384.479 78.4546,384.438 78.9014,383.419 79.3486,378.97 79.7954,373.576 80.2422,368.165 80.689,362.775 81.1357,357.411 81.5825,352.073 82.0293,346.764 82.4766,341.486 82.9233,336.239 83.3701,331.027 83.8169,325.851 84.2637,320.713 84.7104,315.615 85.1572,310.558 85.6045,305.544 86.0513,300.575 86.498,295.653 86.9448,290.78 87.3916,285.957 87.8384,281.186 88.2852,276.468 88.7324,271.806 89.1792,267.201 89.626,262.654 90.0728,258.167 90.5195,253.742 90.9663,249.38 91.4131,245.083 91.8604,240.853 92.3071,236.689 92.7539,232.596 93.2007,228.572 93.6475,224.621 94.0942,220.743 94.541,216.94 94.9883,213.213 95.4351,209.562 95.8818,205.991 96.3286,202.499 96.7754,199.088 97.2222,195.759 97.6689,192.513 98.1162,189.352 98.563,186.275 99.0098,183.285 99.4565,180.381 99.9033,177.566 100.35,174.84 100.797,172.204 101.244,169.658 101.691,167.204 102.138,164.841 102.584,162.571 103.031,160.395 103.478,158.312 103.925,156.323 104.372,154.429 104.819,152.629 105.266,150.925 105.712,149.316 106.159,147.802 106.606,146.384 107.053,145.06 107.5,143.832 107.947,142.697 108.394,141.655 108.84,140.706 109.287,139.848 109.734,139.08 110.181,138.399 110.628,137.804 111.075,137.292 111.521,136.857 111.968,136.498 112.415,136.208 112.862,135.981 113.309,135.811 113.756,135.69 114.203,135.611 114.649,135.565 115.096,135.545 115.543,135.543 115.99,135.555 116.437,135.575 116.884,135.599 117.331,135.626 117.777,135.655 118.224,135.684 118.671,135.714 119.118,135.744 119.564,135.773 120.012,135.804 120.458,135.833 120.905,135.863 121.352,135.893 121.799,135.923 122.246,135.953 122.692,135.982 123.14,136.013 123.586,136.042 124.033,136.072 124.48,136.102 124.927,136.132 125.374,136.162 125.82,136.191 126.268,136.221 126.714,136.251 127.161,136.281 127.608,136.311 128.055,136.34 128.501,136.37 128.948,136.4 129.396,136.43 129.842,136.46 130.289,136.49 130.736,136.52 131.183,136.549 131.629,136.579 132.076,136.609 132.523,136.639 132.97,136.668 133.417,136.698 133.864,136.728 134.311,136.757 134.757,136.787 135.204,136.817 135.651,136.847 136.098,136.876 136.545,136.906 136.992,136.936 137.438,136.966 137.885,136.996 138.332,137.025 138.779,137.055 139.226,137.084 139.673,137.114 140.12,137.144 140.566,137.174 141.013,137.204 141.46,137.233 141.907,137.263 142.354,137.292 142.801,137.322 143.248,137.352 143.694,137.382 144.141,137.411 144.588,137.441 145.035,137.471 145.482,137.5 145.929,137.53 146.375,137.56 146.822,137.589 147.269,137.619 147.716,137.648 148.163,137.678 148.61,137.708 149.057,137.737 149.503,137.767 149.95,137.797 150.397,137.827 150.844,137.856 151.291,137.886 151.738,137.916 152.185,137.945 152.631,137.975 153.078,138.004 153.525,138.034 153.972,138.063 154.419,138.093 154.866,138.123 155.312,138.152 155.759,138.182 156.206,138.211 156.653,138.241 157.1,138.271 157.547,138.3 157.994,138.33 158.44,138.359 158.887,138.389 159.334,138.418 159.781,138.448 160.228,138.478 160.675,138.507 161.122,138.537 161.568,138.566 162.015,138.596 162.462,138.625 162.909,138.655 163.355,138.684 163.803,138.714 164.25,138.743 164.696,138.773 165.143,138.802 165.59,138.832 166.037,138.861 166.483,138.891 166.931,138.92 167.377,138.95 167.824,138.979 168.271,139.009 168.718,139.038 169.165,139.068 169.611,139.097 170.059,139.126 170.505,139.156 170.952,139.186 171.399,139.215 171.846,139.245 172.292,139.274 172.739,139.303 173.187,139.333 173.633,139.362 174.08,139.392 174.527,139.421 174.974,139.451 175.42,139.48 175.867,139.509 176.314,139.539 176.761,139.568 177.208,139.598 177.655,139.627 178.102,139.657 178.548,139.686 178.995,139.715 179.442,139.744 179.889,139.772 180.336,139.799 180.783,139.82 181.229,139.83 181.676,139.817 182.123,139.76 182.57,139.632 183.017,139.408 183.464,139.08 183.911,138.667 184.357,138.205 184.804,137.734 185.251,137.287 185.698,136.88 186.145,136.527 186.592,136.231 187.039,135.993 187.485,135.808 187.932,135.672 188.379,135.579 188.826,135.521 189.273,135.492 189.72,135.484 190.167,135.49 190.613,135.507 191.06,135.529 191.507,135.556 191.954,135.583 192.401,135.613 192.848,135.642 193.294,135.672 193.741,135.702 194.188,135.732 194.635,135.762 195.082,135.792 195.529,135.821 195.976,135.851 196.422,135.881 196.869,135.911 197.316,135.941 197.763,135.971 198.21,136 198.657,136.03 199.104,136.06 199.55,136.09 199.997,136.12 200.444,136.15 200.891,136.18 201.338,136.209 201.785,136.239 202.231,136.269 202.678,136.299 203.125,136.329 203.572,136.358 204.019,136.388 204.466,136.418 204.913,136.448 205.359,136.478 205.806,136.507 206.253,136.537 206.7,136.567 207.146,136.597 207.594,136.626 208.041,136.656 208.487,136.686 208.934,136.716 209.381,136.746 209.828,136.775 210.274,136.805 210.722,136.835 211.168,136.865 211.615,136.895 212.062,136.924 212.509,136.954 212.956,136.983 213.402,137.013 213.849,137.043 214.296,137.073 214.743,137.103 215.19,137.132 215.637,137.162 216.083,137.191 216.53,137.221 216.978,137.251 217.424,137.281 217.871,137.311 218.318,137.34 218.765,137.37 219.211,137.399 219.658,137.429 220.105,137.459 220.552,137.488 220.999,137.518 221.446,137.548 221.893,137.578 222.339,137.607 222.786,137.637 223.233,137.667 223.68,137.696 224.127,137.726 224.574,137.755 225.021,137.785 225.467,137.814 225.914,137.844 226.361,137.874 226.808,137.903 227.255,137.933 227.702,137.963 228.148,137.992 228.595,138.022 229.042,138.052 229.489,138.081 229.936,138.111 230.383,138.14 230.83,138.17 231.276,138.2 231.723,138.229 232.17,138.259 232.617,138.288 233.064,138.318 233.511,138.347 233.958,138.377 234.404,138.406 234.851,138.436 235.298,138.466 235.745,138.495 236.192,138.525 236.639,138.554 237.085,138.584 237.532,138.613 237.979,138.643 238.426,138.672 238.873,138.702 239.32,138.731 239.767,138.761 240.213,138.791 240.66,138.82 241.107,138.85 241.554,138.879 242,138.909 242.448,138.938 242.895,138.967 243.341,138.997 243.788,139.026 244.235,139.056 244.682,139.085 245.128,139.115 245.576,139.145 246.022,139.174 246.469,139.203 246.916,139.233 247.363,139.262 247.81,139.292 248.256,139.321 248.704,139.351 249.15,139.38 249.597,139.41 250.044,139.439 250.491,139.468 250.938,139.498 251.384,139.527 251.832,139.557 252.278,139.586 252.725,139.615 253.172,139.645 253.619,139.674 254.065,139.703 254.512,139.73 254.959,139.755 255.406,139.772 255.853,139.773 256.3,139.743 256.747,139.658 257.193,139.491 257.64,139.222 258.087,138.855 258.534,138.42 258.981,137.955 259.428,137.496 259.875,137.07 260.321,136.691 260.768,136.368 261.215,136.102 261.662,135.891 262.109,135.732 262.556,135.619 263.002,135.544 263.449,135.501 263.896,135.483 264.343,135.483 264.79,135.495 265.237,135.515 265.684,135.54 266.13,135.567 266.577,135.596 267.024,135.625 267.471,135.655 267.918,135.685 268.365,135.715 268.812,135.745 269.258,135.774 269.705,135.804 270.152,135.834 270.599,135.864 271.046,135.894 271.493,135.924 271.939,135.954 272.386,135.983 272.833,136.014 273.28,136.043 273.727,136.073 274.174,136.103 274.621,136.133 275.067,136.163 275.514,136.192 275.961,136.222 276.408,136.252 276.855,136.282 277.302,136.312 277.749,136.341 278.195,136.371 278.642,136.401 279.089,136.431 279.536,136.46 279.983,136.491 280.43,136.521 280.876,136.55 281.323,136.58 281.77,136.609 282.217,136.639 282.664,136.669 283.111,136.699 283.558,136.729 284.004,136.758 284.451,136.788 284.898,136.818 285.345,136.848 285.792,136.877 286.239,136.907 286.686,136.937 287.132,136.967 287.579,136.997 288.026,137.026 288.473,137.056 288.919,137.085 289.367,137.115 289.813,137.145 290.26,137.175 290.707,137.205 291.154,137.234 291.601,137.264 292.047,137.293 292.495,137.323 292.941,137.353 293.388,137.382 293.835,137.412 294.282,137.442 294.729,137.472 295.175,137.501 295.623,137.531 296.069,137.561 296.516,137.59 296.963,137.62 297.41,137.649 297.856,137.679 298.303,137.709 298.75,137.738 299.197,137.768 299.644,137.798 300.091,137.827 300.538,137.857 300.984,137.887 301.431,137.916 301.878,137.946 302.325,137.976 302.772,138.005 303.219,138.035 303.666,138.064 304.112,138.094 304.559,138.124 305.006,138.153 305.453,138.183 305.9,138.212 306.347,138.242 306.793,138.271 307.24,138.301 307.687,138.331 308.134,138.36 308.581,138.39 309.028,138.419 309.475,138.449 309.921,138.479 310.368,138.508 310.815,138.538 311.262,138.567 311.709,138.597 312.156,138.626 312.603,138.656 313.049,138.685 313.496,138.714 313.943,138.744 314.39,138.773 314.837,138.803 315.284,138.833 315.73,138.862 316.177,138.892 316.624,138.921 317.071,138.951 317.518,138.98 317.965,139.01 318.412,139.039 318.858,139.068 319.305,139.098 319.752,139.127 320.199,139.157 320.646,139.187 321.093,139.216 321.54,139.246 321.986,139.275 322.433,139.304 322.88,139.334 323.327,139.363 323.773,139.393 324.221,139.422 324.667,139.452 325.114,139.481 325.561,139.51 326.008,139.54 326.455,139.569 326.901,139.599 327.349,139.628 327.795,139.657 328.242,139.687 328.689,139.715 329.136,139.741 329.583,139.763 330.03,139.773 330.477,139.762 330.923,139.708 331.37,139.584 331.817,139.368 332.264,139.048 332.71,138.643 333.157,138.188 333.604,137.722 334.051,137.277 334.498,136.874 334.945,136.522 335.392,136.228 335.838,135.989 336.285,135.805 336.732,135.67 337.179,135.577 337.626,135.519 338.073,135.49 338.52,135.481 338.966,135.488 339.413,135.504 339.86,135.527 340.307,135.553 340.754,135.582 341.201,135.611 341.647,135.64 342.094,135.67 342.542,135.7 342.988,135.729 343.435,135.759 343.882,135.79 344.329,135.819 344.775,135.849 345.222,135.879 345.669,135.909 346.116,135.938 346.563,135.969 347.01,135.999 347.457,136.028 347.903,136.058 348.35,136.088 348.797,136.118 349.244,136.147 349.691,136.177 350.138,136.207 350.584,136.237 351.031,136.267 351.478,136.297 351.925,136.327 352.372,136.356 352.819,136.386 353.266,136.416 353.712,136.446 354.159,136.476 354.606,136.505 355.053,136.535 355.5,136.565 355.947,136.595 356.394,136.625 356.84,136.654 357.287,136.684 357.734,136.714 358.181,136.744 358.628,136.773 359.075,136.803 359.521,136.833 359.968,136.862 360.415,136.892 360.862,136.922 361.309,136.952 361.756,136.981 362.203,137.011 362.649,137.041 363.096,137.071 363.543,137.1 363.99,137.13 364.437,137.16 364.884,137.189 365.331,137.219 365.777,137.249 366.224,137.278 366.671,137.308 367.118,137.338 367.564,137.368 368.012,137.397 368.458,137.427 368.905,137.457 369.352,137.486 369.799,137.516 370.246,137.546 370.692,137.575 371.14,137.605 371.586,137.635 372.033,137.664 372.48,137.694 372.927,137.724 373.374,137.753 373.82,137.783 374.268,137.812 374.714,137.842 375.161,137.872 375.608,137.901 376.055,137.931 376.501,137.96 376.948,137.99 377.396,138.02 377.842,138.049 378.289,138.079 378.736,138.108 379.183,138.138 379.629,138.168 380.076,138.197 380.523,138.227 380.97,138.256 381.417,138.286 381.864,138.315 382.311,138.345 382.757,138.375 383.204,138.404 383.651,138.434 384.098,138.463 384.545,138.493 384.992,138.522 385.438,138.552 385.885,138.582 386.332,138.611 386.779,138.641 387.226,138.67 387.673,138.7 388.12,138.729 388.566,138.759 389.013,138.788 389.46,138.818 389.907,138.847 390.354,138.877 390.801,138.906 391.248,138.936 391.694,138.965 392.141,138.995 392.588,139.024 393.035,139.054 393.482,139.083 393.929,139.113 394.375,139.142 394.822,139.172 395.269,139.201 395.716,139.23 396.163,139.26 396.61,139.29 397.057,139.319 397.503,139.348 397.95,139.378 398.397,139.407 398.844,139.437 399.291,139.466 399.738,139.496 400.185,139.525 400.631,139.554 401.078,139.584 401.525,139.613 401.972,139.643 402.419,139.672 402.866,139.701 403.312,139.728 403.759,139.752 404.206,139.77 404.653,139.771 405.1,139.741 405.547,139.656 405.994,139.489 406.44,139.22 406.887,138.854 407.334,138.419 407.781,137.954 408.228,137.496 408.674,137.069 409.122,136.691 409.568,136.368 410.015,136.102 410.462,135.891 410.909,135.731 411.355,135.618 411.803,135.544 412.25,135.501 412.696,135.483 413.143,135.483 413.59,135.495 414.037,135.515 414.483,135.54 414.931,135.567 415.377,135.596 415.824,135.625 416.271,135.655 416.718,135.685 417.165,135.715 417.611,135.745 418.059,135.774 418.505,135.804 418.952,135.834 419.399,135.864 419.846,135.894 420.292,135.924 420.739,135.954 421.186,135.983 421.633,136.013 422.08,136.043 422.527,136.073 422.974,136.103 423.42,136.133 423.867,136.163 424.314,136.192 424.761,136.222 425.208,136.252 425.655,136.282 426.102,136.312 426.548,136.341 426.995,136.371 427.442,136.401 427.889,136.431 428.336,136.46 428.783,136.49 429.229,136.52 429.676,136.55 430.123,136.58 430.57,136.609 431.017,136.639 431.464,136.669 431.911,136.699 432.357,136.729 432.804,136.758 433.251,136.788 433.698,136.818 434.145,136.848 434.592,136.877 435.039,136.907 435.485,136.937 435.932,136.967 436.379,136.996 436.826,137.026 437.273,137.056 437.72,137.085 438.167,137.115 438.613,137.145 439.06,137.175 439.507,137.204 439.954,137.234 440.401,137.264 440.848,137.293 441.294,137.323 441.741,137.353 442.188,137.382 442.635,137.412 443.082,137.442 443.529,137.472 443.976,137.501 444.422,137.531 444.869,137.561 445.316,137.59 445.763,137.62 446.209,137.649 446.657,137.679 447.104,137.708 447.55,137.738 447.997,137.768 448.444,137.798 448.891,137.827 449.337,137.857 449.785,137.887 450.231,137.916 450.678,137.946 451.125,137.976 451.572,138.005 452.019,138.035 452.466,138.064 452.913,138.094 453.359,138.124 453.806,138.153 454.253,138.183 454.7,138.212 455.146,138.242 455.594,138.271 456.041,138.301 456.487,138.331 456.934,138.36 457.381,138.39 457.828,138.419 458.274,138.449 458.721,138.478 459.168,138.508 459.615,138.537 460.062,138.567 460.509,138.596 460.956,138.626 461.402,138.655 461.849,138.685 462.296,138.714 462.743,138.744 463.19,138.773 463.637,138.803 464.083,138.833 464.53,138.862 464.977,138.892 465.424,138.921 465.871,138.951 466.318,138.98 466.765,139.01 467.211,139.039 467.658,139.068 468.105,139.098 468.552,139.127 468.999,139.157 469.446,139.187 469.893,139.216 470.339,139.245 470.786,139.275 471.233,139.304 471.68,139.333 472.127,139.363 472.574,139.393 473.021,139.422 473.467,139.452 473.914,139.481 474.361,139.51 474.808,139.54 475.255,139.569 475.702,139.599 476.148,139.628 476.595,139.657 477.042,139.686 477.489,139.714 477.936,139.741 478.383,139.763 478.83,139.773 479.276,139.762 479.723,139.708 480.17,139.584 480.617,139.368 481.064,139.048 481.511,138.643 481.958,138.188 482.404,137.722 482.851,137.277 483.298,136.874 483.745,136.522 484.192,136.228 484.639,135.989 485.085,135.805 485.532,135.67 485.979,135.577 486.426,135.519 486.873,135.49 487.32,135.481 487.767,135.488 488.213,135.504 488.66,135.527 489.107,135.553 489.554,135.582 490,135.611 490.448,135.64 490.895,135.67 491.341,135.7 491.788,135.729 492.235,135.759 492.682,135.79 493.128,135.819 493.576,135.849 494.022,135.879 494.469,135.909 494.916,135.938 495.363,135.969 495.81,135.999 496.256,136.028 496.704,136.058 497.15,136.088 497.597,136.118 498.044,136.147 498.491,136.177 498.938,136.207 499.384,136.237 499.831,136.267 500.278,136.297 500.725,136.327 501.172,136.356 501.619,136.386 502.065,136.416 502.512,136.446 502.959,136.476 503.406,136.505 503.853,136.535 504.3,136.565 504.747,136.595 505.193,136.625 505.64,136.654 506.087,136.684 506.534,136.714 506.981,136.744 507.428,136.773 507.875,136.803 508.321,136.833 508.768,136.862 509.215,136.892 509.662,136.922 510.109,136.952 510.556,136.981 511.002,137.011 511.449,137.041 511.896,137.071 512.343,137.1 512.79,137.13 513.237,137.16 513.684,137.189 514.13,137.219 514.577,137.249 515.024,137.278 515.471,137.308 515.918,137.338 516.365,137.368 516.812,137.397 517.258,137.427 517.705,137.457 518.152,137.486 518.599,137.516 519.046,137.546 519.493,137.575 519.939,137.605 520.386,137.635 520.833,137.664 521.28,137.694" stroke-width="0.5"/>
   <polyline stroke="#d85218" stroke-linecap="butt" stroke-linejoin="round" fill="none" points="74.8799,384.48 75.3267,384.48 75.7734,384.48 76.2207,384.48 76.6675,384.48 77.1143,384.48 77.561,384.478 78.0078,384.334 78.4546,381.199 78.9014,374.819 79.3486,368.28 79.7954,361.761 80.2422,355.268 80.689,348.802 81.1357,342.366 81.5825,335.963 82.0293,329.593 82.4766,323.261 82.9233,316.967 83.3701,310.714 83.8169,304.505 84.2637,298.342 84.7104,292.226 85.1572,286.16 85.6045,280.146 86.0513,274.187 86.498,268.283 86.9448,262.438 87.3916,256.653 87.8384,250.931 88.2852,245.274 88.7324,239.683 89.1792,234.16 89.626,228.708 90.0728,223.328 90.5195,218.022 90.9663,212.792 91.4131,207.64 91.8604,202.568 92.3071,197.577 92.7539,192.669 93.2007,187.847 93.6475,183.111 94.0942,178.463 94.541,173.905 94.9883,169.438 95.4351,165.064 95.8818,160.785 96.3286,156.602 96.7754,152.515 97.2222,148.527 97.6689,144.64 98.1162,140.854 98.563,137.17 99.0098,133.59 99.4565,130.115 99.9033,126.746 100.35,123.484 100.797,120.331 101.244,117.286 101.691,114.352 102.138,111.528 102.584,108.816 103.031,106.216 103.478,103.729 103.925,101.356 104.372,99.0972 104.819,96.9526 105.266,94.9233 105.712,93.0088 106.159,91.2095 106.606,89.5249 107.053,87.9561 107.5,86.5015 107.947,85.1606 108.394,83.9336 108.84,82.8188 109.287,81.8145 109.734,80.9194 110.181,80.1309 110.628,79.4463 111.075,78.8618 111.521,78.3735 111.968,77.9751 112.415,77.6602 112.862,77.4214 113.309,77.2495 113.756,77.1348 114.203,77.0664 114.649,77.0347 115.096,77.0288 115.543,77.0415 115.99,77.0649 116.437,77.0952 116.884,77.1294 117.331,77.165 117.777,77.2012 118.224,77.2378 118.671,77.2749 119.118,77.3115 119.564,77.3486 120.012,77.3857 120.458,77.4224 120.905,77.4595 121.352,77.4961 121.799,77.5332 122.246,77.5698 122.692,77.6069 123.14,77.6436 123.586,77.6807 124.033,77.7173 124.48,77.7544 124.927,77.791 125.374,77.8276 125.82,77.8647 126.268,77.9014 126.714,77.9385 127.161,77.9751 127.608,78.0122 128.055,78.0488 128.501,78.0854 128.948,78.1226 129.396,78.1592 129.842,78.1958 130.289,78.2329 130.736,78.2695 131.183,78.3062 131.629,78.3433 132.076,78.3799 132.523,78.4165 132.97,78.4536 133.417,78.4902 133.864,78.5269 134.311,78.5635 134.757,78.6006 135.204,78.6372 135.651,78.6738 136.098,78.7104 136.545,78.7476 136.992,78.7842 137.438,78.8208 137.885,78.8574 138.332,78.894 138.779,78.9312 139.226,78.9678 139.673,79.0044 140.12,79.041 140.566,79.0776 141.013,79.1143 141.46,79.1509 141.907,79.188 142.354,79.2246 142.801,79.2612 143.248,79.2979 143.694,79.3345 144.141,79.3711 144.588,79.4077 145.035,79.4443 145.482,79.481 145.929,79.5176 146.375,79.5542 146.822,79.5908 147.269,79.6274 147.716,79.6641 148.163,79.7007 148.61,79.7373 149.057,79.7739 149.503,79.8105 149.95,79.8472 150.397,79.8838 150.844,79.9204 151.291,79.957 151.738,79.9937 152.185,80.0303 152.631,80.0664 153.078,80.103 153.525,80.1396 153.972,80.1763 154.419,80.2129 154.866,80.2495 155.312,80.2861 155.759,80.3223 156.206,80.3589 156.653,80.3955 157.1,80.4321 157.547,80.4688 157.994,80.5049 158.44,80.5415 158.887,80.5781 159.334,80.6147 159.781,80.6509 160.228,80.6875 160.675,80.7241 161.122,80.7607 161.568,80.7969 162.015,80.8335 162.462,80.8701 162.909,80.9062 163.355,80.9429 163.803,80.9795 164.25,81.0156 164.696,81.0522 165.143,81.0889 165.59,81.125 166.037,81.1616 166.483,81.1982 166.931,81.2344 167.377,81.271 167.824,81.3071 168.271,81.3438 168.718,81.3804 169.165,81.4165 169.611,81.4531 170.059,81.4893 170.505,81.5259 170.952,81.562 171.399,81.5986 171.846,81.6348 172.292,81.6714 172.739,81.7075 173.187,81.7441 173.633,81.7803 174.08,81.8169 174.527,81.853 174.974,81.8896 175.42,81.9258 175.867,81.9619 176.314,81.9985 176.761,82.0347 177.208,82.0713 177.655,82.1074 178.102,82.1436 178.548,82.1802 178.995,82.2163 179.442,82.2524 179.889,82.2881 180.336,82.3228 180.783,82.3535 181.229,82.374 181.676,82.3696 182.123,82.3105 182.57,82.1504 183.017,81.8447 183.464,81.3828 183.911,80.8062 184.357,80.1821 184.804,79.5698 185.251,79.0068 185.698,78.5122 186.145,78.0942 186.592,77.7539 187.039,77.4883 187.485,77.2905 187.932,77.1523 188.379,77.0649 188.826,77.0181 189.273,77.0015 189.72,77.0063 190.167,77.0254 190.613,77.0527 191.06,77.0854 191.507,77.1206 191.954,77.1567 192.401,77.1929 192.848,77.23 193.294,77.2666 193.741,77.3037 194.188,77.3403 194.635,77.3774 195.082,77.4146 195.529,77.4512 195.976,77.4883 196.422,77.5249 196.869,77.562 197.316,77.5986 197.763,77.6357 198.21,77.6724 198.657,77.7095 199.104,77.7461 199.55,77.7832 199.997,77.8198 200.444,77.8564 200.891,77.8936 201.338,77.9302 201.785,77.9673 202.231,78.0039 202.678,78.0405 203.125,78.0776 203.572,78.1143 204.019,78.1514 204.466,78.188 204.913,78.2246 205.359,78.2617 205.806,78.2983 206.253,78.335 206.7,78.3721 207.146,78.4087 207.594,78.4453 208.041,78.4819 208.487,78.519 208.934,78.5557 209.381,78.5923 209.828,78.6289 210.274,78.666 210.722,78.7026 211.168,78.7393 211.615,78.7759 212.062,78.813 212.509,78.8496 212.956,78.8862 213.402,78.9229 213.849,78.9595 214.296,78.9961 214.743,79.0332 215.19,79.0698 215.637,79.1064 216.083,79.1431 216.53,79.1797 216.978,79.2163 217.424,79.2529 217.871,79.2896 218.318,79.3262 218.765,79.3628 219.211,79.3999 219.658,79.4365 220.105,79.4731 220.552,79.5098 220.999,79.5464 221.446,79.583 221.893,79.6196 222.339,79.6562 222.786,79.6929 223.233,79.7295 223.68,79.7661 224.127,79.8027 224.574,79.8389 225.021,79.8755 225.467,79.9121 225.914,79.9487 226.361,79.9854 226.808,80.022 227.255,80.0586 227.702,80.0952 228.148,80.1318 228.595,80.1685 229.042,80.2046 229.489,80.2412 229.936,80.2778 230.383,80.3145 230.83,80.3511 231.276,80.3877 231.723,80.4238 232.17,80.4604 232.617,80.4971 233.064,80.5337 233.511,80.5703 233.958,80.6064 234.404,80.6431 234.851,80.6797 235.298,80.7163 235.745,80.7524 236.192,80.7891 236.639,80.8257 237.085,80.8618 237.532,80.8984 237.979,80.9351 238.426,80.9712 238.873,81.0078 239.32,81.0444 239.767,81.0806 240.213,81.1172 240.66,81.1538 241.107,81.1899 241.554,81.2266 242,81.2627 242.448,81.2993 242.895,81.3359 243.341,81.3721 243.788,81.4087 244.235,81.4448 244.682,81.4814 245.128,81.5176 245.576,81.5542 246.022,81.5903 246.469,81.627 246.916,81.6631 247.363,81.6997 247.81,81.7358 248.256,81.7725 248.704,81.8086 249.15,81.8452 249.597,81.8813 250.044,81.918 250.491,81.9541 250.938,81.9902 251.384,82.0269 251.832,82.063 252.278,82.0996 252.725,82.1357 253.172,82.1719 253.619,82.2085 254.065,82.2441 254.512,82.2798 254.959,82.313 255.406,82.3398 255.853,82.3511 256.3,82.3252 256.747,82.2241 257.193,81.999 257.64,81.6177 258.087,81.0947 258.534,80.4897 258.981,79.8677 259.428,79.2778 259.875,78.748 260.321,78.292 260.768,77.9136 261.215,77.6113 261.662,77.3804 262.109,77.2139 262.556,77.1025 263.002,77.0366 263.449,77.0059 263.896,77.001 264.343,77.0137 264.79,77.0381 265.237,77.0684 265.684,77.1021 266.13,77.1377 266.577,77.1743 267.024,77.2109 267.471,77.248 267.918,77.2847 268.365,77.3218 268.812,77.3584 269.258,77.3955 269.705,77.4321 270.152,77.4692 270.599,77.5059 271.046,77.543 271.493,77.5796 271.939,77.6167 272.386,77.6533 272.833,77.6904 273.28,77.7271 273.727,77.7642 274.174,77.8008 274.621,77.8379 275.067,77.8745 275.514,77.9116 275.961,77.9482 276.408,77.9849 276.855,78.022 277.302,78.0586 277.749,78.0957 278.195,78.1323 278.642,78.1689 279.089,78.2061 279.536,78.2427 279.983,78.2793 280.43,78.3164 280.876,78.353 281.323,78.3896 281.77,78.4268 282.217,78.4634 282.664,78.5 283.111,78.5366 283.558,78.5737 284.004,78.6104 284.451,78.647 284.898,78.6836 285.345,78.7207 285.792,78.7573 286.239,78.7939 286.686,78.8306 287.132,78.8672 287.579,78.9043 288.026,78.9409 288.473,78.9775 288.919,79.0142 289.367,79.0508 289.813,79.0874 290.26,79.124 290.707,79.1611 291.154,79.1978 291.601,79.2344 292.047,79.271 292.495,79.3076 292.941,79.3442 293.388,79.3809 293.835,79.4175 294.282,79.4541 294.729,79.4907 295.175,79.5273 295.623,79.564 296.069,79.6006 296.516,79.6372 296.963,79.6738 297.41,79.7104 297.856,79.7471 298.303,79.7837 298.75,79.8203 299.197,79.8569 299.644,79.8936 300.091,79.9302 300.538,79.9668 300.984,80.0034 301.431,80.04 301.878,80.0762 302.325,80.1128 302.772,80.1494 303.219,80.186 303.666,80.2227 304.112,80.2593 304.559,80.2959 305.006,80.332 305.453,80.3687 305.9,80.4053 306.347,80.4419 306.793,80.4785 307.24,80.5146 307.687,80.5513 308.134,80.5879 308.581,80.6245 309.028,80.6611 309.475,80.6973 309.921,80.7339 310.368,80.7705 310.815,80.8066 311.262,80.8433 311.709,80.8799 312.156,80.916 312.603,80.9526 313.049,80.9893 313.496,81.0254 313.943,81.062 314.39,81.0986 314.837,81.1348 315.284,81.1714 315.73,81.208 316.177,81.2441 316.624,81.2808 317.071,81.3169 317.518,81.3535 317.965,81.3901 318.412,81.4263 318.858,81.4629 319.305,81.499 319.752,81.5356 320.199,81.5718 320.646,81.6084 321.093,81.6445 321.54,81.6812 321.986,81.7173 322.433,81.7539 322.88,81.79 323.327,81.8267 323.773,81.8628 324.221,81.8994 324.667,81.9355 325.114,81.9717 325.561,82.0083 326.008,82.0444 326.455,82.0811 326.901,82.1172 327.349,82.1533 327.795,82.1899 328.242,82.2261 328.689,82.2617 329.136,82.2964 329.583,82.3271 330.03,82.3481 330.477,82.3442 330.923,82.2866 331.37,82.1294 331.817,81.8281 332.264,81.3706 332.71,80.7979 333.157,80.1772 333.604,79.5664 334.051,79.0044 334.498,78.5107 334.945,78.0933 335.392,77.7534 335.838,77.4873 336.285,77.2896 336.732,77.1519 337.179,77.0645 337.626,77.0176 338.073,77.001 338.52,77.0059 338.966,77.0249 339.413,77.0522 339.86,77.085 340.307,77.1201 340.754,77.1562 341.201,77.1924 341.647,77.2295 342.094,77.2661 342.542,77.3032 342.988,77.3398 343.435,77.377 343.882,77.4141 344.329,77.4507 344.775,77.4878 345.222,77.5244 345.669,77.5615 346.116,77.5981 346.563,77.6353 347.01,77.6719 347.457,77.709 347.903,77.7456 348.35,77.7827 348.797,77.8193 349.244,77.856 349.691,77.8931 350.138,77.9297 350.584,77.9668 351.031,78.0034 351.478,78.04 351.925,78.0771 352.372,78.1138 352.819,78.1509 353.266,78.1875 353.712,78.2241 354.159,78.2612 354.606,78.2979 355.053,78.3345 355.5,78.3716 355.947,78.4082 356.394,78.4448 356.84,78.4814 357.287,78.5186 357.734,78.5552 358.181,78.5918 358.628,78.6284 359.075,78.6655 359.521,78.7021 359.968,78.7388 360.415,78.7754 360.862,78.8125 361.309,78.8491 361.756,78.8857 362.203,78.9224 362.649,78.959 363.096,78.9956 363.543,79.0327 363.99,79.0693 364.437,79.106 364.884,79.1426 365.331,79.1792 365.777,79.2158 366.224,79.2524 366.671,79.2891 367.118,79.3257 367.564,79.3623 368.012,79.3994 368.458,79.436 368.905,79.4727 369.352,79.5093 369.799,79.5459 370.246,79.5825 370.692,79.6191 371.14,79.6558 371.586,79.6924 372.033,79.729 372.48,79.7656 372.927,79.8022 373.374,79.8389 373.82,79.875 374.268,79.9116 374.714,79.9482 375.161,79.9849 375.608,80.0215 376.055,80.0581 376.501,80.0947 376.948,80.1313 377.396,80.168 377.842,80.2046 378.289,80.2407 378.736,80.2773 379.183,80.314 379.629,80.3506 380.076,80.3872 380.523,80.4233 380.97,80.46 381.417,80.4966 381.864,80.5332 382.311,80.5698 382.757,80.606 383.204,80.6426 383.651,80.6792 384.098,80.7158 384.545,80.752 384.992,80.7886 385.438,80.8252 385.885,80.8613 386.332,80.8979 386.779,80.9346 387.226,80.9707 387.673,81.0073 388.12,81.0439 388.566,81.0801 389.013,81.1167 389.46,81.1533 389.907,81.1895 390.354,81.2261 390.801,81.2627 391.248,81.2988 391.694,81.3354 392.141,81.3716 392.588,81.4082 393.035,81.4443 393.482,81.481 393.929,81.5171 394.375,81.5537 394.822,81.5898 395.269,81.6265 395.716,81.6626 396.163,81.6992 396.61,81.7354 397.057,81.772 397.503,81.8081 397.95,81.8447 398.397,81.8809 398.844,81.9175 399.291,81.9536 399.738,81.9902 400.185,82.0264 400.631,82.0625 401.078,82.0991 401.525,82.1353 401.972,82.1714 402.419,82.208 402.866,82.2437 403.312,82.2793 403.759,82.3125 404.206,82.3394 404.653,82.3506 405.1,82.3247 405.547,82.2236 405.994,81.9985 406.44,81.6172 406.887,81.0947 407.334,80.4893 407.781,79.8677 408.228,79.2778 408.674,78.748 409.122,78.292 409.568,77.9136 410.015,77.6113 410.462,77.3804 410.909,77.2139 411.355,77.1025 411.803,77.0366 412.25,77.0059 412.696,77.001 413.143,77.0137 413.59,77.0376 414.037,77.0684 414.483,77.1021 414.931,77.1377 415.377,77.1743 415.824,77.2109 416.271,77.248 416.718,77.2847 417.165,77.3218 417.611,77.3584 418.059,77.3955 418.505,77.4321 418.952,77.4692 419.399,77.5059 419.846,77.543 420.292,77.5796 420.739,77.6167 421.186,77.6533 421.633,77.6904 422.08,77.7271 422.527,77.7642 422.974,77.8008 423.42,77.8379 423.867,77.8745 424.314,77.9116 424.761,77.9482 425.208,77.9849 425.655,78.022 426.102,78.0586 426.548,78.0957 426.995,78.1323 427.442,78.1689 427.889,78.2061 428.336,78.2427 428.783,78.2793 429.229,78.3164 429.676,78.353 430.123,78.3896 430.57,78.4268 431.017,78.4634 431.464,78.5 431.911,78.5366 432.357,78.5737 432.804,78.6104 433.251,78.647 433.698,78.6836 434.145,78.7207 434.592,78.7573 435.039,78.7939 435.485,78.8306 435.932,78.8672 436.379,78.9043 436.826,78.9409 437.273,78.9775 437.72,79.0142 438.167,79.0508 438.613,79.0874 439.06,79.124 439.507,79.1611 439.954,79.1978 440.401,79.2344 440.848,79.271 441.294,79.3076 441.741,79.3442 442.188,79.3809 442.635,79.4175 443.082,79.4541 443.529,79.4907 443.976,79.5273 444.422,79.564 444.869,79.6006 445.316,79.6372 445.763,79.6738 446.209,79.7104 446.657,79.7471 447.104,79.7837 447.55,79.8203 447.997,79.8569 448.444,79.8936 448.891,79.9302 449.337,79.9668 449.785,80.0034 450.231,80.04 450.678,80.0762 451.125,80.1128 451.572,80.1494 452.019,80.186 452.466,80.2227 452.913,80.2593 453.359,80.2959 453.806,80.332 454.253,80.3687 454.7,80.4053 455.146,80.4419 455.594,80.4785 456.041,80.5146 456.487,80.5513 456.934,80.5879 457.381,80.6245 457.828,80.6606 458.274,80.6973 458.721,80.7339 459.168,80.7705 459.615,80.8066 460.062,80.8433 460.509,80.8799 460.956,80.916 461.402,80.9526 461.849,80.9893 462.296,81.0254 462.743,81.062 463.19,81.0986 463.637,81.1348 464.083,81.1714 464.53,81.208 464.977,81.2441 465.424,81.2808 465.871,81.3169 466.318,81.3535 466.765,81.3901 467.211,81.4263 467.658,81.4629 468.105,81.499 468.552,81.5356 468.999,81.5718 469.446,81.6084 469.893,81.6445 470.339,81.6812 470.786,81.7173 471.233,81.7539 471.68,81.79 472.127,81.8267 472.574,81.8628 473.021,81.8989 473.467,81.9355 473.914,81.9717 474.361,82.0083 474.808,82.0444 475.255,82.0811 475.702,82.1172 476.148,82.1533 476.595,82.1899 477.042,82.2261 477.489,82.2617 477.936,82.2964 478.383,82.3271 478.83,82.3481 479.276,82.3442 479.723,82.2866 480.17,82.1294 480.617,81.8281 481.064,81.3706 481.511,80.7979 481.958,80.1772 482.404,79.5664 482.851,79.0044 483.298,78.5107 483.745,78.0933 484.192,77.7534 484.639,77.4873 485.085,77.2896 485.532,77.1519 485.979,77.0645 486.426,77.0176 486.873,77.001 487.32,77.0059 487.767,77.0249 488.213,77.0522 488.66,77.085 489.107,77.1201 489.554,77.1562 490,77.1924 490.448,77.2295 490.895,77.2661 491.341,77.3032 491.788,77.3398 492.235,77.377 492.682,77.4141 493.128,77.4507 493.576,77.4878 494.022,77.5244 494.469,77.5615 494.916,77.5981 495.363,77.6353 495.81,77.6719 496.256,77.709 496.704,77.7456 497.15,77.7827 497.597,77.8193 498.044,77.856 498.491,77.8931 498.938,77.9297 499.384,77.9668 499.831,78.0034 500.278,78.04 500.725,78.0771 501.172,78.1138 501.619,78.1509 502.065,78.1875 502.512,78.2241 502.959,78.2612 503.406,78.2979 503.853,78.3345 504.3,78.3716 504.747,78.4082 505.193,78.4448 505.64,78.4814 506.087,78.5186 506.534,78.5552 506.981,78.5918 507.428,78.6284 507.875,78.6655 508.321,78.7021 508.768,78.7388 509.215,78.7754 509.662,78.8125 510.109,78.8491 510.556,78.8857 511.002,78.9224 511.449,78.959 511.896,78.9956 512.343,79.0327 512.79,79.0693 513.237,79.106 513.684,79.1426 514.13,79.1792 514.577,79.2158 515.024,79.2524 515.471,79.2891 515.918,79.3257 516.365,79.3623 516.812,79.3994 517.258,79.436 517.705,79.4727 518.152,79.5093 518.599,79.5459 519.046,79.5825 519.493,79.6191 519.939,79.6558 520.386,79.6924 520.833,79.729 521.28,79.7656" stroke-width="0.5"/>
   <polyline stroke="#ecb01f" stroke-linecap="butt" stroke-linejoin="round" fill="none" points="74.8799,384.48 75.3267,384.48 75.7734,384.48 76.2207,384.48 76.6675,384.48 77.1143,384.479 77.561,384.352 78.0078,380.366 78.4546,372.793 78.9014,365.138 79.3486,357.507 79.7954,349.903 80.2422,342.329 80.689,334.786 81.1357,327.279 81.5825,319.809 82.0293,312.38 82.4766,304.993 82.9233,297.652 83.3701,290.359 83.8169,283.117 84.2637,275.928 84.7104,268.795 85.1572,261.72 85.6045,254.706 86.0513,247.755 86.498,240.87 86.9448,234.054 87.3916,227.308 87.8384,220.634 88.2852,214.037 88.7324,207.517 89.1792,201.077 89.626,194.719 90.0728,188.446 90.5195,182.259 90.9663,176.161 91.4131,170.154 91.8604,164.241 92.3071,158.422 92.7539,152.701 93.2007,147.079 93.6475,141.558 94.0942,136.14 94.541,130.827 94.9883,125.621 95.4351,120.524 95.8818,115.537 96.3286,110.662 96.7754,105.9 97.2222,101.254 97.6689,96.7251 98.1162,92.3145 98.563,88.0234 99.0098,83.854 99.4565,79.8071 99.9033,75.8843 100.35,72.0869 100.797,68.416 101.244,64.873 101.691,61.458 102.138,58.1743 102.584,55.0776 103.031,53.3823 103.478,53.3584 103.925,53.3584 104.372,53.3579 104.819,53.3579 105.266,53.3579 105.712,53.3579 106.159,53.3579 106.606,53.3579 107.053,53.3579 107.5,53.3579 107.947,53.3579 108.394,53.3579 108.84,53.3579 109.287,53.3579 109.734,53.3579 110.181,53.3579 110.628,53.3579 111.075,53.3579 111.521,53.3579 111.968,53.3579 112.415,53.3579 112.862,53.3579 113.309,53.3579 113.756,53.3579 114.203,53.3579 114.649,53.3579 115.096,53.3579 115.543,53.3579 115.99,53.3579 116.437,53.3579 116.884,53.3579 117.331,53.3579 117.777,53.3579 118.224,53.3579 118.671,53.3579 119.118,53.3579 119.564,53.3579 120.012,53.3584 120.458,53.3584 120.905,53.3599 121.352,53.3657 121.799,53.3848 122.246,53.4165 122.692,53.4546 123.14,53.4937 123.586,53.5337 124.033,53.5732 124.48,53.6128 124.927,53.6528 125.374,53.6924 125.82,53.7324 126.268,53.772 126.714,53.8115 127.161,53.8516 127.608,53.8911 128.055,53.9307 128.501,53.9707 128.948,54.0103 129.396,54.0498 129.842,54.0898 130.289,54.1294 130.736,54.1689 131.183,54.2085 131.629,54.2485 132.076,54.2881 132.523,54.3276 132.97,54.3672 133.417,54.4067 133.864,54.4468 134.311,54.4863 134.757,54.5259 135.204,54.5654 135.651,54.605 136.098,54.6445 136.545,54.6846 136.992,54.7241 137.438,54.7637 137.885,54.8032 138.332,54.8428 138.779,54.8823 139.226,54.9219 139.673,54.9614 140.12,55.001 140.566,55.0405 141.013,55.0801 141.46,55.1196 141.907,55.1592 142.354,55.1992 142.801,55.2383 143.248,55.2783 143.694,55.3174 144.141,55.3569 144.588,55.3965 145.035,55.436 145.482,55.4756 145.929,55.5151 146.375,55.5547 146.822,55.5942 147.269,55.6338 147.716,55.6733 148.163,55.7129 148.61,55.7524 149.057,55.792 149.503,55.8311 149.95,55.8706 150.397,55.9102 150.844,55.9497 151.291,55.9893 151.738,56.0283 152.185,56.0679 152.631,56.1074 153.078,56.147 153.525,56.1865 153.972,56.2256 154.419,56.2651 154.866,56.3047 155.312,56.3442 155.759,56.3833 156.206,56.4229 156.653,56.4624 157.1,56.5015 157.547,56.541 157.994,56.5806 158.44,56.6196 158.887,56.6592 159.334,56.6987 159.781,56.7378 160.228,56.7773 160.675,56.8169 161.122,56.856 161.568,56.8955 162.015,56.9346 162.462,56.9741 162.909,57.0132 163.355,57.0527 163.803,57.0923 164.25,57.1313 164.696,57.1709 165.143,57.21 165.59,57.2495 166.037,57.2886 166.483,57.3281 166.931,57.3672 167.377,57.4067 167.824,57.4458 168.271,57.4849 168.718,57.5244 169.165,57.5635 169.611,57.603 170.059,57.6421 170.505,57.6816 170.952,57.7207 171.399,57.7598 171.846,57.7993 172.292,57.8384 172.739,57.8774 173.187,57.917 173.633,57.9561 174.08,57.9951 174.527,58.0347 174.974,58.0732 175.42,58.1069 175.867,58.0947 176.314,57.73 176.761,56.1499 177.208,53.8257 177.655,53.3613 178.102,53.3584 178.548,53.3584 178.995,53.3579 179.442,53.3579 179.889,53.3579 180.336,53.3579 180.783,53.3579 181.229,53.3579 181.676,53.3579 182.123,53.3579 182.57,53.3579 183.017,53.3579 183.464,53.3579 183.911,53.3579 184.357,53.3579 184.804,53.3579 185.251,53.3579 185.698,53.3579 186.145,53.3579 186.592,53.3579 187.039,53.3579 187.485,53.3579 187.932,53.3579 188.379,53.3579 188.826,53.3579 189.273,53.3579 189.72,53.3579 190.167,53.3579 190.613,53.3579 191.06,53.3579 191.507,53.3579 191.954,53.3579 192.401,53.3579 192.848,53.3579 193.294,53.3579 193.741,53.3579 194.188,53.3579 194.635,53.3584 195.082,53.3584 195.529,53.3618 195.976,53.373 196.422,53.3994 196.869,53.4351 197.316,53.4741 197.763,53.5137 198.21,53.5532 198.657,53.5933 199.104,53.6328 199.55,53.6729 199.997,53.7124 200.444,53.752 200.891,53.792 201.338,53.8315 201.785,53.8711 202.231,53.9111 202.678,53.9507 203.125,53.9902 203.572,54.0303 204.019,54.0698 204.466,54.1094 204.913,54.1489 205.359,54.189 205.806,54.2285 206.253,54.2681 206.7,54.3076 207.146,54.3477 207.594,54.3872 208.041,54.4268 208.487,54.4663 208.934,54.5059 209.381,54.5459 209.828,54.5854 210.274,54.625 210.722,54.6646 211.168,54.7041 211.615,54.7437 212.062,54.7832 212.509,54.8232 212.956,54.8628 213.402,54.9023 213.849,54.9419 214.296,54.9814 214.743,55.021 215.19,55.0605 215.637,55.1001 216.083,55.1396 216.53,55.1792 216.978,55.2188 217.424,55.2583 217.871,55.2979 218.318,55.3374 218.765,55.377 219.211,55.4165 219.658,55.4561 220.105,55.4956 220.552,55.5352 220.999,55.5747 221.446,55.6143 221.893,55.6533 222.339,55.6929 222.786,55.7324 223.233,55.772 223.68,55.8115 224.127,55.8511 224.574,55.8906 225.021,55.9297 225.467,55.9692 225.914,56.0088 226.361,56.0483 226.808,56.0879 227.255,56.127 227.702,56.1665 228.148,56.2061 228.595,56.2456 229.042,56.2847 229.489,56.3242 229.936,56.3638 230.383,56.4033 230.83,56.4424 231.276,56.4819 231.723,56.5215 232.17,56.5605 232.617,56.6001 233.064,56.6396 233.511,56.6787 233.958,56.7183 234.404,56.7578 234.851,56.7969 235.298,56.8364 235.745,56.8755 236.192,56.915 236.639,56.9546 237.085,56.9937 237.532,57.0332 237.979,57.0723 238.426,57.1118 238.873,57.1509 239.32,57.1904 239.767,57.2295 240.213,57.269 240.66,57.3081 241.107,57.3477 241.554,57.3867 242,57.4263 242.448,57.4653 242.895,57.5049 243.341,57.5439 243.788,57.583 244.235,57.6226 244.682,57.6616 245.128,57.7012 245.576,57.7402 246.022,57.7793 246.469,57.8188 246.916,57.8579 247.363,57.8975 247.81,57.9365 248.256,57.9756 248.704,58.0151 249.15,58.0542 249.597,58.0918 250.044,58.1143 250.491,58.0015 250.938,57.1323 251.384,54.9248 251.832,53.3809 252.278,53.3584 252.725,53.3584 253.172,53.3579 253.619,53.3579 254.065,53.3579 254.512,53.3579 254.959,53.3579 255.406,53.3579 255.853,53.3579 256.3,53.3579 256.747,53.3579 257.193,53.3579 257.64,53.3579 258.087,53.3579 258.534,53.3579 258.981,53.3579 259.428,53.3579 259.875,53.3579 260.321,53.3579 260.768,53.3579 261.215,53.3579 261.662,53.3579 262.109,53.3579 262.556,53.3579 263.002,53.3579 263.449,53.3579 263.896,53.3579 264.343,53.3579 264.79,53.3579 265.237,53.3579 265.684,53.3579 266.13,53.3579 266.577,53.3579 267.024,53.3579 267.471,53.3579 267.918,53.3579 268.365,53.3579 268.812,53.3584 269.258,53.3584 269.705,53.3599 270.152,53.3657 270.599,53.3848 271.046,53.4165 271.493,53.4546 271.939,53.4937 272.386,53.5337 272.833,53.5732 273.28,53.6128 273.727,53.6528 274.174,53.6924 274.621,53.7324 275.067,53.772 275.514,53.8115 275.961,53.8516 276.408,53.8911 276.855,53.9307 277.302,53.9707 277.749,54.0103 278.195,54.0498 278.642,54.0898 279.089,54.1294 279.536,54.1689 279.983,54.2085 280.43,54.2485 280.876,54.2881 281.323,54.3276 281.77,54.3672 282.217,54.4067 282.664,54.4468 283.111,54.4863 283.558,54.5259 284.004,54.5654 284.451,54.605 284.898,54.6445 285.345,54.6846 285.792,54.7241 286.239,54.7637 286.686,54.8032 287.132,54.8428 287.579,54.8823 288.026,54.9219 288.473,54.9614 288.919,55.001 289.367,55.0405 289.813,55.0801 290.26,55.1196 290.707,55.1592 291.154,55.1992 291.601,55.2383 292.047,55.2783 292.495,55.3174 292.941,55.3569 293.388,55.3965 293.835,55.436 294.282,55.4756 294.729,55.5151 295.175,55.5547 295.623,55.5942 296.069,55.6338 296.516,55.6733 296.963,55.7129 297.41,55.7524 297.856,55.7915 298.303,55.8311 298.75,55.8706 299.197,55.9102 299.644,55.9497 300.091,55.9893 300.538,56.0283 300.984,56.0679 301.431,56.1074 301.878,56.147 302.325,56.1865 302.772,56.2256 303.219,56.2651 303.666,56.3047 304.112,56.3442 304.559,56.3833 305.006,56.4229 305.453,56.4624 305.9,56.5015 306.347,56.541 306.793,56.5806 307.24,56.6196 307.687,56.6592 308.134,56.6987 308.581,56.7378 309.028,56.7773 309.475,56.8169 309.921,56.856 310.368,56.8955 310.815,56.9346 311.262,56.9741 311.709,57.0132 312.156,57.0527 312.603,57.0923 313.049,57.1313 313.496,57.1709 313.943,57.21 314.39,57.2495 314.837,57.2886 315.284,57.3281 315.73,57.3672 316.177,57.4067 316.624,57.4458 317.071,57.4849 317.518,57.5244 317.965,57.5635 318.412,57.603 318.858,57.6421 319.305,57.6816 319.752,57.7207 320.199,57.7598 320.646,57.7993 321.093,57.8384 321.54,57.8774 321.986,57.917 322.433,57.9561 322.88,57.9951 323.327,58.0347 323.773,58.0732 324.221,58.1069 324.667,58.0947 325.114,57.73 325.561,56.1499 326.008,53.8257 326.455,53.3613 326.901,53.3584 327.349,53.3584 327.795,53.3579 328.242,53.3579 328.689,53.3579 329.136,53.3579 329.583,53.3579 330.03,53.3579 330.477,53.3579 330.923,53.3579 331.37,53.3579 331.817,53.3579 332.264,53.3579 332.71,53.3579 333.157,53.3579 333.604,53.3579 334.051,53.3579 334.498,53.3579 334.945,53.3579 335.392,53.3579 335.838,53.3579 336.285,53.3579 336.732,53.3579 337.179,53.3579 337.626,53.3579 338.073,53.3579 338.52,53.3579 338.966,53.3579 339.413,53.3579 339.86,53.3579 340.307,53.3579 340.754,53.3579 341.201,53.3579 341.647,53.3579 342.094,53.3579 342.542,53.3579 342.988,53.3579 343.435,53.3584 343.882,53.3584 344.329,53.3618 344.775,53.373 345.222,53.3994 345.669,53.4351 346.116,53.4741 346.563,53.5137 347.01,53.5532 347.457,53.5933 347.903,53.6328 348.35,53.6729 348.797,53.7124 349.244,53.752 349.691,53.792 350.138,53.8315 350.584,53.8711 351.031,53.9111 351.478,53.9507 351.925,53.9902 352.372,54.0303 352.819,54.0698 353.266,54.1094 353.712,54.1489 354.159,54.189 354.606,54.2285 355.053,54.2681 355.5,54.3076 355.947,54.3477 356.394,54.3872 356.84,54.4268 357.287,54.4663 357.734,54.5059 358.181,54.5459 358.628,54.5854 359.075,54.625 359.521,54.6646 359.968,54.7041 360.415,54.7437 360.862,54.7832 361.309,54.8232 361.756,54.8628 362.203,54.9023 362.649,54.9419 363.096,54.9814 363.543,55.021 363.99,55.0605 364.437,55.1001 364.884,55.1396 365.331,55.1792 365.777,55.2188 366.224,55.2583 366.671,55.2979 367.118,55.3374 367.564,55.377 368.012,55.4165 368.458,55.4561 368.905,55.4956 369.352,55.5352 369.799,55.5747 370.246,55.6143 370.692,55.6533 371.14,55.6929 371.586,55.7324 372.033,55.772 372.48,55.8115 372.927,55.8511 373.374,55.8906 373.82,55.9297 374.268,55.9692 374.714,56.0088 375.161,56.0483 375.608,56.0879 376.055,56.127 376.501,56.1665 376.948,56.2061 377.396,56.2456 377.842,56.2847 378.289,56.3242 378.736,56.3638 379.183,56.4033 379.629,56.4424 380.076,56.4819 380.523,56.5215 380.97,56.5605 381.417,56.6001 381.864,56.6396 382.311,56.6787 382.757,56.7183 383.204,56.7578 383.651,56.7969 384.098,56.8364 384.545,56.8755 384.992,56.915 385.438,56.9546 385.885,56.9937 386.332,57.0332 386.779,57.0723 387.226,57.1118 387.673,57.1509 388.12,57.1904 388.566,57.2295 389.013,57.269 389.46,57.3081 389.907,57.3477 390.354,57.3867 390.801,57.4263 391.248,57.4653 391.694,57.5049 392.141,57.5439 392.588,57.583 393.035,57.6226 393.482,57.6616 393.929,57.7012 394.375,57.7402 394.822,57.7793 395.269,57.8188 395.716,57.8579 396.163,57.8975 396.61,57.9365 397.057,57.9756 397.503,58.0151 397.95,58.0542 398.397,58.0918 398.844,58.1143 399.291,58.0015 399.738,57.1323 400.185,54.9248 400.631,53.3809 401.078,53.3584 401.525,53.3584 401.972,53.3579 402.419,53.3579 402.866,53.3579 403.312,53.3579 403.759,53.3579 404.206,53.3579 404.653,53.3579 405.1,53.3579 405.547,53.3579 405.994,53.3579 406.44,53.3579 406.887,53.3579 407.334,53.3579 407.781,53.3579 408.228,53.3579 408.674,53.3579 409.122,53.3579 409.568,53.3579 410.015,53.3579 410.462,53.3579 410.909,53.3579 411.355,53.3579 411.803,53.3579 412.25,53.3579 412.696,53.3579 413.143,53.3579 413.59,53.3579 414.037,53.3579 414.483,53.3579 414.931,53.3579 415.377,53.3579 415.824,53.3579 416.271,53.3579 416.718,53.3579 417.165,53.3579 417.611,53.3584 418.059,53.3584 418.505,53.3599 418.952,53.3657 419.399,53.3848 419.846,53.4165 420.292,53.4546 420.739,53.4937 421.186,53.5337 421.633,53.5732 422.08,53.6128 422.527,53.6528 422.974,53.6924 423.42,53.7324 423.867,53.772 424.314,53.8115 424.761,53.8516 425.208,53.8911 425.655,53.9307 426.102,53.9707 426.548,54.0103 426.995,54.0498 427.442,54.0898 427.889,54.1294 428.336,54.1689 428.783,54.2085 429.229,54.2485 429.676,54.2881 430.123,54.3276 430.57,54.3672 431.017,54.4067 431.464,54.4468 431.911,54.4863 432.357,54.5259 432.804,54.5654 433.251,54.605 433.698,54.6445 434.145,54.6846 434.592,54.7241 435.039,54.7637 435.485,54.8032 435.932,54.8428 436.379,54.8823 436.826,54.9219 437.273,54.9614 437.72,55.001 438.167,55.0405 438.613,55.0801 439.06,55.1196 439.507,55.1592 439.954,55.1992 440.401,55.2383 440.848,55.2783 441.294,55.3174 441.741,55.3569 442.188,55.3965 442.635,55.436 443.082,55.4756 443.529,55.5151 443.976,55.5547 444.422,55.5942 444.869,55.6338 445.316,55.6733 445.763,55.7129 446.209,55.7524 446.657,55.7915 447.104,55.8311 447.55,55.8706 447.997,55.9102 448.444,55.9497 448.891,55.9893 449.337,56.0283 449.785,56.0679 450.231,56.1074 450.678,56.147 451.125,56.1865 451.572,56.2256 452.019,56.2651 452.466,56.3047 452.913,56.3442 453.359,56.3833 453.806,56.4229 454.253,56.4624 454.7,56.5015 455.146,56.541 455.594,56.5806 456.041,56.6196 456.487,56.6592 456.934,56.6987 457.381,56.7378 457.828,56.7773 458.274,56.8169 458.721,56.856 459.168,56.8955 459.615,56.9346 460.062,56.9741 460.509,57.0132 460.956,57.0527 461.402,57.0923 461.849,57.1313 462.296,57.1709 462.743,57.21 463.19,57.2495 463.637,57.2886 464.083,57.3281 464.53,57.3672 464.977,57.4067 465.424,57.4458 465.871,57.4849 466.318,57.5244 466.765,57.5635 467.211,57.603 467.658,57.6421 468.105,57.6816 468.552,57.7207 468.999,57.7598 469.446,57.7993 469.893,57.8384 470.339,57.8774 470.786,57.917 471.233,57.9561 471.68,57.9951 472.127,58.0347 472.574,58.0732 473.021,58.1069 473.467,58.0947 473.914,57.73 474.361,56.1499 474.808,53.8257 475.255,53.3613 475.702,53.3584 476.148,53.3584 476.595,53.3579 477.042,53.3579 477.489,53.3579 477.936,53.3579 478.383,53.3579 478.83,53.3579 479.276,53.3579 479.723,53.3579 480.17,53.3579 480.617,53.3579 481.064,53.3579 481.511,53.3579 481.958,53.3579 482.404,53.3579 482.851,53.3579 483.298,53.3579 483.745,53.3579 484.192,53.3579 484.639,53.3579 485.085,53.3579 485.532,53.3579 485.979,53.3579 486.426,53.3579 486.873,53.3579 487.32,53.3579 487.767,53.3579 488.213,53.3579 488.66,53.3579 489.107,53.3579 489.554,53.3579 490,53.3579 490.448,53.3579 490.895,53.3579 491.341,53.3579 491.788,53.3579 492.235,53.3584 492.682,53.3584 493.128,53.3618 493.576,53.373 494.022,53.3994 494.469,53.4351 494.916,53.4741 495.363,53.5137 495.81,53.5532 496.256,53.5933 496.704,53.6328 497.15,53.6729 497.597,53.7124 498.044,53.752 498.491,53.792 498.938,53.8315 499.384,53.8711 499.831,53.9111 500.278,53.9507 500.725,53.9902 501.172,54.0303 501.619,54.0698 502.065,54.1094 502.512,54.1489 502.959,54.189 503.406,54.2285 503.853,54.2681 504.3,54.3076 504.747,54.3477 505.193,54.3872 505.64,54.4268 506.087,54.4663 506.534,54.5059 506.981,54.5459 507.428,54.5854 507.875,54.625 508.321,54.6646 508.768,54.7041 509.215,54.7437 509.662,54.7832 510.109,54.8232 510.556,54.8628 511.002,54.9023 511.449,54.9419 511.896,54.9814 512.343,55.021 512.79,55.0605 513.237,55.1001 513.684,55.1396 514.13,55.1792 514.577,55.2188 515.024,55.2583 515.471,55.2979 515.918,55.3374 516.365,55.377 516.812,55.4165 517.258,55.4561 517.705,55.4956 518.152,55.5352 518.599,55.5747 519.046,55.6143 519.493,55.6533 519.939,55.6929 520.386,55.7324 520.833,55.772 521.28,55.8115" stroke-width="0.5"/>
  </g>
  <clipPath id="cp00576432">
   <polygon points="0,432 576,432 576,0 0,0"/>
  </clipPath>
  <g clip-path="url(#cp00576432)">
   <polygon shape-rendering="crispEdges" fill="#ffffff" points="459.077,372.83 509.63,372.83 509.63,330.668 459.077,330.668"/>
   <polyline stroke="#262626" stroke-linecap="square" stroke-linejoin="miter" fill="none" points="459.077,372.83 509.63,372.83" stroke-width="0.5" stroke-dasharray="16,0"/>
   <polyline stroke="#262626" stroke-linecap="square" stroke-linejoin="miter" fill="none" points="459.077,330.668 509.63,330.668" stroke-width="0.5" stroke-dasharray="16,0"/>
   <polyline stroke="#262626" stroke-linecap="square" stroke-linejoin="miter" fill="none" points="459.077,372.83 459.077,330.668" stroke-width="0.5" stroke-dasharray="16,0"/>
   <polyline stroke="#262626" stroke-linecap="square" stroke-linejoin="miter" fill="none" points="509.63,372.83 509.63,330.668" stroke-width="0.5" stroke-dasharray="16,0"/>
   <text font-style="normal" font-family="FreeSans" transform="translate(487.717,341.695) rotate(-0,-0,-4)" font-size="9" font-weight="normal" xml:space="preserve">
    <tspan fill="rgb(0,0,0)" x="0 5 10 12 " y="-0">10 V</tspan>
   </text>
   <text font-style="normal" font-family="FreeSans" transform="translate(487.717,355.749) rotate(-0,-0,-4)" font-size="9" font-weight="normal" xml:space="preserve">
    <tspan fill="rgb(0,0,0)" x="0 5 10 12 " y="-0">12 V</tspan>
   </text>
   <text font-style="normal" font-family="FreeSans" transform="translate(487.717,369.803) rotate(-0,-0,-4)" font-size="9" font-weight="normal" xml:space="preserve">
    <tspan fill="rgb(0,0,0)" x="0 5 10 12 " y="-0">14 V</tspan>
   </text>
   <polyline stroke="#0071bc" stroke-linecap="butt" stroke-linejoin="round" fill="none" points="462.475,337.695 484.319,337.695" stroke-width="0.5"/>
   <polyline stroke="#d85218" stroke-linecap="butt" stroke-linejoin="round" fill="none" points="462.475,351.749 484.319,351.749" stroke-width="0.5"/>
   <polyline stroke="#ecb01f" stroke-linecap="butt" stroke-linejoin="round" fill="none" points="462.475,365.803 484.319,365.803" stroke-width="0.5"/>
  </g>
 </g>
</svg>
