<?xml version='1.0' encoding='UTF-8' standalone='no'?>
<svg width="576pt" height="432pt" viewBox="0 0 576 432" xmlns="http://www.w3.org/2000/svg" xmlns:xlink="http://www.w3.org/1999/xlink">
 <title>gl2ps_renderer figure</title>
 <desc>
Creator: GL2PS 1.4.0, (C) 1999-2017 C. Geuzaine
For: Octave
CreationDate: Tue Nov 24 10:31:22 2020
</desc>
 <defs/>
 <polygon points="0,0 576,0 576,432 0,432" fill="#ffffff"/>
 <g>
  <polygon points="0,432 576,432 576,0 0,0" fill="#ffffff" shape-rendering="crispEdges"/>
  <clipPath id="cp00576432">
   <polygon points="0,432 576,432 576,0 0,0"/>
  </clipPath>
  <g clip-path="url(#cp00576432)">
   <polygon points="74.8799,384.48 521.28,384.48 521.28,32.3999 74.8799,32.3999" fill="#ffffff" shape-rendering="crispEdges"/>
   <polyline stroke-width="0.5" stroke-opacity="0.15" stroke="#262626" points="74.8799,384.48 74.8799,32.3999" fill="none" stroke-linecap="butt" stroke-dasharray="16,0" stroke-linejoin="miter"/>
   <polyline stroke-width="0.5" stroke-opacity="0.15" stroke="#262626" points="186.48,384.48 186.48,32.3999" fill="none" stroke-linecap="butt" stroke-dasharray="16,0" stroke-linejoin="miter"/>
   <polyline stroke-width="0.5" stroke-opacity="0.15" stroke="#262626" points="298.08,384.48 298.08,32.3999" fill="none" stroke-linecap="butt" stroke-dasharray="16,0" stroke-linejoin="miter"/>
   <polyline stroke-width="0.5" stroke-opacity="0.15" stroke="#262626" points="409.68,384.48 409.68,32.3999" fill="none" stroke-linecap="butt" stroke-dasharray="16,0" stroke-linejoin="miter"/>
   <polyline stroke-width="0.5" stroke-opacity="0.15" stroke="#262626" points="521.28,384.48 521.28,32.3999" fill="none" stroke-linecap="butt" stroke-dasharray="16,0" stroke-linejoin="miter"/>
   <polyline stroke-width="0.5" stroke="#262626" points="74.8799,384.48 74.8799,380.015" fill="none" stroke-linecap="butt" stroke-linejoin="miter"/>
   <polyline stroke-width="0.5" stroke="#262626" points="74.8799,32.3999 74.8799,36.8652" fill="none" stroke-linecap="butt" stroke-linejoin="miter"/>
   <polyline stroke-width="0.5" stroke="#262626" points="186.48,384.48 186.48,380.015" fill="none" stroke-linecap="butt" stroke-linejoin="miter"/>
   <polyline stroke-width="0.5" stroke="#262626" points="186.48,32.3999 186.48,36.8652" fill="none" stroke-linecap="butt" stroke-linejoin="miter"/>
   <polyline stroke-width="0.5" stroke="#262626" points="298.08,384.48 298.08,380.015" fill="none" stroke-linecap="butt" stroke-linejoin="miter"/>
   <polyline stroke-width="0.5" stroke="#262626" points="298.08,32.3999 298.08,36.8652" fill="none" stroke-linecap="butt" stroke-linejoin="miter"/>
   <polyline stroke-width="0.5" stroke="#262626" points="409.68,384.48 409.68,380.015" fill="none" stroke-linecap="butt" stroke-linejoin="miter"/>
   <polyline stroke-width="0.5" stroke="#262626" points="409.68,32.3999 409.68,36.8652" fill="none" stroke-linecap="butt" stroke-linejoin="miter"/>
   <polyline stroke-width="0.5" stroke="#262626" points="521.28,384.48 521.28,380.015" fill="none" stroke-linecap="butt" stroke-linejoin="miter"/>
   <polyline stroke-width="0.5" stroke="#262626" points="521.28,32.3999 521.28,36.8652" fill="none" stroke-linecap="butt" stroke-linejoin="miter"/>
   <text xml:space="preserve" transform="translate(71.88,399.982) rotate(-0,3,-8)" font-family="FreeSans" font-style="normal" font-weight="normal" font-size="10">
    <tspan x="0 " y="-0" fill="rgb(38,38,38)">0</tspan>
   </text>
   <text xml:space="preserve" transform="translate(175.98,399.982) rotate(-0,10.5,-8)" font-family="FreeSans" font-style="normal" font-weight="normal" font-size="10">
    <tspan x="0 6 9 15 " y="-0" fill="rgb(38,38,38)">0.02</tspan>
   </text>
   <text xml:space="preserve" transform="translate(287.58,399.982) rotate(-0,10.5,-8)" font-family="FreeSans" font-style="normal" font-weight="normal" font-size="10">
    <tspan x="0 6 9 15 " y="-0" fill="rgb(38,38,38)">0.04</tspan>
   </text>
   <text xml:space="preserve" transform="translate(399.18,399.982) rotate(-0,10.5,-8)" font-family="FreeSans" font-style="normal" font-weight="normal" font-size="10">
    <tspan x="0 6 9 15 " y="-0" fill="rgb(38,38,38)">0.06</tspan>
   </text>
   <text xml:space="preserve" transform="translate(510.78,399.982) rotate(-0,10.5,-8)" font-family="FreeSans" font-style="normal" font-weight="normal" font-size="10">
    <tspan x="0 6 9 15 " y="-0" fill="rgb(38,38,38)">0.08</tspan>
   </text>
   <polyline stroke-width="0.5" stroke-opacity="0.15" stroke="#262626" points="74.8799,384.48 521.28,384.48" fill="none" stroke-linecap="butt" stroke-dasharray="16,0" stroke-linejoin="miter"/>
   <polyline stroke-width="0.5" stroke-opacity="0.15" stroke="#262626" points="74.8799,314.064 521.28,314.064" fill="none" stroke-linecap="butt" stroke-dasharray="16,0" stroke-linejoin="miter"/>
   <polyline stroke-width="0.5" stroke-opacity="0.15" stroke="#262626" points="74.8799,243.648 521.28,243.648" fill="none" stroke-linecap="butt" stroke-dasharray="16,0" stroke-linejoin="miter"/>
   <polyline stroke-width="0.5" stroke-opacity="0.15" stroke="#262626" points="74.8799,173.232 521.28,173.232" fill="none" stroke-linecap="butt" stroke-dasharray="16,0" stroke-linejoin="miter"/>
   <polyline stroke-width="0.5" stroke-opacity="0.15" stroke="#262626" points="74.8799,102.816 521.28,102.816" fill="none" stroke-linecap="butt" stroke-dasharray="16,0" stroke-linejoin="miter"/>
   <polyline stroke-width="0.5" stroke-opacity="0.15" stroke="#262626" points="74.8799,32.3999 521.28,32.3999" fill="none" stroke-linecap="butt" stroke-dasharray="16,0" stroke-linejoin="miter"/>
   <polyline stroke-width="0.5" stroke="#262626" points="74.8799,384.48 79.3481,384.48" fill="none" stroke-linecap="butt" stroke-linejoin="miter"/>
   <polyline stroke-width="0.5" stroke="#262626" points="521.28,384.48 516.812,384.48" fill="none" stroke-linecap="butt" stroke-linejoin="miter"/>
   <polyline stroke-width="0.5" stroke="#262626" points="74.8799,314.064 79.3481,314.064" fill="none" stroke-linecap="butt" stroke-linejoin="miter"/>
   <polyline stroke-width="0.5" stroke="#262626" points="521.28,314.064 516.812,314.064" fill="none" stroke-linecap="butt" stroke-linejoin="miter"/>
   <polyline stroke-width="0.5" stroke="#262626" points="74.8799,243.648 79.3481,243.648" fill="none" stroke-linecap="butt" stroke-linejoin="miter"/>
   <polyline stroke-width="0.5" stroke="#262626" points="521.28,243.648 516.812,243.648" fill="none" stroke-linecap="butt" stroke-linejoin="miter"/>
   <polyline stroke-width="0.5" stroke="#262626" points="74.8799,173.232 79.3481,173.232" fill="none" stroke-linecap="butt" stroke-linejoin="miter"/>
   <polyline stroke-width="0.5" stroke="#262626" points="521.28,173.232 516.812,173.232" fill="none" stroke-linecap="butt" stroke-linejoin="miter"/>
   <polyline stroke-width="0.5" stroke="#262626" points="74.8799,102.816 79.3481,102.816" fill="none" stroke-linecap="butt" stroke-linejoin="miter"/>
   <polyline stroke-width="0.5" stroke="#262626" points="521.28,102.816 516.812,102.816" fill="none" stroke-linecap="butt" stroke-linejoin="miter"/>
   <polyline stroke-width="0.5" stroke="#262626" points="74.8799,32.3999 79.3481,32.3999" fill="none" stroke-linecap="butt" stroke-linejoin="miter"/>
   <polyline stroke-width="0.5" stroke="#262626" points="521.28,32.3999 516.812,32.3999" fill="none" stroke-linecap="butt" stroke-linejoin="miter"/>
   <text xml:space="preserve" transform="translate(63.8755,388.48) rotate(-0,6,-4)" font-family="FreeSans" font-style="normal" font-weight="normal" font-size="10">
    <tspan x="0 " y="-0" fill="rgb(38,38,38)">0</tspan>
   </text>
   <text xml:space="preserve" transform="translate(54.8755,318.064) rotate(-0,15,-4)" font-family="FreeSans" font-style="normal" font-weight="normal" font-size="10">
    <tspan x="0 6 9 " y="-0" fill="rgb(38,38,38)">0.5</tspan>
   </text>
   <text xml:space="preserve" transform="translate(63.8755,247.648) rotate(-0,6,-4)" font-family="FreeSans" font-style="normal" font-weight="normal" font-size="10">
    <tspan x="0 " y="-0" fill="rgb(38,38,38)">1</tspan>
   </text>
   <text xml:space="preserve" transform="translate(54.8755,177.232) rotate(-0,15,-4)" font-family="FreeSans" font-style="normal" font-weight="normal" font-size="10">
    <tspan x="0 6 9 " y="-0" fill="rgb(38,38,38)">1.5</tspan>
   </text>
   <text xml:space="preserve" transform="translate(63.8755,106.816) rotate(-0,6,-4)" font-family="FreeSans" font-style="normal" font-weight="normal" font-size="10">
    <tspan x="0 " y="-0" fill="rgb(38,38,38)">2</tspan>
   </text>
   <text xml:space="preserve" transform="translate(54.8755,36.4) rotate(-0,15,-4)" font-family="FreeSans" font-style="normal" font-weight="normal" font-size="10">
    <tspan x="0 6 9 " y="-0" fill="rgb(38,38,38)">2.5</tspan>
   </text>
   <polyline stroke-width="0.5" stroke="#262626" points="74.8799,384.48 521.28,384.48" fill="none" stroke-linecap="square" stroke-dasharray="16,0" stroke-linejoin="miter"/>
   <polyline stroke-width="0.5" stroke="#262626" points="74.8799,32.3999 521.28,32.3999" fill="none" stroke-linecap="square" stroke-dasharray="16,0" stroke-linejoin="miter"/>
   <polyline stroke-width="0.5" stroke="#262626" points="74.8799,384.48 74.8799,32.3999" fill="none" stroke-linecap="square" stroke-dasharray="16,0" stroke-linejoin="miter"/>
   <polyline stroke-width="0.5" stroke="#262626" points="521.28,384.48 521.28,32.3999" fill="none" stroke-linecap="square" stroke-dasharray="16,0" stroke-linejoin="miter"/>
   <text xml:space="preserve" transform="translate(50.58,22.4) rotate(-0,247.5,0)" font-family="FreeSans" font-style="normal" font-weight="bold" font-size="11">
    <tspan x="0 9 16 20 27 34 38 42 49 56 59 63 69 76 82 88 94 101 104 114 120 123 127 134 138 141 145 153 160 166 172 175 181 " y="-6" fill="rgb(0,0,0)">Output-VoltagevsTime for:(RL=0.1k</tspan>
    <tspan x="187 " y="-6" fill="rgb(0,0,0)">Ω</tspan>
    <tspan x="196 199 207 214 220 226 " y="-6" fill="rgb(0,0,0)">;RL=1k</tspan>
    <tspan x="232 " y="-6" fill="rgb(0,0,0)">Ω</tspan>
    <tspan x="241 244 252 259 265 271 277 " y="-6" fill="rgb(0,0,0)">;RL=10k</tspan>
    <tspan x="283 " y="-6" fill="rgb(0,0,0)">Ω</tspan>
    <tspan x="292 296 303 307 310 317 323 330 336 340 348 351 358 365 371 374 381 387 393 399 406 409 413 419 426 433 436 442 446 453 457 460 463 " y="-6" fill="rgb(0,0,0)">)of ZenerDiode based regulator; V</tspan>
    <tspan x="470 " y="-0" fill="rgb(0,0,0)" font-size="9">B</tspan>
    <tspan x="476 482 488 " y="-6" fill="rgb(0,0,0)">=5V</tspan>
   </text>
   <text xml:space="preserve" transform="translate(19.3755,208.44) rotate(-90,30.5,0)" font-family="FreeSans" font-style="normal" font-weight="normal" font-size="11">
    <tspan x="0 7 13 15 18 24 30 36 39 41 47 50 52 59 " y="-2" fill="rgb(38,38,38)">Voltage in 'V'</tspan>
   </text>
   <text xml:space="preserve" transform="translate(274.58,413.982) rotate(-0,23.5,-9)" font-family="FreeSans" font-style="normal" font-weight="normal" font-size="11">
    <tspan x="0 7 9 18 24 27 29 35 38 40 45 " y="-0" fill="rgb(38,38,38)">Time in 's'</tspan>
   </text>
   <polyline stroke-width="0.5" stroke="#0071bc" points="74.8799,384.48 75.3267,384.48 75.7734,384.48 76.2207,384.48 76.6675,384.479 77.1143,384.394 77.561,376.613 78.0078,356.093 78.4546,335.226 78.9014,314.461 79.3486,293.815 79.7954,273.299 80.2422,252.927 80.689,232.712 81.1357,212.666 81.5825,192.802 82.0293,173.133 82.4766,153.671 82.9233,134.428 83.3701,115.417 83.8169,96.6499 84.2637,82.7065 84.7104,82.7002 85.1572,82.6992 85.6045,82.6992 86.0513,82.6992 86.498,82.6992 86.9448,82.6992 87.3916,82.6992 87.8384,82.6992 88.2856,82.6992 88.7324,82.6992 89.1792,82.6992 89.626,82.6992 90.0728,82.6992 90.5195,82.6992 90.9663,82.6992 91.4131,82.6992 91.8604,82.6992 92.3071,82.6992 92.7539,82.6992 93.2007,82.6992 93.6475,82.6992 94.0942,82.6992 94.541,82.6992 94.9883,82.6992 95.4351,82.6992 95.8818,82.6992 96.3286,82.6992 96.7754,82.6992 97.2222,82.6992 97.6689,82.6992 98.1162,82.6992 98.563,82.6992 99.0098,82.6992 99.4565,82.6992 99.9033,82.6992 100.35,82.6992 100.797,82.6992 101.244,82.6992 101.691,82.6992 102.138,82.6992 102.584,82.6992 103.031,82.6992 103.478,82.6992 103.925,82.6992 104.372,82.6992 104.819,82.6992 105.266,82.6992 105.712,82.6992 106.159,82.6992 106.606,82.6992 107.053,82.6992 107.5,82.6992 107.947,82.6992 108.394,82.6992 108.84,82.6992 109.287,82.6992 109.734,82.6992 110.181,82.6992 110.628,82.6992 111.075,82.6992 111.521,82.6992 111.968,82.6992 112.415,82.6992 112.862,82.6992 113.309,82.6992 113.756,82.6992 114.203,82.6992 114.649,82.6992 115.096,82.6992 115.543,82.6992 115.99,82.6992 116.437,82.6992 116.884,82.6992 117.331,82.6992 117.777,82.6992 118.224,82.6992 118.671,82.6992 119.118,82.6992 119.564,82.6992 120.012,82.6992 120.458,82.6992 120.905,82.6997 121.352,82.8477 121.799,84.1548 122.246,86.4922 122.692,88.8682 123.14,91.2261 123.586,93.5649 124.033,95.8853 124.48,98.187 124.927,100.471 125.374,102.736 125.82,104.983 126.268,107.212 126.714,109.424 127.161,111.618 127.608,113.794 128.055,115.953 128.501,118.095 128.948,120.22 129.396,122.327 129.842,124.418 130.289,126.493 130.736,128.55 131.183,130.592 131.629,132.617 132.076,134.625 132.523,136.618 132.97,138.595 133.417,140.557 133.864,142.502 134.311,144.432 134.757,146.347 135.204,148.246 135.651,150.13 136.098,152 136.545,153.854 136.992,155.693 137.438,157.518 137.885,159.141 138.332,151.05 138.779,132.039 139.226,113.057 139.673,94.3237 140.12,82.6992 140.566,82.6997 141.013,82.6992 141.46,82.6992 141.907,82.6992 142.354,82.6992 142.801,82.6992 143.248,82.6992 143.694,82.6992 144.141,82.6992 144.588,82.6992 145.035,82.6992 145.482,82.6992 145.929,82.6992 146.375,82.6992 146.822,82.6992 147.269,82.6992 147.716,82.6992 148.163,82.6992 148.61,82.6992 149.057,82.6992 149.503,82.6992 149.95,82.6992 150.397,82.6992 150.844,82.6992 151.291,82.6992 151.738,82.6992 152.185,82.6992 152.631,82.6992 153.078,82.6992 153.525,82.6992 153.972,82.6992 154.419,82.6992 154.866,82.6992 155.312,82.6992 155.759,82.6992 156.206,82.6992 156.653,82.6992 157.1,82.6992 157.547,82.6992 157.994,82.6992 158.44,82.6992 158.887,82.6992 159.334,82.6992 159.781,82.6992 160.228,82.6992 160.675,82.6992 161.122,82.6992 161.568,82.6992 162.015,82.6992 162.462,82.6992 162.909,82.6992 163.355,82.6992 163.803,82.6992 164.25,82.6992 164.696,82.6992 165.143,82.6992 165.59,82.6992 166.037,82.6992 166.483,82.6992 166.931,82.6992 167.377,82.6992 167.824,82.6992 168.271,82.6992 168.718,82.6992 169.165,82.6992 169.611,82.6992 170.059,82.6992 170.505,82.6992 170.952,82.6992 171.399,82.6992 171.846,82.6992 172.292,82.6992 172.739,82.6992 173.187,82.6992 173.633,82.6992 174.08,82.6992 174.527,82.6992 174.974,82.6992 175.42,82.6992 175.867,82.6992 176.314,82.6992 176.761,82.6997 177.208,82.7461 177.655,84.6987 178.102,87.0366 178.548,89.4082 178.995,91.7617 179.442,94.0967 179.889,96.4126 180.336,98.7104 180.783,100.99 181.229,103.25 181.676,105.494 182.123,107.719 182.57,109.926 183.017,112.116 183.464,114.289 183.911,116.444 184.357,118.582 184.804,120.702 185.251,122.806 185.698,124.894 186.145,126.964 186.592,129.018 187.039,131.055 187.485,133.077 187.932,135.082 188.379,137.071 188.826,139.044 189.273,141.002 189.72,142.944 190.167,144.871 190.613,146.782 191.06,148.678 191.507,150.559 191.954,152.424 192.401,154.275 192.848,156.111 193.294,157.931 193.741,159.293 194.188,148.776 194.635,129.653 195.082,110.702 195.529,92.0078 195.976,82.6763 196.422,82.6992 196.869,82.6992 197.316,82.6992 197.763,82.6992 198.21,82.6992 198.657,82.6992 199.104,82.6992 199.55,82.6992 199.997,82.6992 200.444,82.6992 200.891,82.6992 201.338,82.6992 201.785,82.6992 202.231,82.6992 202.678,82.6992 203.125,82.6992 203.572,82.6992 204.019,82.6992 204.466,82.6992 204.913,82.6992 205.359,82.6992 205.806,82.6992 206.253,82.6992 206.7,82.6992 207.146,82.6992 207.594,82.6992 208.041,82.6992 208.487,82.6992 208.934,82.6992 209.381,82.6992 209.828,82.6992 210.274,82.6992 210.722,82.6992 211.168,82.6992 211.615,82.6992 212.062,82.6992 212.509,82.6992 212.956,82.6992 213.402,82.6992 213.85,82.6992 214.296,82.6992 214.743,82.6992 215.19,82.6992 215.637,82.6992 216.083,82.6992 216.53,82.6992 216.978,82.6992 217.424,82.6992 217.871,82.6992 218.318,82.6992 218.765,82.6992 219.211,82.6992 219.658,82.6992 220.105,82.6992 220.552,82.6992 220.999,82.6992 221.446,82.6992 221.893,82.6992 222.339,82.6992 222.786,82.6992 223.233,82.6992 223.68,82.6992 224.127,82.6992 224.574,82.6992 225.021,82.6992 225.467,82.6992 225.914,82.6992 226.361,82.6992 226.808,82.6992 227.255,82.6992 227.702,82.6992 228.148,82.6992 228.595,82.6992 229.042,82.6992 229.489,82.6992 229.936,82.6992 230.383,82.6992 230.83,82.6992 231.276,82.6992 231.723,82.6992 232.17,82.6992 232.617,82.6958 233.064,82.6074 233.511,85.0186 233.958,87.374 234.404,89.7437 234.851,92.0942 235.298,94.4263 235.745,96.7397 236.192,99.0352 236.639,101.312 237.085,103.57 237.532,105.811 237.979,108.033 238.426,110.238 238.873,112.426 239.32,114.596 239.767,116.748 240.213,118.884 240.66,121.002 241.107,123.104 241.554,125.188 242,127.256 242.448,129.308 242.895,131.343 243.341,133.362 243.788,135.365 244.235,137.352 244.682,139.323 245.128,141.279 245.576,143.219 246.022,145.143 246.469,147.052 246.916,148.945 247.363,150.824 247.81,152.688 248.256,154.537 248.704,156.371 249.15,158.187 249.597,159.135 250.044,146.421 250.491,127.271 250.938,108.35 251.384,89.7158 251.832,82.7017 252.278,82.6992 252.725,82.6992 253.172,82.6992 253.619,82.6992 254.065,82.6992 254.512,82.6992 254.959,82.6992 255.406,82.6992 255.853,82.6992 256.3,82.6992 256.747,82.6992 257.193,82.6992 257.64,82.6992 258.087,82.6992 258.534,82.6992 258.981,82.6992 259.428,82.6992 259.875,82.6992 260.321,82.6992 260.768,82.6992 261.215,82.6992 261.662,82.6992 262.109,82.6992 262.556,82.6992 263.002,82.6992 263.449,82.6992 263.896,82.6992 264.343,82.6992 264.79,82.6992 265.237,82.6992 265.684,82.6992 266.13,82.6992 266.577,82.6992 267.024,82.6992 267.471,82.6992 267.918,82.6992 268.365,82.6992 268.812,82.6992 269.258,82.6992 269.705,82.6992 270.152,82.6992 270.599,82.6992 271.046,82.6992 271.493,82.6992 271.939,82.6992 272.386,82.6992 272.833,82.6992 273.28,82.6992 273.727,82.6992 274.174,82.6992 274.621,82.6992 275.067,82.6992 275.514,82.6992 275.961,82.6992 276.408,82.6992 276.855,82.6992 277.302,82.6992 277.749,82.6992 278.195,82.6992 278.642,82.6992 279.089,82.6992 279.536,82.6992 279.983,82.6992 280.43,82.6992 280.876,82.6992 281.323,82.6992 281.77,82.6992 282.217,82.6992 282.664,82.6992 283.111,82.6992 283.558,82.6992 284.004,82.6992 284.451,82.6992 284.898,82.6992 285.345,82.6992 285.792,82.6992 286.239,82.6992 286.686,82.6992 287.132,82.6992 287.579,82.6992 288.026,82.6992 288.473,82.7007 288.919,82.9648 289.367,84.9976 289.813,87.3691 290.26,89.7388 290.707,92.0894 291.154,94.4214 291.601,96.7349 292.047,99.0303 292.495,101.307 292.941,103.565 293.388,105.806 293.835,108.029 294.282,110.234 294.729,112.421 295.175,114.591 295.623,116.744 296.069,118.879 296.516,120.998 296.963,123.099 297.41,125.184 297.856,127.252 298.303,129.304 298.75,131.339 299.197,133.358 299.644,135.361 300.091,137.348 300.538,139.319 300.984,141.275 301.431,143.214 301.878,145.139 302.325,147.048 302.772,148.941 303.219,150.82 303.666,152.684 304.112,154.533 304.559,156.367 305.006,158.181 305.453,158.512 305.9,144.022 306.347,124.893 306.793,106.001 307.24,87.4961 307.687,82.7109 308.134,82.6997 308.581,82.6992 309.028,82.6992 309.475,82.6992 309.921,82.6992 310.368,82.6992 310.815,82.6992 311.262,82.6992 311.709,82.6992 312.156,82.6992 312.603,82.6992 313.049,82.6992 313.496,82.6992 313.943,82.6992 314.39,82.6992 314.837,82.6992 315.284,82.6992 315.73,82.6992 316.177,82.6992 316.624,82.6992 317.071,82.6992 317.518,82.6992 317.965,82.6992 318.412,82.6992 318.858,82.6992 319.305,82.6992 319.752,82.6992 320.199,82.6992 320.646,82.6992 321.093,82.6992 321.54,82.6992 321.986,82.6992 322.433,82.6992 322.88,82.6992 323.327,82.6992 323.773,82.6992 324.221,82.6992 324.667,82.6992 325.114,82.6992 325.561,82.6992 326.008,82.6992 326.455,82.6992 326.902,82.6992 327.349,82.6992 327.795,82.6992 328.242,82.6992 328.689,82.6992 329.136,82.6992 329.583,82.6992 330.03,82.6992 330.477,82.6992 330.923,82.6992 331.37,82.6992 331.817,82.6992 332.264,82.6992 332.71,82.6992 333.157,82.6992 333.604,82.6992 334.051,82.6992 334.498,82.6992 334.945,82.6992 335.392,82.6992 335.838,82.6992 336.286,82.6992 336.732,82.6992 337.179,82.6992 337.626,82.6992 338.073,82.6992 338.52,82.6992 338.966,82.6992 339.414,82.6992 339.86,82.6992 340.307,82.6992 340.754,82.6992 341.201,82.6992 341.647,82.6992 342.094,82.6992 342.541,82.6992 342.988,82.6992 343.435,82.6992 343.882,82.6997 344.329,82.7202 344.775,83.3467 345.222,85.3257 345.669,87.7012 346.116,90.0684 346.563,92.4165 347.01,94.7461 347.457,97.0566 347.903,99.3496 348.35,101.624 348.797,103.88 349.244,106.118 349.691,108.338 350.138,110.541 350.584,112.726 351.031,114.893 351.478,117.043 351.925,119.176 352.372,121.292 352.819,123.392 353.266,125.474 353.712,127.54 354.159,129.589 354.606,131.622 355.053,133.639 355.5,135.64 355.947,137.625 356.394,139.593 356.84,141.547 357.287,143.484 357.734,145.407 358.181,147.313 358.628,149.205 359.075,151.082 359.521,152.943 359.968,154.79 360.415,156.622 360.862,158.428 361.309,157.729 361.756,141.615 362.203,122.518 362.649,103.658 363.096,85.4858 363.543,82.71 363.99,82.6997 364.437,82.6992 364.884,82.6992 365.331,82.6992 365.777,82.6992 366.224,82.6992 366.671,82.6992 367.118,82.6992 367.564,82.6992 368.012,82.6992 368.458,82.6992 368.905,82.6992 369.352,82.6992 369.799,82.6992 370.246,82.6992 370.692,82.6992 371.14,82.6992 371.586,82.6992 372.033,82.6992 372.48,82.6992 372.927,82.6992 373.374,82.6992 373.82,82.6992 374.268,82.6992 374.714,82.6992 375.161,82.6992 375.608,82.6992 376.055,82.6992 376.501,82.6992 376.948,82.6992 377.396,82.6992 377.842,82.6992 378.289,82.6992 378.736,82.6992 379.183,82.6992 379.629,82.6992 380.076,82.6992 380.523,82.6992 380.97,82.6992 381.417,82.6992 381.864,82.6992 382.311,82.6992 382.757,82.6992 383.204,82.6992 383.651,82.6992 384.098,82.6992 384.545,82.6992 384.992,82.6992 385.438,82.6992 385.885,82.6992 386.332,82.6992 386.779,82.6992 387.226,82.6992 387.673,82.6992 388.12,82.6992 388.566,82.6992 389.013,82.6992 389.46,82.6992 389.907,82.6992 390.354,82.6992 390.801,82.6992 391.248,82.6992 391.694,82.6992 392.141,82.6992 392.588,82.6992 393.035,82.6992 393.482,82.6992 393.929,82.6992 394.375,82.6992 394.822,82.6992 395.269,82.6992 395.716,82.6992 396.163,82.6992 396.61,82.6992 397.057,82.6992 397.503,82.6992 397.95,82.6992 398.397,82.6992 398.844,82.6992 399.291,82.6992 399.738,82.6997 400.185,82.7651 400.631,83.3174 401.078,85.5015 401.525,87.8804 401.972,90.2461 402.419,92.5928 402.866,94.9209 403.312,97.2305 403.759,99.5215 404.206,101.794 404.653,104.049 405.1,106.286 405.547,108.505 405.994,110.706 406.44,112.89 406.887,115.056 407.334,117.205 407.781,119.336 408.228,121.451 408.675,123.549 409.122,125.63 409.568,127.695 410.015,129.743 410.462,131.775 410.909,133.791 411.355,135.79 411.803,137.773 412.25,139.741 412.696,141.693 413.143,143.63 413.59,145.551 414.037,147.457 414.483,149.347 414.931,151.223 415.377,153.083 415.824,154.929 416.271,156.759 416.718,158.552 417.165,156.502 417.611,139.214 418.059,120.147 418.505,101.317 418.952,83.9414 419.399,82.7056 419.846,82.6992 420.292,82.6992 420.739,82.6992 421.187,82.6992 421.633,82.6992 422.08,82.6992 422.527,82.6992 422.974,82.6992 423.42,82.6992 423.867,82.6992 424.314,82.6992 424.761,82.6992 425.208,82.6992 425.655,82.6992 426.102,82.6992 426.548,82.6992 426.995,82.6992 427.442,82.6992 427.889,82.6992 428.336,82.6992 428.783,82.6992 429.229,82.6992 429.676,82.6992 430.123,82.6992 430.57,82.6992 431.017,82.6992 431.464,82.6992 431.911,82.6992 432.357,82.6992 432.804,82.6992 433.251,82.6992 433.698,82.6992 434.145,82.6992 434.592,82.6992 435.039,82.6992 435.485,82.6992 435.932,82.6992 436.379,82.6992 436.826,82.6992 437.273,82.6992 437.72,82.6992 438.167,82.6992 438.613,82.6992 439.06,82.6992 439.507,82.6992 439.954,82.6992 440.401,82.6992 440.848,82.6992 441.294,82.6992 441.741,82.6992 442.188,82.6992 442.635,82.6992 443.082,82.6992 443.529,82.6992 443.976,82.6992 444.422,82.6992 444.869,82.6992 445.316,82.6992 445.763,82.6992 446.21,82.6992 446.657,82.6992 447.104,82.6992 447.55,82.6992 447.997,82.6992 448.444,82.6992 448.891,82.6992 449.337,82.6992 449.785,82.6992 450.231,82.6992 450.678,82.6992 451.125,82.6992 451.572,82.6992 452.019,82.6992 452.466,82.6992 452.913,82.6992 453.359,82.6992 453.806,82.6992 454.253,82.6992 454.7,82.6992 455.146,82.6992 455.594,82.7002 456.041,82.8262 456.487,83.0474 456.934,85.3804 457.381,87.7632 457.828,90.1299 458.274,92.4775 458.722,94.8066 459.168,97.1172 459.615,99.4092 460.062,101.683 460.509,103.938 460.956,106.176 461.402,108.396 461.85,110.598 462.296,112.782 462.743,114.949 463.19,117.099 463.637,119.232 464.083,121.348 464.53,123.446 464.977,125.528 465.424,127.594 465.871,129.643 466.318,131.675 466.765,133.691 467.211,135.692 467.658,137.676 468.105,139.645 468.552,141.598 468.999,143.535 469.446,145.457 469.893,147.363 470.339,149.254 470.786,151.13 471.233,152.992 471.68,154.838 472.127,156.669 472.574,158.441 473.021,154.867 473.467,136.82 473.914,117.78 474.361,98.9814 474.808,83.0493 475.255,82.7012 475.702,82.6992 476.148,82.6992 476.595,82.6992 477.042,82.6992 477.489,82.6992 477.936,82.6992 478.383,82.6992 478.83,82.6992 479.276,82.6992 479.723,82.6992 480.17,82.6992 480.617,82.6992 481.064,82.6992 481.511,82.6992 481.958,82.6992 482.404,82.6992 482.851,82.6992 483.298,82.6992 483.745,82.6992 484.192,82.6992 484.639,82.6992 485.085,82.6992 485.532,82.6992 485.979,82.6992 486.426,82.6992 486.873,82.6992 487.32,82.6992 487.767,82.6992 488.213,82.6992 488.66,82.6992 489.107,82.6992 489.554,82.6992 490.001,82.6992 490.448,82.6992 490.895,82.6992 491.341,82.6992 491.788,82.6992 492.235,82.6992 492.682,82.6992 493.128,82.6992 493.576,82.6992 494.022,82.6992 494.469,82.6992 494.916,82.6992 495.363,82.6992 495.81,82.6992 496.256,82.6992 496.704,82.6992 497.15,82.6992 497.597,82.6992 498.044,82.6992 498.491,82.6992 498.938,82.6992 499.384,82.6992 499.832,82.6992 500.278,82.6992 500.725,82.6992 501.172,82.6992 501.619,82.6992 502.065,82.6992 502.512,82.6992 502.959,82.6992 503.406,82.6992 503.853,82.6992 504.3,82.6992 504.747,82.6992 505.193,82.6992 505.64,82.6992 506.087,82.6992 506.534,82.6992 506.981,82.6992 507.428,82.6992 507.875,82.6992 508.321,82.6992 508.769,82.6992 509.215,82.6992 509.662,82.6992 510.109,82.6992 510.556,82.6992 511.002,82.6992 511.449,82.7007 511.896,82.8364 512.343,83.4316 512.79,85.7612 513.237,88.1421 513.684,90.5059 514.13,92.8506 514.577,95.1768 515.024,97.4839 515.471,99.7734 515.918,102.044 516.365,104.297 516.812,106.531 517.258,108.749 517.705,110.948 518.152,113.129 518.599,115.293 519.046,117.441 519.493,119.571 519.939,121.684 520.386,123.78 520.833,125.859 521.28,127.922" fill="none" stroke-linecap="butt" stroke-linejoin="round"/>
   <polyline stroke-width="0.5" stroke="#d85218" points="74.8799,384.48 75.3267,384.48 75.7734,384.48 76.2207,384.48 76.6675,384.479 77.1143,384.394 77.561,376.605 78.0078,356.063 78.4546,335.168 78.9014,314.378 79.3486,293.706 79.7954,273.165 80.2422,252.767 80.689,232.525 81.1357,212.453 81.5825,192.563 82.0293,172.867 82.4766,153.378 82.9233,134.108 83.3701,115.07 83.8169,96.2759 84.2637,82.6323 84.7104,82.6997 85.1572,82.6992 85.6045,82.6992 86.0513,82.6992 86.498,82.6992 86.9448,82.6992 87.3916,82.6992 87.8384,82.6992 88.2856,82.6992 88.7324,82.6992 89.1792,82.6992 89.626,82.6992 90.0728,82.6992 90.5195,82.6992 90.9663,82.6992 91.4131,82.6992 91.8604,82.6992 92.3071,82.6992 92.7539,82.6992 93.2007,82.6992 93.6475,82.6992 94.0942,82.6992 94.541,82.6992 94.9883,82.6992 95.4351,82.6992 95.8818,82.6992 96.3286,82.6992 96.7754,82.6992 97.2222,82.6992 97.6689,82.6992 98.1162,82.6992 98.563,82.6992 99.0098,82.6992 99.4565,82.6992 99.9033,82.6992 100.35,82.6992 100.797,82.6992 101.244,82.6992 101.691,82.6992 102.138,82.6992 102.584,82.6992 103.031,82.6992 103.478,82.6992 103.925,82.6992 104.372,82.6992 104.819,82.6992 105.266,82.6992 105.712,82.6992 106.159,82.6992 106.606,82.6992 107.053,82.6992 107.5,82.6992 107.947,82.6992 108.394,82.6992 108.84,82.6992 109.287,82.6992 109.734,82.6992 110.181,82.6992 110.628,82.6992 111.075,82.6992 111.521,82.6992 111.968,82.6992 112.415,82.6992 112.862,82.6992 113.309,82.6992 113.756,82.6992 114.203,82.6992 114.649,82.6992 115.096,82.6992 115.543,82.6992 115.99,82.6992 116.437,82.6992 116.884,82.6992 117.331,82.6992 117.777,82.6992 118.224,82.6992 118.671,82.6992 119.118,82.6992 119.564,82.6992 120.012,82.6992 120.458,82.6992 120.905,82.6987 121.352,82.7793 121.799,82.8091 122.246,83.0459 122.692,83.2871 123.14,83.5283 123.586,83.769 124.033,84.0098 124.48,84.2505 124.927,84.4907 125.374,84.731 125.82,84.9707 126.268,85.2104 126.714,85.4502 127.161,85.6895 127.608,85.9287 128.055,86.1675 128.501,86.4062 128.948,86.645 129.396,86.8833 129.842,87.1216 130.289,87.3599 130.736,87.5977 131.183,87.8354 131.629,88.0728 132.076,88.3101 132.523,88.5469 132.97,88.7837 133.417,89.0205 133.864,89.2573 134.311,89.4937 134.757,89.7295 135.204,89.9653 135.651,90.2012 136.098,90.437 136.545,90.6724 136.992,90.9072 137.438,91.1426 137.885,91.377 138.332,91.6118 138.779,91.8462 139.226,92.0654 139.673,90.395 140.12,82.6606 140.566,82.6997 141.013,82.6992 141.46,82.6992 141.907,82.6992 142.354,82.6992 142.801,82.6992 143.248,82.6992 143.694,82.6992 144.141,82.6992 144.588,82.6992 145.035,82.6992 145.482,82.6992 145.929,82.6992 146.375,82.6992 146.822,82.6992 147.269,82.6992 147.716,82.6992 148.163,82.6992 148.61,82.6992 149.057,82.6992 149.503,82.6992 149.95,82.6992 150.397,82.6992 150.844,82.6992 151.291,82.6992 151.738,82.6992 152.185,82.6992 152.631,82.6992 153.078,82.6992 153.525,82.6992 153.972,82.6992 154.419,82.6992 154.866,82.6992 155.312,82.6992 155.759,82.6992 156.206,82.6992 156.653,82.6992 157.1,82.6992 157.547,82.6992 157.994,82.6992 158.44,82.6992 158.887,82.6992 159.334,82.6992 159.781,82.6992 160.228,82.6992 160.675,82.6992 161.122,82.6992 161.568,82.6992 162.015,82.6992 162.462,82.6992 162.909,82.6992 163.355,82.6992 163.803,82.6992 164.25,82.6992 164.696,82.6992 165.143,82.6992 165.59,82.6992 166.037,82.6992 166.483,82.6992 166.931,82.6992 167.377,82.6992 167.824,82.6992 168.271,82.6992 168.718,82.6992 169.165,82.6992 169.611,82.6992 170.059,82.6992 170.505,82.6992 170.952,82.6992 171.399,82.6992 171.846,82.6992 172.292,82.6992 172.739,82.6992 173.187,82.6992 173.633,82.6992 174.08,82.6992 174.527,82.6992 174.974,82.6992 175.42,82.6992 175.867,82.6992 176.314,82.6992 176.761,82.6978 177.208,82.8237 177.655,82.8237 178.102,83.0625 178.548,83.3037 178.995,83.5449 179.442,83.7856 179.889,84.0264 180.336,84.2671 180.783,84.5073 181.229,84.7476 181.676,84.9873 182.123,85.2271 182.57,85.4668 183.017,85.7061 183.464,85.9453 183.911,86.1841 184.357,86.4229 184.804,86.6616 185.251,86.8999 185.698,87.1382 186.145,87.376 186.592,87.6138 187.039,87.8516 187.485,88.0889 187.932,88.3262 188.379,88.5635 188.826,88.8003 189.273,89.0371 189.72,89.2734 190.167,89.5098 190.613,89.7461 191.06,89.9819 191.507,90.2178 191.954,90.4531 192.401,90.6885 192.848,90.9238 193.294,91.1587 193.741,91.3936 194.188,91.6279 194.635,91.8623 195.082,92.0684 195.529,89.3418 195.976,82.707 196.422,82.6992 196.869,82.6992 197.316,82.6992 197.763,82.6992 198.21,82.6992 198.657,82.6992 199.104,82.6992 199.55,82.6992 199.997,82.6992 200.444,82.6992 200.891,82.6992 201.338,82.6992 201.785,82.6992 202.231,82.6992 202.678,82.6992 203.125,82.6992 203.572,82.6992 204.019,82.6992 204.466,82.6992 204.913,82.6992 205.359,82.6992 205.806,82.6992 206.253,82.6992 206.7,82.6992 207.146,82.6992 207.594,82.6992 208.041,82.6992 208.487,82.6992 208.934,82.6992 209.381,82.6992 209.828,82.6992 210.274,82.6992 210.722,82.6992 211.168,82.6992 211.615,82.6992 212.062,82.6992 212.509,82.6992 212.956,82.6992 213.402,82.6992 213.85,82.6992 214.296,82.6992 214.743,82.6992 215.19,82.6992 215.637,82.6992 216.083,82.6992 216.53,82.6992 216.978,82.6992 217.424,82.6992 217.871,82.6992 218.318,82.6992 218.765,82.6992 219.211,82.6992 219.658,82.6992 220.105,82.6992 220.552,82.6992 220.999,82.6992 221.446,82.6992 221.893,82.6992 222.339,82.6992 222.786,82.6992 223.233,82.6992 223.68,82.6992 224.127,82.6992 224.574,82.6992 225.021,82.6992 225.467,82.6992 225.914,82.6992 226.361,82.6992 226.808,82.6992 227.255,82.6992 227.702,82.6992 228.148,82.6992 228.595,82.6992 229.042,82.6992 229.489,82.6992 229.936,82.6992 230.383,82.6992 230.83,82.6992 231.276,82.6992 231.723,82.6992 232.17,82.6992 232.617,82.7007 233.064,82.6948 233.511,82.9077 233.958,83.147 234.404,83.3882 234.851,83.6289 235.298,83.8701 235.745,84.1104 236.192,84.3511 236.639,84.5913 237.085,84.8315 237.532,85.0713 237.979,85.311 238.426,85.5503 238.873,85.7896 239.32,86.0288 239.767,86.2676 240.213,86.5063 240.66,86.7451 241.107,86.9834 241.554,87.2212 242,87.4595 242.448,87.6973 242.895,87.9346 243.341,88.1719 243.788,88.4092 244.235,88.646 244.682,88.8828 245.128,89.1196 245.576,89.356 246.022,89.5923 246.469,89.8281 246.916,90.064 247.363,90.2998 247.81,90.5352 248.256,90.7705 248.704,91.0059 249.15,91.2407 249.597,91.4756 250.044,91.71 250.491,91.9438 250.938,92.123 251.384,88.0054 251.832,82.7168 252.278,82.6992 252.725,82.6992 253.172,82.6992 253.619,82.6992 254.065,82.6992 254.512,82.6992 254.959,82.6992 255.406,82.6992 255.853,82.6992 256.3,82.6992 256.747,82.6992 257.193,82.6992 257.64,82.6992 258.087,82.6992 258.534,82.6992 258.981,82.6992 259.428,82.6992 259.875,82.6992 260.321,82.6992 260.768,82.6992 261.215,82.6992 261.662,82.6992 262.109,82.6992 262.556,82.6992 263.002,82.6992 263.449,82.6992 263.896,82.6992 264.343,82.6992 264.79,82.6992 265.237,82.6992 265.684,82.6992 266.13,82.6992 266.577,82.6992 267.024,82.6992 267.471,82.6992 267.918,82.6992 268.365,82.6992 268.812,82.6992 269.258,82.6992 269.705,82.6992 270.152,82.6992 270.599,82.6992 271.046,82.6992 271.493,82.6992 271.939,82.6992 272.386,82.6992 272.833,82.6992 273.28,82.6992 273.727,82.6992 274.174,82.6992 274.621,82.6992 275.067,82.6992 275.514,82.6992 275.961,82.6992 276.408,82.6992 276.855,82.6992 277.302,82.6992 277.749,82.6992 278.195,82.6992 278.642,82.6992 279.089,82.6992 279.536,82.6992 279.983,82.6992 280.43,82.6992 280.876,82.6992 281.323,82.6992 281.77,82.6992 282.217,82.6992 282.664,82.6992 283.111,82.6992 283.558,82.6992 284.004,82.6992 284.451,82.6992 284.898,82.6992 285.345,82.6992 285.792,82.6992 286.239,82.6992 286.686,82.6992 287.132,82.6992 287.579,82.6992 288.026,82.6992 288.473,82.7085 288.919,82.6396 289.367,82.9014 289.813,83.1421 290.26,83.3833 290.707,83.624 291.154,83.8647 291.601,84.1055 292.047,84.3462 292.495,84.5864 292.941,84.8262 293.388,85.0664 293.835,85.3057 294.282,85.5454 294.729,85.7847 295.175,86.0239 295.623,86.2627 296.069,86.5015 296.516,86.7397 296.963,86.978 297.41,87.2163 297.856,87.4541 298.303,87.6919 298.75,87.9297 299.197,88.167 299.644,88.4043 300.091,88.6411 300.538,88.8779 300.984,89.1147 301.431,89.3511 301.878,89.5874 302.325,89.8232 302.772,90.0591 303.219,90.2949 303.666,90.5303 304.112,90.7656 304.559,91.001 305.006,91.2358 305.453,91.4707 305.9,91.7051 306.347,91.939 306.793,92.0688 307.24,86.4204 307.687,82.7065 308.134,82.6992 308.581,82.6992 309.028,82.6992 309.475,82.6992 309.921,82.6992 310.368,82.6992 310.815,82.6992 311.262,82.6992 311.709,82.6992 312.156,82.6992 312.603,82.6992 313.049,82.6992 313.496,82.6992 313.943,82.6992 314.39,82.6992 314.837,82.6992 315.284,82.6992 315.73,82.6992 316.177,82.6992 316.624,82.6992 317.071,82.6992 317.518,82.6992 317.965,82.6992 318.412,82.6992 318.858,82.6992 319.305,82.6992 319.752,82.6992 320.199,82.6992 320.646,82.6992 321.093,82.6992 321.54,82.6992 321.986,82.6992 322.433,82.6992 322.88,82.6992 323.327,82.6992 323.773,82.6992 324.221,82.6992 324.667,82.6992 325.114,82.6992 325.561,82.6992 326.008,82.6992 326.455,82.6992 326.902,82.6992 327.349,82.6992 327.795,82.6992 328.242,82.6992 328.689,82.6992 329.136,82.6992 329.583,82.6992 330.03,82.6992 330.477,82.6992 330.923,82.6992 331.37,82.6992 331.817,82.6992 332.264,82.6992 332.71,82.6992 333.157,82.6992 333.604,82.6992 334.051,82.6992 334.498,82.6992 334.945,82.6992 335.392,82.6992 335.838,82.6992 336.286,82.6992 336.732,82.6992 337.179,82.6992 337.626,82.6992 338.073,82.6992 338.52,82.6992 338.966,82.6992 339.414,82.6992 339.86,82.6992 340.307,82.6992 340.754,82.6992 341.201,82.6992 341.647,82.6992 342.094,82.6992 342.541,82.6992 342.988,82.6992 343.435,82.6992 343.882,82.6992 344.329,82.7119 344.775,82.7246 345.222,82.9458 345.669,83.1865 346.116,83.4277 346.563,83.6689 347.01,83.9097 347.457,84.1504 347.903,84.3906 348.35,84.6309 348.797,84.8711 349.244,85.1108 349.691,85.3506 350.138,85.5898 350.584,85.8291 351.031,86.0684 351.478,86.3071 351.925,86.5459 352.372,86.7842 352.819,87.0225 353.266,87.2607 353.712,87.4985 354.159,87.7363 354.606,87.9736 355.053,88.2109 355.5,88.4482 355.947,88.6851 356.394,88.9219 356.84,89.1587 357.287,89.395 357.734,89.6313 358.181,89.8672 358.628,90.103 359.075,90.3389 359.521,90.5742 359.968,90.8096 360.415,91.0444 360.862,91.2793 361.309,91.5142 361.756,91.7485 362.203,91.9819 362.649,92.0156 363.096,84.8628 363.543,82.6992 363.99,82.6992 364.437,82.6992 364.884,82.6992 365.331,82.6992 365.777,82.6992 366.224,82.6992 366.671,82.6992 367.118,82.6992 367.564,82.6992 368.012,82.6992 368.458,82.6992 368.905,82.6992 369.352,82.6992 369.799,82.6992 370.246,82.6992 370.692,82.6992 371.14,82.6992 371.586,82.6992 372.033,82.6992 372.48,82.6992 372.927,82.6992 373.374,82.6992 373.82,82.6992 374.268,82.6992 374.714,82.6992 375.161,82.6992 375.608,82.6992 376.055,82.6992 376.501,82.6992 376.948,82.6992 377.396,82.6992 377.842,82.6992 378.289,82.6992 378.736,82.6992 379.183,82.6992 379.629,82.6992 380.076,82.6992 380.523,82.6992 380.97,82.6992 381.417,82.6992 381.864,82.6992 382.311,82.6992 382.757,82.6992 383.204,82.6992 383.651,82.6992 384.098,82.6992 384.545,82.6992 384.992,82.6992 385.438,82.6992 385.885,82.6992 386.332,82.6992 386.779,82.6992 387.226,82.6992 387.673,82.6992 388.12,82.6992 388.566,82.6992 389.013,82.6992 389.46,82.6992 389.907,82.6992 390.354,82.6992 390.801,82.6992 391.248,82.6992 391.694,82.6992 392.141,82.6992 392.588,82.6992 393.035,82.6992 393.482,82.6992 393.929,82.6992 394.375,82.6992 394.822,82.6992 395.269,82.6992 395.716,82.6992 396.163,82.6992 396.61,82.6992 397.057,82.6992 397.503,82.6992 397.95,82.6992 398.397,82.6992 398.844,82.6992 399.291,82.6992 399.738,82.6992 400.185,82.7046 400.631,82.8047 401.078,83.0142 401.525,83.2549 401.972,83.4961 402.419,83.7373 402.866,83.978 403.312,84.2183 403.759,84.4585 404.206,84.6987 404.653,84.939 405.1,85.1787 405.547,85.418 405.994,85.6577 406.44,85.897 406.887,86.1357 407.334,86.3745 407.781,86.6133 408.228,86.8516 408.675,87.0898 409.122,87.3281 409.568,87.5659 410.015,87.8037 410.462,88.041 410.909,88.2783 411.355,88.5156 411.803,88.7524 412.25,88.9893 412.696,89.2256 413.143,89.4619 413.59,89.6982 414.037,89.9341 414.483,90.1699 414.931,90.4053 415.377,90.6406 415.824,90.876 416.271,91.1113 416.718,91.3457 417.165,91.5806 417.611,91.8149 418.059,92.0469 418.505,91.8486 418.952,83.7397 419.399,82.6987 419.846,82.6992 420.292,82.6992 420.739,82.6992 421.187,82.6992 421.633,82.6992 422.08,82.6992 422.527,82.6992 422.974,82.6992 423.42,82.6992 423.867,82.6992 424.314,82.6992 424.761,82.6992 425.208,82.6992 425.655,82.6992 426.102,82.6992 426.548,82.6992 426.995,82.6992 427.442,82.6992 427.889,82.6992 428.336,82.6992 428.783,82.6992 429.229,82.6992 429.676,82.6992 430.123,82.6992 430.57,82.6992 431.017,82.6992 431.464,82.6992 431.911,82.6992 432.357,82.6992 432.804,82.6992 433.251,82.6992 433.698,82.6992 434.145,82.6992 434.592,82.6992 435.039,82.6992 435.485,82.6992 435.932,82.6992 436.379,82.6992 436.826,82.6992 437.273,82.6992 437.72,82.6992 438.167,82.6992 438.613,82.6992 439.06,82.6992 439.507,82.6992 439.954,82.6992 440.401,82.6992 440.848,82.6992 441.294,82.6992 441.741,82.6992 442.188,82.6992 442.635,82.6992 443.082,82.6992 443.529,82.6992 443.976,82.6992 444.422,82.6992 444.869,82.6992 445.316,82.6992 445.763,82.6992 446.21,82.6992 446.657,82.6992 447.104,82.6992 447.55,82.6992 447.997,82.6992 448.444,82.6992 448.891,82.6992 449.337,82.6992 449.785,82.6992 450.231,82.6992 450.678,82.6992 451.125,82.6992 451.572,82.6992 452.019,82.6992 452.466,82.6992 452.913,82.6992 453.359,82.6992 453.806,82.6992 454.253,82.6992 454.7,82.6992 455.146,82.6992 455.594,82.6992 456.041,82.7163 456.487,82.8242 456.934,83.0483 457.381,83.2896 457.828,83.5308 458.274,83.7715 458.722,84.0122 459.168,84.2529 459.615,84.4932 460.062,84.7334 460.509,84.9731 460.956,85.2129 461.402,85.4526 461.85,85.6919 462.296,85.9312 462.743,86.1699 463.19,86.4087 463.637,86.6475 464.083,86.8857 464.53,87.124 464.977,87.3618 465.424,87.6001 465.871,87.8374 466.318,88.0752 466.765,88.3125 467.211,88.5493 467.658,88.7861 468.105,89.0229 468.552,89.2593 468.999,89.4956 469.446,89.7319 469.893,89.9678 470.339,90.2036 470.786,90.439 471.233,90.6743 471.68,90.9097 472.127,91.1445 472.574,91.3794 473.021,91.6143 473.467,91.8486 473.914,92.0786 474.361,91.6323 474.808,82.8809 475.255,82.7002 475.702,82.6992 476.148,82.6992 476.595,82.6992 477.042,82.6992 477.489,82.6992 477.936,82.6992 478.383,82.6992 478.83,82.6992 479.276,82.6992 479.723,82.6992 480.17,82.6992 480.617,82.6992 481.064,82.6992 481.511,82.6992 481.958,82.6992 482.404,82.6992 482.851,82.6992 483.298,82.6992 483.745,82.6992 484.192,82.6992 484.639,82.6992 485.085,82.6992 485.532,82.6992 485.979,82.6992 486.426,82.6992 486.873,82.6992 487.32,82.6992 487.767,82.6992 488.213,82.6992 488.66,82.6992 489.107,82.6992 489.554,82.6992 490.001,82.6992 490.448,82.6992 490.895,82.6992 491.341,82.6992 491.788,82.6992 492.235,82.6992 492.682,82.6992 493.128,82.6992 493.576,82.6992 494.022,82.6992 494.469,82.6992 494.916,82.6992 495.363,82.6992 495.81,82.6992 496.256,82.6992 496.704,82.6992 497.15,82.6992 497.597,82.6992 498.044,82.6992 498.491,82.6992 498.938,82.6992 499.384,82.6992 499.832,82.6992 500.278,82.6992 500.725,82.6992 501.172,82.6992 501.619,82.6992 502.065,82.6992 502.512,82.6992 502.959,82.6992 503.406,82.6992 503.853,82.6992 504.3,82.6992 504.747,82.6992 505.193,82.6992 505.64,82.6992 506.087,82.6992 506.534,82.6992 506.981,82.6992 507.428,82.6992 507.875,82.6992 508.321,82.6992 508.769,82.6992 509.215,82.6992 509.662,82.6992 510.109,82.6992 510.556,82.6992 511.002,82.6992 511.449,82.6992 511.896,82.6587 512.343,83.0552 512.79,83.2656 513.237,83.5068 513.684,83.7476 514.13,83.9883 514.577,84.229 515.024,84.4692 515.471,84.7095 515.918,84.9492 516.365,85.189 516.812,85.4287 517.258,85.668 517.705,85.9072 518.152,86.1465 518.599,86.3853 519.046,86.6235 519.493,86.8623 519.939,87.1006 520.386,87.3384 520.833,87.5762 521.28,87.814" fill="none" stroke-linecap="butt" stroke-linejoin="round"/>
   <polyline stroke-width="0.5" stroke="#ecb01f" points="74.8799,384.48 75.3267,384.48 75.7734,384.48 76.2207,384.48 76.6675,384.479 77.1143,384.394 77.561,376.604 78.0078,356.06 78.4546,335.163 78.9014,314.37 79.3486,293.695 79.7954,273.151 80.2422,252.75 80.689,232.506 81.1357,212.431 81.5825,192.538 82.0293,172.839 82.4766,153.348 82.9233,134.075 83.3701,115.034 83.8169,96.2358 84.2637,82.625 84.7104,82.6997 85.1572,82.6992 85.6045,82.6992 86.0513,82.6992 86.498,82.6992 86.9448,82.6992 87.3916,82.6992 87.8384,82.6992 88.2856,82.6992 88.7324,82.6992 89.1792,82.6992 89.626,82.6992 90.0728,82.6992 90.5195,82.6992 90.9663,82.6992 91.4131,82.6992 91.8604,82.6992 92.3071,82.6992 92.7539,82.6992 93.2007,82.6992 93.6475,82.6992 94.0942,82.6992 94.541,82.6992 94.9883,82.6992 95.4351,82.6992 95.8818,82.6992 96.3286,82.6992 96.7754,82.6992 97.2222,82.6992 97.6689,82.6992 98.1162,82.6992 98.563,82.6992 99.0098,82.6992 99.4565,82.6992 99.9033,82.6992 100.35,82.6992 100.797,82.6992 101.244,82.6992 101.691,82.6992 102.138,82.6992 102.584,82.6992 103.031,82.6992 103.478,82.6992 103.925,82.6992 104.372,82.6992 104.819,82.6992 105.266,82.6992 105.712,82.6992 106.159,82.6992 106.606,82.6992 107.053,82.6992 107.5,82.6992 107.947,82.6992 108.394,82.6992 108.84,82.6992 109.287,82.6992 109.734,82.6992 110.181,82.6992 110.628,82.6992 111.075,82.6992 111.521,82.6992 111.968,82.6992 112.415,82.6992 112.862,82.6992 113.309,82.6992 113.756,82.6992 114.203,82.6992 114.649,82.6992 115.096,82.6992 115.543,82.6992 115.99,82.6992 116.437,82.6992 116.884,82.6992 117.331,82.6992 117.777,82.6992 118.224,82.6992 118.671,82.6992 119.118,82.6992 119.564,82.6992 120.012,82.6992 120.458,82.6992 120.905,82.6987 121.352,82.7715 121.799,82.6733 122.246,82.6982 122.692,82.7227 123.14,82.7466 123.586,82.771 124.033,82.7949 124.48,82.8193 124.927,82.8433 125.374,82.8672 125.82,82.8916 126.268,82.9155 126.714,82.9399 127.161,82.9639 127.608,82.9883 128.055,83.0122 128.501,83.0366 128.948,83.0605 129.396,83.0845 129.842,83.1089 130.289,83.1328 130.736,83.1572 131.183,83.1812 131.629,83.2051 132.076,83.2295 132.523,83.2534 132.97,83.2778 133.417,83.3018 133.864,83.3262 134.311,83.3501 134.757,83.374 135.204,83.3984 135.651,83.4224 136.098,83.4463 136.545,83.4707 136.992,83.4946 137.438,83.519 137.885,83.543 138.332,83.5669 138.779,83.5913 139.226,83.6147 139.673,83.5435 140.12,82.6924 140.566,82.6992 141.013,82.6992 141.46,82.6992 141.907,82.6992 142.354,82.6992 142.801,82.6992 143.248,82.6992 143.694,82.6992 144.141,82.6992 144.588,82.6992 145.035,82.6992 145.482,82.6992 145.929,82.6992 146.375,82.6992 146.822,82.6992 147.269,82.6992 147.716,82.6992 148.163,82.6992 148.61,82.6992 149.057,82.6992 149.503,82.6992 149.95,82.6992 150.397,82.6992 150.844,82.6992 151.291,82.6992 151.738,82.6992 152.185,82.6992 152.631,82.6992 153.078,82.6992 153.525,82.6992 153.972,82.6992 154.419,82.6992 154.866,82.6992 155.312,82.6992 155.759,82.6992 156.206,82.6992 156.653,82.6992 157.1,82.6992 157.547,82.6992 157.994,82.6992 158.44,82.6992 158.887,82.6992 159.334,82.6992 159.781,82.6992 160.228,82.6992 160.675,82.6992 161.122,82.6992 161.568,82.6992 162.015,82.6992 162.462,82.6992 162.909,82.6992 163.355,82.6992 163.803,82.6992 164.25,82.6992 164.696,82.6992 165.143,82.6992 165.59,82.6992 166.037,82.6992 166.483,82.6992 166.931,82.6992 167.377,82.6992 167.824,82.6992 168.271,82.6992 168.718,82.6992 169.165,82.6992 169.611,82.6992 170.059,82.6992 170.505,82.6992 170.952,82.6992 171.399,82.6992 171.846,82.6992 172.292,82.6992 172.739,82.6992 173.187,82.6992 173.633,82.6992 174.08,82.6992 174.527,82.6992 174.974,82.6992 175.42,82.6992 175.867,82.6992 176.314,82.6992 176.761,82.6992 177.208,82.7192 177.655,82.708 178.102,82.7319 178.548,82.7563 178.995,82.7803 179.442,82.8047 179.889,82.8286 180.336,82.853 180.783,82.877 181.229,82.9014 181.676,82.9253 182.123,82.9497 182.57,82.9736 183.017,82.9976 183.464,83.022 183.911,83.0459 184.357,83.0703 184.804,83.0942 185.251,83.1187 185.698,83.1426 186.145,83.167 186.592,83.1909 187.039,83.2148 187.485,83.2393 187.932,83.2632 188.379,83.2876 188.826,83.3115 189.273,83.3354 189.72,83.3599 190.167,83.3838 190.613,83.4077 191.06,83.4321 191.507,83.4561 191.954,83.4805 192.401,83.5044 192.848,83.5283 193.294,83.5527 193.741,83.5767 194.188,83.6006 194.635,83.625 195.082,83.6479 195.529,83.4956 195.976,82.6997 196.422,82.6992 196.869,82.6992 197.316,82.6992 197.763,82.6992 198.21,82.6992 198.657,82.6992 199.104,82.6992 199.55,82.6992 199.997,82.6992 200.444,82.6992 200.891,82.6992 201.338,82.6992 201.785,82.6992 202.231,82.6992 202.678,82.6992 203.125,82.6992 203.572,82.6992 204.019,82.6992 204.466,82.6992 204.913,82.6992 205.359,82.6992 205.806,82.6992 206.253,82.6992 206.7,82.6992 207.146,82.6992 207.594,82.6992 208.041,82.6992 208.487,82.6992 208.934,82.6992 209.381,82.6992 209.828,82.6992 210.274,82.6992 210.722,82.6992 211.168,82.6992 211.615,82.6992 212.062,82.6992 212.509,82.6992 212.956,82.6992 213.402,82.6992 213.85,82.6992 214.296,82.6992 214.743,82.6992 215.19,82.6992 215.637,82.6992 216.083,82.6992 216.53,82.6992 216.978,82.6992 217.424,82.6992 217.871,82.6992 218.318,82.6992 218.765,82.6992 219.211,82.6992 219.658,82.6992 220.105,82.6992 220.552,82.6992 220.999,82.6992 221.446,82.6992 221.893,82.6992 222.339,82.6992 222.786,82.6992 223.233,82.6992 223.68,82.6992 224.127,82.6992 224.574,82.6992 225.021,82.6992 225.467,82.6992 225.914,82.6992 226.361,82.6992 226.808,82.6992 227.255,82.6992 227.702,82.6992 228.148,82.6992 228.595,82.6992 229.042,82.6992 229.489,82.6992 229.936,82.6992 230.383,82.6992 230.83,82.6992 231.276,82.6992 231.723,82.6992 232.17,82.6992 232.617,82.6992 233.064,82.7007 233.511,82.7202 233.958,82.7441 234.404,82.7681 234.851,82.7925 235.298,82.8164 235.745,82.8408 236.192,82.8647 236.639,82.8892 237.085,82.9131 237.532,82.9375 237.979,82.9614 238.426,82.9858 238.873,83.0098 239.32,83.0337 239.767,83.0581 240.213,83.082 240.66,83.1064 241.107,83.1304 241.554,83.1548 242,83.1787 242.448,83.2026 242.895,83.2271 243.341,83.251 243.788,83.2754 244.235,83.2993 244.682,83.3232 245.128,83.3477 245.576,83.3716 246.022,83.396 246.469,83.4199 246.916,83.4438 247.363,83.4683 247.81,83.4922 248.256,83.5161 248.704,83.5405 249.15,83.5645 249.597,83.5889 250.044,83.6128 250.491,83.6367 250.938,83.6587 251.384,83.3809 251.832,82.7021 252.278,82.6992 252.725,82.6992 253.172,82.6992 253.619,82.6992 254.065,82.6992 254.512,82.6992 254.959,82.6992 255.406,82.6992 255.853,82.6992 256.3,82.6992 256.747,82.6992 257.193,82.6992 257.64,82.6992 258.087,82.6992 258.534,82.6992 258.981,82.6992 259.428,82.6992 259.875,82.6992 260.321,82.6992 260.768,82.6992 261.215,82.6992 261.662,82.6992 262.109,82.6992 262.556,82.6992 263.002,82.6992 263.449,82.6992 263.896,82.6992 264.343,82.6992 264.79,82.6992 265.237,82.6992 265.684,82.6992 266.13,82.6992 266.577,82.6992 267.024,82.6992 267.471,82.6992 267.918,82.6992 268.365,82.6992 268.812,82.6992 269.258,82.6992 269.705,82.6992 270.152,82.6992 270.599,82.6992 271.046,82.6992 271.493,82.6992 271.939,82.6992 272.386,82.6992 272.833,82.6992 273.28,82.6992 273.727,82.6992 274.174,82.6992 274.621,82.6992 275.067,82.6992 275.514,82.6992 275.961,82.6992 276.408,82.6992 276.855,82.6992 277.302,82.6992 277.749,82.6992 278.195,82.6992 278.642,82.6992 279.089,82.6992 279.536,82.6992 279.983,82.6992 280.43,82.6992 280.876,82.6992 281.323,82.6992 281.77,82.6992 282.217,82.6992 282.664,82.6992 283.111,82.6992 283.558,82.6992 284.004,82.6992 284.451,82.6992 284.898,82.6992 285.345,82.6992 285.792,82.6992 286.239,82.6992 286.686,82.6992 287.132,82.6992 287.579,82.6992 288.026,82.6992 288.473,82.7007 288.919,82.6885 289.367,82.7178 289.813,82.7422 290.26,82.7661 290.707,82.7905 291.154,82.8145 291.601,82.8384 292.047,82.8628 292.495,82.8867 292.941,82.9111 293.388,82.9351 293.835,82.9595 294.282,82.9834 294.729,83.0078 295.175,83.0317 295.623,83.0562 296.069,83.0801 296.516,83.104 296.963,83.1284 297.41,83.1523 297.856,83.1768 298.303,83.2007 298.75,83.2246 299.197,83.249 299.644,83.2729 300.091,83.2974 300.538,83.3213 300.984,83.3457 301.431,83.3696 301.878,83.3936 302.325,83.418 302.772,83.4419 303.219,83.4658 303.666,83.4902 304.112,83.5142 304.559,83.5381 305.006,83.5625 305.453,83.5864 305.9,83.6108 306.347,83.6348 306.793,83.6543 307.24,83.2051 307.687,82.7007 308.134,82.6992 308.581,82.6992 309.028,82.6992 309.475,82.6992 309.921,82.6992 310.368,82.6992 310.815,82.6992 311.262,82.6992 311.709,82.6992 312.156,82.6992 312.603,82.6992 313.049,82.6992 313.496,82.6992 313.943,82.6992 314.39,82.6992 314.837,82.6992 315.284,82.6992 315.73,82.6992 316.177,82.6992 316.624,82.6992 317.071,82.6992 317.518,82.6992 317.965,82.6992 318.412,82.6992 318.858,82.6992 319.305,82.6992 319.752,82.6992 320.199,82.6992 320.646,82.6992 321.093,82.6992 321.54,82.6992 321.986,82.6992 322.433,82.6992 322.88,82.6992 323.327,82.6992 323.773,82.6992 324.221,82.6992 324.667,82.6992 325.114,82.6992 325.561,82.6992 326.008,82.6992 326.455,82.6992 326.902,82.6992 327.349,82.6992 327.795,82.6992 328.242,82.6992 328.689,82.6992 329.136,82.6992 329.583,82.6992 330.03,82.6992 330.477,82.6992 330.923,82.6992 331.37,82.6992 331.817,82.6992 332.264,82.6992 332.71,82.6992 333.157,82.6992 333.604,82.6992 334.051,82.6992 334.498,82.6992 334.945,82.6992 335.392,82.6992 335.838,82.6992 336.286,82.6992 336.732,82.6992 337.179,82.6992 337.626,82.6992 338.073,82.6992 338.52,82.6992 338.966,82.6992 339.414,82.6992 339.86,82.6992 340.307,82.6992 340.754,82.6992 341.201,82.6992 341.647,82.6992 342.094,82.6992 342.541,82.6992 342.988,82.6992 343.435,82.6992 343.882,82.6992 344.329,82.7017 344.775,82.7075 345.222,82.7275 345.669,82.7515 346.116,82.7759 346.563,82.7998 347.01,82.8242 347.457,82.8481 347.903,82.8726 348.35,82.8965 348.797,82.9209 349.244,82.9448 349.691,82.9692 350.138,82.9932 350.584,83.0176 351.031,83.0415 351.478,83.0654 351.925,83.0898 352.372,83.1138 352.819,83.1382 353.266,83.1621 353.712,83.1865 354.159,83.2104 354.606,83.2344 355.053,83.2588 355.5,83.2827 355.947,83.3066 356.394,83.3311 356.84,83.355 357.287,83.3794 357.734,83.4033 358.181,83.4272 358.628,83.4517 359.075,83.4756 359.521,83.5 359.968,83.5239 360.415,83.5479 360.862,83.5723 361.309,83.5962 361.756,83.6201 362.203,83.6445 362.649,83.6602 363.096,83.0073 363.543,82.6992 363.99,82.6992 364.437,82.6992 364.884,82.6992 365.331,82.6992 365.777,82.6992 366.224,82.6992 366.671,82.6992 367.118,82.6992 367.564,82.6992 368.012,82.6992 368.458,82.6992 368.905,82.6992 369.352,82.6992 369.799,82.6992 370.246,82.6992 370.692,82.6992 371.14,82.6992 371.586,82.6992 372.033,82.6992 372.48,82.6992 372.927,82.6992 373.374,82.6992 373.82,82.6992 374.268,82.6992 374.714,82.6992 375.161,82.6992 375.608,82.6992 376.055,82.6992 376.501,82.6992 376.948,82.6992 377.396,82.6992 377.842,82.6992 378.289,82.6992 378.736,82.6992 379.183,82.6992 379.629,82.6992 380.076,82.6992 380.523,82.6992 380.97,82.6992 381.417,82.6992 381.864,82.6992 382.311,82.6992 382.757,82.6992 383.204,82.6992 383.651,82.6992 384.098,82.6992 384.545,82.6992 384.992,82.6992 385.438,82.6992 385.885,82.6992 386.332,82.6992 386.779,82.6992 387.226,82.6992 387.673,82.6992 388.12,82.6992 388.566,82.6992 389.013,82.6992 389.46,82.6992 389.907,82.6992 390.354,82.6992 390.801,82.6992 391.248,82.6992 391.694,82.6992 392.141,82.6992 392.588,82.6992 393.035,82.6992 393.482,82.6992 393.929,82.6992 394.375,82.6992 394.822,82.6992 395.269,82.6992 395.716,82.6992 396.163,82.6992 396.61,82.6992 397.057,82.6992 397.503,82.6992 397.95,82.6992 398.397,82.6992 398.844,82.6992 399.291,82.6992 399.738,82.6992 400.185,82.6987 400.631,82.7041 401.078,82.7266 401.525,82.751 401.972,82.7749 402.419,82.7993 402.866,82.8232 403.312,82.8477 403.759,82.8716 404.206,82.896 404.653,82.9199 405.1,82.9438 405.547,82.9683 405.994,82.9922 406.44,83.0166 406.887,83.0405 407.334,83.0649 407.781,83.0889 408.228,83.1133 408.675,83.1372 409.122,83.1611 409.568,83.1855 410.015,83.2095 410.462,83.2339 410.909,83.2578 411.355,83.2817 411.803,83.3062 412.25,83.3301 412.696,83.3545 413.143,83.3784 413.59,83.4023 414.037,83.4268 414.483,83.4507 414.931,83.4746 415.377,83.499 415.824,83.5229 416.271,83.5469 416.718,83.5713 417.165,83.5952 417.611,83.6196 418.059,83.6436 418.505,83.6523 418.952,82.8306 419.399,82.6992 419.846,82.6992 420.292,82.6992 420.739,82.6992 421.187,82.6992 421.633,82.6992 422.08,82.6992 422.527,82.6992 422.974,82.6992 423.42,82.6992 423.867,82.6992 424.314,82.6992 424.761,82.6992 425.208,82.6992 425.655,82.6992 426.102,82.6992 426.548,82.6992 426.995,82.6992 427.442,82.6992 427.889,82.6992 428.336,82.6992 428.783,82.6992 429.229,82.6992 429.676,82.6992 430.123,82.6992 430.57,82.6992 431.017,82.6992 431.464,82.6992 431.911,82.6992 432.357,82.6992 432.804,82.6992 433.251,82.6992 433.698,82.6992 434.145,82.6992 434.592,82.6992 435.039,82.6992 435.485,82.6992 435.932,82.6992 436.379,82.6992 436.826,82.6992 437.273,82.6992 437.72,82.6992 438.167,82.6992 438.613,82.6992 439.06,82.6992 439.507,82.6992 439.954,82.6992 440.401,82.6992 440.848,82.6992 441.294,82.6992 441.741,82.6992 442.188,82.6992 442.635,82.6992 443.082,82.6992 443.529,82.6992 443.976,82.6992 444.422,82.6992 444.869,82.6992 445.316,82.6992 445.763,82.6992 446.21,82.6992 446.657,82.6992 447.104,82.6992 447.55,82.6992 447.997,82.6992 448.444,82.6992 448.891,82.6992 449.337,82.6992 449.785,82.6992 450.231,82.6992 450.678,82.6992 451.125,82.6992 451.572,82.6992 452.019,82.6992 452.466,82.6992 452.913,82.6992 453.359,82.6992 453.806,82.6992 454.253,82.6992 454.7,82.6992 455.146,82.6992 455.594,82.6992 456.041,82.6929 456.487,82.6919 456.934,82.7168 457.381,82.7407 457.828,82.7646 458.274,82.7891 458.722,82.813 459.168,82.8374 459.615,82.8613 460.062,82.8857 460.509,82.9097 460.956,82.9341 461.402,82.958 461.85,82.9824 462.296,83.0063 462.743,83.0308 463.19,83.0547 463.637,83.0786 464.083,83.103 464.53,83.127 464.977,83.1514 465.424,83.1753 465.871,83.1992 466.318,83.2236 466.765,83.2476 467.211,83.272 467.658,83.2959 468.105,83.3203 468.552,83.3442 468.999,83.3682 469.446,83.3926 469.893,83.4165 470.339,83.4404 470.786,83.4648 471.233,83.4888 471.68,83.5127 472.127,83.5371 472.574,83.561 473.021,83.5854 473.467,83.6094 473.914,83.6333 474.361,83.6289 474.808,82.7246 475.255,82.6992 475.702,82.6992 476.148,82.6992 476.595,82.6992 477.042,82.6992 477.489,82.6992 477.936,82.6992 478.383,82.6992 478.83,82.6992 479.276,82.6992 479.723,82.6992 480.17,82.6992 480.617,82.6992 481.064,82.6992 481.511,82.6992 481.958,82.6992 482.404,82.6992 482.851,82.6992 483.298,82.6992 483.745,82.6992 484.192,82.6992 484.639,82.6992 485.085,82.6992 485.532,82.6992 485.979,82.6992 486.426,82.6992 486.873,82.6992 487.32,82.6992 487.767,82.6992 488.213,82.6992 488.66,82.6992 489.107,82.6992 489.554,82.6992 490.001,82.6992 490.448,82.6992 490.895,82.6992 491.341,82.6992 491.788,82.6992 492.235,82.6992 492.682,82.6992 493.128,82.6992 493.576,82.6992 494.022,82.6992 494.469,82.6992 494.916,82.6992 495.363,82.6992 495.81,82.6992 496.256,82.6992 496.704,82.6992 497.15,82.6992 497.597,82.6992 498.044,82.6992 498.491,82.6992 498.938,82.6992 499.384,82.6992 499.832,82.6992 500.278,82.6992 500.725,82.6992 501.172,82.6992 501.619,82.6992 502.065,82.6992 502.512,82.6992 502.959,82.6992 503.406,82.6992 503.853,82.6992 504.3,82.6992 504.747,82.6992 505.193,82.6992 505.64,82.6992 506.087,82.6992 506.534,82.6992 506.981,82.6992 507.428,82.6992 507.875,82.6992 508.321,82.6992 508.769,82.6992 509.215,82.6992 509.662,82.6992 510.109,82.6992 510.556,82.6992 511.002,82.6992 511.449,82.6992 511.896,82.6934 512.343,82.7095 512.79,82.7329 513.237,82.7573 513.684,82.7812 514.13,82.8057 514.577,82.8296 515.024,82.854 515.471,82.8779 515.918,82.9023 516.365,82.9263 516.812,82.9502 517.258,82.9746 517.705,82.9985 518.152,83.0229 518.599,83.0469 519.046,83.0713 519.493,83.0952 519.939,83.1191 520.386,83.1436 520.833,83.1675 521.28,83.1919" fill="none" stroke-linecap="butt" stroke-linejoin="round"/>
  </g>
  <clipPath id="cp00576432">
   <polygon points="0,432 576,432 576,0 0,0"/>
  </clipPath>
  <g clip-path="url(#cp00576432)">
   <polygon points="452.905,372.83 509.63,372.83 509.63,330.668 452.905,330.668" fill="#ffffff" shape-rendering="crispEdges"/>
   <polyline stroke-width="0.5" stroke="#262626" points="452.905,372.83 509.63,372.83" fill="none" stroke-linecap="square" stroke-dasharray="16,0" stroke-linejoin="miter"/>
   <polyline stroke-width="0.5" stroke="#262626" points="452.905,330.668 509.63,330.668" fill="none" stroke-linecap="square" stroke-dasharray="16,0" stroke-linejoin="miter"/>
   <polyline stroke-width="0.5" stroke="#262626" points="452.905,372.83 452.905,330.668" fill="none" stroke-linecap="square" stroke-dasharray="16,0" stroke-linejoin="miter"/>
   <polyline stroke-width="0.5" stroke="#262626" points="509.63,372.83 509.63,330.668" fill="none" stroke-linecap="square" stroke-dasharray="16,0" stroke-linejoin="miter"/>
   <text xml:space="preserve" transform="translate(481.546,341.695) rotate(-0,-0,-4)" font-family="FreeSans" font-style="normal" font-weight="normal" font-size="9">
    <tspan x="0 5 7 12 " y="-0" fill="rgb(0,0,0)">0.1k</tspan>
    <tspan x="17 " y="-0" fill="rgb(0,0,0)">Ω</tspan>
   </text>
   <text xml:space="preserve" transform="translate(481.546,355.749) rotate(-0,-0,-4)" font-family="FreeSans" font-style="normal" font-weight="normal" font-size="9">
    <tspan x="0 5 " y="-0" fill="rgb(0,0,0)">1k</tspan>
    <tspan x="10 " y="-0" fill="rgb(0,0,0)">Ω</tspan>
   </text>
   <text xml:space="preserve" transform="translate(481.546,369.803) rotate(-0,-0,-4)" font-family="FreeSans" font-style="normal" font-weight="normal" font-size="9">
    <tspan x="0 5 10 " y="-0" fill="rgb(0,0,0)">10k</tspan>
    <tspan x="15 " y="-0" fill="rgb(0,0,0)">Ω</tspan>
   </text>
   <polyline stroke-width="0.5" stroke="#0071bc" points="456.304,337.695 478.148,337.695" fill="none" stroke-linecap="butt" stroke-linejoin="round"/>
   <polyline stroke-width="0.5" stroke="#d85218" points="456.304,351.749 478.148,351.749" fill="none" stroke-linecap="butt" stroke-linejoin="round"/>
   <polyline stroke-width="0.5" stroke="#ecb01f" points="456.304,365.803 478.148,365.803" fill="none" stroke-linecap="butt" stroke-linejoin="round"/>
  </g>
 </g>
</svg>
