<?xml version='1.0' encoding='UTF-8' standalone='no'?>
<svg xmlns:xlink="http://www.w3.org/1999/xlink" xmlns="http://www.w3.org/2000/svg" width="576pt" viewBox="0 0 576 432" height="432pt">
 <title>gl2ps_renderer figure</title>
 <desc>
Creator: GL2PS 1.4.0, (C) 1999-2017 C. Geuzaine
For: Octave
CreationDate: Thu Nov 19 16:14:45 2020
</desc>
 <defs/>
 <polygon fill="#ffffff" points="0,0 576,0 576,432 0,432"/>
 <g>
  <polygon shape-rendering="crispEdges" fill="#ffffff" points="0,432 576,432 576,0 0,0"/>
  <clipPath id="cp00576432">
   <polygon points="0,432 576,432 576,0 0,0"/>
  </clipPath>
  <g clip-path="url(#cp00576432)">
   <polygon shape-rendering="crispEdges" fill="#ffffff" points="74.8799,384.48 521.28,384.48 521.28,32.3999 74.8799,32.3999"/>
   <polyline stroke="#262626" stroke-linejoin="miter" stroke-width="0.5" stroke-linecap="butt" stroke-dasharray="16,0" fill="none" points="74.8799,384.48 74.8799,32.3999" stroke-opacity="0.15"/>
   <polyline stroke="#262626" stroke-linejoin="miter" stroke-width="0.5" stroke-linecap="butt" stroke-dasharray="16,0" fill="none" points="149.28,384.48 149.28,32.3999" stroke-opacity="0.15"/>
   <polyline stroke="#262626" stroke-linejoin="miter" stroke-width="0.5" stroke-linecap="butt" stroke-dasharray="16,0" fill="none" points="223.68,384.48 223.68,32.3999" stroke-opacity="0.15"/>
   <polyline stroke="#262626" stroke-linejoin="miter" stroke-width="0.5" stroke-linecap="butt" stroke-dasharray="16,0" fill="none" points="298.08,384.48 298.08,32.3999" stroke-opacity="0.15"/>
   <polyline stroke="#262626" stroke-linejoin="miter" stroke-width="0.5" stroke-linecap="butt" stroke-dasharray="16,0" fill="none" points="372.48,384.48 372.48,32.3999" stroke-opacity="0.15"/>
   <polyline stroke="#262626" stroke-linejoin="miter" stroke-width="0.5" stroke-linecap="butt" stroke-dasharray="16,0" fill="none" points="446.88,384.48 446.88,32.3999" stroke-opacity="0.15"/>
   <polyline stroke="#262626" stroke-linejoin="miter" stroke-width="0.5" stroke-linecap="butt" stroke-dasharray="16,0" fill="none" points="521.28,384.48 521.28,32.3999" stroke-opacity="0.15"/>
   <polyline stroke="#262626" stroke-linejoin="miter" stroke-width="0.5" stroke-linecap="butt" fill="none" points="74.8799,384.48 74.8799,380.015"/>
   <polyline stroke="#262626" stroke-linejoin="miter" stroke-width="0.5" stroke-linecap="butt" fill="none" points="74.8799,32.3999 74.8799,36.8652"/>
   <polyline stroke="#262626" stroke-linejoin="miter" stroke-width="0.5" stroke-linecap="butt" fill="none" points="149.28,384.48 149.28,380.015"/>
   <polyline stroke="#262626" stroke-linejoin="miter" stroke-width="0.5" stroke-linecap="butt" fill="none" points="149.28,32.3999 149.28,36.8652"/>
   <polyline stroke="#262626" stroke-linejoin="miter" stroke-width="0.5" stroke-linecap="butt" fill="none" points="223.68,384.48 223.68,380.015"/>
   <polyline stroke="#262626" stroke-linejoin="miter" stroke-width="0.5" stroke-linecap="butt" fill="none" points="223.68,32.3999 223.68,36.8652"/>
   <polyline stroke="#262626" stroke-linejoin="miter" stroke-width="0.5" stroke-linecap="butt" fill="none" points="298.08,384.48 298.08,380.015"/>
   <polyline stroke="#262626" stroke-linejoin="miter" stroke-width="0.5" stroke-linecap="butt" fill="none" points="298.08,32.3999 298.08,36.8652"/>
   <polyline stroke="#262626" stroke-linejoin="miter" stroke-width="0.5" stroke-linecap="butt" fill="none" points="372.48,384.48 372.48,380.015"/>
   <polyline stroke="#262626" stroke-linejoin="miter" stroke-width="0.5" stroke-linecap="butt" fill="none" points="372.48,32.3999 372.48,36.8652"/>
   <polyline stroke="#262626" stroke-linejoin="miter" stroke-width="0.5" stroke-linecap="butt" fill="none" points="446.88,384.48 446.88,380.015"/>
   <polyline stroke="#262626" stroke-linejoin="miter" stroke-width="0.5" stroke-linecap="butt" fill="none" points="446.88,32.3999 446.88,36.8652"/>
   <polyline stroke="#262626" stroke-linejoin="miter" stroke-width="0.5" stroke-linecap="butt" fill="none" points="521.28,384.48 521.28,380.015"/>
   <polyline stroke="#262626" stroke-linejoin="miter" stroke-width="0.5" stroke-linecap="butt" fill="none" points="521.28,32.3999 521.28,36.8652"/>
   <text font-family="FreeSans" font-size="10" font-style="normal" transform="translate(71.88,399.982) rotate(-0,3,-8)" xml:space="preserve" font-weight="normal">
    <tspan x="0 " fill="rgb(38,38,38)" y="-0">0</tspan>
   </text>
   <text font-family="FreeSans" font-size="10" font-style="normal" transform="translate(138.78,399.982) rotate(-0,10.5,-8)" xml:space="preserve" font-weight="normal">
    <tspan x="0 6 9 15 " fill="rgb(38,38,38)" y="-0">0.01</tspan>
   </text>
   <text font-family="FreeSans" font-size="10" font-style="normal" transform="translate(213.18,399.982) rotate(-0,10.5,-8)" xml:space="preserve" font-weight="normal">
    <tspan x="0 6 9 15 " fill="rgb(38,38,38)" y="-0">0.02</tspan>
   </text>
   <text font-family="FreeSans" font-size="10" font-style="normal" transform="translate(287.58,399.982) rotate(-0,10.5,-8)" xml:space="preserve" font-weight="normal">
    <tspan x="0 6 9 15 " fill="rgb(38,38,38)" y="-0">0.03</tspan>
   </text>
   <text font-family="FreeSans" font-size="10" font-style="normal" transform="translate(361.98,399.982) rotate(-0,10.5,-8)" xml:space="preserve" font-weight="normal">
    <tspan x="0 6 9 15 " fill="rgb(38,38,38)" y="-0">0.04</tspan>
   </text>
   <text font-family="FreeSans" font-size="10" font-style="normal" transform="translate(436.38,399.982) rotate(-0,10.5,-8)" xml:space="preserve" font-weight="normal">
    <tspan x="0 6 9 15 " fill="rgb(38,38,38)" y="-0">0.05</tspan>
   </text>
   <text font-family="FreeSans" font-size="10" font-style="normal" transform="translate(510.78,399.982) rotate(-0,10.5,-8)" xml:space="preserve" font-weight="normal">
    <tspan x="0 6 9 15 " fill="rgb(38,38,38)" y="-0">0.06</tspan>
   </text>
   <polyline stroke="#262626" stroke-linejoin="miter" stroke-width="0.5" stroke-linecap="butt" stroke-dasharray="16,0" fill="none" points="74.8799,384.48 521.28,384.48" stroke-opacity="0.15"/>
   <polyline stroke="#262626" stroke-linejoin="miter" stroke-width="0.5" stroke-linecap="butt" stroke-dasharray="16,0" fill="none" points="74.8799,325.8 521.28,325.8" stroke-opacity="0.15"/>
   <polyline stroke="#262626" stroke-linejoin="miter" stroke-width="0.5" stroke-linecap="butt" stroke-dasharray="16,0" fill="none" points="74.8799,267.12 521.28,267.12" stroke-opacity="0.15"/>
   <polyline stroke="#262626" stroke-linejoin="miter" stroke-width="0.5" stroke-linecap="butt" stroke-dasharray="16,0" fill="none" points="74.8799,208.44 521.28,208.44" stroke-opacity="0.15"/>
   <polyline stroke="#262626" stroke-linejoin="miter" stroke-width="0.5" stroke-linecap="butt" stroke-dasharray="16,0" fill="none" points="74.8799,149.76 521.28,149.76" stroke-opacity="0.15"/>
   <polyline stroke="#262626" stroke-linejoin="miter" stroke-width="0.5" stroke-linecap="butt" stroke-dasharray="16,0" fill="none" points="74.8799,91.0801 521.28,91.0801" stroke-opacity="0.15"/>
   <polyline stroke="#262626" stroke-linejoin="miter" stroke-width="0.5" stroke-linecap="butt" stroke-dasharray="16,0" fill="none" points="74.8799,32.3999 521.28,32.3999" stroke-opacity="0.15"/>
   <polyline stroke="#262626" stroke-linejoin="miter" stroke-width="0.5" stroke-linecap="butt" fill="none" points="74.8799,384.48 79.3481,384.48"/>
   <polyline stroke="#262626" stroke-linejoin="miter" stroke-width="0.5" stroke-linecap="butt" fill="none" points="521.28,384.48 516.812,384.48"/>
   <polyline stroke="#262626" stroke-linejoin="miter" stroke-width="0.5" stroke-linecap="butt" fill="none" points="74.8799,325.8 79.3481,325.8"/>
   <polyline stroke="#262626" stroke-linejoin="miter" stroke-width="0.5" stroke-linecap="butt" fill="none" points="521.28,325.8 516.812,325.8"/>
   <polyline stroke="#262626" stroke-linejoin="miter" stroke-width="0.5" stroke-linecap="butt" fill="none" points="74.8799,267.12 79.3481,267.12"/>
   <polyline stroke="#262626" stroke-linejoin="miter" stroke-width="0.5" stroke-linecap="butt" fill="none" points="521.28,267.12 516.812,267.12"/>
   <polyline stroke="#262626" stroke-linejoin="miter" stroke-width="0.5" stroke-linecap="butt" fill="none" points="74.8799,208.44 79.3481,208.44"/>
   <polyline stroke="#262626" stroke-linejoin="miter" stroke-width="0.5" stroke-linecap="butt" fill="none" points="521.28,208.44 516.812,208.44"/>
   <polyline stroke="#262626" stroke-linejoin="miter" stroke-width="0.5" stroke-linecap="butt" fill="none" points="74.8799,149.76 79.3481,149.76"/>
   <polyline stroke="#262626" stroke-linejoin="miter" stroke-width="0.5" stroke-linecap="butt" fill="none" points="521.28,149.76 516.812,149.76"/>
   <polyline stroke="#262626" stroke-linejoin="miter" stroke-width="0.5" stroke-linecap="butt" fill="none" points="74.8799,91.0801 79.3481,91.0801"/>
   <polyline stroke="#262626" stroke-linejoin="miter" stroke-width="0.5" stroke-linecap="butt" fill="none" points="521.28,91.0801 516.812,91.0801"/>
   <polyline stroke="#262626" stroke-linejoin="miter" stroke-width="0.5" stroke-linecap="butt" fill="none" points="74.8799,32.3999 79.3481,32.3999"/>
   <polyline stroke="#262626" stroke-linejoin="miter" stroke-width="0.5" stroke-linecap="butt" fill="none" points="521.28,32.3999 516.812,32.3999"/>
   <text font-family="FreeSans" font-size="10" font-style="normal" transform="translate(63.8755,388.48) rotate(-0,6,-4)" xml:space="preserve" font-weight="normal">
    <tspan x="0 " fill="rgb(38,38,38)" y="-0">0</tspan>
   </text>
   <text font-family="FreeSans" font-size="10" font-style="normal" transform="translate(63.8755,329.8) rotate(-0,6,-4)" xml:space="preserve" font-weight="normal">
    <tspan x="0 " fill="rgb(38,38,38)" y="-0">1</tspan>
   </text>
   <text font-family="FreeSans" font-size="10" font-style="normal" transform="translate(63.8755,271.12) rotate(-0,6,-4)" xml:space="preserve" font-weight="normal">
    <tspan x="0 " fill="rgb(38,38,38)" y="-0">2</tspan>
   </text>
   <text font-family="FreeSans" font-size="10" font-style="normal" transform="translate(63.8755,212.44) rotate(-0,6,-4)" xml:space="preserve" font-weight="normal">
    <tspan x="0 " fill="rgb(38,38,38)" y="-0">3</tspan>
   </text>
   <text font-family="FreeSans" font-size="10" font-style="normal" transform="translate(63.8755,153.76) rotate(-0,6,-4)" xml:space="preserve" font-weight="normal">
    <tspan x="0 " fill="rgb(38,38,38)" y="-0">4</tspan>
   </text>
   <text font-family="FreeSans" font-size="10" font-style="normal" transform="translate(63.8755,95.08) rotate(-0,6,-4)" xml:space="preserve" font-weight="normal">
    <tspan x="0 " fill="rgb(38,38,38)" y="-0">5</tspan>
   </text>
   <text font-family="FreeSans" font-size="10" font-style="normal" transform="translate(63.8755,36.4) rotate(-0,6,-4)" xml:space="preserve" font-weight="normal">
    <tspan x="0 " fill="rgb(38,38,38)" y="-0">6</tspan>
   </text>
   <polyline stroke="#262626" stroke-linejoin="miter" stroke-width="0.5" stroke-linecap="square" stroke-dasharray="16,0" fill="none" points="74.8799,384.48 521.28,384.48"/>
   <polyline stroke="#262626" stroke-linejoin="miter" stroke-width="0.5" stroke-linecap="square" stroke-dasharray="16,0" fill="none" points="74.8799,32.3999 521.28,32.3999"/>
   <polyline stroke="#262626" stroke-linejoin="miter" stroke-width="0.5" stroke-linecap="square" stroke-dasharray="16,0" fill="none" points="74.8799,384.48 74.8799,32.3999"/>
   <polyline stroke="#262626" stroke-linejoin="miter" stroke-width="0.5" stroke-linecap="square" stroke-dasharray="16,0" fill="none" points="521.28,384.48 521.28,32.3999"/>
   <text font-family="FreeSans" font-size="11" font-style="normal" transform="translate(274.58,413.982) rotate(-0,23.5,-9)" xml:space="preserve" font-weight="normal">
    <tspan x="0 7 9 18 24 27 29 35 38 40 45 " fill="rgb(38,38,38)" y="-0">Time in 's'</tspan>
   </text>
   <text font-family="FreeSans" font-size="11" font-style="normal" transform="translate(28.3755,208.44) rotate(-90,30.5,0)" xml:space="preserve" font-weight="normal">
    <tspan x="0 7 13 15 18 24 30 36 39 41 47 50 52 59 " fill="rgb(38,38,38)" y="-2">Voltage in 'V'</tspan>
   </text>
   <text font-family="FreeSans" font-size="11" font-style="normal" transform="translate(45.58,22.4) rotate(-0,252.5,0)" xml:space="preserve" font-weight="bold">
    <tspan x="0 9 16 20 27 34 38 42 49 56 59 63 69 76 82 85 91 97 100 107 110 120 126 129 133 140 144 147 151 159 166 172 178 " fill="rgb(0,0,0)" y="-3">Output-Voltage vs Time for:(RL=1k</tspan>
    <tspan x="184 " fill="rgb(0,0,0)" y="-3">Ω</tspan>
    <tspan x="193 196 199 207 214 220 226 " fill="rgb(0,0,0)" y="-3"> ;RL=5k</tspan>
    <tspan x="232 " fill="rgb(0,0,0)" y="-3">Ω</tspan>
    <tspan x="241 244 247 255 262 268 274 280 " fill="rgb(0,0,0)" y="-3"> ;RL=10k</tspan>
    <tspan x="286 " fill="rgb(0,0,0)" y="-3">Ω</tspan>
    <tspan x="295 299 306 310 313 320 326 333 339 343 351 354 361 368 374 377 384 390 396 402 409 412 418 425 428 432 438 445 451 454 458 464 471 478 481 487 491 498 502 " fill="rgb(0,0,0)" y="-3">)of ZenerDiode based voltage regulator.</tspan>
   </text>
   <polyline stroke="#0071bc" stroke-linejoin="round" stroke-width="0.5" stroke-linecap="butt" fill="none" points="74.8799,384.48 75.3267,384.48 75.7734,384.48 76.2207,384.48 76.6675,384.48 77.1143,384.48 77.561,384.478 78.0078,384.334 78.4546,381.199 78.9014,374.82 79.3486,368.282 79.7954,361.764 80.2422,355.271 80.689,348.806 81.1357,342.371 81.5825,335.968 82.0293,329.6 82.4766,323.268 82.9233,316.975 83.3701,310.723 83.8169,304.515 84.2637,298.352 84.7104,292.237 85.1572,286.172 85.6045,280.159 86.0513,274.2 86.498,268.297 86.9448,262.453 87.3916,256.669 87.8384,250.948 88.2852,245.292 88.7324,239.701 89.1792,234.179 89.626,228.728 90.0728,223.349 90.5195,218.044 90.9663,212.815 91.4131,207.665 91.8604,202.594 92.3071,197.604 92.7539,192.698 93.2007,187.876 93.6475,183.141 94.0942,178.495 94.541,173.938 94.9883,169.473 95.4351,165.1 95.8818,160.822 96.3286,156.64 96.7754,152.556 97.2222,148.57 97.6689,144.684 98.1162,140.899 98.563,137.218 99.0098,133.64 99.4565,130.167 99.9033,126.8 100.35,123.541 100.797,120.39 101.244,117.348 101.691,114.416 102.138,111.596 102.584,108.887 103.031,106.291 103.478,103.808 103.925,101.439 104.372,99.1846 104.819,97.0449 105.266,95.021 105.712,93.1123 106.159,91.3193 106.606,89.6426 107.053,88.0815 107.5,86.6362 107.947,85.3062 108.394,84.0908 108.84,82.9893 109.287,82.001 109.734,81.1235 110.181,80.356 110.628,79.6958 111.075,79.1406 111.521,78.686 111.968,78.3281 112.415,78.0615 112.862,77.8804 113.309,77.7764 113.756,77.7407 114.203,77.7642 114.649,77.8354 115.096,77.9453 115.543,78.0825 115.99,78.2393 116.437,78.4087 116.884,78.585 117.331,78.7646 117.777,78.9468 118.224,79.1299 118.671,79.313 119.118,79.4961 119.564,79.6792 120.012,79.8623 120.458,80.0449 120.905,80.228 121.352,80.4106 121.799,80.5933 122.246,80.7754 122.692,80.958 123.14,81.1401 123.586,81.3223 124.033,81.5044 124.48,81.686 124.927,81.8682 125.374,82.0498 125.82,82.2314 126.268,82.4126 126.714,82.5942 127.161,82.7754 127.608,82.9565 128.055,83.1377 128.501,83.3184 128.948,83.4995 129.396,83.6802 129.842,83.8608 130.289,84.041 130.736,84.2217 131.183,84.4019 131.629,84.582 132.076,84.7622 132.523,84.9419 132.97,85.1216 133.417,85.3018 133.864,85.4814 134.311,85.6606 134.757,85.8403 135.204,86.0195 135.651,86.1987 136.098,86.3779 136.545,86.5566 136.992,86.7358 137.438,86.9146 137.885,87.0933 138.332,87.2715 138.779,87.4502 139.226,87.6284 139.673,87.8066 140.12,87.9849 140.566,88.1626 141.013,88.3408 141.46,88.5186 141.907,88.6963 142.354,88.874 142.801,89.0513 143.248,89.2285 143.694,89.4058 144.141,89.583 144.588,89.7603 145.035,89.937 145.482,90.1138 145.929,90.2905 146.375,90.4673 146.822,90.644 147.269,90.8203 147.716,90.9966 148.163,91.1729 148.61,91.3491 149.057,91.5249 149.503,91.7007 149.95,91.8765 150.397,92.0522 150.844,92.228 151.291,92.4033 151.738,92.5786 152.185,92.7539 152.631,92.9292 153.078,93.1045 153.525,93.2793 153.972,93.4541 154.419,93.6289 154.866,93.8032 155.312,93.978 155.759,94.1523 156.206,94.3267 156.653,94.501 157.1,94.6748 157.547,94.8491 157.994,95.0229 158.44,95.1968 158.887,95.3706 159.334,95.5439 159.781,95.7173 160.228,95.8906 160.675,96.064 161.122,96.2373 161.568,96.4102 162.015,96.5835 162.462,96.7563 162.909,96.9287 163.355,97.1016 163.803,97.2739 164.25,97.4468 164.696,97.6187 165.143,97.791 165.59,97.9634 166.037,98.1353 166.483,98.3071 166.931,98.479 167.377,98.6509 167.824,98.8223 168.271,98.9941 168.718,99.1655 169.165,99.3364 169.611,99.5078 170.059,99.6787 170.505,99.8501 170.952,100.021 171.399,100.191 171.846,100.362 172.292,100.533 172.739,100.704 173.187,100.874 173.633,101.044 174.08,101.214 174.527,101.384 174.974,101.554 175.42,101.724 175.867,101.894 176.314,102.062 176.761,102.225 177.208,102.351 177.655,102.29 178.102,101.613 178.548,100.051 178.995,98.0483 179.442,96.0073 179.889,94.0493 180.336,92.2007 180.783,90.4663 181.229,88.8477 181.676,87.3447 182.123,85.957 182.57,84.6841 183.017,83.5259 183.464,82.481 183.911,81.5483 184.357,80.7261 184.804,80.0127 185.251,79.4053 185.698,78.9009 186.145,78.4951 186.592,78.1841 187.039,77.9609 187.485,77.8188 187.932,77.7505 188.379,77.7456 188.826,77.7944 189.273,77.8862 189.72,78.0112 190.167,78.1592 190.613,78.3228 191.06,78.4961 191.507,78.6743 191.954,78.856 192.401,79.0381 192.848,79.2212 193.294,79.4043 193.741,79.5874 194.188,79.7705 194.635,79.9536 195.082,80.1362 195.529,80.3193 195.976,80.502 196.422,80.6841 196.869,80.8667 197.316,81.0488 197.763,81.231 198.21,81.4131 198.657,81.5952 199.104,81.7769 199.55,81.959 199.997,82.1406 200.444,82.3218 200.891,82.5034 201.338,82.6846 201.785,82.8657 202.231,83.0469 202.678,83.228 203.125,83.4087 203.572,83.5898 204.019,83.7705 204.466,83.9507 204.913,84.1313 205.359,84.3115 205.806,84.4917 206.253,84.6719 206.7,84.8521 207.146,85.0317 207.594,85.2119 208.041,85.3916 208.487,85.5708 208.934,85.7505 209.381,85.9297 209.828,86.1089 210.274,86.2881 210.722,86.4673 211.168,86.646 211.615,86.8252 212.062,87.0039 212.509,87.1821 212.956,87.3608 213.402,87.5391 213.849,87.7173 214.296,87.8955 214.743,88.0737 215.19,88.252 215.637,88.4297 216.083,88.6074 216.53,88.7852 216.978,88.9624 217.424,89.1401 217.871,89.3174 218.318,89.4946 218.765,89.6719 219.211,89.8486 219.658,90.0254 220.105,90.2021 220.552,90.3789 220.999,90.5557 221.446,90.7319 221.893,90.9087 222.339,91.085 222.786,91.2607 223.233,91.437 223.68,91.6128 224.127,91.7886 224.574,91.9644 225.021,92.1401 225.467,92.3154 225.914,92.4912 226.361,92.6665 226.808,92.8418 227.255,93.0166 227.702,93.1919 228.148,93.3667 228.595,93.5415 229.042,93.7163 229.489,93.8906 229.936,94.0649 230.383,94.2397 230.83,94.4136 231.276,94.5879 231.723,94.7622 232.17,94.936 232.617,95.1099 233.064,95.2837 233.511,95.457 233.958,95.6309 234.404,95.8042 234.851,95.9775 235.298,96.1509 235.745,96.3237 236.192,96.4971 236.639,96.6699 237.085,96.8428 237.532,97.0151 237.979,97.188 238.426,97.3604 238.873,97.5327 239.32,97.7051 239.767,97.8774 240.213,98.0493 240.66,98.2212 241.107,98.3931 241.554,98.5649 242,98.7368 242.448,98.9082 242.895,99.0796 243.341,99.251 243.788,99.4224 244.235,99.5933 244.682,99.7646 245.128,99.9355 245.576,100.106 246.022,100.277 246.469,100.448 246.916,100.618 247.363,100.789 247.81,100.959 248.256,101.129 248.704,101.299 249.15,101.469 249.597,101.639 250.044,101.809 250.491,101.979 250.938,102.146 251.384,102.297 251.832,102.364 252.278,102.062 252.725,100.925 253.172,99.0708 253.619,97.021 254.065,95.0156 254.512,93.1108 254.959,91.3193 255.406,89.6426 255.853,88.0815 256.3,86.6362 256.747,85.3062 257.193,84.0908 257.64,82.9893 258.087,82.001 258.534,81.1235 258.981,80.356 259.428,79.6958 259.875,79.1406 260.321,78.686 260.768,78.3281 261.215,78.0615 261.662,77.8804 262.109,77.7764 262.556,77.7407 263.002,77.7642 263.449,77.8354 263.896,77.9453 264.343,78.0825 264.79,78.2393 265.237,78.4087 265.684,78.585 266.13,78.7646 266.577,78.9468 267.024,79.1299 267.471,79.313 267.918,79.4961 268.365,79.6792 268.812,79.8623 269.258,80.0449 269.705,80.228 270.152,80.4106 270.599,80.5933 271.046,80.7754 271.493,80.958 271.939,81.1401 272.386,81.3223 272.833,81.5044 273.28,81.686 273.727,81.8682 274.174,82.0498 274.621,82.2314 275.067,82.4126 275.514,82.5942 275.961,82.7754 276.408,82.9565 276.855,83.1377 277.302,83.3184 277.749,83.4995 278.195,83.6802 278.642,83.8608 279.089,84.041 279.536,84.2217 279.983,84.4019 280.43,84.582 280.876,84.7622 281.323,84.9419 281.77,85.1216 282.217,85.3018 282.664,85.4814 283.111,85.6606 283.558,85.8403 284.004,86.0195 284.451,86.1987 284.898,86.3779 285.345,86.5566 285.792,86.7358 286.239,86.9146 286.686,87.0933 287.132,87.2715 287.579,87.4502 288.026,87.6284 288.473,87.8066 288.919,87.9849 289.367,88.1626 289.813,88.3408 290.26,88.5186 290.707,88.6963 291.154,88.874 291.601,89.0513 292.047,89.2285 292.495,89.4058 292.941,89.583 293.388,89.7603 293.835,89.937 294.282,90.1138 294.729,90.2905 295.175,90.4673 295.623,90.644 296.069,90.8203 296.516,90.9966 296.963,91.1729 297.41,91.3491 297.856,91.5249 298.303,91.7007 298.75,91.8765 299.197,92.0522 299.644,92.228 300.091,92.4033 300.538,92.5786 300.984,92.7539 301.431,92.9292 301.878,93.1045 302.325,93.2793 302.772,93.4541 303.219,93.6289 303.666,93.8032 304.112,93.978 304.559,94.1523 305.006,94.3267 305.453,94.501 305.9,94.6748 306.347,94.8491 306.793,95.0229 307.24,95.1968 307.687,95.3706 308.134,95.5439 308.581,95.7173 309.028,95.8906 309.475,96.064 309.921,96.2373 310.368,96.4102 310.815,96.5835 311.262,96.7563 311.709,96.9287 312.156,97.1016 312.603,97.2739 313.049,97.4468 313.496,97.6187 313.943,97.791 314.39,97.9634 314.837,98.1353 315.284,98.3071 315.73,98.479 316.177,98.6509 316.624,98.8223 317.071,98.9941 317.518,99.1655 317.965,99.3364 318.412,99.5078 318.858,99.6787 319.305,99.8501 319.752,100.021 320.199,100.191 320.646,100.362 321.093,100.533 321.54,100.704 321.986,100.874 322.433,101.044 322.88,101.214 323.327,101.384 323.773,101.554 324.221,101.724 324.667,101.894 325.114,102.062 325.561,102.225 326.008,102.351 326.455,102.29 326.901,101.613 327.349,100.051 327.795,98.0483 328.242,96.0073 328.689,94.0493 329.136,92.2007 329.583,90.4663 330.03,88.8477 330.477,87.3447 330.923,85.957 331.37,84.6841 331.817,83.5259 332.264,82.481 332.71,81.5483 333.157,80.7261 333.604,80.0127 334.051,79.4053 334.498,78.9009 334.945,78.4951 335.392,78.1841 335.838,77.9609 336.285,77.8188 336.732,77.7505 337.179,77.7456 337.626,77.7944 338.073,77.8862 338.52,78.0112 338.966,78.1592 339.413,78.3228 339.86,78.4961 340.307,78.6743 340.754,78.856 341.201,79.0381 341.647,79.2212 342.094,79.4043 342.542,79.5874 342.988,79.7705 343.435,79.9536 343.882,80.1362 344.329,80.3193 344.775,80.502 345.222,80.6841 345.669,80.8667 346.116,81.0488 346.563,81.231 347.01,81.4131 347.457,81.5952 347.903,81.7769 348.35,81.959 348.797,82.1406 349.244,82.3218 349.691,82.5034 350.138,82.6846 350.584,82.8657 351.031,83.0469 351.478,83.228 351.925,83.4087 352.372,83.5898 352.819,83.7705 353.266,83.9507 353.712,84.1313 354.159,84.3115 354.606,84.4917 355.053,84.6719 355.5,84.8521 355.947,85.0317 356.394,85.2119 356.84,85.3916 357.287,85.5708 357.734,85.7505 358.181,85.9297 358.628,86.1089 359.075,86.2881 359.521,86.4673 359.968,86.646 360.415,86.8252 360.862,87.0039 361.309,87.1821 361.756,87.3608 362.203,87.5391 362.649,87.7173 363.096,87.8955 363.543,88.0737 363.99,88.252 364.437,88.4297 364.884,88.6074 365.331,88.7852 365.777,88.9624 366.224,89.1401 366.671,89.3174 367.118,89.4946 367.564,89.6719 368.012,89.8486 368.458,90.0254 368.905,90.2021 369.352,90.3789 369.799,90.5557 370.246,90.7319 370.692,90.9087 371.14,91.085 371.586,91.2607 372.033,91.437 372.48,91.6128 372.927,91.7886 373.374,91.9644 373.82,92.1401 374.268,92.3154 374.714,92.4912 375.161,92.6665 375.608,92.8418 376.055,93.0166 376.501,93.1919 376.948,93.3667 377.396,93.5415 377.842,93.7163 378.289,93.8906 378.736,94.0649 379.183,94.2397 379.629,94.4136 380.076,94.5879 380.523,94.7622 380.97,94.936 381.417,95.1099 381.864,95.2837 382.311,95.457 382.757,95.6309 383.204,95.8042 383.651,95.9775 384.098,96.1509 384.545,96.3237 384.992,96.4971 385.438,96.6699 385.885,96.8428 386.332,97.0151 386.779,97.188 387.226,97.3604 387.673,97.5327 388.12,97.7051 388.566,97.8774 389.013,98.0493 389.46,98.2212 389.907,98.3931 390.354,98.5649 390.801,98.7368 391.248,98.9082 391.694,99.0796 392.141,99.251 392.588,99.4224 393.035,99.5933 393.482,99.7646 393.929,99.9355 394.375,100.106 394.822,100.277 395.269,100.448 395.716,100.618 396.163,100.789 396.61,100.959 397.057,101.129 397.503,101.299 397.95,101.469 398.397,101.639 398.844,101.809 399.291,101.979 399.738,102.146 400.185,102.297 400.631,102.364 401.078,102.062 401.525,100.925 401.972,99.0708 402.419,97.021 402.866,95.0156 403.312,93.1108 403.759,91.3193 404.206,89.6426 404.653,88.0815 405.1,86.6362 405.547,85.3062 405.994,84.0908 406.44,82.9893 406.887,82.001 407.334,81.1235 407.781,80.356 408.228,79.6958 408.674,79.1406 409.122,78.686 409.568,78.3281 410.015,78.0615 410.462,77.8804 410.909,77.7764 411.355,77.7407 411.803,77.7642 412.25,77.8354 412.696,77.9453 413.143,78.0825 413.59,78.2393 414.037,78.4087 414.483,78.585 414.931,78.7646 415.377,78.9468 415.824,79.1299 416.271,79.313 416.718,79.4961 417.165,79.6792 417.611,79.8623 418.059,80.0449 418.505,80.228 418.952,80.4106 419.399,80.5933 419.846,80.7754 420.292,80.958 420.739,81.1401 421.186,81.3223 421.633,81.5044 422.08,81.686 422.527,81.8682 422.974,82.0498 423.42,82.2314 423.867,82.4126 424.314,82.5942 424.761,82.7754 425.208,82.9565 425.655,83.1377 426.102,83.3184 426.548,83.4995 426.995,83.6802 427.442,83.8608 427.889,84.041 428.336,84.2217 428.783,84.4019 429.229,84.582 429.676,84.7622 430.123,84.9419 430.57,85.1216 431.017,85.3018 431.464,85.4814 431.911,85.6606 432.357,85.8403 432.804,86.0195 433.251,86.1987 433.698,86.3779 434.145,86.5566 434.592,86.7358 435.039,86.9146 435.485,87.0933 435.932,87.2715 436.379,87.4502 436.826,87.6284 437.273,87.8066 437.72,87.9849 438.167,88.1626 438.613,88.3408 439.06,88.5186 439.507,88.6963 439.954,88.874 440.401,89.0513 440.848,89.2285 441.294,89.4058 441.741,89.583 442.188,89.7603 442.635,89.937 443.082,90.1138 443.529,90.2905 443.976,90.4673 444.422,90.644 444.869,90.8203 445.316,90.9966 445.763,91.1729 446.209,91.3491 446.657,91.5249 447.104,91.7007 447.55,91.8765 447.997,92.0522 448.444,92.228 448.891,92.4033 449.337,92.5786 449.785,92.7539 450.231,92.9292 450.678,93.1045 451.125,93.2793 451.572,93.4541 452.019,93.6289 452.466,93.8032 452.913,93.978 453.359,94.1523 453.806,94.3267 454.253,94.501 454.7,94.6748 455.146,94.8491 455.594,95.0229 456.041,95.1968 456.487,95.3706 456.934,95.5439 457.381,95.7173 457.828,95.8906 458.274,96.064 458.721,96.2373 459.168,96.4102 459.615,96.5835 460.062,96.7563 460.509,96.9287 460.956,97.1016 461.402,97.2739 461.849,97.4468 462.296,97.6187 462.743,97.791 463.19,97.9634 463.637,98.1353 464.083,98.3071 464.53,98.479 464.977,98.6509 465.424,98.8223 465.871,98.9941 466.318,99.1655 466.765,99.3364 467.211,99.5078 467.658,99.6787 468.105,99.8501 468.552,100.021 468.999,100.191 469.446,100.362 469.893,100.533 470.339,100.704 470.786,100.874 471.233,101.044 471.68,101.214 472.127,101.384 472.574,101.554 473.021,101.724 473.467,101.894 473.914,102.062 474.361,102.225 474.808,102.351 475.255,102.29 475.702,101.613 476.148,100.051 476.595,98.0483 477.042,96.0073 477.489,94.0493 477.936,92.2007 478.383,90.4663 478.83,88.8477 479.276,87.3447 479.723,85.957 480.17,84.6841 480.617,83.5259 481.064,82.481 481.511,81.5483 481.958,80.7261 482.404,80.0127 482.851,79.4053 483.298,78.9009 483.745,78.4951 484.192,78.1841 484.639,77.9609 485.085,77.8188 485.532,77.7505 485.979,77.7456 486.426,77.7944 486.873,77.8862 487.32,78.0112 487.767,78.1592 488.213,78.3228 488.66,78.4961 489.107,78.6743 489.554,78.856 490,79.0381 490.448,79.2212 490.895,79.4043 491.341,79.5874 491.788,79.7705 492.235,79.9536 492.682,80.1362 493.128,80.3193 493.576,80.502 494.022,80.6841 494.469,80.8667 494.916,81.0488 495.363,81.231 495.81,81.4131 496.256,81.5952 496.704,81.7769 497.15,81.959 497.597,82.1406 498.044,82.3218 498.491,82.5034 498.938,82.6846 499.384,82.8657 499.831,83.0469 500.278,83.228 500.725,83.4087 501.172,83.5898 501.619,83.7705 502.065,83.9507 502.512,84.1313 502.959,84.3115 503.406,84.4917 503.853,84.6719 504.3,84.8521 504.747,85.0317 505.193,85.2119 505.64,85.3916 506.087,85.5708 506.534,85.7505 506.981,85.9297 507.428,86.1089 507.875,86.2881 508.321,86.4673 508.768,86.646 509.215,86.8252 509.662,87.0039 510.109,87.1821 510.556,87.3608 511.002,87.5391 511.449,87.7173 511.896,87.8955 512.343,88.0737 512.79,88.252 513.237,88.4297 513.684,88.6074 514.13,88.7852 514.577,88.9624 515.024,89.1401 515.471,89.3174 515.918,89.4946 516.365,89.6719 516.812,89.8486 517.258,90.0254 517.705,90.2021 518.152,90.3789 518.599,90.5557 519.046,90.7319 519.493,90.9087 519.939,91.085 520.386,91.2607 520.833,91.437 521.28,91.6128"/>
   <polyline stroke="#d85218" stroke-linejoin="round" stroke-width="0.5" stroke-linecap="butt" fill="none" points="74.8799,384.48 75.3267,384.48 75.7734,384.48 76.2207,384.48 76.6675,384.48 77.1143,384.48 77.561,384.478 78.0078,384.334 78.4546,381.199 78.9014,374.819 79.3486,368.28 79.7954,361.761 80.2422,355.268 80.689,348.802 81.1357,342.366 81.5825,335.963 82.0293,329.593 82.4766,323.261 82.9233,316.967 83.3701,310.714 83.8169,304.505 84.2637,298.342 84.7104,292.226 85.1572,286.16 85.6045,280.146 86.0513,274.187 86.498,268.283 86.9448,262.438 87.3916,256.653 87.8384,250.931 88.2852,245.274 88.7324,239.683 89.1792,234.16 89.626,228.708 90.0728,223.328 90.5195,218.022 90.9663,212.792 91.4131,207.64 91.8604,202.568 92.3071,197.577 92.7539,192.669 93.2007,187.847 93.6475,183.111 94.0942,178.463 94.541,173.905 94.9883,169.438 95.4351,165.064 95.8818,160.785 96.3286,156.602 96.7754,152.515 97.2222,148.527 97.6689,144.64 98.1162,140.854 98.563,137.17 99.0098,133.59 99.4565,130.115 99.9033,126.746 100.35,123.484 100.797,120.331 101.244,117.286 101.691,114.352 102.138,111.528 102.584,108.816 103.031,106.216 103.478,103.729 103.925,101.356 104.372,99.0972 104.819,96.9526 105.266,94.9233 105.712,93.0088 106.159,91.2095 106.606,89.5249 107.053,87.9561 107.5,86.5015 107.947,85.1606 108.394,83.9336 108.84,82.8188 109.287,81.8145 109.734,80.9194 110.181,80.1309 110.628,79.4463 111.075,78.8618 111.521,78.3735 111.968,77.9751 112.415,77.6602 112.862,77.4214 113.309,77.2495 113.756,77.1348 114.203,77.0664 114.649,77.0347 115.096,77.0288 115.543,77.0415 115.99,77.0649 116.437,77.0952 116.884,77.1294 117.331,77.165 117.777,77.2012 118.224,77.2378 118.671,77.2749 119.118,77.3115 119.564,77.3486 120.012,77.3857 120.458,77.4224 120.905,77.4595 121.352,77.4961 121.799,77.5332 122.246,77.5698 122.692,77.6069 123.14,77.6436 123.586,77.6807 124.033,77.7173 124.48,77.7544 124.927,77.791 125.374,77.8276 125.82,77.8647 126.268,77.9014 126.714,77.9385 127.161,77.9751 127.608,78.0122 128.055,78.0488 128.501,78.0854 128.948,78.1226 129.396,78.1592 129.842,78.1958 130.289,78.2329 130.736,78.2695 131.183,78.3062 131.629,78.3433 132.076,78.3799 132.523,78.4165 132.97,78.4536 133.417,78.4902 133.864,78.5269 134.311,78.5635 134.757,78.6006 135.204,78.6372 135.651,78.6738 136.098,78.7104 136.545,78.7476 136.992,78.7842 137.438,78.8208 137.885,78.8574 138.332,78.894 138.779,78.9312 139.226,78.9678 139.673,79.0044 140.12,79.041 140.566,79.0776 141.013,79.1143 141.46,79.1509 141.907,79.188 142.354,79.2246 142.801,79.2612 143.248,79.2979 143.694,79.3345 144.141,79.3711 144.588,79.4077 145.035,79.4443 145.482,79.481 145.929,79.5176 146.375,79.5542 146.822,79.5908 147.269,79.6274 147.716,79.6641 148.163,79.7007 148.61,79.7373 149.057,79.7739 149.503,79.8105 149.95,79.8472 150.397,79.8838 150.844,79.9204 151.291,79.957 151.738,79.9937 152.185,80.0303 152.631,80.0664 153.078,80.103 153.525,80.1396 153.972,80.1763 154.419,80.2129 154.866,80.2495 155.312,80.2861 155.759,80.3223 156.206,80.3589 156.653,80.3955 157.1,80.4321 157.547,80.4688 157.994,80.5049 158.44,80.5415 158.887,80.5781 159.334,80.6147 159.781,80.6509 160.228,80.6875 160.675,80.7241 161.122,80.7607 161.568,80.7969 162.015,80.8335 162.462,80.8701 162.909,80.9062 163.355,80.9429 163.803,80.9795 164.25,81.0156 164.696,81.0522 165.143,81.0889 165.59,81.125 166.037,81.1616 166.483,81.1982 166.931,81.2344 167.377,81.271 167.824,81.3071 168.271,81.3438 168.718,81.3804 169.165,81.4165 169.611,81.4531 170.059,81.4893 170.505,81.5259 170.952,81.562 171.399,81.5986 171.846,81.6348 172.292,81.6714 172.739,81.7075 173.187,81.7441 173.633,81.7803 174.08,81.8169 174.527,81.853 174.974,81.8896 175.42,81.9258 175.867,81.9619 176.314,81.9985 176.761,82.0347 177.208,82.0713 177.655,82.1074 178.102,82.1436 178.548,82.1802 178.995,82.2163 179.442,82.2524 179.889,82.2881 180.336,82.3228 180.783,82.3535 181.229,82.374 181.676,82.3696 182.123,82.3105 182.57,82.1504 183.017,81.8447 183.464,81.3828 183.911,80.8062 184.357,80.1821 184.804,79.5698 185.251,79.0068 185.698,78.5122 186.145,78.0942 186.592,77.7539 187.039,77.4883 187.485,77.2905 187.932,77.1523 188.379,77.0649 188.826,77.0181 189.273,77.0015 189.72,77.0063 190.167,77.0254 190.613,77.0527 191.06,77.0854 191.507,77.1206 191.954,77.1567 192.401,77.1929 192.848,77.23 193.294,77.2666 193.741,77.3037 194.188,77.3403 194.635,77.3774 195.082,77.4146 195.529,77.4512 195.976,77.4883 196.422,77.5249 196.869,77.562 197.316,77.5986 197.763,77.6357 198.21,77.6724 198.657,77.7095 199.104,77.7461 199.55,77.7832 199.997,77.8198 200.444,77.8564 200.891,77.8936 201.338,77.9302 201.785,77.9673 202.231,78.0039 202.678,78.0405 203.125,78.0776 203.572,78.1143 204.019,78.1514 204.466,78.188 204.913,78.2246 205.359,78.2617 205.806,78.2983 206.253,78.335 206.7,78.3721 207.146,78.4087 207.594,78.4453 208.041,78.4819 208.487,78.519 208.934,78.5557 209.381,78.5923 209.828,78.6289 210.274,78.666 210.722,78.7026 211.168,78.7393 211.615,78.7759 212.062,78.813 212.509,78.8496 212.956,78.8862 213.402,78.9229 213.849,78.9595 214.296,78.9961 214.743,79.0332 215.19,79.0698 215.637,79.1064 216.083,79.1431 216.53,79.1797 216.978,79.2163 217.424,79.2529 217.871,79.2896 218.318,79.3262 218.765,79.3628 219.211,79.3999 219.658,79.4365 220.105,79.4731 220.552,79.5098 220.999,79.5464 221.446,79.583 221.893,79.6196 222.339,79.6562 222.786,79.6929 223.233,79.7295 223.68,79.7661 224.127,79.8027 224.574,79.8389 225.021,79.8755 225.467,79.9121 225.914,79.9487 226.361,79.9854 226.808,80.022 227.255,80.0586 227.702,80.0952 228.148,80.1318 228.595,80.1685 229.042,80.2046 229.489,80.2412 229.936,80.2778 230.383,80.3145 230.83,80.3511 231.276,80.3877 231.723,80.4238 232.17,80.4604 232.617,80.4971 233.064,80.5337 233.511,80.5703 233.958,80.6064 234.404,80.6431 234.851,80.6797 235.298,80.7163 235.745,80.7524 236.192,80.7891 236.639,80.8257 237.085,80.8618 237.532,80.8984 237.979,80.9351 238.426,80.9712 238.873,81.0078 239.32,81.0444 239.767,81.0806 240.213,81.1172 240.66,81.1538 241.107,81.1899 241.554,81.2266 242,81.2627 242.448,81.2993 242.895,81.3359 243.341,81.3721 243.788,81.4087 244.235,81.4448 244.682,81.4814 245.128,81.5176 245.576,81.5542 246.022,81.5903 246.469,81.627 246.916,81.6631 247.363,81.6997 247.81,81.7358 248.256,81.7725 248.704,81.8086 249.15,81.8452 249.597,81.8813 250.044,81.918 250.491,81.9541 250.938,81.9902 251.384,82.0269 251.832,82.063 252.278,82.0996 252.725,82.1357 253.172,82.1719 253.619,82.2085 254.065,82.2441 254.512,82.2798 254.959,82.313 255.406,82.3398 255.853,82.3511 256.3,82.3252 256.747,82.2241 257.193,81.999 257.64,81.6177 258.087,81.0947 258.534,80.4897 258.981,79.8677 259.428,79.2778 259.875,78.748 260.321,78.292 260.768,77.9136 261.215,77.6113 261.662,77.3804 262.109,77.2139 262.556,77.1025 263.002,77.0366 263.449,77.0059 263.896,77.001 264.343,77.0137 264.79,77.0381 265.237,77.0684 265.684,77.1021 266.13,77.1377 266.577,77.1743 267.024,77.2109 267.471,77.248 267.918,77.2847 268.365,77.3218 268.812,77.3584 269.258,77.3955 269.705,77.4321 270.152,77.4692 270.599,77.5059 271.046,77.543 271.493,77.5796 271.939,77.6167 272.386,77.6533 272.833,77.6904 273.28,77.7271 273.727,77.7642 274.174,77.8008 274.621,77.8379 275.067,77.8745 275.514,77.9116 275.961,77.9482 276.408,77.9849 276.855,78.022 277.302,78.0586 277.749,78.0957 278.195,78.1323 278.642,78.1689 279.089,78.2061 279.536,78.2427 279.983,78.2793 280.43,78.3164 280.876,78.353 281.323,78.3896 281.77,78.4268 282.217,78.4634 282.664,78.5 283.111,78.5366 283.558,78.5737 284.004,78.6104 284.451,78.647 284.898,78.6836 285.345,78.7207 285.792,78.7573 286.239,78.7939 286.686,78.8306 287.132,78.8672 287.579,78.9043 288.026,78.9409 288.473,78.9775 288.919,79.0142 289.367,79.0508 289.813,79.0874 290.26,79.124 290.707,79.1611 291.154,79.1978 291.601,79.2344 292.047,79.271 292.495,79.3076 292.941,79.3442 293.388,79.3809 293.835,79.4175 294.282,79.4541 294.729,79.4907 295.175,79.5273 295.623,79.564 296.069,79.6006 296.516,79.6372 296.963,79.6738 297.41,79.7104 297.856,79.7471 298.303,79.7837 298.75,79.8203 299.197,79.8569 299.644,79.8936 300.091,79.9302 300.538,79.9668 300.984,80.0034 301.431,80.04 301.878,80.0762 302.325,80.1128 302.772,80.1494 303.219,80.186 303.666,80.2227 304.112,80.2593 304.559,80.2959 305.006,80.332 305.453,80.3687 305.9,80.4053 306.347,80.4419 306.793,80.4785 307.24,80.5146 307.687,80.5513 308.134,80.5879 308.581,80.6245 309.028,80.6611 309.475,80.6973 309.921,80.7339 310.368,80.7705 310.815,80.8066 311.262,80.8433 311.709,80.8799 312.156,80.916 312.603,80.9526 313.049,80.9893 313.496,81.0254 313.943,81.062 314.39,81.0986 314.837,81.1348 315.284,81.1714 315.73,81.208 316.177,81.2441 316.624,81.2808 317.071,81.3169 317.518,81.3535 317.965,81.3901 318.412,81.4263 318.858,81.4629 319.305,81.499 319.752,81.5356 320.199,81.5718 320.646,81.6084 321.093,81.6445 321.54,81.6812 321.986,81.7173 322.433,81.7539 322.88,81.79 323.327,81.8267 323.773,81.8628 324.221,81.8994 324.667,81.9355 325.114,81.9717 325.561,82.0083 326.008,82.0444 326.455,82.0811 326.901,82.1172 327.349,82.1533 327.795,82.1899 328.242,82.2261 328.689,82.2617 329.136,82.2964 329.583,82.3271 330.03,82.3481 330.477,82.3442 330.923,82.2866 331.37,82.1294 331.817,81.8281 332.264,81.3706 332.71,80.7979 333.157,80.1772 333.604,79.5664 334.051,79.0044 334.498,78.5107 334.945,78.0933 335.392,77.7534 335.838,77.4873 336.285,77.2896 336.732,77.1519 337.179,77.0645 337.626,77.0176 338.073,77.001 338.52,77.0059 338.966,77.0249 339.413,77.0522 339.86,77.085 340.307,77.1201 340.754,77.1562 341.201,77.1924 341.647,77.2295 342.094,77.2661 342.542,77.3032 342.988,77.3398 343.435,77.377 343.882,77.4141 344.329,77.4507 344.775,77.4878 345.222,77.5244 345.669,77.5615 346.116,77.5981 346.563,77.6353 347.01,77.6719 347.457,77.709 347.903,77.7456 348.35,77.7827 348.797,77.8193 349.244,77.856 349.691,77.8931 350.138,77.9297 350.584,77.9668 351.031,78.0034 351.478,78.04 351.925,78.0771 352.372,78.1138 352.819,78.1509 353.266,78.1875 353.712,78.2241 354.159,78.2612 354.606,78.2979 355.053,78.3345 355.5,78.3716 355.947,78.4082 356.394,78.4448 356.84,78.4814 357.287,78.5186 357.734,78.5552 358.181,78.5918 358.628,78.6284 359.075,78.6655 359.521,78.7021 359.968,78.7388 360.415,78.7754 360.862,78.8125 361.309,78.8491 361.756,78.8857 362.203,78.9224 362.649,78.959 363.096,78.9956 363.543,79.0327 363.99,79.0693 364.437,79.106 364.884,79.1426 365.331,79.1792 365.777,79.2158 366.224,79.2524 366.671,79.2891 367.118,79.3257 367.564,79.3623 368.012,79.3994 368.458,79.436 368.905,79.4727 369.352,79.5093 369.799,79.5459 370.246,79.5825 370.692,79.6191 371.14,79.6558 371.586,79.6924 372.033,79.729 372.48,79.7656 372.927,79.8022 373.374,79.8389 373.82,79.875 374.268,79.9116 374.714,79.9482 375.161,79.9849 375.608,80.0215 376.055,80.0581 376.501,80.0947 376.948,80.1313 377.396,80.168 377.842,80.2046 378.289,80.2407 378.736,80.2773 379.183,80.314 379.629,80.3506 380.076,80.3872 380.523,80.4233 380.97,80.46 381.417,80.4966 381.864,80.5332 382.311,80.5698 382.757,80.606 383.204,80.6426 383.651,80.6792 384.098,80.7158 384.545,80.752 384.992,80.7886 385.438,80.8252 385.885,80.8613 386.332,80.8979 386.779,80.9346 387.226,80.9707 387.673,81.0073 388.12,81.0439 388.566,81.0801 389.013,81.1167 389.46,81.1533 389.907,81.1895 390.354,81.2261 390.801,81.2627 391.248,81.2988 391.694,81.3354 392.141,81.3716 392.588,81.4082 393.035,81.4443 393.482,81.481 393.929,81.5171 394.375,81.5537 394.822,81.5898 395.269,81.6265 395.716,81.6626 396.163,81.6992 396.61,81.7354 397.057,81.772 397.503,81.8081 397.95,81.8447 398.397,81.8809 398.844,81.9175 399.291,81.9536 399.738,81.9902 400.185,82.0264 400.631,82.0625 401.078,82.0991 401.525,82.1353 401.972,82.1714 402.419,82.208 402.866,82.2437 403.312,82.2793 403.759,82.3125 404.206,82.3394 404.653,82.3506 405.1,82.3247 405.547,82.2236 405.994,81.9985 406.44,81.6172 406.887,81.0947 407.334,80.4893 407.781,79.8677 408.228,79.2778 408.674,78.748 409.122,78.292 409.568,77.9136 410.015,77.6113 410.462,77.3804 410.909,77.2139 411.355,77.1025 411.803,77.0366 412.25,77.0059 412.696,77.001 413.143,77.0137 413.59,77.0376 414.037,77.0684 414.483,77.1021 414.931,77.1377 415.377,77.1743 415.824,77.2109 416.271,77.248 416.718,77.2847 417.165,77.3218 417.611,77.3584 418.059,77.3955 418.505,77.4321 418.952,77.4692 419.399,77.5059 419.846,77.543 420.292,77.5796 420.739,77.6167 421.186,77.6533 421.633,77.6904 422.08,77.7271 422.527,77.7642 422.974,77.8008 423.42,77.8379 423.867,77.8745 424.314,77.9116 424.761,77.9482 425.208,77.9849 425.655,78.022 426.102,78.0586 426.548,78.0957 426.995,78.1323 427.442,78.1689 427.889,78.2061 428.336,78.2427 428.783,78.2793 429.229,78.3164 429.676,78.353 430.123,78.3896 430.57,78.4268 431.017,78.4634 431.464,78.5 431.911,78.5366 432.357,78.5737 432.804,78.6104 433.251,78.647 433.698,78.6836 434.145,78.7207 434.592,78.7573 435.039,78.7939 435.485,78.8306 435.932,78.8672 436.379,78.9043 436.826,78.9409 437.273,78.9775 437.72,79.0142 438.167,79.0508 438.613,79.0874 439.06,79.124 439.507,79.1611 439.954,79.1978 440.401,79.2344 440.848,79.271 441.294,79.3076 441.741,79.3442 442.188,79.3809 442.635,79.4175 443.082,79.4541 443.529,79.4907 443.976,79.5273 444.422,79.564 444.869,79.6006 445.316,79.6372 445.763,79.6738 446.209,79.7104 446.657,79.7471 447.104,79.7837 447.55,79.8203 447.997,79.8569 448.444,79.8936 448.891,79.9302 449.337,79.9668 449.785,80.0034 450.231,80.04 450.678,80.0762 451.125,80.1128 451.572,80.1494 452.019,80.186 452.466,80.2227 452.913,80.2593 453.359,80.2959 453.806,80.332 454.253,80.3687 454.7,80.4053 455.146,80.4419 455.594,80.4785 456.041,80.5146 456.487,80.5513 456.934,80.5879 457.381,80.6245 457.828,80.6606 458.274,80.6973 458.721,80.7339 459.168,80.7705 459.615,80.8066 460.062,80.8433 460.509,80.8799 460.956,80.916 461.402,80.9526 461.849,80.9893 462.296,81.0254 462.743,81.062 463.19,81.0986 463.637,81.1348 464.083,81.1714 464.53,81.208 464.977,81.2441 465.424,81.2808 465.871,81.3169 466.318,81.3535 466.765,81.3901 467.211,81.4263 467.658,81.4629 468.105,81.499 468.552,81.5356 468.999,81.5718 469.446,81.6084 469.893,81.6445 470.339,81.6812 470.786,81.7173 471.233,81.7539 471.68,81.79 472.127,81.8267 472.574,81.8628 473.021,81.8989 473.467,81.9355 473.914,81.9717 474.361,82.0083 474.808,82.0444 475.255,82.0811 475.702,82.1172 476.148,82.1533 476.595,82.1899 477.042,82.2261 477.489,82.2617 477.936,82.2964 478.383,82.3271 478.83,82.3481 479.276,82.3442 479.723,82.2866 480.17,82.1294 480.617,81.8281 481.064,81.3706 481.511,80.7979 481.958,80.1772 482.404,79.5664 482.851,79.0044 483.298,78.5107 483.745,78.0933 484.192,77.7534 484.639,77.4873 485.085,77.2896 485.532,77.1519 485.979,77.0645 486.426,77.0176 486.873,77.001 487.32,77.0059 487.767,77.0249 488.213,77.0522 488.66,77.085 489.107,77.1201 489.554,77.1562 490,77.1924 490.448,77.2295 490.895,77.2661 491.341,77.3032 491.788,77.3398 492.235,77.377 492.682,77.4141 493.128,77.4507 493.576,77.4878 494.022,77.5244 494.469,77.5615 494.916,77.5981 495.363,77.6353 495.81,77.6719 496.256,77.709 496.704,77.7456 497.15,77.7827 497.597,77.8193 498.044,77.856 498.491,77.8931 498.938,77.9297 499.384,77.9668 499.831,78.0034 500.278,78.04 500.725,78.0771 501.172,78.1138 501.619,78.1509 502.065,78.1875 502.512,78.2241 502.959,78.2612 503.406,78.2979 503.853,78.3345 504.3,78.3716 504.747,78.4082 505.193,78.4448 505.64,78.4814 506.087,78.5186 506.534,78.5552 506.981,78.5918 507.428,78.6284 507.875,78.6655 508.321,78.7021 508.768,78.7388 509.215,78.7754 509.662,78.8125 510.109,78.8491 510.556,78.8857 511.002,78.9224 511.449,78.959 511.896,78.9956 512.343,79.0327 512.79,79.0693 513.237,79.106 513.684,79.1426 514.13,79.1792 514.577,79.2158 515.024,79.2524 515.471,79.2891 515.918,79.3257 516.365,79.3623 516.812,79.3994 517.258,79.436 517.705,79.4727 518.152,79.5093 518.599,79.5459 519.046,79.5825 519.493,79.6191 519.939,79.6558 520.386,79.6924 520.833,79.729 521.28,79.7656"/>
   <polyline stroke="#ecb01f" stroke-linejoin="round" stroke-width="0.5" stroke-linecap="butt" fill="none" points="74.8799,384.48 75.3267,384.48 75.7734,384.48 76.2207,384.48 76.6675,384.48 77.1143,384.48 77.561,384.478 78.0078,384.334 78.4546,381.199 78.9014,374.819 79.3486,368.28 79.7954,361.761 80.2422,355.268 80.689,348.802 81.1357,342.366 81.5825,335.962 82.0293,329.593 82.4766,323.26 82.9233,316.966 83.3701,310.713 83.8169,304.504 84.2637,298.34 84.7104,292.225 85.1572,286.159 85.6045,280.145 86.0513,274.185 86.498,268.281 86.9448,262.436 87.3916,256.651 87.8384,250.929 88.2852,245.271 88.7324,239.68 89.1792,234.157 89.626,228.705 90.0728,223.325 90.5195,218.019 90.9663,212.789 91.4131,207.637 91.8604,202.564 92.3071,197.574 92.7539,192.666 93.2007,187.843 93.6475,183.107 94.0942,178.459 94.541,173.9 94.9883,169.434 95.4351,165.06 95.8818,160.78 96.3286,156.596 96.7754,152.51 97.2222,148.522 97.6689,144.634 98.1162,140.848 98.563,137.164 99.0098,133.584 99.4565,130.108 99.9033,126.739 100.35,123.477 100.797,120.323 101.244,117.278 101.691,114.343 102.138,111.519 102.584,108.807 103.031,106.207 103.478,103.719 103.925,101.346 104.372,99.0859 104.819,96.9409 105.266,94.9106 105.712,92.9951 106.159,91.1948 106.606,89.5098 107.053,87.9395 107.5,86.4839 107.947,85.1416 108.394,83.9131 108.84,82.7964 109.287,81.79 109.734,80.8926 110.181,80.1011 110.628,79.4131 111.075,78.8247 111.521,78.3311 111.968,77.9268 112.415,77.6055 112.862,77.3584 113.309,77.1772 113.756,77.0518 114.203,76.9712 114.649,76.9248 115.096,76.9043 115.543,76.8999 115.99,76.9067 116.437,76.9189 116.884,76.9351 117.331,76.9521 117.777,76.9702 118.224,76.9888 118.671,77.0068 119.118,77.0254 119.564,77.0439 120.012,77.0625 120.458,77.0811 120.905,77.0991 121.352,77.1177 121.799,77.1362 122.246,77.1548 122.692,77.1729 123.14,77.1914 123.586,77.21 124.033,77.2285 124.48,77.2471 124.927,77.2656 125.374,77.2837 125.82,77.3022 126.268,77.3208 126.714,77.3394 127.161,77.3574 127.608,77.376 128.055,77.3945 128.501,77.4131 128.948,77.4312 129.396,77.4497 129.842,77.4683 130.289,77.4868 130.736,77.5049 131.183,77.5234 131.629,77.542 132.076,77.5605 132.523,77.5791 132.97,77.5972 133.417,77.6157 133.864,77.6343 134.311,77.6523 134.757,77.6709 135.204,77.6895 135.651,77.708 136.098,77.7261 136.545,77.7446 136.992,77.7632 137.438,77.7817 137.885,77.7998 138.332,77.8184 138.779,77.8369 139.226,77.8555 139.673,77.8735 140.12,77.8921 140.566,77.9106 141.013,77.9287 141.46,77.9473 141.907,77.9658 142.354,77.9844 142.801,78.0024 143.248,78.021 143.694,78.0396 144.141,78.0576 144.588,78.0762 145.035,78.0947 145.482,78.1128 145.929,78.1313 146.375,78.1499 146.822,78.168 147.269,78.1865 147.716,78.2051 148.163,78.2231 148.61,78.2417 149.057,78.2603 149.503,78.2783 149.95,78.2969 150.397,78.3154 150.844,78.3335 151.291,78.3521 151.738,78.3706 152.185,78.3887 152.631,78.4072 153.078,78.4258 153.525,78.4438 153.972,78.4624 154.419,78.481 154.866,78.499 155.312,78.5176 155.759,78.5356 156.206,78.5542 156.653,78.5728 157.1,78.5908 157.547,78.6094 157.994,78.6279 158.44,78.646 158.887,78.6646 159.334,78.6826 159.781,78.7012 160.228,78.7197 160.675,78.7378 161.122,78.7563 161.568,78.7744 162.015,78.793 162.462,78.8115 162.909,78.8296 163.355,78.8481 163.803,78.8662 164.25,78.8848 164.696,78.9033 165.143,78.9214 165.59,78.9399 166.037,78.958 166.483,78.9766 166.931,78.9951 167.377,79.0132 167.824,79.0317 168.271,79.0498 168.718,79.0684 169.165,79.0864 169.611,79.105 170.059,79.1235 170.505,79.1416 170.952,79.1602 171.399,79.1782 171.846,79.1968 172.292,79.2148 172.739,79.2334 173.187,79.2515 173.633,79.27 174.08,79.2881 174.527,79.3066 174.974,79.3252 175.42,79.3433 175.867,79.3618 176.314,79.3799 176.761,79.3984 177.208,79.4165 177.655,79.4351 178.102,79.4531 178.548,79.4717 178.995,79.4897 179.442,79.5083 179.889,79.5264 180.336,79.5444 180.783,79.562 181.229,79.5776 181.676,79.5894 182.123,79.5923 182.57,79.5762 183.017,79.5259 183.464,79.4219 183.911,79.2466 184.357,78.9956 184.804,78.6846 185.251,78.3423 185.698,77.9995 186.145,77.6826 186.592,77.4072 187.039,77.1816 187.485,77.0068 187.932,76.8799 188.379,76.7939 188.826,76.7422 189.273,76.7163 189.72,76.7085 190.167,76.7124 190.613,76.7231 191.06,76.7383 191.507,76.7549 191.954,76.7729 192.401,76.791 192.848,76.8096 193.294,76.8281 193.741,76.8467 194.188,76.8647 194.635,76.8833 195.082,76.9019 195.529,76.9204 195.976,76.939 196.422,76.9575 196.869,76.9756 197.316,76.9941 197.763,77.0127 198.21,77.0312 198.657,77.0498 199.104,77.0684 199.55,77.0864 199.997,77.105 200.444,77.1235 200.891,77.1421 201.338,77.1606 201.785,77.1787 202.231,77.1973 202.678,77.2158 203.125,77.2344 203.572,77.2529 204.019,77.271 204.466,77.2896 204.913,77.3081 205.359,77.3267 205.806,77.3447 206.253,77.3633 206.7,77.3818 207.146,77.4004 207.594,77.4189 208.041,77.437 208.487,77.4556 208.934,77.4741 209.381,77.4927 209.828,77.5107 210.274,77.5293 210.722,77.5479 211.168,77.5664 211.615,77.5845 212.062,77.603 212.509,77.6216 212.956,77.6401 213.402,77.6582 213.849,77.6768 214.296,77.6953 214.743,77.7139 215.19,77.7319 215.637,77.7505 216.083,77.769 216.53,77.7876 216.978,77.8057 217.424,77.8242 217.871,77.8428 218.318,77.8608 218.765,77.8794 219.211,77.8979 219.658,77.916 220.105,77.9346 220.552,77.9531 220.999,77.9717 221.446,77.9897 221.893,78.0083 222.339,78.0269 222.786,78.0449 223.233,78.0635 223.68,78.082 224.127,78.1006 224.574,78.1187 225.021,78.1372 225.467,78.1553 225.914,78.1738 226.361,78.1924 226.808,78.2109 227.255,78.229 227.702,78.2476 228.148,78.2661 228.595,78.2842 229.042,78.3027 229.489,78.3213 229.936,78.3394 230.383,78.3579 230.83,78.3765 231.276,78.3945 231.723,78.4131 232.17,78.4312 232.617,78.4497 233.064,78.4683 233.511,78.4863 233.958,78.5049 234.404,78.5234 234.851,78.5415 235.298,78.5601 235.745,78.5786 236.192,78.5967 236.639,78.6152 237.085,78.6333 237.532,78.6519 237.979,78.6704 238.426,78.6885 238.873,78.707 239.32,78.7256 239.767,78.7437 240.213,78.7622 240.66,78.7803 241.107,78.7988 241.554,78.8169 242,78.8354 242.448,78.854 242.895,78.8721 243.341,78.8906 243.788,78.9087 244.235,78.9272 244.682,78.9458 245.128,78.9639 245.576,78.9824 246.022,79.0005 246.469,79.019 246.916,79.0371 247.363,79.0557 247.81,79.0742 248.256,79.0923 248.704,79.1108 249.15,79.1289 249.597,79.1475 250.044,79.1655 250.491,79.1841 250.938,79.2026 251.384,79.2207 251.832,79.2393 252.278,79.2573 252.725,79.2759 253.172,79.2939 253.619,79.3125 254.065,79.3306 254.512,79.3486 254.959,79.3667 255.406,79.3838 255.853,79.3984 256.3,79.4077 256.747,79.4053 257.193,79.3799 257.64,79.3154 258.087,79.1924 258.534,78.9995 258.981,78.7383 259.428,78.4292 259.875,78.1011 260.321,77.7822 260.768,77.4946 261.215,77.251 261.662,77.0557 262.109,76.9087 262.556,76.8057 263.002,76.7393 263.449,76.7026 263.896,76.687 264.343,76.686 264.79,76.6938 265.237,76.707 265.684,76.7231 266.13,76.7407 266.577,76.7588 267.024,76.7773 267.471,76.7959 267.918,76.814 268.365,76.8325 268.812,76.8511 269.258,76.8696 269.705,76.8882 270.152,76.9067 270.599,76.9253 271.046,76.9434 271.493,76.9619 271.939,76.9805 272.386,76.999 272.833,77.0176 273.28,77.0356 273.727,77.0542 274.174,77.0728 274.621,77.0913 275.067,77.1099 275.514,77.1284 275.961,77.1465 276.408,77.165 276.855,77.1836 277.302,77.2021 277.749,77.2207 278.195,77.2388 278.642,77.2573 279.089,77.2759 279.536,77.2944 279.983,77.3125 280.43,77.3311 280.876,77.3496 281.323,77.3682 281.77,77.3867 282.217,77.4048 282.664,77.4233 283.111,77.4419 283.558,77.4604 284.004,77.4785 284.451,77.4971 284.898,77.5156 285.345,77.5342 285.792,77.5522 286.239,77.5708 286.686,77.5894 287.132,77.6079 287.579,77.626 288.026,77.6445 288.473,77.6631 288.919,77.6816 289.367,77.6997 289.813,77.7183 290.26,77.7368 290.707,77.7554 291.154,77.7734 291.601,77.792 292.047,77.8105 292.495,77.8286 292.941,77.8472 293.388,77.8657 293.835,77.8843 294.282,77.9023 294.729,77.9209 295.175,77.9395 295.623,77.9575 296.069,77.9761 296.516,77.9946 296.963,78.0132 297.41,78.0312 297.856,78.0498 298.303,78.0684 298.75,78.0864 299.197,78.105 299.644,78.1235 300.091,78.1416 300.538,78.1602 300.984,78.1787 301.431,78.1968 301.878,78.2153 302.325,78.2339 302.772,78.252 303.219,78.2705 303.666,78.2891 304.112,78.3071 304.559,78.3257 305.006,78.3442 305.453,78.3623 305.9,78.3809 306.347,78.3994 306.793,78.4175 307.24,78.436 307.687,78.4546 308.134,78.4727 308.581,78.4912 309.028,78.5098 309.475,78.5278 309.921,78.5464 310.368,78.5645 310.815,78.583 311.262,78.6016 311.709,78.6196 312.156,78.6382 312.603,78.6567 313.049,78.6748 313.496,78.6934 313.943,78.7114 314.39,78.73 314.837,78.7485 315.284,78.7666 315.73,78.7852 316.177,78.8032 316.624,78.8218 317.071,78.8403 317.518,78.8584 317.965,78.877 318.412,78.895 318.858,78.9136 319.305,78.9321 319.752,78.9502 320.199,78.9688 320.646,78.9868 321.093,79.0054 321.54,79.0234 321.986,79.042 322.433,79.0605 322.88,79.0786 323.327,79.0972 323.773,79.1152 324.221,79.1338 324.667,79.1519 325.114,79.1704 325.561,79.1885 326.008,79.207 326.455,79.2256 326.901,79.2437 327.349,79.2622 327.795,79.2803 328.242,79.2988 328.689,79.3169 329.136,79.335 329.583,79.3525 330.03,79.3687 330.477,79.3813 330.923,79.3862 331.37,79.3745 331.817,79.3325 332.264,79.2422 332.71,79.0874 333.157,78.8613 333.604,78.5757 334.051,78.2559 334.498,77.9312 334.945,77.6274 335.392,77.3618 335.838,77.1426 336.285,76.9727 336.732,76.8486 337.179,76.7651 337.626,76.7148 338.073,76.6895 338.52,76.6816 338.966,76.686 339.413,76.6973 339.86,76.7119 340.307,76.729 340.754,76.7471 341.201,76.7651 341.647,76.7837 342.094,76.8018 342.542,76.8203 342.988,76.8389 343.435,76.8574 343.882,76.876 344.329,76.8945 344.775,76.9131 345.222,76.9312 345.669,76.9497 346.116,76.9683 346.563,76.9868 347.01,77.0054 347.457,77.0234 347.903,77.042 348.35,77.0605 348.797,77.0791 349.244,77.0977 349.691,77.1157 350.138,77.1343 350.584,77.1528 351.031,77.1714 351.478,77.1899 351.925,77.208 352.372,77.2266 352.819,77.2451 353.266,77.2637 353.712,77.2822 354.159,77.3003 354.606,77.3188 355.053,77.3374 355.5,77.356 355.947,77.3745 356.394,77.3926 356.84,77.4111 357.287,77.4297 357.734,77.4482 358.181,77.4663 358.628,77.4849 359.075,77.5034 359.521,77.522 359.968,77.54 360.415,77.5586 360.862,77.5771 361.309,77.5957 361.756,77.6138 362.203,77.6323 362.649,77.6509 363.096,77.6694 363.543,77.6875 363.99,77.7061 364.437,77.7246 364.884,77.7432 365.331,77.7612 365.777,77.7798 366.224,77.7983 366.671,77.8164 367.118,77.835 367.564,77.8535 368.012,77.8721 368.458,77.8901 368.905,77.9087 369.352,77.9272 369.799,77.9458 370.246,77.9639 370.692,77.9824 371.14,78.001 371.586,78.019 372.033,78.0376 372.48,78.0562 372.927,78.0742 373.374,78.0928 373.82,78.1113 374.268,78.1294 374.714,78.1479 375.161,78.1665 375.608,78.1846 376.055,78.2031 376.501,78.2217 376.948,78.2397 377.396,78.2583 377.842,78.2769 378.289,78.2949 378.736,78.3135 379.183,78.332 379.629,78.3501 380.076,78.3687 380.523,78.3872 380.97,78.4053 381.417,78.4238 381.864,78.4424 382.311,78.4604 382.757,78.479 383.204,78.4976 383.651,78.5156 384.098,78.5342 384.545,78.5527 384.992,78.5708 385.438,78.5894 385.885,78.6074 386.332,78.626 386.779,78.6445 387.226,78.6626 387.673,78.6812 388.12,78.6992 388.566,78.7178 389.013,78.7363 389.46,78.7544 389.907,78.7729 390.354,78.7915 390.801,78.8096 391.248,78.8281 391.694,78.8462 392.141,78.8647 392.588,78.8828 393.035,78.9014 393.482,78.9199 393.929,78.938 394.375,78.9565 394.822,78.9746 395.269,78.9932 395.716,79.0117 396.163,79.0298 396.61,79.0483 397.057,79.0664 397.503,79.085 397.95,79.103 398.397,79.1216 398.844,79.1396 399.291,79.1582 399.738,79.1768 400.185,79.1948 400.631,79.2134 401.078,79.2314 401.525,79.25 401.972,79.2681 402.419,79.2866 402.866,79.3047 403.312,79.3232 403.759,79.3408 404.206,79.3579 404.653,79.3726 405.1,79.3823 405.547,79.3799 405.994,79.3555 406.44,79.292 406.887,79.1714 407.334,78.981 407.781,78.7231 408.228,78.4165 408.674,78.0908 409.122,77.7744 409.568,77.4883 410.015,77.2456 410.462,77.0508 410.909,76.9043 411.355,76.8018 411.803,76.7358 412.25,76.6987 412.696,76.6836 413.143,76.6821 413.59,76.6904 414.037,76.7041 414.483,76.7202 414.931,76.7373 415.377,76.7554 415.824,76.7739 416.271,76.7925 416.718,76.811 417.165,76.8291 417.611,76.8477 418.059,76.8662 418.505,76.8848 418.952,76.9033 419.399,76.9219 419.846,76.9399 420.292,76.9585 420.739,76.9771 421.186,76.9956 421.633,77.0142 422.08,77.0327 422.527,77.0508 422.974,77.0693 423.42,77.0879 423.867,77.1064 424.314,77.125 424.761,77.1431 425.208,77.1616 425.655,77.1802 426.102,77.1987 426.548,77.2173 426.995,77.2354 427.442,77.2539 427.889,77.2725 428.336,77.291 428.783,77.3096 429.229,77.3276 429.676,77.3462 430.123,77.3647 430.57,77.3833 431.017,77.4014 431.464,77.4199 431.911,77.4385 432.357,77.457 432.804,77.4751 433.251,77.4937 433.698,77.5122 434.145,77.5308 434.592,77.5488 435.039,77.5674 435.485,77.5859 435.932,77.6045 436.379,77.623 436.826,77.6411 437.273,77.6597 437.72,77.6782 438.167,77.6963 438.613,77.7148 439.06,77.7334 439.507,77.752 439.954,77.77 440.401,77.7886 440.848,77.8071 441.294,77.8257 441.741,77.8438 442.188,77.8623 442.635,77.8809 443.082,77.8989 443.529,77.9175 443.976,77.936 444.422,77.9546 444.869,77.9727 445.316,77.9912 445.763,78.0098 446.209,78.0278 446.657,78.0464 447.104,78.0649 447.55,78.083 447.997,78.1016 448.444,78.1201 448.891,78.1382 449.337,78.1567 449.785,78.1753 450.231,78.1934 450.678,78.2119 451.125,78.2305 451.572,78.249 452.019,78.2671 452.466,78.2856 452.913,78.3042 453.359,78.3223 453.806,78.3408 454.253,78.3589 454.7,78.3774 455.146,78.396 455.594,78.4141 456.041,78.4326 456.487,78.4512 456.934,78.4692 457.381,78.4878 457.828,78.5063 458.274,78.5244 458.721,78.543 459.168,78.5615 459.615,78.5796 460.062,78.5981 460.509,78.6162 460.956,78.6348 461.402,78.6533 461.849,78.6714 462.296,78.6899 462.743,78.708 463.19,78.7266 463.637,78.7451 464.083,78.7632 464.53,78.7817 464.977,78.7998 465.424,78.8184 465.871,78.8369 466.318,78.855 466.765,78.8735 467.211,78.8916 467.658,78.9102 468.105,78.9287 468.552,78.9468 468.999,78.9653 469.446,78.9834 469.893,79.002 470.339,79.0205 470.786,79.0386 471.233,79.0571 471.68,79.0752 472.127,79.0938 472.574,79.1118 473.021,79.1304 473.467,79.1484 473.914,79.167 474.361,79.1855 474.808,79.2036 475.255,79.2222 475.702,79.2402 476.148,79.2588 476.595,79.2769 477.042,79.2954 477.489,79.3135 477.936,79.3315 478.383,79.3491 478.83,79.3652 479.276,79.3779 479.723,79.3828 480.17,79.3711 480.617,79.3291 481.064,79.2393 481.511,79.085 481.958,78.8594 482.404,78.5742 482.851,78.2544 483.298,77.9297 483.745,77.6265 484.192,77.3608 484.639,77.1421 485.085,76.9717 485.532,76.8481 485.979,76.7646 486.426,76.7139 486.873,76.689 487.32,76.6812 487.767,76.6855 488.213,76.6968 488.66,76.7114 489.107,76.7285 489.554,76.7466 490,76.7646 490.448,76.7832 490.895,76.8018 491.341,76.8198 491.788,76.8384 492.235,76.8569 492.682,76.8755 493.128,76.894 493.576,76.9126 494.022,76.9307 494.469,76.9492 494.916,76.9678 495.363,76.9863 495.81,77.0049 496.256,77.0234 496.704,77.0415 497.15,77.0601 497.597,77.0786 498.044,77.0972 498.491,77.1157 498.938,77.1338 499.384,77.1523 499.831,77.1709 500.278,77.1895 500.725,77.208 501.172,77.2261 501.619,77.2446 502.065,77.2632 502.512,77.2817 502.959,77.3003 503.406,77.3184 503.853,77.3369 504.3,77.3555 504.747,77.374 505.193,77.3921 505.64,77.4106 506.087,77.4292 506.534,77.4478 506.981,77.4658 507.428,77.4844 507.875,77.5029 508.321,77.5215 508.768,77.54 509.215,77.5581 509.662,77.5767 510.109,77.5952 510.556,77.6133 511.002,77.6318 511.449,77.6504 511.896,77.6689 512.343,77.6875 512.79,77.7056 513.237,77.7241 513.684,77.7427 514.13,77.7607 514.577,77.7793 515.024,77.7979 515.471,77.8164 515.918,77.8345 516.365,77.853 516.812,77.8716 517.258,77.8896 517.705,77.9082 518.152,77.9268 518.599,77.9453 519.046,77.9634 519.493,77.9819 519.939,78.0005 520.386,78.0186 520.833,78.0371 521.28,78.0557"/>
  </g>
  <clipPath id="cp00576432">
   <polygon points="0,432 576,432 576,0 0,0"/>
  </clipPath>
  <g clip-path="url(#cp00576432)">
   <polygon shape-rendering="crispEdges" fill="#ffffff" points="454.963,372.83 509.63,372.83 509.63,330.668 454.963,330.668"/>
   <polyline stroke="#262626" stroke-linejoin="miter" stroke-width="0.5" stroke-linecap="square" stroke-dasharray="16,0" fill="none" points="454.963,372.83 509.63,372.83"/>
   <polyline stroke="#262626" stroke-linejoin="miter" stroke-width="0.5" stroke-linecap="square" stroke-dasharray="16,0" fill="none" points="454.963,330.668 509.63,330.668"/>
   <polyline stroke="#262626" stroke-linejoin="miter" stroke-width="0.5" stroke-linecap="square" stroke-dasharray="16,0" fill="none" points="454.963,372.83 454.963,330.668"/>
   <polyline stroke="#262626" stroke-linejoin="miter" stroke-width="0.5" stroke-linecap="square" stroke-dasharray="16,0" fill="none" points="509.63,372.83 509.63,330.668"/>
   <text font-family="FreeSans" font-size="9" font-style="normal" transform="translate(483.603,341.695) rotate(-0,-0,-4)" xml:space="preserve" font-weight="normal">
    <tspan x="0 5 " fill="rgb(0,0,0)" y="-0">1k</tspan>
    <tspan x="10 " fill="rgb(0,0,0)" y="-0">Ω</tspan>
   </text>
   <text font-family="FreeSans" font-size="9" font-style="normal" transform="translate(483.603,355.749) rotate(-0,-0,-4)" xml:space="preserve" font-weight="normal">
    <tspan x="0 5 " fill="rgb(0,0,0)" y="-0">5k</tspan>
    <tspan x="10 " fill="rgb(0,0,0)" y="-0">Ω</tspan>
   </text>
   <text font-family="FreeSans" font-size="9" font-style="normal" transform="translate(483.603,369.803) rotate(-0,-0,-4)" xml:space="preserve" font-weight="normal">
    <tspan x="0 5 10 " fill="rgb(0,0,0)" y="-0">10k</tspan>
    <tspan x="15 " fill="rgb(0,0,0)" y="-0">Ω</tspan>
   </text>
   <polyline stroke="#0071bc" stroke-linejoin="round" stroke-width="0.5" stroke-linecap="butt" fill="none" points="458.361,337.695 480.205,337.695"/>
   <polyline stroke="#d85218" stroke-linejoin="round" stroke-width="0.5" stroke-linecap="butt" fill="none" points="458.361,351.749 480.205,351.749"/>
   <polyline stroke="#ecb01f" stroke-linejoin="round" stroke-width="0.5" stroke-linecap="butt" fill="none" points="458.361,365.803 480.205,365.803"/>
  </g>
 </g>
</svg>
