<?xml version='1.0' encoding='UTF-8' standalone='no'?>
<svg xmlns="http://www.w3.org/2000/svg" xmlns:xlink="http://www.w3.org/1999/xlink" width="576pt" viewBox="0 0 576 432" height="432pt">
 <title>gl2ps_renderer figure</title>
 <desc>
Creator: GL2PS 1.4.0, (C) 1999-2017 C. Geuzaine
For: Octave
CreationDate: Sun Nov 22 21:49:35 2020
</desc>
 <defs/>
 <polygon fill="#ffffff" points="0,0 576,0 576,432 0,432"/>
 <g>
  <polygon fill="#ffffff" points="0,432 576,432 576,0 0,0" shape-rendering="crispEdges"/>
  <clipPath id="cp00576432">
   <polygon points="0,432 576,432 576,0 0,0"/>
  </clipPath>
  <g clip-path="url(#cp00576432)">
   <polygon fill="#ffffff" points="74.8799,384.539 521.28,384.539 521.28,32.4844 74.8799,32.4844" shape-rendering="crispEdges"/>
   <polyline fill="none" stroke="#262626" stroke-linejoin="miter" stroke-opacity="0.15" points="74.8799,384.539 74.8799,32.4844" stroke-dasharray="16,0" stroke-width="0.5" stroke-linecap="butt"/>
   <polyline fill="none" stroke="#262626" stroke-linejoin="miter" stroke-opacity="0.15" points="138.651,384.539 138.651,32.4844" stroke-dasharray="16,0" stroke-width="0.5" stroke-linecap="butt"/>
   <polyline fill="none" stroke="#262626" stroke-linejoin="miter" stroke-opacity="0.15" points="202.423,384.539 202.423,32.4844" stroke-dasharray="16,0" stroke-width="0.5" stroke-linecap="butt"/>
   <polyline fill="none" stroke="#262626" stroke-linejoin="miter" stroke-opacity="0.15" points="266.194,384.539 266.194,32.4844" stroke-dasharray="16,0" stroke-width="0.5" stroke-linecap="butt"/>
   <polyline fill="none" stroke="#262626" stroke-linejoin="miter" stroke-opacity="0.15" points="329.966,384.539 329.966,32.4844" stroke-dasharray="16,0" stroke-width="0.5" stroke-linecap="butt"/>
   <polyline fill="none" stroke="#262626" stroke-linejoin="miter" stroke-opacity="0.15" points="393.737,384.539 393.737,32.4844" stroke-dasharray="16,0" stroke-width="0.5" stroke-linecap="butt"/>
   <polyline fill="none" stroke="#262626" stroke-linejoin="miter" stroke-opacity="0.15" points="457.509,384.539 457.509,32.4844" stroke-dasharray="16,0" stroke-width="0.5" stroke-linecap="butt"/>
   <polyline fill="none" stroke="#262626" stroke-linejoin="miter" stroke-opacity="0.15" points="521.28,384.539 521.28,32.4844" stroke-dasharray="16,0" stroke-width="0.5" stroke-linecap="butt"/>
   <polyline fill="none" stroke="#262626" stroke-linejoin="miter" points="74.8799,384.539 74.8799,379.898" stroke-width="0.5" stroke-linecap="butt"/>
   <polyline fill="none" stroke="#262626" stroke-linejoin="miter" points="74.8799,32.4844 74.8799,36.9141" stroke-width="0.5" stroke-linecap="butt"/>
   <polyline fill="none" stroke="#262626" stroke-linejoin="miter" points="138.651,384.539 138.651,379.898" stroke-width="0.5" stroke-linecap="butt"/>
   <polyline fill="none" stroke="#262626" stroke-linejoin="miter" points="138.651,32.4844 138.651,36.9141" stroke-width="0.5" stroke-linecap="butt"/>
   <polyline fill="none" stroke="#262626" stroke-linejoin="miter" points="202.423,384.539 202.423,379.898" stroke-width="0.5" stroke-linecap="butt"/>
   <polyline fill="none" stroke="#262626" stroke-linejoin="miter" points="202.423,32.4844 202.423,36.9141" stroke-width="0.5" stroke-linecap="butt"/>
   <polyline fill="none" stroke="#262626" stroke-linejoin="miter" points="266.194,384.539 266.194,379.898" stroke-width="0.5" stroke-linecap="butt"/>
   <polyline fill="none" stroke="#262626" stroke-linejoin="miter" points="266.194,32.4844 266.194,36.9141" stroke-width="0.5" stroke-linecap="butt"/>
   <polyline fill="none" stroke="#262626" stroke-linejoin="miter" points="329.966,384.539 329.966,379.898" stroke-width="0.5" stroke-linecap="butt"/>
   <polyline fill="none" stroke="#262626" stroke-linejoin="miter" points="329.966,32.4844 329.966,36.9141" stroke-width="0.5" stroke-linecap="butt"/>
   <polyline fill="none" stroke="#262626" stroke-linejoin="miter" points="393.737,384.539 393.737,379.898" stroke-width="0.5" stroke-linecap="butt"/>
   <polyline fill="none" stroke="#262626" stroke-linejoin="miter" points="393.737,32.4844 393.737,36.9141" stroke-width="0.5" stroke-linecap="butt"/>
   <polyline fill="none" stroke="#262626" stroke-linejoin="miter" points="457.509,384.539 457.509,379.898" stroke-width="0.5" stroke-linecap="butt"/>
   <polyline fill="none" stroke="#262626" stroke-linejoin="miter" points="457.509,32.4844 457.509,36.9141" stroke-width="0.5" stroke-linecap="butt"/>
   <polyline fill="none" stroke="#262626" stroke-linejoin="miter" points="521.28,384.539 521.28,379.898" stroke-width="0.5" stroke-linecap="butt"/>
   <polyline fill="none" stroke="#262626" stroke-linejoin="miter" points="521.28,32.4844 521.28,36.9141" stroke-width="0.5" stroke-linecap="butt"/>
   <text transform="translate(61.38,399.982) rotate(-0,13.5,-8)" font-weight="normal" font-style="normal" font-size="10" xml:space="preserve" font-family="FreeSans">
    <tspan fill="rgb(38,38,38)" y="-0" x="0 6 9 15 21 ">0.005</tspan>
   </text>
   <text transform="translate(128.151,399.982) rotate(-0,10.5,-8)" font-weight="normal" font-style="normal" font-size="10" xml:space="preserve" font-family="FreeSans">
    <tspan fill="rgb(38,38,38)" y="-0" x="0 6 9 15 ">0.01</tspan>
   </text>
   <text transform="translate(188.923,399.982) rotate(-0,13.5,-8)" font-weight="normal" font-style="normal" font-size="10" xml:space="preserve" font-family="FreeSans">
    <tspan fill="rgb(38,38,38)" y="-0" x="0 6 9 15 21 ">0.015</tspan>
   </text>
   <text transform="translate(255.694,399.982) rotate(-0,10.5,-8)" font-weight="normal" font-style="normal" font-size="10" xml:space="preserve" font-family="FreeSans">
    <tspan fill="rgb(38,38,38)" y="-0" x="0 6 9 15 ">0.02</tspan>
   </text>
   <text transform="translate(316.466,399.982) rotate(-0,13.5,-8)" font-weight="normal" font-style="normal" font-size="10" xml:space="preserve" font-family="FreeSans">
    <tspan fill="rgb(38,38,38)" y="-0" x="0 6 9 15 21 ">0.025</tspan>
   </text>
   <text transform="translate(383.237,399.982) rotate(-0,10.5,-8)" font-weight="normal" font-style="normal" font-size="10" xml:space="preserve" font-family="FreeSans">
    <tspan fill="rgb(38,38,38)" y="-0" x="0 6 9 15 ">0.03</tspan>
   </text>
   <text transform="translate(444.009,399.982) rotate(-0,13.5,-8)" font-weight="normal" font-style="normal" font-size="10" xml:space="preserve" font-family="FreeSans">
    <tspan fill="rgb(38,38,38)" y="-0" x="0 6 9 15 21 ">0.035</tspan>
   </text>
   <text transform="translate(510.78,399.982) rotate(-0,10.5,-8)" font-weight="normal" font-style="normal" font-size="10" xml:space="preserve" font-family="FreeSans">
    <tspan fill="rgb(38,38,38)" y="-0" x="0 6 9 15 ">0.04</tspan>
   </text>
   <polyline fill="none" stroke="#262626" stroke-linejoin="miter" stroke-opacity="0.15" points="74.8799,384.539 521.28,384.539" stroke-dasharray="16,0" stroke-width="0.5" stroke-linecap="butt"/>
   <polyline fill="none" stroke="#262626" stroke-linejoin="miter" stroke-opacity="0.15" points="74.8799,296.367 521.28,296.367" stroke-dasharray="16,0" stroke-width="0.5" stroke-linecap="butt"/>
   <polyline fill="none" stroke="#262626" stroke-linejoin="miter" stroke-opacity="0.15" points="74.8799,208.617 521.28,208.617" stroke-dasharray="16,0" stroke-width="0.5" stroke-linecap="butt"/>
   <polyline fill="none" stroke="#262626" stroke-linejoin="miter" stroke-opacity="0.15" points="74.8799,120.445 521.28,120.445" stroke-dasharray="16,0" stroke-width="0.5" stroke-linecap="butt"/>
   <polyline fill="none" stroke="#262626" stroke-linejoin="miter" stroke-opacity="0.15" points="74.8799,32.4844 521.28,32.4844" stroke-dasharray="16,0" stroke-width="0.5" stroke-linecap="butt"/>
   <polyline fill="none" stroke="#262626" stroke-linejoin="miter" points="74.8799,384.539 79.3481,384.539" stroke-width="0.5" stroke-linecap="butt"/>
   <polyline fill="none" stroke="#262626" stroke-linejoin="miter" points="521.28,384.539 516.812,384.539" stroke-width="0.5" stroke-linecap="butt"/>
   <polyline fill="none" stroke="#262626" stroke-linejoin="miter" points="74.8799,296.367 79.3481,296.367" stroke-width="0.5" stroke-linecap="butt"/>
   <polyline fill="none" stroke="#262626" stroke-linejoin="miter" points="521.28,296.367 516.812,296.367" stroke-width="0.5" stroke-linecap="butt"/>
   <polyline fill="none" stroke="#262626" stroke-linejoin="miter" points="74.8799,208.617 79.3481,208.617" stroke-width="0.5" stroke-linecap="butt"/>
   <polyline fill="none" stroke="#262626" stroke-linejoin="miter" points="521.28,208.617 516.812,208.617" stroke-width="0.5" stroke-linecap="butt"/>
   <polyline fill="none" stroke="#262626" stroke-linejoin="miter" points="74.8799,120.445 79.3481,120.445" stroke-width="0.5" stroke-linecap="butt"/>
   <polyline fill="none" stroke="#262626" stroke-linejoin="miter" points="521.28,120.445 516.812,120.445" stroke-width="0.5" stroke-linecap="butt"/>
   <polyline fill="none" stroke="#262626" stroke-linejoin="miter" points="74.8799,32.4844 79.3481,32.4844" stroke-width="0.5" stroke-linecap="butt"/>
   <polyline fill="none" stroke="#262626" stroke-linejoin="miter" points="521.28,32.4844 516.812,32.4844" stroke-width="0.5" stroke-linecap="butt"/>
   <text transform="translate(36.8755,388.48) rotate(-0,33,-4)" font-weight="normal" font-style="normal" font-size="10" xml:space="preserve" font-family="FreeSans">
    <tspan fill="rgb(38,38,38)" y="-0" x="0 6 9 15 21 27 ">2.5986</tspan>
   </text>
   <text transform="translate(36.8755,300.46) rotate(-0,33,-4)" font-weight="normal" font-style="normal" font-size="10" xml:space="preserve" font-family="FreeSans">
    <tspan fill="rgb(38,38,38)" y="-0" x="0 6 9 15 21 27 ">2.5987</tspan>
   </text>
   <text transform="translate(36.8755,212.44) rotate(-0,33,-4)" font-weight="normal" font-style="normal" font-size="10" xml:space="preserve" font-family="FreeSans">
    <tspan fill="rgb(38,38,38)" y="-0" x="0 6 9 15 21 27 ">2.5988</tspan>
   </text>
   <text transform="translate(36.8755,124.42) rotate(-0,33,-4)" font-weight="normal" font-style="normal" font-size="10" xml:space="preserve" font-family="FreeSans">
    <tspan fill="rgb(38,38,38)" y="-0" x="0 6 9 15 21 27 ">2.5989</tspan>
   </text>
   <text transform="translate(42.8755,36.4) rotate(-0,27,-4)" font-weight="normal" font-style="normal" font-size="10" xml:space="preserve" font-family="FreeSans">
    <tspan fill="rgb(38,38,38)" y="-0" x="0 6 9 15 21 ">2.599</tspan>
   </text>
   <polyline fill="none" stroke="#262626" stroke-linejoin="miter" points="74.8799,384.539 521.28,384.539" stroke-dasharray="16,0" stroke-width="0.5" stroke-linecap="square"/>
   <polyline fill="none" stroke="#262626" stroke-linejoin="miter" points="74.8799,32.4844 521.28,32.4844" stroke-dasharray="16,0" stroke-width="0.5" stroke-linecap="square"/>
   <polyline fill="none" stroke="#262626" stroke-linejoin="miter" points="74.8799,384.539 74.8799,32.4844" stroke-dasharray="16,0" stroke-width="0.5" stroke-linecap="square"/>
   <polyline fill="none" stroke="#262626" stroke-linejoin="miter" points="521.28,384.539 521.28,32.4844" stroke-dasharray="16,0" stroke-width="0.5" stroke-linecap="square"/>
   <text transform="translate(274.58,413.982) rotate(-0,23.5,-9)" font-weight="normal" font-style="normal" font-size="11" xml:space="preserve" font-family="FreeSans">
    <tspan fill="rgb(38,38,38)" y="-0" x="0 7 9 18 24 27 29 35 38 40 45 ">Time in 's'</tspan>
   </text>
   <text transform="translate(1.37552,208.44) rotate(-90,30.5,0)" font-weight="normal" font-style="normal" font-size="11" xml:space="preserve" font-family="FreeSans">
    <tspan fill="rgb(38,38,38)" y="-2" x="0 7 13 15 18 24 30 36 39 41 47 50 52 59 ">Voltage in 'V'</tspan>
   </text>
   <text transform="translate(53.08,22.4) rotate(-0,245,0)" font-weight="bold" font-style="normal" font-size="11" xml:space="preserve" font-family="FreeSans">
    <tspan fill="rgb(0,0,0)" y="-3" x="0 9 16 20 27 34 38 42 49 56 59 63 69 76 82 85 91 97 100 107 110 120 126 129 133 140 144 147 151 158 161 168 174 180 186 192 195 202 205 208 215 218 225 231 237 243 249 252 259 262 265 272 275 282 288 294 300 306 309 316 319 322 326 333 337 340 343 351 355 362 372 376 382 388 394 397 403 410 413 417 423 430 436 439 443 449 456 463 466 472 476 483 487 ">Output-Voltage vs Time for:(Vin=100 V ;Vin=110 V ;Vin=120 V  )of IC-LM-317 voltage regulator.</tspan>
   </text>
   <polyline fill="none" stroke="#0071bc" stroke-linejoin="round" points="113.245,45.5625 113.756,45.5625 114.266,45.5625 114.777,45.5625 115.288,45.5625 115.798,45.5625 116.309,45.5625 116.82,45.5625 117.331,45.5625 117.841,45.5625 118.352,45.5625 118.862,45.5625 119.373,45.5625 119.884,45.5625 120.395,45.5625 120.905,45.7734 121.416,45.7734 121.927,50.8359 122.438,55.2656 122.948,59.9062 123.458,64.5469 123.969,69.1875 124.48,73.8281 124.991,78.2578 125.501,83.1094 126.012,87.5391 126.522,91.9688 127.033,96.6094 127.544,101.25 128.055,105.891 128.565,110.531 129.076,114.961 129.587,119.602 130.098,124.242 130.608,128.883 131.119,133.312 131.629,137.953 132.14,142.594 132.651,147.234 133.162,151.875 133.672,156.516 134.183,161.156 134.694,165.797 135.204,170.438 135.715,174.656 136.226,179.508 136.736,183.938 137.247,188.578 137.758,193.219 138.269,197.859 138.779,202.5 139.29,207.141 139.8,211.781 140.311,216.211 140.822,220.852 141.333,225.492 141.843,230.133 142.354,234.984 142.865,239.625 143.375,244.266 143.886,248.906 144.396,253.336 144.907,257.977 145.418,262.617 145.929,267.258 146.439,271.898 146.95,276.539 147.461,281.18 147.971,285.82 148.482,290.461 148.993,294.891 149.503,299.742 150.014,304.383 150.525,309.023 151.036,313.664 151.546,318.305 152.057,322.945 152.567,327.586 153.078,332.438 153.589,336.867 154.1,341.508 154.61,346.148 155.121,306.07 155.632,179.508 156.142,68.5547 156.653,51.6797 157.164,47.4609 157.674,46.1953 158.185,45.9844 158.696,45.7734 159.207,45.7734 159.717,45.7734 160.228,45.7734 160.738,45.5625 161.249,45.5625 161.76,45.5625 162.271,45.5625 162.781,45.5625 163.292,45.5625 163.803,45.5625 164.313,45.5625 164.824,45.5625 165.334,45.5625 165.845,45.5625 166.356,45.5625 166.867,45.5625 167.377,45.5625 167.888,45.5625 168.398,45.5625 168.909,45.5625 169.42,45.5625 169.931,45.5625 170.441,45.5625 170.952,45.5625 171.463,45.5625 171.974,45.5625 172.484,45.5625 172.995,45.5625 173.505,45.5625 174.016,45.5625 174.527,45.5625 175.038,45.5625 175.548,45.5625 176.059,45.5625 176.569,45.5625 177.08,45.5625 177.591,45.5625 178.102,45.5625 178.612,45.5625 179.123,45.5625 179.634,45.5625 180.145,45.5625 180.655,45.5625 181.166,45.5625 181.676,45.5625 182.187,45.5625 182.698,45.5625 183.208,45.5625 183.719,45.5625 184.23,45.5625 184.74,45.5625 185.251,45.5625 185.762,45.5625 186.272,45.5625 186.783,45.5625 187.294,45.5625 187.805,45.5625 188.315,45.5625 188.826,45.5625 189.336,45.5625 189.847,45.5625 190.358,45.5625 190.869,45.5625 191.379,45.5625 191.89,45.5625 192.401,45.5625 192.912,45.5625 193.422,45.5625 193.933,45.5625 194.443,45.5625 194.954,45.5625 195.465,45.5625 195.976,45.5625 196.486,45.5625 196.997,45.5625 197.507,45.5625 198.018,45.5625 198.529,45.5625 199.04,45.5625 199.55,45.5625 200.061,45.5625 200.572,45.5625 201.083,45.5625 201.593,45.5625 202.104,45.5625 202.614,45.5625 203.125,45.5625 203.636,45.5625 204.146,45.5625 204.657,45.5625 205.168,45.5625 205.678,45.5625 206.189,45.5625 206.7,45.5625 207.21,45.5625 207.721,45.5625 208.232,45.5625 208.743,45.5625 209.253,45.5625 209.764,45.5625 210.274,45.5625 210.785,45.5625 211.296,45.5625 211.807,45.5625 212.317,45.5625 212.828,45.5625 213.339,45.5625 213.849,45.5625 214.36,45.5625 214.871,45.5625 215.381,45.5625 215.892,45.5625 216.403,45.5625 216.914,45.5625 217.424,45.5625 217.935,45.5625 218.445,45.5625 218.956,45.5625 219.467,45.5625 219.978,45.5625 220.488,45.5625 220.999,45.5625 221.51,45.5625 222.021,45.5625 222.531,45.5625 223.042,45.5625 223.552,45.5625 224.063,45.5625 224.574,45.5625 225.084,45.5625 225.595,45.5625 226.106,45.5625 226.616,45.5625 227.127,45.5625 227.638,45.5625 228.148,45.5625 228.659,45.5625 229.17,45.5625 229.681,45.5625 230.191,45.5625 230.702,45.5625 231.212,45.5625 231.723,45.5625 232.234,45.5625 232.745,45.5625 233.255,45.5625 233.766,45.5625 234.277,45.5625 234.787,45.5625 235.298,45.5625 235.809,45.5625 236.319,45.5625 236.83,45.5625 237.341,45.5625 237.852,45.5625 238.362,45.5625 238.873,45.5625 239.383,45.5625 239.894,45.5625 240.405,45.5625 240.916,45.5625 241.426,45.5625 241.937,45.5625 242.448,45.5625 242.958,45.5625 243.469,45.5625 243.979,45.5625 244.49,45.5625 245.001,45.5625 245.512,45.5625 246.022,45.5625 246.533,45.5625 247.044,45.5625 247.554,45.5625 248.065,45.5625 248.576,45.7734 249.086,46.1953 249.597,51.8906 250.108,56.5312 250.619,61.1719 251.129,65.8125 251.64,70.2422 252.15,74.8828 252.661,79.5234 253.172,84.1641 253.683,88.8047 254.193,93.2344 254.704,97.6641 255.215,102.305 255.725,106.945 256.236,111.586 256.747,116.227 257.257,120.867 257.768,125.508 258.279,130.148 258.79,134.578 259.3,139.008 259.811,143.648 260.321,148.289 260.832,152.93 261.343,157.57 261.854,162.211 262.364,166.852 262.875,171.492 263.386,175.922 263.896,180.562 264.407,185.203 264.917,189.844 265.428,194.484 265.939,199.125 266.45,203.766 266.96,208.406 267.471,212.836 267.981,217.477 268.492,222.117 269.003,226.758 269.514,231.398 270.024,236.039 270.535,240.68 271.046,245.32 271.557,249.961 272.067,254.391 272.578,259.031 273.088,263.672 273.599,268.312 274.11,273.164 274.621,277.805 275.131,282.445 275.642,287.086 276.152,291.727 276.663,296.156 277.174,300.797 277.685,305.438 278.195,310.078 278.706,314.93 279.217,319.57 279.728,324.211 280.238,328.852 280.749,333.492 281.259,337.922 281.77,342.562 282.281,347.414 282.792,279.703 283.302,141.75 283.813,60.9609 284.324,49.9922 284.834,46.6172 285.345,45.9844 285.855,45.7734 286.366,45.5625 286.877,45.5625 287.388,45.5625 287.898,45.5625 288.409,45.5625 288.919,45.5625 289.43,45.5625 289.941,45.5625 290.452,45.5625 290.962,45.5625 291.473,45.5625 291.984,45.5625 292.495,45.5625 293.005,45.5625 293.516,45.5625 294.026,45.5625 294.537,45.5625 295.048,45.5625 295.559,45.5625 296.069,45.5625 296.58,45.5625 297.09,45.5625 297.601,45.5625 298.112,45.5625 298.623,45.5625 299.133,45.5625 299.644,45.5625 300.155,45.5625 300.666,45.5625 301.176,45.5625 301.687,45.5625 302.197,45.5625 302.708,45.5625 303.219,45.5625 303.729,45.5625 304.24,45.5625 304.751,45.5625 305.261,45.5625 305.772,45.5625 306.283,45.5625 306.793,45.5625 307.304,45.5625 307.815,45.5625 308.326,45.5625 308.836,45.5625 309.347,45.5625 309.857,45.5625 310.368,45.5625 310.879,45.5625 311.39,45.5625 311.9,45.5625 312.411,45.5625 312.922,45.5625 313.432,45.5625 313.943,45.5625 314.454,45.5625 314.964,45.5625 315.475,45.5625 315.986,45.5625 316.497,45.5625 317.007,45.5625 317.518,45.5625 318.028,45.5625 318.539,45.5625 319.05,45.5625 319.561,45.5625 320.071,45.5625 320.582,45.5625 321.093,45.5625 321.604,45.5625 322.114,45.5625 322.625,45.5625 323.135,45.5625 323.646,45.5625 324.157,45.5625 324.667,45.5625 325.178,45.5625 325.689,45.5625 326.199,45.5625 326.71,45.5625 327.221,45.5625 327.731,45.5625 328.242,45.5625 328.753,45.5625 329.264,45.5625 329.774,45.5625 330.285,45.5625 330.795,45.5625 331.306,45.5625 331.817,45.5625 332.328,45.5625 332.838,45.5625 333.349,45.5625 333.86,45.5625 334.37,45.5625 334.881,45.5625 335.392,45.5625 335.902,45.5625 336.413,45.5625 336.924,45.5625 337.435,45.5625 337.945,45.5625 338.456,45.5625 338.966,45.5625 339.477,45.5625 339.988,45.5625 340.499,45.5625 341.009,45.5625 341.52,45.5625 342.031,45.5625 342.542,45.5625 343.052,45.5625 343.562,45.5625 344.073,45.5625 344.584,45.5625 345.095,45.5625 345.605,45.5625 346.116,45.5625 346.626,45.5625 347.137,45.5625 347.648,45.5625 348.159,45.5625 348.669,45.5625 349.18,45.5625 349.691,45.5625 350.202,45.5625 350.712,45.5625 351.223,45.5625 351.733,45.5625 352.244,45.5625 352.755,45.5625 353.266,45.5625 353.776,45.5625 354.287,45.5625 354.798,45.5625 355.308,45.5625 355.819,45.5625 356.33,45.5625 356.84,45.5625 357.351,45.5625 357.862,45.5625 358.373,45.5625 358.883,45.5625 359.394,45.5625 359.904,45.5625 360.415,45.5625 360.926,45.5625 361.437,45.5625 361.947,45.5625 362.458,45.5625 362.969,45.5625 363.479,45.5625 363.99,45.5625 364.5,45.5625 365.011,45.5625 365.522,45.5625 366.033,45.5625 366.543,45.5625 367.054,45.5625 367.564,45.5625 368.075,45.5625 368.586,45.5625 369.097,45.5625 369.607,45.5625 370.118,45.5625 370.629,45.5625 371.14,45.5625 371.65,45.5625 372.161,45.5625 372.671,45.5625 373.182,45.5625 373.693,45.5625 374.204,45.5625 374.714,45.5625 375.225,45.5625 375.735,45.5625 376.246,45.7734 376.757,47.4609 377.268,53.1562 377.778,57.5859 378.289,62.2266 378.8,66.8672 379.311,71.5078 379.821,76.1484 380.332,80.7891 380.842,85.2188 381.353,89.6484 381.864,94.2891 382.375,98.9297 382.885,103.57 383.396,108.211 383.907,112.852 384.417,117.281 384.928,121.922 385.438,126.562 385.949,130.992 386.46,135.633 386.971,140.273 387.481,144.914 387.992,149.555 388.502,154.195 389.013,158.836 389.524,163.477 390.035,168.117 390.545,172.547 391.056,177.188 391.567,181.617 392.078,186.258 392.588,190.898 393.099,195.539 393.609,200.18 394.12,204.82 394.631,209.461 395.142,213.891 395.652,218.531 396.163,223.172 396.673,227.812 397.184,232.664 397.695,237.305 398.206,241.945 398.716,246.586 399.227,251.227 399.738,255.656 400.249,260.297 400.759,264.938 401.27,269.578 401.78,274.219 402.291,278.859 402.802,283.5 403.312,288.141 403.823,292.781 404.334,297.422 404.845,302.062 405.355,306.703 405.866,311.344 406.376,315.984 406.887,320.625 407.398,325.266 407.909,329.906 408.419,334.758 408.93,339.188 409.44,343.828 409.951,345.727 410.462,249.961 410.973,102.938 411.483,56.9531 411.994,48.5156 412.505,46.1953 413.015,45.5625 413.526,45.5625 414.037,45.5625 414.547,45.5625 415.058,45.5625 415.569,45.5625 416.08,45.5625 416.59,45.5625 417.101,45.5625 417.611,45.5625 418.122,45.5625 418.633,45.5625 419.144,45.5625 419.654,45.5625 420.165,45.5625 420.676,45.5625 421.187,45.5625 421.697,45.5625 422.208,45.5625 422.718,45.5625 423.229,45.5625 423.74,45.5625 424.25,45.5625 424.761,45.5625 425.272,45.5625 425.782,45.5625 426.293,45.5625 426.804,45.5625 427.314,45.5625 427.825,45.5625 428.336,45.5625 428.847,45.5625 429.357,45.5625 429.868,45.5625 430.378,45.5625 430.889,45.5625 431.4,45.5625 431.911,45.5625 432.421,45.5625 432.932,45.5625 433.443,45.5625 433.953,45.5625 434.464,45.5625 434.975,45.5625 435.485,45.5625 435.996,45.5625 436.507,45.5625 437.018,45.5625 437.528,45.5625 438.039,45.5625 438.549,45.5625 439.06,45.5625 439.571,45.5625 440.082,45.5625 440.592,45.5625 441.103,45.5625 441.614,45.5625 442.124,45.5625 442.635,45.5625 443.146,45.5625 443.656,45.5625 444.167,45.5625 444.678,45.5625 445.188,45.5625 445.699,45.5625 446.21,45.5625 446.72,45.5625 447.231,45.5625 447.742,45.5625 448.252,45.5625 448.763,45.5625 449.274,45.5625 449.785,45.5625 450.295,45.5625 450.806,45.5625 451.316,45.5625 451.827,45.5625 452.338,45.5625 452.849,45.5625 453.359,45.5625 453.87,45.5625 454.381,45.5625 454.891,45.5625 455.402,45.5625 455.913,45.5625 456.423,45.5625 456.934,45.5625 457.445,45.5625 457.956,45.5625 458.466,45.5625 458.977,45.5625 459.487,45.5625 459.998,45.5625 460.509,45.5625 461.02,45.5625 461.53,45.5625 462.041,45.5625 462.552,45.5625 463.062,45.5625 463.573,45.5625 464.083,45.5625 464.594,45.5625 465.105,45.5625 465.616,45.5625 466.126,45.5625 466.637,45.5625 467.147,45.5625 467.658,45.5625 468.169,45.5625 468.68,45.5625 469.19,45.5625 469.701,45.5625 470.212,45.5625 470.723,45.5625 471.233,45.5625 471.744,45.5625 472.254,45.5625 472.765,45.5625 473.276,45.5625 473.787,45.5625 474.297,45.5625 474.808,45.5625 475.318,45.5625 475.829,45.5625 476.34,45.5625 476.851,45.5625 477.361,45.5625 477.872,45.5625 478.383,45.5625 478.894,45.5625 479.404,45.5625 479.915,45.5625 480.425,45.5625 480.936,45.5625 481.447,45.5625 481.958,45.5625 482.468,45.5625 482.979,45.5625 483.489,45.5625 484,45.5625 484.511,45.5625 485.021,45.5625 485.532,45.5625 486.043,45.5625 486.554,45.5625 487.064,45.5625 487.575,45.5625 488.085,45.5625 488.596,45.5625 489.107,45.5625 489.618,45.5625 490.128,45.5625 490.639,45.5625 491.15,45.5625 491.661,45.5625 492.171,45.5625 492.682,45.5625 493.192,45.5625 493.703,45.5625 494.214,45.5625 494.725,45.5625 495.235,45.5625 495.746,45.5625 496.256,45.5625 496.767,45.5625 497.278,45.5625 497.789,45.5625 498.299,45.5625 498.81,45.5625 499.321,45.5625 499.832,45.5625 500.342,45.5625 500.853,45.5625 501.363,45.5625 501.874,45.5625 502.385,45.5625 502.896,45.5625 503.406,45.5625 503.917,45.7734 504.428,49.5703 504.938,54.2109 505.449,58.8516 505.959,63.4922 506.47,68.1328 506.981,72.5625 507.492,77.2031 508.002,81.8438 508.513,86.4844 509.023,90.9141 509.534,95.5547 510.045,99.9844 510.556,104.625 511.066,109.266 511.577,113.906 512.088,118.547 512.598,123.188 513.109,127.828 513.62,132.258 514.13,136.898 514.641,141.539 515.152,145.969 515.663,150.609 516.173,155.25 516.684,159.891 517.194,164.531 517.705,169.172 518.216,173.602 518.727,178.242 519.237,182.883 519.748,187.523 520.259,192.164 520.77,196.805 521.28,201.445" stroke-width="0.5" stroke-linecap="butt"/>
   <polyline fill="none" stroke="#d85218" stroke-linejoin="round" points="113.245,45.5625 113.756,45.5625 114.266,45.5625 114.777,45.5625 115.288,45.5625 115.798,45.5625 116.309,45.5625 116.82,45.5625 117.331,45.5625 117.841,45.5625 118.352,45.5625 118.862,45.5625 119.373,45.5625 119.884,45.5625 120.395,45.5625 120.905,45.5625 121.416,45.5625 121.927,45.5625 122.438,45.5625 122.948,45.7734 123.458,49.9922 123.969,54.4219 124.48,59.0625 124.991,63.7031 125.501,68.3438 126.012,72.9844 126.522,77.4141 127.033,82.0547 127.544,86.6953 128.055,91.125 128.565,95.7656 129.076,100.406 129.587,105.047 130.098,109.688 130.608,114.117 131.119,118.758 131.629,123.398 132.14,128.039 132.651,132.469 133.162,137.109 133.672,141.75 134.183,146.391 134.694,151.031 135.204,155.672 135.715,160.312 136.226,164.742 136.736,169.383 137.247,173.812 137.758,178.453 138.269,183.094 138.779,187.734 139.29,192.375 139.8,197.016 140.311,201.656 140.822,206.297 141.333,210.938 141.843,215.367 142.354,220.008 142.865,224.648 143.375,229.289 143.886,233.93 144.396,238.57 144.907,243.211 145.418,248.062 145.929,252.703 146.439,257.133 146.95,261.773 147.461,266.414 147.971,271.055 148.482,275.695 148.993,280.336 149.503,284.977 150.014,289.617 150.525,294.258 151.036,298.688 151.546,303.539 152.057,308.18 152.567,312.82 153.078,317.461 153.589,283.5 154.1,146.602 154.61,60.5391 155.121,50.4141 155.632,46.6172 156.142,45.9844 156.653,45.5625 157.164,45.5625 157.674,45.5625 158.185,45.5625 158.696,45.5625 159.207,45.5625 159.717,45.5625 160.228,45.5625 160.738,45.5625 161.249,45.5625 161.76,45.5625 162.271,45.5625 162.781,45.5625 163.292,45.5625 163.803,45.5625 164.313,45.5625 164.824,45.5625 165.334,45.5625 165.845,45.5625 166.356,45.5625 166.867,45.5625 167.377,45.5625 167.888,45.5625 168.398,45.5625 168.909,45.5625 169.42,45.5625 169.931,45.5625 170.441,45.5625 170.952,45.5625 171.463,45.5625 171.974,45.5625 172.484,45.5625 172.995,45.5625 173.505,45.5625 174.016,45.5625 174.527,45.5625 175.038,45.5625 175.548,45.5625 176.059,45.5625 176.569,45.5625 177.08,45.5625 177.591,45.5625 178.102,45.5625 178.612,45.5625 179.123,45.5625 179.634,45.5625 180.145,45.5625 180.655,45.5625 181.166,45.5625 181.676,45.5625 182.187,45.5625 182.698,45.5625 183.208,45.5625 183.719,45.5625 184.23,45.5625 184.74,45.5625 185.251,45.5625 185.762,45.5625 186.272,45.5625 186.783,45.5625 187.294,45.5625 187.805,45.5625 188.315,45.5625 188.826,45.5625 189.336,45.5625 189.847,45.5625 190.358,45.5625 190.869,45.5625 191.379,45.5625 191.89,45.5625 192.401,45.5625 192.912,45.5625 193.422,45.5625 193.933,45.5625 194.443,45.5625 194.954,45.5625 195.465,45.5625 195.976,45.5625 196.486,45.5625 196.997,45.5625 197.507,45.5625 198.018,45.5625 198.529,45.5625 199.04,45.5625 199.55,45.5625 200.061,45.5625 200.572,45.5625 201.083,45.5625 201.593,45.5625 202.104,45.5625 202.614,45.5625 203.125,45.5625 203.636,45.5625 204.146,45.5625 204.657,45.5625 205.168,45.5625 205.678,45.5625 206.189,45.5625 206.7,45.5625 207.21,45.5625 207.721,45.5625 208.232,45.5625 208.743,45.5625 209.253,45.5625 209.764,45.5625 210.274,45.5625 210.785,45.5625 211.296,45.5625 211.807,45.5625 212.317,45.5625 212.828,45.5625 213.339,45.5625 213.849,45.5625 214.36,45.5625 214.871,45.5625 215.381,45.5625 215.892,45.5625 216.403,45.5625 216.914,45.5625 217.424,45.5625 217.935,45.5625 218.445,45.5625 218.956,45.5625 219.467,45.5625 219.978,45.5625 220.488,45.5625 220.999,45.5625 221.51,45.5625 222.021,45.5625 222.531,45.5625 223.042,45.5625 223.552,45.5625 224.063,45.5625 224.574,45.5625 225.084,45.5625 225.595,45.5625 226.106,45.5625 226.616,45.5625 227.127,45.5625 227.638,45.5625 228.148,45.5625 228.659,45.5625 229.17,45.5625 229.681,45.5625 230.191,45.5625 230.702,45.5625 231.212,45.5625 231.723,45.5625 232.234,45.5625 232.745,45.5625 233.255,45.5625 233.766,45.5625 234.277,45.5625 234.787,45.5625 235.298,45.5625 235.809,45.5625 236.319,45.5625 236.83,45.5625 237.341,45.5625 237.852,45.5625 238.362,45.5625 238.873,45.5625 239.383,45.5625 239.894,45.5625 240.405,45.5625 240.916,45.5625 241.426,45.5625 241.937,45.5625 242.448,45.5625 242.958,45.5625 243.469,45.5625 243.979,45.5625 244.49,45.5625 245.001,45.5625 245.512,45.5625 246.022,45.5625 246.533,45.5625 247.044,45.5625 247.554,45.5625 248.065,45.5625 248.576,45.5625 249.086,45.5625 249.597,45.5625 250.108,45.7734 250.619,45.7734 251.129,51.0469 251.64,55.6875 252.15,60.3281 252.661,64.7578 253.172,69.3984 253.683,74.0391 254.193,78.6797 254.704,83.3203 255.215,87.9609 255.725,92.1797 256.236,96.8203 256.747,101.461 257.257,106.102 257.768,110.742 258.279,115.383 258.79,120.023 259.3,124.664 259.811,129.305 260.321,133.523 260.832,138.164 261.343,142.805 261.854,147.445 262.364,152.086 262.875,156.727 263.386,161.367 263.896,166.008 264.407,170.648 264.917,175.078 265.428,179.719 265.939,184.359 266.45,189 266.96,193.641 267.471,198.281 267.981,202.922 268.492,207.562 269.003,212.203 269.514,216.633 270.024,221.273 270.535,225.914 271.046,230.555 271.557,235.195 272.067,239.836 272.578,244.477 273.088,249.117 273.599,253.547 274.11,258.188 274.621,262.828 275.131,267.469 275.642,272.109 276.152,276.75 276.663,281.602 277.174,286.242 277.685,290.883 278.195,295.312 278.706,299.953 279.217,304.594 279.728,309.234 280.238,313.875 280.749,318.516 281.259,253.758 281.77,104.414 282.281,57.1641 282.792,48.7266 283.302,46.4062 283.813,45.7734 284.324,45.5625 284.834,45.5625 285.345,45.5625 285.855,45.5625 286.366,45.5625 286.877,45.5625 287.388,45.5625 287.898,45.5625 288.409,45.5625 288.919,45.5625 289.43,45.5625 289.941,45.5625 290.452,45.5625 290.962,45.5625 291.473,45.5625 291.984,45.5625 292.495,45.5625 293.005,45.5625 293.516,45.5625 294.026,45.5625 294.537,45.5625 295.048,45.5625 295.559,45.5625 296.069,45.5625 296.58,45.5625 297.09,45.5625 297.601,45.5625 298.112,45.5625 298.623,45.5625 299.133,45.5625 299.644,45.5625 300.155,45.5625 300.666,45.5625 301.176,45.5625 301.687,45.5625 302.197,45.5625 302.708,45.5625 303.219,45.5625 303.729,45.5625 304.24,45.5625 304.751,45.5625 305.261,45.5625 305.772,45.5625 306.283,45.5625 306.793,45.5625 307.304,45.5625 307.815,45.5625 308.326,45.5625 308.836,45.5625 309.347,45.5625 309.857,45.5625 310.368,45.5625 310.879,45.5625 311.39,45.5625 311.9,45.5625 312.411,45.5625 312.922,45.5625 313.432,45.5625 313.943,45.5625 314.454,45.5625 314.964,45.5625 315.475,45.5625 315.986,45.5625 316.497,45.5625 317.007,45.5625 317.518,45.5625 318.028,45.5625 318.539,45.5625 319.05,45.5625 319.561,45.5625 320.071,45.5625 320.582,45.5625 321.093,45.5625 321.604,45.5625 322.114,45.5625 322.625,45.5625 323.135,45.5625 323.646,45.5625 324.157,45.5625 324.667,45.5625 325.178,45.5625 325.689,45.5625 326.199,45.5625 326.71,45.5625 327.221,45.5625 327.731,45.5625 328.242,45.5625 328.753,45.5625 329.264,45.5625 329.774,45.5625 330.285,45.5625 330.795,45.5625 331.306,45.5625 331.817,45.5625 332.328,45.5625 332.838,45.5625 333.349,45.5625 333.86,45.5625 334.37,45.5625 334.881,45.5625 335.392,45.5625 335.902,45.5625 336.413,45.5625 336.924,45.5625 337.435,45.5625 337.945,45.5625 338.456,45.5625 338.966,45.5625 339.477,45.5625 339.988,45.5625 340.499,45.5625 341.009,45.5625 341.52,45.5625 342.031,45.5625 342.542,45.5625 343.052,45.5625 343.562,45.5625 344.073,45.5625 344.584,45.5625 345.095,45.5625 345.605,45.5625 346.116,45.5625 346.626,45.5625 347.137,45.5625 347.648,45.5625 348.159,45.5625 348.669,45.5625 349.18,45.5625 349.691,45.5625 350.202,45.5625 350.712,45.5625 351.223,45.5625 351.733,45.5625 352.244,45.5625 352.755,45.5625 353.266,45.5625 353.776,45.5625 354.287,45.5625 354.798,45.5625 355.308,45.5625 355.819,45.5625 356.33,45.5625 356.84,45.5625 357.351,45.5625 357.862,45.5625 358.373,45.5625 358.883,45.5625 359.394,45.5625 359.904,45.5625 360.415,45.5625 360.926,45.5625 361.437,45.5625 361.947,45.5625 362.458,45.5625 362.969,45.5625 363.479,45.5625 363.99,45.5625 364.5,45.5625 365.011,45.5625 365.522,45.5625 366.033,45.5625 366.543,45.5625 367.054,45.5625 367.564,45.5625 368.075,45.5625 368.586,45.5625 369.097,45.5625 369.607,45.5625 370.118,45.5625 370.629,45.5625 371.14,45.5625 371.65,45.5625 372.161,45.5625 372.671,45.5625 373.182,45.5625 373.693,45.5625 374.204,45.5625 374.714,45.5625 375.225,45.5625 375.735,45.5625 376.246,45.5625 376.757,45.5625 377.268,45.5625 377.778,45.7734 378.289,46.1953 378.8,52.1016 379.311,56.7422 379.821,61.3828 380.332,66.0234 380.842,70.6641 381.353,75.3047 381.864,79.7344 382.375,84.375 382.885,89.0156 383.396,93.4453 383.907,98.0859 384.417,102.727 384.928,107.367 385.438,111.797 385.949,116.438 386.46,121.078 386.971,125.719 387.481,130.359 387.992,134.789 388.502,139.43 389.013,144.07 389.524,148.711 390.035,153.352 390.545,157.992 391.056,162.633 391.567,167.062 392.078,171.492 392.588,176.133 393.099,180.773 393.609,185.414 394.12,190.055 394.631,194.695 395.142,199.336 395.652,203.977 396.163,208.617 396.673,213.047 397.184,217.688 397.695,222.328 398.206,226.969 398.716,231.609 399.227,236.25 399.738,240.891 400.249,245.531 400.759,250.383 401.27,254.812 401.78,259.453 402.291,264.094 402.802,268.734 403.312,273.375 403.823,278.016 404.334,282.656 404.845,287.297 405.355,291.938 405.866,296.367 406.376,301.008 406.887,305.859 407.398,310.5 407.909,315.141 408.419,319.57 408.93,221.906 409.44,77.8359 409.951,53.7891 410.462,47.8828 410.973,46.4062 411.483,45.7734 411.994,45.7734 412.505,45.5625 413.015,45.5625 413.526,45.5625 414.037,45.5625 414.547,45.5625 415.058,45.5625 415.569,45.5625 416.08,45.5625 416.59,45.5625 417.101,45.5625 417.611,45.5625 418.122,45.5625 418.633,45.5625 419.144,45.5625 419.654,45.5625 420.165,45.5625 420.676,45.5625 421.187,45.5625 421.697,45.5625 422.208,45.5625 422.718,45.5625 423.229,45.5625 423.74,45.5625 424.25,45.5625 424.761,45.5625 425.272,45.5625 425.782,45.5625 426.293,45.5625 426.804,45.5625 427.314,45.5625 427.825,45.5625 428.336,45.5625 428.847,45.5625 429.357,45.5625 429.868,45.5625 430.378,45.5625 430.889,45.5625 431.4,45.5625 431.911,45.5625 432.421,45.5625 432.932,45.5625 433.443,45.5625 433.953,45.5625 434.464,45.5625 434.975,45.5625 435.485,45.5625 435.996,45.5625 436.507,45.5625 437.018,45.5625 437.528,45.5625 438.039,45.5625 438.549,45.5625 439.06,45.5625 439.571,45.5625 440.082,45.5625 440.592,45.5625 441.103,45.5625 441.614,45.5625 442.124,45.5625 442.635,45.5625 443.146,45.5625 443.656,45.5625 444.167,45.5625 444.678,45.5625 445.188,45.5625 445.699,45.5625 446.21,45.5625 446.72,45.5625 447.231,45.5625 447.742,45.5625 448.252,45.5625 448.763,45.5625 449.274,45.5625 449.785,45.5625 450.295,45.5625 450.806,45.5625 451.316,45.5625 451.827,45.5625 452.338,45.5625 452.849,45.5625 453.359,45.5625 453.87,45.5625 454.381,45.5625 454.891,45.5625 455.402,45.5625 455.913,45.5625 456.423,45.5625 456.934,45.5625 457.445,45.5625 457.956,45.5625 458.466,45.5625 458.977,45.5625 459.487,45.5625 459.998,45.5625 460.509,45.5625 461.02,45.5625 461.53,45.5625 462.041,45.5625 462.552,45.5625 463.062,45.5625 463.573,45.5625 464.083,45.5625 464.594,45.5625 465.105,45.5625 465.616,45.5625 466.126,45.5625 466.637,45.5625 467.147,45.5625 467.658,45.5625 468.169,45.5625 468.68,45.5625 469.19,45.5625 469.701,45.5625 470.212,45.5625 470.723,45.5625 471.233,45.5625 471.744,45.5625 472.254,45.5625 472.765,45.5625 473.276,45.5625 473.787,45.5625 474.297,45.5625 474.808,45.5625 475.318,45.5625 475.829,45.5625 476.34,45.5625 476.851,45.5625 477.361,45.5625 477.872,45.5625 478.383,45.5625 478.894,45.5625 479.404,45.5625 479.915,45.5625 480.425,45.5625 480.936,45.5625 481.447,45.5625 481.958,45.5625 482.468,45.5625 482.979,45.5625 483.489,45.5625 484,45.5625 484.511,45.5625 485.021,45.5625 485.532,45.5625 486.043,45.5625 486.554,45.5625 487.064,45.5625 487.575,45.5625 488.085,45.5625 488.596,45.5625 489.107,45.5625 489.618,45.5625 490.128,45.5625 490.639,45.5625 491.15,45.5625 491.661,45.5625 492.171,45.5625 492.682,45.5625 493.192,45.5625 493.703,45.5625 494.214,45.5625 494.725,45.5625 495.235,45.5625 495.746,45.5625 496.256,45.5625 496.767,45.5625 497.278,45.5625 497.789,45.5625 498.299,45.5625 498.81,45.5625 499.321,45.5625 499.832,45.5625 500.342,45.5625 500.853,45.5625 501.363,45.5625 501.874,45.5625 502.385,45.5625 502.896,45.5625 503.406,45.5625 503.917,45.5625 504.428,45.5625 504.938,45.5625 505.449,45.7734 505.959,48.7266 506.47,53.1562 506.981,58.0078 507.492,62.4375 508.002,67.0781 508.513,71.7188 509.023,76.3594 509.534,81 510.045,85.4297 510.556,89.8594 511.066,94.5 511.577,99.1406 512.088,103.781 512.598,108.422 513.109,113.062 513.62,117.492 514.13,122.133 514.641,126.773 515.152,131.203 515.663,135.844 516.173,140.484 516.684,145.125 517.194,149.766 517.705,154.406 518.216,159.047 518.727,163.688 519.237,168.328 519.748,172.758 520.259,177.398 520.77,182.039 521.28,186.469" stroke-width="0.5" stroke-linecap="butt"/>
   <polyline fill="none" stroke="#ecb01f" stroke-linejoin="round" points="113.245,45.5625 113.756,45.5625 114.266,45.5625 114.777,45.5625 115.288,45.5625 115.798,45.5625 116.309,45.5625 116.82,45.5625 117.331,45.5625 117.841,45.5625 118.352,45.5625 118.862,45.5625 119.373,45.5625 119.884,45.5625 120.395,45.5625 120.905,45.5625 121.416,45.5625 121.927,45.5625 122.438,45.5625 122.948,45.5625 123.458,45.5625 123.969,45.7734 124.48,45.9844 124.991,51.6797 125.501,56.3203 126.012,60.75 126.522,65.3906 127.033,70.0312 127.544,74.6719 128.055,79.3125 128.565,83.9531 129.076,88.3828 129.587,92.8125 130.098,97.4531 130.608,102.094 131.119,106.734 131.629,111.375 132.14,116.016 132.651,120.656 133.162,125.086 133.672,129.727 134.183,134.156 134.694,138.797 135.204,143.438 135.715,148.078 136.226,152.719 136.736,157.359 137.247,162 137.758,166.641 138.269,171.281 138.779,175.711 139.29,180.352 139.8,184.992 140.311,189.633 140.822,194.273 141.333,198.914 141.843,203.555 142.354,208.195 142.865,212.625 143.375,217.266 143.886,221.906 144.396,226.547 144.907,231.188 145.418,235.828 145.929,240.469 146.439,245.109 146.95,249.75 147.461,254.18 147.971,258.82 148.482,263.461 148.993,268.102 149.503,272.742 150.014,277.383 150.525,282.023 151.036,286.664 151.546,291.516 152.057,295.945 152.567,201.234 153.078,71.5078 153.589,52.3125 154.1,47.4609 154.61,45.9844 155.121,45.7734 155.632,45.5625 156.142,45.7734 156.653,45.5625 157.164,45.7734 157.674,45.5625 158.185,45.5625 158.696,45.5625 159.207,45.5625 159.717,45.5625 160.228,45.5625 160.738,45.5625 161.249,45.5625 161.76,45.5625 162.271,45.5625 162.781,45.5625 163.292,45.5625 163.803,45.5625 164.313,45.5625 164.824,45.5625 165.334,45.5625 165.845,45.5625 166.356,45.5625 166.867,45.5625 167.377,45.5625 167.888,45.5625 168.398,45.5625 168.909,45.5625 169.42,45.5625 169.931,45.5625 170.441,45.5625 170.952,45.5625 171.463,45.5625 171.974,45.5625 172.484,45.5625 172.995,45.5625 173.505,45.5625 174.016,45.5625 174.527,45.5625 175.038,45.5625 175.548,45.5625 176.059,45.5625 176.569,45.5625 177.08,45.5625 177.591,45.5625 178.102,45.5625 178.612,45.5625 179.123,45.5625 179.634,45.5625 180.145,45.5625 180.655,45.5625 181.166,45.5625 181.676,45.5625 182.187,45.5625 182.698,45.5625 183.208,45.5625 183.719,45.5625 184.23,45.5625 184.74,45.5625 185.251,45.5625 185.762,45.5625 186.272,45.5625 186.783,45.5625 187.294,45.5625 187.805,45.5625 188.315,45.5625 188.826,45.5625 189.336,45.5625 189.847,45.5625 190.358,45.5625 190.869,45.5625 191.379,45.5625 191.89,45.5625 192.401,45.5625 192.912,45.5625 193.422,45.5625 193.933,45.5625 194.443,45.5625 194.954,45.5625 195.465,45.5625 195.976,45.5625 196.486,45.5625 196.997,45.5625 197.507,45.5625 198.018,45.5625 198.529,45.5625 199.04,45.5625 199.55,45.5625 200.061,45.5625 200.572,45.5625 201.083,45.5625 201.593,45.5625 202.104,45.5625 202.614,45.5625 203.125,45.5625 203.636,45.5625 204.146,45.5625 204.657,45.5625 205.168,45.5625 205.678,45.5625 206.189,45.5625 206.7,45.5625 207.21,45.5625 207.721,45.5625 208.232,45.5625 208.743,45.5625 209.253,45.5625 209.764,45.5625 210.274,45.5625 210.785,45.5625 211.296,45.5625 211.807,45.5625 212.317,45.5625 212.828,45.5625 213.339,45.5625 213.849,45.5625 214.36,45.5625 214.871,45.5625 215.381,45.5625 215.892,45.5625 216.403,45.5625 216.914,45.5625 217.424,45.5625 217.935,45.5625 218.445,45.5625 218.956,45.5625 219.467,45.5625 219.978,45.5625 220.488,45.5625 220.999,45.5625 221.51,45.5625 222.021,45.5625 222.531,45.5625 223.042,45.5625 223.552,45.5625 224.063,45.5625 224.574,45.5625 225.084,45.5625 225.595,45.5625 226.106,45.5625 226.616,45.5625 227.127,45.5625 227.638,45.5625 228.148,45.5625 228.659,45.5625 229.17,45.5625 229.681,45.5625 230.191,45.5625 230.702,45.5625 231.212,45.5625 231.723,45.5625 232.234,45.5625 232.745,45.5625 233.255,45.5625 233.766,45.5625 234.277,45.5625 234.787,45.5625 235.298,45.5625 235.809,45.5625 236.319,45.5625 236.83,45.5625 237.341,45.5625 237.852,45.5625 238.362,45.5625 238.873,45.5625 239.383,45.5625 239.894,45.5625 240.405,45.5625 240.916,45.5625 241.426,45.5625 241.937,45.5625 242.448,45.5625 242.958,45.5625 243.469,45.5625 243.979,45.5625 244.49,45.5625 245.001,45.5625 245.512,45.5625 246.022,45.5625 246.533,45.5625 247.044,45.5625 247.554,45.5625 248.065,45.5625 248.576,45.5625 249.086,45.5625 249.597,45.5625 250.108,45.5625 250.619,45.5625 251.129,45.5625 251.64,45.7734 252.15,46.8281 252.661,52.7344 253.172,57.375 253.683,62.0156 254.193,66.4453 254.704,71.0859 255.215,75.7266 255.725,80.3672 256.236,85.0078 256.747,89.6484 257.257,93.8672 257.768,98.5078 258.279,103.148 258.79,107.789 259.3,112.43 259.811,117.07 260.321,121.711 260.832,126.352 261.343,130.781 261.854,135.211 262.364,139.852 262.875,144.492 263.386,149.133 263.896,153.773 264.407,158.414 264.917,163.055 265.428,167.695 265.939,172.125 266.45,176.766 266.96,181.406 267.471,186.047 267.981,190.688 268.492,195.328 269.003,199.969 269.514,204.609 270.024,209.25 270.535,213.68 271.046,218.32 271.557,222.961 272.067,227.602 272.578,232.242 273.088,236.883 273.599,241.523 274.11,246.164 274.621,250.805 275.131,255.234 275.642,259.875 276.152,264.516 276.663,269.156 277.174,273.797 277.685,278.648 278.195,283.289 278.706,287.93 279.217,292.57 279.728,290.039 280.238,162.211 280.749,64.3359 281.259,50.4141 281.77,47.0391 282.281,45.9844 282.792,45.7734 283.302,45.5625 283.813,45.5625 284.324,45.5625 284.834,45.5625 285.345,45.5625 285.855,45.5625 286.366,45.5625 286.877,45.5625 287.388,45.5625 287.898,45.5625 288.409,45.5625 288.919,45.5625 289.43,45.5625 289.941,45.5625 290.452,45.5625 290.962,45.5625 291.473,45.5625 291.984,45.5625 292.495,45.5625 293.005,45.5625 293.516,45.5625 294.026,45.5625 294.537,45.5625 295.048,45.5625 295.559,45.5625 296.069,45.5625 296.58,45.5625 297.09,45.5625 297.601,45.5625 298.112,45.5625 298.623,45.5625 299.133,45.5625 299.644,45.5625 300.155,45.5625 300.666,45.5625 301.176,45.5625 301.687,45.5625 302.197,45.5625 302.708,45.5625 303.219,45.5625 303.729,45.5625 304.24,45.5625 304.751,45.5625 305.261,45.5625 305.772,45.5625 306.283,45.5625 306.793,45.5625 307.304,45.5625 307.815,45.5625 308.326,45.5625 308.836,45.5625 309.347,45.5625 309.857,45.5625 310.368,45.5625 310.879,45.5625 311.39,45.5625 311.9,45.5625 312.411,45.5625 312.922,45.5625 313.432,45.5625 313.943,45.5625 314.454,45.5625 314.964,45.5625 315.475,45.5625 315.986,45.5625 316.497,45.5625 317.007,45.5625 317.518,45.5625 318.028,45.5625 318.539,45.5625 319.05,45.5625 319.561,45.5625 320.071,45.5625 320.582,45.5625 321.093,45.5625 321.604,45.5625 322.114,45.5625 322.625,45.5625 323.135,45.5625 323.646,45.5625 324.157,45.5625 324.667,45.5625 325.178,45.5625 325.689,45.5625 326.199,45.5625 326.71,45.5625 327.221,45.5625 327.731,45.5625 328.242,45.5625 328.753,45.5625 329.264,45.5625 329.774,45.5625 330.285,45.5625 330.795,45.5625 331.306,45.5625 331.817,45.5625 332.328,45.5625 332.838,45.5625 333.349,45.5625 333.86,45.5625 334.37,45.5625 334.881,45.5625 335.392,45.5625 335.902,45.5625 336.413,45.5625 336.924,45.5625 337.435,45.5625 337.945,45.5625 338.456,45.5625 338.966,45.5625 339.477,45.5625 339.988,45.5625 340.499,45.5625 341.009,45.5625 341.52,45.5625 342.031,45.5625 342.542,45.5625 343.052,45.5625 343.562,45.5625 344.073,45.5625 344.584,45.5625 345.095,45.5625 345.605,45.5625 346.116,45.5625 346.626,45.5625 347.137,45.5625 347.648,45.5625 348.159,45.5625 348.669,45.5625 349.18,45.5625 349.691,45.5625 350.202,45.5625 350.712,45.5625 351.223,45.5625 351.733,45.5625 352.244,45.5625 352.755,45.5625 353.266,45.5625 353.776,45.5625 354.287,45.5625 354.798,45.5625 355.308,45.5625 355.819,45.5625 356.33,45.5625 356.84,45.5625 357.351,45.5625 357.862,45.5625 358.373,45.5625 358.883,45.5625 359.394,45.5625 359.904,45.5625 360.415,45.5625 360.926,45.5625 361.437,45.5625 361.947,45.5625 362.458,45.5625 362.969,45.5625 363.479,45.5625 363.99,45.5625 364.5,45.5625 365.011,45.5625 365.522,45.5625 366.033,45.5625 366.543,45.5625 367.054,45.5625 367.564,45.5625 368.075,45.5625 368.586,45.5625 369.097,45.5625 369.607,45.5625 370.118,45.5625 370.629,45.5625 371.14,45.5625 371.65,45.5625 372.161,45.5625 372.671,45.5625 373.182,45.5625 373.693,45.5625 374.204,45.5625 374.714,45.5625 375.225,45.5625 375.735,45.5625 376.246,45.5625 376.757,45.5625 377.268,45.5625 377.778,45.5625 378.289,45.5625 378.8,45.5625 379.311,45.7734 379.821,49.3594 380.332,54 380.842,58.6406 381.353,63.2812 381.864,67.9219 382.375,72.5625 382.885,77.2031 383.396,81.6328 383.907,86.2734 384.417,90.7031 384.928,95.3438 385.438,99.9844 385.949,104.625 386.46,109.266 386.971,113.906 387.481,118.336 387.992,122.977 388.502,127.617 389.013,132.047 389.524,136.688 390.035,141.328 390.545,145.969 391.056,150.609 391.567,155.25 392.078,159.891 392.588,164.531 393.099,169.172 393.609,173.602 394.12,178.242 394.631,182.672 395.142,187.312 395.652,191.953 396.163,196.594 396.673,201.234 397.184,205.875 397.695,210.516 398.206,214.945 398.716,219.586 399.227,224.227 399.738,228.867 400.249,233.719 400.759,238.359 401.27,243 401.78,247.641 402.291,252.281 402.802,256.711 403.312,261.352 403.823,265.992 404.334,270.633 404.845,275.273 405.355,279.914 405.866,284.555 406.376,289.195 406.887,293.836 407.398,265.359 407.909,120.234 408.419,58.6406 408.93,48.7266 409.44,46.4062 409.951,45.7734 410.462,45.5625 410.973,45.5625 411.483,45.5625 411.994,45.5625 412.505,45.5625 413.015,45.5625 413.526,45.5625 414.037,45.5625 414.547,45.5625 415.058,45.5625 415.569,45.5625 416.08,45.5625 416.59,45.5625 417.101,45.5625 417.611,45.5625 418.122,45.5625 418.633,45.5625 419.144,45.5625 419.654,45.5625 420.165,45.5625 420.676,45.5625 421.187,45.5625 421.697,45.5625 422.208,45.5625 422.718,45.5625 423.229,45.5625 423.74,45.5625 424.25,45.5625 424.761,45.5625 425.272,45.5625 425.782,45.5625 426.293,45.5625 426.804,45.5625 427.314,45.5625 427.825,45.5625 428.336,45.5625 428.847,45.5625 429.357,45.5625 429.868,45.5625 430.378,45.5625 430.889,45.5625 431.4,45.5625 431.911,45.5625 432.421,45.5625 432.932,45.5625 433.443,45.5625 433.953,45.5625 434.464,45.5625 434.975,45.5625 435.485,45.5625 435.996,45.5625 436.507,45.5625 437.018,45.5625 437.528,45.5625 438.039,45.5625 438.549,45.5625 439.06,45.5625 439.571,45.5625 440.082,45.5625 440.592,45.5625 441.103,45.5625 441.614,45.5625 442.124,45.5625 442.635,45.5625 443.146,45.5625 443.656,45.5625 444.167,45.5625 444.678,45.5625 445.188,45.5625 445.699,45.5625 446.21,45.5625 446.72,45.5625 447.231,45.5625 447.742,45.5625 448.252,45.5625 448.763,45.5625 449.274,45.5625 449.785,45.5625 450.295,45.5625 450.806,45.5625 451.316,45.5625 451.827,45.5625 452.338,45.5625 452.849,45.5625 453.359,45.5625 453.87,45.5625 454.381,45.5625 454.891,45.5625 455.402,45.5625 455.913,45.5625 456.423,45.5625 456.934,45.5625 457.445,45.5625 457.956,45.5625 458.466,45.5625 458.977,45.5625 459.487,45.5625 459.998,45.5625 460.509,45.5625 461.02,45.5625 461.53,45.5625 462.041,45.5625 462.552,45.5625 463.062,45.5625 463.573,45.5625 464.083,45.5625 464.594,45.5625 465.105,45.5625 465.616,45.5625 466.126,45.5625 466.637,45.5625 467.147,45.5625 467.658,45.5625 468.169,45.5625 468.68,45.5625 469.19,45.5625 469.701,45.5625 470.212,45.5625 470.723,45.5625 471.233,45.5625 471.744,45.5625 472.254,45.5625 472.765,45.5625 473.276,45.5625 473.787,45.5625 474.297,45.5625 474.808,45.5625 475.318,45.5625 475.829,45.5625 476.34,45.5625 476.851,45.5625 477.361,45.5625 477.872,45.5625 478.383,45.5625 478.894,45.5625 479.404,45.5625 479.915,45.5625 480.425,45.5625 480.936,45.5625 481.447,45.5625 481.958,45.5625 482.468,45.5625 482.979,45.5625 483.489,45.5625 484,45.5625 484.511,45.5625 485.021,45.5625 485.532,45.5625 486.043,45.5625 486.554,45.5625 487.064,45.5625 487.575,45.5625 488.085,45.5625 488.596,45.5625 489.107,45.5625 489.618,45.5625 490.128,45.5625 490.639,45.5625 491.15,45.5625 491.661,45.5625 492.171,45.5625 492.682,45.5625 493.192,45.5625 493.703,45.5625 494.214,45.5625 494.725,45.5625 495.235,45.5625 495.746,45.5625 496.256,45.5625 496.767,45.5625 497.278,45.5625 497.789,45.5625 498.299,45.5625 498.81,45.5625 499.321,45.5625 499.832,45.5625 500.342,45.5625 500.853,45.5625 501.363,45.5625 501.874,45.5625 502.385,45.5625 502.896,45.5625 503.406,45.5625 503.917,45.5625 504.428,45.5625 504.938,45.5625 505.449,45.5625 505.959,45.5625 506.47,45.5625 506.981,45.7734 507.492,50.625 508.002,55.2656 508.513,59.6953 509.023,64.3359 509.534,68.9766 510.045,73.6172 510.556,78.2578 511.066,82.6875 511.577,87.3281 512.088,91.7578 512.598,96.3984 513.109,101.039 513.62,105.68 514.13,110.32 514.641,114.961 515.152,119.391 515.663,124.031 516.173,128.672 516.684,133.102 517.194,137.742 517.705,142.383 518.216,147.023 518.727,151.664 519.237,156.305 519.748,160.945 520.259,165.586 520.77,170.227 521.28,174.656" stroke-width="0.5" stroke-linecap="butt"/>
  </g>
  <clipPath id="cp00576432">
   <polygon points="0,432 576,432 576,0 0,0"/>
  </clipPath>
  <g clip-path="url(#cp00576432)">
   <polygon fill="#ffffff" points="453.934,372.83 509.63,372.83 509.63,330.668 453.934,330.668" shape-rendering="crispEdges"/>
   <polyline fill="none" stroke="#262626" stroke-linejoin="miter" points="453.934,372.83 509.63,372.83" stroke-dasharray="16,0" stroke-width="0.5" stroke-linecap="square"/>
   <polyline fill="none" stroke="#262626" stroke-linejoin="miter" points="453.934,330.668 509.63,330.668" stroke-dasharray="16,0" stroke-width="0.5" stroke-linecap="square"/>
   <polyline fill="none" stroke="#262626" stroke-linejoin="miter" points="453.934,372.83 453.934,330.668" stroke-dasharray="16,0" stroke-width="0.5" stroke-linecap="square"/>
   <polyline fill="none" stroke="#262626" stroke-linejoin="miter" points="509.63,372.83 509.63,330.668" stroke-dasharray="16,0" stroke-width="0.5" stroke-linecap="square"/>
   <text transform="translate(482.575,341.695) rotate(-0,-0,-4)" font-weight="normal" font-style="normal" font-size="9" xml:space="preserve" font-family="FreeSans">
    <tspan fill="rgb(0,0,0)" y="-0" x="0 5 10 15 17 ">100 V</tspan>
   </text>
   <text transform="translate(482.575,355.749) rotate(-0,-0,-4)" font-weight="normal" font-style="normal" font-size="9" xml:space="preserve" font-family="FreeSans">
    <tspan fill="rgb(0,0,0)" y="-0" x="0 5 10 15 17 ">110 V</tspan>
   </text>
   <text transform="translate(482.575,369.803) rotate(-0,-0,-4)" font-weight="normal" font-style="normal" font-size="9" xml:space="preserve" font-family="FreeSans">
    <tspan fill="rgb(0,0,0)" y="-0" x="0 5 10 15 17 ">120 V</tspan>
   </text>
   <polyline fill="none" stroke="#0071bc" stroke-linejoin="round" points="457.332,337.695 479.177,337.695" stroke-width="0.5" stroke-linecap="butt"/>
   <polyline fill="none" stroke="#d85218" stroke-linejoin="round" points="457.332,351.749 479.177,351.749" stroke-width="0.5" stroke-linecap="butt"/>
   <polyline fill="none" stroke="#ecb01f" stroke-linejoin="round" points="457.332,365.803 479.177,365.803" stroke-width="0.5" stroke-linecap="butt"/>
  </g>
 </g>
</svg>
