<?xml version='1.0' encoding='UTF-8' standalone='no'?>
<svg height="432pt" width="576pt" xmlns="http://www.w3.org/2000/svg" xmlns:xlink="http://www.w3.org/1999/xlink" viewBox="0 0 576 432">
 <title>gl2ps_renderer figure</title>
 <desc>
Creator: GL2PS 1.4.0, (C) 1999-2017 C. Geuzaine
For: Octave
CreationDate: Thu Nov 19 16:23:14 2020
</desc>
 <defs/>
 <polygon fill="#ffffff" points="0,0 576,0 576,432 0,432"/>
 <g>
  <polygon fill="#ffffff" points="0,432 576,432 576,0 0,0" shape-rendering="crispEdges"/>
  <clipPath id="cp00576432">
   <polygon points="0,432 576,432 576,0 0,0"/>
  </clipPath>
  <g clip-path="url(#cp00576432)">
   <polygon fill="#ffffff" points="74.8799,384.48 521.28,384.48 521.28,32.3999 74.8799,32.3999" shape-rendering="crispEdges"/>
   <polyline stroke-linejoin="miter" stroke-dasharray="16,0" stroke-opacity="0.15" stroke="#262626" fill="none" stroke-width="0.5" stroke-linecap="butt" points="74.8799,384.48 74.8799,32.3999"/>
   <polyline stroke-linejoin="miter" stroke-dasharray="16,0" stroke-opacity="0.15" stroke="#262626" fill="none" stroke-width="0.5" stroke-linecap="butt" points="186.48,384.48 186.48,32.3999"/>
   <polyline stroke-linejoin="miter" stroke-dasharray="16,0" stroke-opacity="0.15" stroke="#262626" fill="none" stroke-width="0.5" stroke-linecap="butt" points="298.08,384.48 298.08,32.3999"/>
   <polyline stroke-linejoin="miter" stroke-dasharray="16,0" stroke-opacity="0.15" stroke="#262626" fill="none" stroke-width="0.5" stroke-linecap="butt" points="409.68,384.48 409.68,32.3999"/>
   <polyline stroke-linejoin="miter" stroke-dasharray="16,0" stroke-opacity="0.15" stroke="#262626" fill="none" stroke-width="0.5" stroke-linecap="butt" points="521.28,384.48 521.28,32.3999"/>
   <polyline stroke-linejoin="miter" stroke="#262626" fill="none" stroke-width="0.5" stroke-linecap="butt" points="74.8799,384.48 74.8799,380.015"/>
   <polyline stroke-linejoin="miter" stroke="#262626" fill="none" stroke-width="0.5" stroke-linecap="butt" points="74.8799,32.3999 74.8799,36.8652"/>
   <polyline stroke-linejoin="miter" stroke="#262626" fill="none" stroke-width="0.5" stroke-linecap="butt" points="186.48,384.48 186.48,380.015"/>
   <polyline stroke-linejoin="miter" stroke="#262626" fill="none" stroke-width="0.5" stroke-linecap="butt" points="186.48,32.3999 186.48,36.8652"/>
   <polyline stroke-linejoin="miter" stroke="#262626" fill="none" stroke-width="0.5" stroke-linecap="butt" points="298.08,384.48 298.08,380.015"/>
   <polyline stroke-linejoin="miter" stroke="#262626" fill="none" stroke-width="0.5" stroke-linecap="butt" points="298.08,32.3999 298.08,36.8652"/>
   <polyline stroke-linejoin="miter" stroke="#262626" fill="none" stroke-width="0.5" stroke-linecap="butt" points="409.68,384.48 409.68,380.015"/>
   <polyline stroke-linejoin="miter" stroke="#262626" fill="none" stroke-width="0.5" stroke-linecap="butt" points="409.68,32.3999 409.68,36.8652"/>
   <polyline stroke-linejoin="miter" stroke="#262626" fill="none" stroke-width="0.5" stroke-linecap="butt" points="521.28,384.48 521.28,380.015"/>
   <polyline stroke-linejoin="miter" stroke="#262626" fill="none" stroke-width="0.5" stroke-linecap="butt" points="521.28,32.3999 521.28,36.8652"/>
   <text transform="translate(71.88,399.982) rotate(-0,3,-8)" font-size="10" xml:space="preserve" font-family="FreeSans" font-style="normal" font-weight="normal">
    <tspan y="-0" fill="rgb(38,38,38)" x="0 ">0</tspan>
   </text>
   <text transform="translate(175.98,399.982) rotate(-0,10.5,-8)" font-size="10" xml:space="preserve" font-family="FreeSans" font-style="normal" font-weight="normal">
    <tspan y="-0" fill="rgb(38,38,38)" x="0 6 9 15 ">0.02</tspan>
   </text>
   <text transform="translate(287.58,399.982) rotate(-0,10.5,-8)" font-size="10" xml:space="preserve" font-family="FreeSans" font-style="normal" font-weight="normal">
    <tspan y="-0" fill="rgb(38,38,38)" x="0 6 9 15 ">0.04</tspan>
   </text>
   <text transform="translate(399.18,399.982) rotate(-0,10.5,-8)" font-size="10" xml:space="preserve" font-family="FreeSans" font-style="normal" font-weight="normal">
    <tspan y="-0" fill="rgb(38,38,38)" x="0 6 9 15 ">0.06</tspan>
   </text>
   <text transform="translate(510.78,399.982) rotate(-0,10.5,-8)" font-size="10" xml:space="preserve" font-family="FreeSans" font-style="normal" font-weight="normal">
    <tspan y="-0" fill="rgb(38,38,38)" x="0 6 9 15 ">0.08</tspan>
   </text>
   <polyline stroke-linejoin="miter" stroke-dasharray="16,0" stroke-opacity="0.15" stroke="#262626" fill="none" stroke-width="0.5" stroke-linecap="butt" points="74.8799,384.48 521.28,384.48"/>
   <polyline stroke-linejoin="miter" stroke-dasharray="16,0" stroke-opacity="0.15" stroke="#262626" fill="none" stroke-width="0.5" stroke-linecap="butt" points="74.8799,325.8 521.28,325.8"/>
   <polyline stroke-linejoin="miter" stroke-dasharray="16,0" stroke-opacity="0.15" stroke="#262626" fill="none" stroke-width="0.5" stroke-linecap="butt" points="74.8799,267.12 521.28,267.12"/>
   <polyline stroke-linejoin="miter" stroke-dasharray="16,0" stroke-opacity="0.15" stroke="#262626" fill="none" stroke-width="0.5" stroke-linecap="butt" points="74.8799,208.44 521.28,208.44"/>
   <polyline stroke-linejoin="miter" stroke-dasharray="16,0" stroke-opacity="0.15" stroke="#262626" fill="none" stroke-width="0.5" stroke-linecap="butt" points="74.8799,149.76 521.28,149.76"/>
   <polyline stroke-linejoin="miter" stroke-dasharray="16,0" stroke-opacity="0.15" stroke="#262626" fill="none" stroke-width="0.5" stroke-linecap="butt" points="74.8799,91.0801 521.28,91.0801"/>
   <polyline stroke-linejoin="miter" stroke-dasharray="16,0" stroke-opacity="0.15" stroke="#262626" fill="none" stroke-width="0.5" stroke-linecap="butt" points="74.8799,32.3999 521.28,32.3999"/>
   <polyline stroke-linejoin="miter" stroke="#262626" fill="none" stroke-width="0.5" stroke-linecap="butt" points="74.8799,384.48 79.3481,384.48"/>
   <polyline stroke-linejoin="miter" stroke="#262626" fill="none" stroke-width="0.5" stroke-linecap="butt" points="521.28,384.48 516.812,384.48"/>
   <polyline stroke-linejoin="miter" stroke="#262626" fill="none" stroke-width="0.5" stroke-linecap="butt" points="74.8799,325.8 79.3481,325.8"/>
   <polyline stroke-linejoin="miter" stroke="#262626" fill="none" stroke-width="0.5" stroke-linecap="butt" points="521.28,325.8 516.812,325.8"/>
   <polyline stroke-linejoin="miter" stroke="#262626" fill="none" stroke-width="0.5" stroke-linecap="butt" points="74.8799,267.12 79.3481,267.12"/>
   <polyline stroke-linejoin="miter" stroke="#262626" fill="none" stroke-width="0.5" stroke-linecap="butt" points="521.28,267.12 516.812,267.12"/>
   <polyline stroke-linejoin="miter" stroke="#262626" fill="none" stroke-width="0.5" stroke-linecap="butt" points="74.8799,208.44 79.3481,208.44"/>
   <polyline stroke-linejoin="miter" stroke="#262626" fill="none" stroke-width="0.5" stroke-linecap="butt" points="521.28,208.44 516.812,208.44"/>
   <polyline stroke-linejoin="miter" stroke="#262626" fill="none" stroke-width="0.5" stroke-linecap="butt" points="74.8799,149.76 79.3481,149.76"/>
   <polyline stroke-linejoin="miter" stroke="#262626" fill="none" stroke-width="0.5" stroke-linecap="butt" points="521.28,149.76 516.812,149.76"/>
   <polyline stroke-linejoin="miter" stroke="#262626" fill="none" stroke-width="0.5" stroke-linecap="butt" points="74.8799,91.0801 79.3481,91.0801"/>
   <polyline stroke-linejoin="miter" stroke="#262626" fill="none" stroke-width="0.5" stroke-linecap="butt" points="521.28,91.0801 516.812,91.0801"/>
   <polyline stroke-linejoin="miter" stroke="#262626" fill="none" stroke-width="0.5" stroke-linecap="butt" points="74.8799,32.3999 79.3481,32.3999"/>
   <polyline stroke-linejoin="miter" stroke="#262626" fill="none" stroke-width="0.5" stroke-linecap="butt" points="521.28,32.3999 516.812,32.3999"/>
   <text transform="translate(63.8755,388.48) rotate(-0,6,-4)" font-size="10" xml:space="preserve" font-family="FreeSans" font-style="normal" font-weight="normal">
    <tspan y="-0" fill="rgb(38,38,38)" x="0 ">0</tspan>
   </text>
   <text transform="translate(63.8755,329.8) rotate(-0,6,-4)" font-size="10" xml:space="preserve" font-family="FreeSans" font-style="normal" font-weight="normal">
    <tspan y="-0" fill="rgb(38,38,38)" x="0 ">1</tspan>
   </text>
   <text transform="translate(63.8755,271.12) rotate(-0,6,-4)" font-size="10" xml:space="preserve" font-family="FreeSans" font-style="normal" font-weight="normal">
    <tspan y="-0" fill="rgb(38,38,38)" x="0 ">2</tspan>
   </text>
   <text transform="translate(63.8755,212.44) rotate(-0,6,-4)" font-size="10" xml:space="preserve" font-family="FreeSans" font-style="normal" font-weight="normal">
    <tspan y="-0" fill="rgb(38,38,38)" x="0 ">3</tspan>
   </text>
   <text transform="translate(63.8755,153.76) rotate(-0,6,-4)" font-size="10" xml:space="preserve" font-family="FreeSans" font-style="normal" font-weight="normal">
    <tspan y="-0" fill="rgb(38,38,38)" x="0 ">4</tspan>
   </text>
   <text transform="translate(63.8755,95.08) rotate(-0,6,-4)" font-size="10" xml:space="preserve" font-family="FreeSans" font-style="normal" font-weight="normal">
    <tspan y="-0" fill="rgb(38,38,38)" x="0 ">5</tspan>
   </text>
   <text transform="translate(63.8755,36.4) rotate(-0,6,-4)" font-size="10" xml:space="preserve" font-family="FreeSans" font-style="normal" font-weight="normal">
    <tspan y="-0" fill="rgb(38,38,38)" x="0 ">6</tspan>
   </text>
   <polyline stroke-linejoin="miter" stroke-dasharray="16,0" stroke="#262626" fill="none" stroke-width="0.5" stroke-linecap="square" points="74.8799,384.48 521.28,384.48"/>
   <polyline stroke-linejoin="miter" stroke-dasharray="16,0" stroke="#262626" fill="none" stroke-width="0.5" stroke-linecap="square" points="74.8799,32.3999 521.28,32.3999"/>
   <polyline stroke-linejoin="miter" stroke-dasharray="16,0" stroke="#262626" fill="none" stroke-width="0.5" stroke-linecap="square" points="74.8799,384.48 74.8799,32.3999"/>
   <polyline stroke-linejoin="miter" stroke-dasharray="16,0" stroke="#262626" fill="none" stroke-width="0.5" stroke-linecap="square" points="521.28,384.48 521.28,32.3999"/>
   <text transform="translate(274.58,413.982) rotate(-0,23.5,-9)" font-size="11" xml:space="preserve" font-family="FreeSans" font-style="normal" font-weight="normal">
    <tspan y="-0" fill="rgb(38,38,38)" x="0 7 9 18 24 27 29 35 38 40 45 ">Time in 's'</tspan>
   </text>
   <text transform="translate(28.3755,208.44) rotate(-90,30.5,0)" font-size="11" xml:space="preserve" font-family="FreeSans" font-style="normal" font-weight="normal">
    <tspan y="-2" fill="rgb(38,38,38)" x="0 7 13 15 18 24 30 36 39 41 47 50 52 59 ">Voltage in 'V'</tspan>
   </text>
   <text transform="translate(47.58,22.4) rotate(-0,250.5,0)" font-size="11" xml:space="preserve" font-family="FreeSans" font-style="normal" font-weight="bold">
    <tspan y="-6" fill="rgb(0,0,0)" x="0 9 16 20 27 34 38 42 49 56 59 63 69 76 82 88 94 101 104 114 120 123 127 134 138 141 145 153 160 166 172 175 181 ">Output-VoltagevsTime for:(RL=0.1k</tspan>
    <tspan y="-6" fill="rgb(0,0,0)" x="187 ">Ω</tspan>
    <tspan y="-6" fill="rgb(0,0,0)" x="196 199 207 214 220 226 ">;RL=1k</tspan>
    <tspan y="-6" fill="rgb(0,0,0)" x="232 ">Ω</tspan>
    <tspan y="-6" fill="rgb(0,0,0)" x="241 244 252 259 265 271 277 ">;RL=10k</tspan>
    <tspan y="-6" fill="rgb(0,0,0)" x="283 ">Ω</tspan>
    <tspan y="-6" fill="rgb(0,0,0)" x="292 296 303 307 310 317 323 330 336 340 348 351 358 365 371 374 381 387 393 399 406 409 413 419 426 433 436 442 446 453 457 460 463 ">)of ZenerDiode based regulator; V</tspan>
    <tspan font-size="9" y="-0" fill="rgb(0,0,0)" x="470 ">B</tspan>
    <tspan y="-6" fill="rgb(0,0,0)" x="476 482 488 494 ">=15V</tspan>
   </text>
   <polyline stroke-linejoin="round" stroke="#0071bc" fill="none" stroke-width="0.5" stroke-linecap="butt" points="74.8799,384.48 75.3267,384.48 75.7734,384.48 76.2207,384.48 76.6675,384.48 77.1143,384.444 77.561,381.202 78.0078,372.652 78.4546,363.958 78.9014,355.306 79.3486,346.703 79.7954,338.155 80.2422,329.667 80.689,321.243 81.1357,312.891 81.5825,304.614 82.0293,296.419 82.4766,288.31 82.9233,280.292 83.3701,272.37 83.8169,264.55 84.2637,256.837 84.7104,249.235 85.1572,241.749 85.6045,234.383 86.0513,227.143 86.498,220.033 86.9448,213.058 87.3916,206.221 87.8384,199.527 88.2856,192.981 88.7324,186.586 89.1792,180.347 89.626,174.267 90.0728,168.35 90.5195,162.6 90.9663,157.02 91.4131,151.614 91.8604,146.386 92.3071,141.337 92.7539,136.473 93.2007,131.794 93.6475,127.306 94.0942,123.009 94.541,118.907 94.9883,115.002 95.4351,111.297 95.8818,107.794 96.3286,104.494 96.7754,101.4 97.2222,98.5137 97.6689,95.8359 98.1162,93.3687 98.563,91.1133 99.0098,89.0703 99.4565,87.2417 99.9033,85.627 100.35,84.2271 100.797,83.043 101.244,82.0737 101.691,81.3203 102.138,80.7812 102.584,80.4561 103.031,80.3442 103.478,80.4438 103.925,80.7524 104.372,81.2681 104.819,81.9873 105.266,82.9058 105.712,84.0181 106.159,85.3169 106.606,86.7939 107.053,88.437 107.5,90.2324 107.947,92.1616 108.394,94.2021 108.84,96.3291 109.287,98.5161 109.734,100.738 110.181,102.973 110.628,105.207 111.075,107.43 111.521,109.638 111.968,111.83 112.415,114.005 112.862,116.162 113.309,118.302 113.756,120.425 114.203,122.531 114.649,124.621 115.096,126.693 115.543,128.75 115.99,130.789 116.437,132.812 116.884,134.82 117.331,136.811 117.777,138.787 118.224,140.746 118.671,142.69 119.118,144.619 119.564,146.532 120.012,148.43 120.458,150.312 120.905,152.18 121.352,154.033 121.799,155.871 122.246,157.694 122.692,159.503 123.14,161.298 123.586,163.078 124.033,164.844 124.48,166.596 124.927,168.333 125.374,170.058 125.82,171.768 126.268,173.464 126.714,175.147 127.161,176.817 127.608,178.473 128.055,180.116 128.501,181.747 128.948,183.363 129.396,184.968 129.842,186.559 130.289,188.138 130.736,189.704 131.183,191.257 131.629,192.798 132.076,194.327 132.523,195.844 132.97,197.348 133.417,198.841 133.864,200.322 134.311,201.791 134.757,203.248 135.204,204.693 135.651,206.127 136.098,207.55 136.545,208.961 136.992,210.361 137.438,211.75 137.885,213.127 138.332,214.494 138.779,215.85 139.226,217.195 139.673,218.529 140.12,219.853 140.566,221.166 141.013,222.468 141.46,223.757 141.907,224.366 142.354,219.155 142.801,212.195 143.248,205.376 143.694,198.701 144.141,192.173 144.588,185.798 145.035,179.578 145.482,173.519 145.929,167.622 146.375,161.893 146.822,156.335 147.269,150.951 147.716,145.745 148.163,140.719 148.61,135.878 149.057,131.223 149.503,126.758 149.95,122.486 150.397,118.408 150.844,114.528 151.291,110.849 151.738,107.37 152.185,104.096 152.631,101.028 153.078,98.1675 153.525,95.5161 153.972,93.0752 154.419,90.8462 154.866,88.8301 155.312,87.0278 155.759,85.4404 156.206,84.0674 156.653,82.9102 157.1,81.9678 157.547,81.2412 157.994,80.729 158.44,80.4307 158.887,80.3452 159.334,80.4707 159.781,80.8057 160.228,81.3467 160.675,82.0913 161.122,83.0342 161.568,84.1699 162.015,85.4917 162.462,86.9902 162.909,88.6533 163.355,90.4663 163.803,92.4102 164.25,94.4629 164.696,96.5986 165.143,98.791 165.59,101.015 166.037,103.25 166.483,105.483 166.931,107.705 167.377,109.911 167.824,112.101 168.271,114.273 168.718,116.428 169.165,118.566 169.611,120.687 170.059,122.791 170.505,124.878 170.952,126.949 171.399,129.003 171.846,131.041 172.292,133.062 172.739,135.067 173.187,137.057 173.633,139.03 174.08,140.988 174.527,142.93 174.974,144.857 175.42,146.768 175.867,148.664 176.314,150.545 176.761,152.411 177.208,154.262 177.655,156.098 178.102,157.919 178.548,159.727 178.995,161.519 179.442,163.297 179.889,165.062 180.336,166.812 180.783,168.548 181.229,170.27 181.676,171.979 182.123,173.674 182.57,175.355 183.017,177.023 183.464,178.678 183.911,180.319 184.357,181.948 184.804,183.563 185.251,185.166 185.698,186.755 186.145,188.333 186.592,189.897 187.039,191.449 187.485,192.988 187.932,194.516 188.379,196.031 188.826,197.534 189.273,199.025 189.72,200.504 190.167,201.972 190.613,203.427 191.06,204.872 191.507,206.304 191.954,207.725 192.401,209.135 192.848,210.534 193.294,211.921 193.741,213.297 194.188,214.663 194.635,216.017 195.082,217.361 195.529,218.694 195.976,220.016 196.422,221.328 196.869,222.629 197.316,223.913 197.763,224.096 198.21,218.279 198.657,211.335 199.104,204.534 199.55,197.877 199.997,191.368 200.444,185.012 200.891,178.812 201.338,172.772 201.785,166.897 202.231,161.189 202.678,155.652 203.125,150.291 203.572,145.106 204.019,140.104 204.466,135.286 204.913,130.654 205.359,126.213 205.806,121.965 206.253,117.913 206.7,114.058 207.146,110.403 207.594,106.95 208.041,103.702 208.487,100.659 208.934,97.8247 209.381,95.1992 209.828,92.7852 210.274,90.5825 210.722,88.5933 211.168,86.8179 211.615,85.2568 212.062,83.9111 212.509,82.7803 212.956,81.8652 213.402,81.1655 213.85,80.6797 214.296,80.4082 214.743,80.3491 215.19,80.5015 215.637,80.8618 216.083,81.4287 216.53,82.1982 216.978,83.1655 217.424,84.3252 217.871,85.6694 218.318,87.1895 218.765,88.8721 219.211,90.7026 219.658,92.6611 220.105,94.7256 220.552,96.8701 220.999,99.0679 221.446,101.294 221.893,103.53 222.339,105.761 222.786,107.981 223.233,110.186 223.68,112.373 224.127,114.543 224.574,116.696 225.021,118.832 225.467,120.951 225.914,123.053 226.361,125.138 226.808,127.207 227.255,129.259 227.702,131.294 228.148,133.313 228.595,135.317 229.042,137.304 229.489,139.276 229.936,141.231 230.383,143.172 230.83,145.096 231.276,147.006 231.723,148.9 232.17,150.779 232.617,152.643 233.064,154.492 233.511,156.327 233.958,158.146 234.404,159.952 234.851,161.742 235.298,163.519 235.745,165.281 236.192,167.03 236.639,168.764 237.085,170.484 237.532,172.191 237.979,173.885 238.426,175.564 238.873,177.23 239.32,178.884 239.767,180.523 240.213,182.15 240.66,183.764 241.107,185.365 241.554,186.953 242,188.529 242.448,190.091 242.895,191.642 243.341,193.18 243.788,194.706 244.235,196.22 244.682,197.721 245.128,199.211 245.576,200.688 246.022,202.154 246.469,203.608 246.916,205.051 247.363,206.482 247.81,207.902 248.256,209.311 248.704,210.708 249.15,212.094 249.597,213.469 250.044,214.833 250.491,216.186 250.938,217.528 251.384,218.86 251.832,220.181 252.278,221.491 252.725,222.791 253.172,224.067 253.619,223.678 254.065,217.404 254.512,210.478 254.959,203.694 255.406,197.055 255.853,190.565 256.3,184.228 256.747,178.048 257.193,172.029 257.64,166.174 258.087,160.487 258.534,154.973 258.981,149.633 259.428,144.471 259.875,139.492 260.321,134.696 260.768,130.089 261.215,125.672 261.662,121.448 262.109,117.42 262.556,113.59 263.002,109.96 263.449,106.533 263.896,103.31 264.343,100.293 264.79,97.4849 265.237,94.8862 265.684,92.498 266.13,90.3223 266.577,88.3594 267.024,86.6108 267.471,85.0767 267.918,83.7578 268.365,82.6543 268.812,81.7661 269.258,81.0928 269.705,80.6343 270.152,80.3892 270.599,80.3569 271.046,80.5352 271.493,80.9219 271.939,81.5142 272.386,82.3086 272.833,83.3003 273.28,84.4834 273.727,85.8501 274.174,87.3911 274.621,89.0933 275.067,90.9409 275.514,92.9141 275.961,94.9902 276.408,97.1426 276.855,99.3447 277.302,101.573 277.749,103.809 278.195,106.04 278.642,108.258 279.089,110.46 279.536,112.646 279.983,114.813 280.43,116.964 280.876,119.098 281.323,121.215 281.77,123.314 282.217,125.397 282.664,127.464 283.111,129.514 283.558,131.548 284.004,133.565 284.451,135.566 284.898,137.552 285.345,139.521 285.792,141.475 286.239,143.413 286.686,145.336 287.132,147.243 287.579,149.136 288.026,151.013 288.473,152.875 288.919,154.722 289.367,156.555 289.813,158.373 290.26,160.176 290.707,161.965 291.154,163.74 291.601,165.5 292.047,167.247 292.495,168.98 292.941,170.699 293.388,172.404 293.835,174.095 294.282,175.773 294.729,177.438 295.175,179.089 295.623,180.728 296.069,182.353 296.516,183.965 296.963,185.564 297.41,187.151 297.856,188.725 298.303,190.286 298.75,191.835 299.197,193.372 299.644,194.896 300.091,196.408 300.538,197.908 300.984,199.396 301.431,200.873 301.878,202.337 302.325,203.79 302.772,205.231 303.219,206.661 303.666,208.079 304.112,209.486 304.559,210.881 305.006,212.266 305.453,213.64 305.9,215.002 306.347,216.354 306.793,217.695 307.24,219.025 307.687,220.345 308.134,221.654 308.581,222.953 309.028,224.213 309.475,223.122 309.921,216.531 310.368,209.622 310.815,202.856 311.262,196.236 311.709,189.765 312.156,183.447 312.603,177.287 313.049,171.288 313.496,165.454 313.943,159.789 314.39,154.295 314.837,148.978 315.284,143.839 315.73,138.882 316.177,134.11 316.624,129.526 317.071,125.133 317.518,120.934 317.965,116.93 318.412,113.125 318.858,109.521 319.305,106.119 319.752,102.921 320.199,99.9307 320.646,97.1484 321.093,94.5762 321.54,92.2144 321.986,90.0654 322.433,88.1294 322.88,86.4072 323.327,84.9004 323.773,83.6084 324.221,82.5312 324.667,81.6699 325.114,81.0239 325.561,80.5918 326.008,80.3735 326.455,80.3677 326.902,80.5718 327.349,80.9844 327.795,81.6025 328.242,82.4219 328.689,83.438 329.136,84.6445 329.583,86.0337 330.03,87.5952 330.477,89.3164 330.923,91.1812 331.37,93.1685 331.817,95.2554 332.264,97.4155 332.71,99.6226 333.157,101.853 333.604,104.088 334.051,106.318 334.498,108.534 334.945,110.734 335.392,112.917 335.838,115.083 336.286,117.232 336.732,119.363 337.179,121.478 337.626,123.576 338.073,125.657 338.52,127.721 338.966,129.769 339.414,131.801 339.86,133.816 340.307,135.815 340.754,137.799 341.201,139.766 341.647,141.718 342.094,143.654 342.541,145.575 342.988,147.48 343.435,149.371 343.882,151.246 344.329,153.106 344.775,154.952 345.222,156.783 345.669,158.599 346.116,160.4 346.563,162.188 347.01,163.961 347.457,165.72 347.903,167.464 348.35,169.195 348.797,170.913 349.244,172.616 349.691,174.306 350.138,175.982 350.584,177.645 351.031,179.295 351.478,180.932 351.925,182.555 352.372,184.166 352.819,185.763 353.266,187.348 353.712,188.92 354.159,190.48 354.606,192.028 355.053,193.562 355.5,195.085 355.947,196.596 356.394,198.095 356.84,199.581 357.287,201.056 357.734,202.519 358.181,203.97 358.628,205.41 359.075,206.838 359.521,208.255 359.968,209.661 360.415,211.055 360.862,212.438 361.309,213.811 361.756,215.172 362.203,216.522 362.649,217.862 363.096,219.191 363.543,220.509 363.99,221.817 364.437,223.114 364.884,224.346 365.331,222.452 365.777,215.66 366.224,208.768 366.671,202.021 367.118,195.418 367.564,188.966 368.012,182.668 368.458,176.528 368.905,170.55 369.352,164.736 369.799,159.092 370.246,153.621 370.692,148.326 371.14,143.209 371.586,138.275 372.033,133.527 372.48,128.967 372.927,124.598 373.374,120.422 373.82,116.444 374.268,112.664 374.714,109.084 375.161,105.708 375.608,102.536 376.055,99.5718 376.501,96.8154 376.948,94.269 377.396,91.9341 377.842,89.8115 378.289,87.9023 378.736,86.207 379.183,84.7271 379.629,83.4619 380.076,82.4121 380.523,81.5776 380.97,80.958 381.417,80.5532 381.864,80.3613 382.311,80.3818 382.757,80.6123 383.204,81.0508 383.651,81.6938 384.098,82.5381 384.545,83.5781 384.992,84.8081 385.438,86.2197 385.885,87.8018 386.332,89.542 386.779,91.4229 387.226,93.4243 387.673,95.522 388.12,97.6895 388.566,99.9004 389.013,102.132 389.46,104.368 389.907,106.596 390.354,108.81 390.801,111.008 391.248,113.189 391.694,115.353 392.141,117.5 392.588,119.629 393.035,121.741 393.482,123.837 393.929,125.916 394.375,127.978 394.822,130.024 395.269,132.053 395.716,134.067 396.163,136.064 396.61,138.045 397.057,140.011 397.503,141.961 397.95,143.896 398.397,145.814 398.844,147.718 399.291,149.606 399.738,151.479 400.185,153.338 400.631,155.182 401.078,157.011 401.525,158.825 401.972,160.625 402.419,162.41 402.866,164.182 403.312,165.938 403.759,167.682 404.206,169.411 404.653,171.126 405.1,172.828 405.547,174.516 405.994,176.191 406.44,177.852 406.887,179.5 407.334,181.135 407.781,182.757 408.228,184.366 408.675,185.962 409.122,187.545 409.568,189.116 410.015,190.674 410.462,192.22 410.909,193.754 411.355,195.275 411.803,196.784 412.25,198.281 412.696,199.766 413.143,201.24 413.59,202.701 414.037,204.151 414.483,205.589 414.931,207.016 415.377,208.432 415.824,209.836 416.271,211.229 416.718,212.61 417.165,213.981 417.611,215.341 418.059,216.69 418.505,218.029 418.952,219.356 419.399,220.673 419.846,221.98 420.292,223.275 420.739,224.452 421.187,221.696 421.633,214.79 422.08,207.917 422.527,201.188 422.974,194.604 423.42,188.171 423.867,181.892 424.314,175.772 424.761,169.814 425.208,164.021 425.655,158.399 426.102,152.949 426.548,147.676 426.995,142.583 427.442,137.671 427.889,132.946 428.336,128.41 428.783,124.065 429.229,119.915 429.676,115.96 430.123,112.205 430.57,108.651 431.017,105.3 431.464,102.154 431.911,99.2158 432.357,96.4858 432.804,93.9658 433.251,91.6572 433.698,89.561 434.145,87.6787 434.592,86.0103 435.039,84.5571 435.485,83.3188 435.932,82.2959 436.379,81.4883 436.826,80.896 437.273,80.5176 437.72,80.3525 438.167,80.3989 438.613,80.6558 439.06,81.1201 439.507,81.7886 439.954,82.6577 440.401,83.7217 440.848,84.9751 441.294,86.4082 441.741,88.0112 442.188,89.77 442.635,91.667 443.082,93.6821 443.529,95.7896 443.976,97.9639 444.422,100.179 444.869,102.412 445.316,104.646 445.763,106.873 446.21,109.085 446.657,111.281 447.104,113.46 447.55,115.622 447.997,117.767 448.444,119.894 448.891,122.004 449.337,124.098 449.785,126.174 450.231,128.235 450.678,130.278 451.125,132.306 451.572,134.317 452.019,136.312 452.466,138.292 452.913,140.256 453.359,142.204 453.806,144.136 454.253,146.053 454.7,147.955 455.146,149.841 455.594,151.713 456.041,153.569 456.487,155.411 456.934,157.238 457.381,159.051 457.828,160.849 458.274,162.632 458.722,164.402 459.168,166.157 459.615,167.898 460.062,169.626 460.509,171.34 460.956,173.04 461.402,174.726 461.85,176.399 462.296,178.059 462.743,179.705 463.19,181.338 463.637,182.959 464.083,184.566 464.53,186.161 464.977,187.743 465.424,189.312 465.871,190.868 466.318,192.413 466.765,193.944 467.211,195.464 467.658,196.972 468.105,198.467 468.552,199.951 468.999,201.423 469.446,202.883 469.893,204.332 470.339,205.768 470.786,207.194 471.233,208.608 471.68,210.01 472.127,211.402 472.574,212.783 473.021,214.152 473.467,215.511 473.914,216.858 474.361,218.195 474.808,219.521 475.255,220.837 475.702,222.143 476.148,223.437 476.595,224.512 477.042,220.88 477.489,213.923 477.936,207.068 478.383,200.356 478.83,193.792 479.276,187.377 479.723,181.118 480.17,175.018 480.617,169.081 481.064,163.31 481.511,157.708 481.958,152.28 482.404,147.029 482.851,141.958 483.298,137.071 483.745,132.369 484.192,127.856 484.639,123.536 485.085,119.409 485.532,115.48 485.979,111.75 486.426,108.221 486.873,104.896 487.32,101.776 487.767,98.8633 488.213,96.1592 488.66,93.6655 489.107,91.3838 489.554,89.314 490.001,87.4585 490.448,85.8169 490.895,84.3906 491.341,83.1792 491.788,82.1831 492.235,81.4028 492.682,80.8369 493.128,80.4854 493.576,80.3467 494.022,80.4199 494.469,80.7026 494.916,81.1924 495.363,81.8862 495.81,82.7803 496.256,83.8682 496.704,85.1445 497.15,86.5996 497.597,88.2227 498.044,90 498.491,91.9131 498.938,93.9409 499.384,96.0581 499.832,98.2388 500.278,100.457 500.725,102.691 501.172,104.926 501.619,107.15 502.065,109.361 502.512,111.555 502.959,113.731 503.406,115.891 503.853,118.033 504.3,120.158 504.747,122.267 505.193,124.358 505.64,126.433 506.087,128.491 506.534,130.533 506.981,132.558 507.428,134.568 507.875,136.561 508.321,138.539 508.769,140.5 509.215,142.446 509.662,144.376 510.109,146.292 510.556,148.191 511.002,150.076 511.449,151.946 511.896,153.8 512.343,155.64 512.79,157.465 513.237,159.276 513.684,161.072 514.13,162.854 514.577,164.622 515.024,166.375 515.471,168.115 515.918,169.841 516.365,171.553 516.812,173.251 517.258,174.936 517.705,176.607 518.152,178.265 518.599,179.91 519.046,181.542 519.493,183.16 519.939,184.766 520.386,186.359 520.833,187.939 521.28,189.507"/>
   <polyline stroke-linejoin="round" stroke="#d85218" fill="none" stroke-width="0.5" stroke-linecap="butt" points="74.8799,384.48 75.3267,384.48 75.7734,384.48 76.2207,384.48 76.6675,384.48 77.1143,384.444 77.561,381.199 78.0078,372.64 78.4546,363.934 78.9014,355.271 79.3486,346.658 79.7954,338.099 80.2422,329.6 80.689,321.166 81.1357,312.802 81.5825,304.515 82.0293,296.308 82.4766,288.188 82.9233,280.159 83.3701,272.226 83.8169,264.395 84.2637,256.669 84.7104,249.055 85.1572,241.557 85.6045,234.179 86.0513,226.927 86.498,219.804 86.9448,212.815 87.3916,205.965 87.8384,199.258 88.2856,192.698 88.7324,186.288 89.1792,180.034 89.626,173.938 90.0728,168.004 90.5195,162.237 90.9663,156.64 91.4131,151.216 91.8604,145.968 92.3071,140.899 92.7539,136.014 93.2007,131.313 93.6475,126.8 94.0942,122.479 94.541,118.35 94.9883,114.416 95.4351,110.68 95.8818,107.144 96.3286,103.808 96.7754,100.675 97.2222,97.7451 97.6689,95.021 98.1162,92.502 98.563,90.1885 99.0098,88.0815 99.4565,86.1802 99.9033,84.4834 100.35,82.9893 100.797,81.6963 101.244,80.6001 101.691,79.6958 102.138,78.978 102.584,78.437 103.031,78.0615 103.478,77.8374 103.925,77.7456 104.372,77.7642 104.819,77.8687 105.266,78.0342 105.712,78.2393 106.159,78.4668 106.606,78.7046 107.053,78.9468 107.5,79.1909 107.947,79.4351 108.394,79.6792 108.84,79.9229 109.287,80.167 109.734,80.4106 110.181,80.6538 110.628,80.897 111.075,81.1401 111.521,81.3828 111.968,81.6255 112.415,81.8682 112.862,82.1104 113.309,82.3521 113.756,82.5942 114.203,82.8359 114.649,83.0771 115.096,83.3184 115.543,83.5596 115.99,83.8003 116.437,84.041 116.884,84.2817 117.331,84.522 117.777,84.7622 118.224,85.002 118.671,85.2417 119.118,85.481 119.564,85.7207 120.012,85.9595 120.458,86.1987 120.905,86.4375 121.352,86.6758 121.799,86.9146 122.246,87.1523 122.692,87.3906 123.14,87.6284 123.586,87.8662 124.033,88.1035 124.48,88.3408 124.927,88.5776 125.374,88.8145 125.82,89.0513 126.268,89.2876 126.714,89.5239 127.161,89.7603 127.608,89.9961 128.055,90.2319 128.501,90.4673 128.948,90.7026 129.396,90.938 129.842,91.1729 130.289,91.4077 130.736,91.6421 131.183,91.8765 131.629,92.1108 132.076,92.3447 132.523,92.5786 132.97,92.8125 133.417,93.0459 133.864,93.2793 134.311,93.5122 134.757,93.7451 135.204,93.978 135.651,94.2104 136.098,94.4429 136.545,94.6748 136.992,94.9067 137.438,95.1387 137.885,95.3701 138.332,95.6016 138.779,95.833 139.226,96.064 139.673,96.2949 140.12,96.5259 140.566,96.7563 141.013,96.9863 141.46,97.2168 141.907,97.4468 142.354,97.6763 142.801,97.9058 143.248,98.1353 143.694,98.3643 144.141,98.5938 144.588,98.8223 145.035,99.0513 145.482,99.2793 145.929,99.5078 146.375,99.7358 146.822,99.9639 147.269,100.191 147.716,100.419 148.163,100.646 148.61,100.874 149.057,101.101 149.503,101.328 149.95,101.554 150.397,101.781 150.844,102.006 151.291,102.225 151.738,102.366 152.185,101.939 152.631,100.051 153.078,97.3623 153.525,94.6904 153.972,92.2007 154.419,89.9141 154.866,87.8325 155.312,85.957 155.759,84.2856 156.206,82.8169 156.653,81.5483 157.1,80.4766 157.547,79.5962 157.994,78.9009 158.44,78.3813 158.887,78.0259 159.334,77.8188 159.781,77.7422 160.228,77.7729 160.675,77.8862 161.122,78.0581 161.568,78.2671 162.015,78.4961 162.462,78.7349 162.909,78.9775 163.355,79.2212 163.803,79.4653 164.25,79.7095 164.696,79.9536 165.143,80.1973 165.59,80.4409 166.037,80.6841 166.483,80.9272 166.931,81.1704 167.377,81.4131 167.824,81.6558 168.271,81.8984 168.718,82.1406 169.165,82.3823 169.611,82.624 170.059,82.8657 170.505,83.1074 170.952,83.3486 171.399,83.5898 171.846,83.8306 172.292,84.0713 172.739,84.3115 173.187,84.5518 173.633,84.792 174.08,85.0317 174.527,85.2715 174.974,85.5112 175.42,85.7505 175.867,85.9897 176.314,86.2285 176.761,86.4673 177.208,86.7056 177.655,86.9443 178.102,87.1821 178.548,87.4204 178.995,87.6582 179.442,87.8955 179.889,88.1333 180.336,88.3701 180.783,88.6074 181.229,88.8442 181.676,89.0811 182.123,89.3174 182.57,89.5537 183.017,89.7896 183.464,90.0254 183.911,90.2612 184.357,90.4966 184.804,90.7319 185.251,90.9673 185.698,91.2021 186.145,91.437 186.592,91.6714 187.039,91.9058 187.485,92.1401 187.932,92.374 188.379,92.6079 188.826,92.8418 189.273,93.0752 189.72,93.3081 190.167,93.5415 190.613,93.7744 191.06,94.0068 191.507,94.2397 191.954,94.4717 192.401,94.7041 192.848,94.936 193.294,95.1675 193.741,95.3994 194.188,95.6309 194.635,95.8618 195.082,96.0928 195.529,96.3237 195.976,96.5547 196.422,96.7852 196.869,97.0151 197.316,97.2451 197.763,97.4751 198.21,97.7051 198.657,97.9346 199.104,98.1641 199.55,98.3931 199.997,98.6221 200.444,98.8511 200.891,99.0796 201.338,99.3081 201.785,99.5361 202.231,99.7646 202.678,99.9922 203.125,100.22 203.572,100.448 204.019,100.675 204.466,100.902 204.913,101.129 205.359,101.356 205.806,101.583 206.253,101.809 206.7,102.035 207.146,102.25 207.594,102.364 208.041,101.79 208.487,99.7319 208.934,97.021 209.381,94.3687 209.828,91.9038 210.274,89.6426 210.722,87.5869 211.168,85.7368 211.615,84.0908 212.062,82.6475 212.509,81.4038 212.956,80.356 213.402,79.4995 213.85,78.8267 214.296,78.3281 214.743,77.9922 215.19,77.8027 215.637,77.7407 216.083,77.7832 216.53,77.9053 216.978,78.0825 217.424,78.2949 217.871,78.5254 218.318,78.7646 218.765,79.0078 219.211,79.252 219.658,79.4961 220.105,79.7402 220.552,79.9839 220.999,80.228 221.446,80.4712 221.893,80.7148 222.339,80.958 222.786,81.2007 223.233,81.4434 223.68,81.686 224.127,81.9287 224.574,82.1709 225.021,82.4126 225.467,82.6543 225.914,82.896 226.361,83.1377 226.808,83.3789 227.255,83.6196 227.702,83.8604 228.148,84.1011 228.595,84.3418 229.042,84.582 229.489,84.8218 229.936,85.062 230.383,85.3018 230.83,85.541 231.276,85.7803 231.723,86.0195 232.17,86.2583 232.617,86.4971 233.064,86.7354 233.511,86.9741 233.958,87.2119 234.404,87.4502 234.851,87.688 235.298,87.9253 235.745,88.1626 236.192,88.3999 236.639,88.6372 237.085,88.874 237.532,89.1104 237.979,89.3467 238.426,89.583 238.873,89.8193 239.32,90.0552 239.767,90.2905 240.213,90.5264 240.66,90.7617 241.107,90.9966 241.554,91.2314 242,91.4663 242.448,91.7007 242.895,91.9351 243.341,92.1694 243.788,92.4033 244.235,92.6372 244.682,92.8706 245.128,93.104 245.576,93.3374 246.022,93.5703 246.469,93.8032 246.916,94.0361 247.363,94.2686 247.81,94.501 248.256,94.7329 248.704,94.9648 249.15,95.1968 249.597,95.4282 250.044,95.6597 250.491,95.8906 250.938,96.1221 251.384,96.3525 251.832,96.5835 252.278,96.814 252.725,97.0439 253.172,97.2739 253.619,97.5039 254.065,97.7339 254.512,97.9634 254.959,98.1924 255.406,98.4219 255.853,98.6509 256.3,98.8794 256.747,99.1084 257.193,99.3364 257.64,99.5649 258.087,99.793 258.534,100.021 258.981,100.249 259.428,100.476 259.875,100.704 260.321,100.931 260.768,101.158 261.215,101.384 261.662,101.611 262.109,101.837 262.556,102.062 263.002,102.274 263.449,102.352 263.896,101.612 264.343,99.4048 264.79,96.6812 265.237,94.0493 265.684,91.6099 266.13,89.3745 266.577,87.3447 267.024,85.52 267.471,83.8994 267.918,82.481 268.365,81.2622 268.812,80.2388 269.258,79.4053 269.705,78.7549 270.152,78.2778 270.599,77.9609 271.046,77.7886 271.493,77.7407 271.939,77.7944 272.386,77.9248 272.833,78.1079 273.28,78.3228 273.727,78.5552 274.174,78.7949 274.621,79.0381 275.067,79.2822 275.514,79.5264 275.961,79.7705 276.408,80.0146 276.855,80.2583 277.302,80.502 277.749,80.7451 278.195,80.9883 278.642,81.231 279.089,81.4741 279.536,81.7163 279.983,81.959 280.43,82.2012 280.876,82.4429 281.323,82.6846 281.77,82.9263 282.217,83.1675 282.664,83.4087 283.111,83.6499 283.558,83.8906 284.004,84.1313 284.451,84.3716 284.898,84.6118 285.345,84.8521 285.792,85.0918 286.239,85.3315 286.686,85.5708 287.132,85.8101 287.579,86.0493 288.026,86.2881 288.473,86.5269 288.919,86.7656 289.367,87.0039 289.813,87.2417 290.26,87.48 290.707,87.7173 291.154,87.9551 291.601,88.1924 292.047,88.4297 292.495,88.6665 292.941,88.9033 293.388,89.1401 293.835,89.3765 294.282,89.6128 294.729,89.8486 295.175,90.0845 295.623,90.3203 296.069,90.5557 296.516,90.791 296.963,91.0259 297.41,91.2607 297.856,91.4956 298.303,91.73 298.75,91.9644 299.197,92.1987 299.644,92.4326 300.091,92.6665 300.538,92.8999 300.984,93.1333 301.431,93.3667 301.878,93.5996 302.325,93.8325 302.772,94.0649 303.219,94.2974 303.666,94.5298 304.112,94.7622 304.559,94.9941 305.006,95.2256 305.453,95.457 305.9,95.6885 306.347,95.9199 306.793,96.1509 307.24,96.3813 307.687,96.6123 308.134,96.8423 308.581,97.0728 309.028,97.3027 309.475,97.5327 309.921,97.7622 310.368,97.9922 310.815,98.2212 311.262,98.4502 311.709,98.6792 312.156,98.9082 312.603,99.1367 313.049,99.3652 313.496,99.5933 313.943,99.8213 314.39,100.049 314.837,100.277 315.284,100.504 315.73,100.732 316.177,100.959 316.624,101.186 317.071,101.413 317.518,101.639 317.965,101.866 318.412,102.09 318.858,102.297 319.305,102.328 319.752,101.409 320.199,99.0708 320.646,96.3428 321.093,93.7334 321.54,91.3193 321.986,89.1094 322.433,87.1055 322.88,85.3062 323.327,83.7109 323.773,82.3179 324.221,81.1235 324.667,80.124 325.114,79.3145 325.561,78.686 326.008,78.2295 326.455,77.9316 326.902,77.7764 327.349,77.7422 327.795,77.8071 328.242,77.9453 328.689,78.1333 329.136,78.3511 329.583,78.585 330.03,78.8252 330.477,79.0688 330.923,79.313 331.37,79.5571 331.817,79.8013 332.264,80.0449 332.71,80.2886 333.157,80.5322 333.604,80.7754 334.051,81.0186 334.498,81.2617 334.945,81.5044 335.392,81.7466 335.838,81.9893 336.286,82.2314 336.732,82.4731 337.179,82.7148 337.626,82.9565 338.073,83.1978 338.52,83.439 338.966,83.6802 339.414,83.9209 339.86,84.1616 340.307,84.4019 340.754,84.6421 341.201,84.8818 341.647,85.1221 342.094,85.3613 342.541,85.6011 342.988,85.8403 343.435,86.0791 343.882,86.3179 344.329,86.5566 344.775,86.7954 345.222,87.0337 345.669,87.2715 346.116,87.5098 346.563,87.7471 347.01,87.9849 347.457,88.2222 347.903,88.4595 348.35,88.6963 348.797,88.9331 349.244,89.1694 349.691,89.4058 350.138,89.6421 350.584,89.8784 351.031,90.1143 351.478,90.3496 351.925,90.585 352.372,90.8203 352.819,91.0557 353.266,91.2905 353.712,91.5249 354.159,91.7593 354.606,91.9937 355.053,92.228 355.5,92.4619 355.947,92.6958 356.394,92.9292 356.84,93.1626 357.287,93.396 357.734,93.6289 358.181,93.8618 358.628,94.0942 359.075,94.3267 359.521,94.5591 359.968,94.791 360.415,95.0229 360.862,95.2544 361.309,95.4863 361.756,95.7173 362.203,95.9487 362.649,96.1797 363.096,96.4102 363.543,96.6411 363.99,96.8716 364.437,97.1016 364.884,97.3315 365.331,97.5615 365.777,97.791 366.224,98.0205 366.671,98.25 367.118,98.479 367.564,98.708 368.012,98.937 368.458,99.1655 368.905,99.3936 369.352,99.6221 369.799,99.8501 370.246,100.078 370.692,100.306 371.14,100.533 371.586,100.76 372.033,100.987 372.48,101.214 372.927,101.441 373.374,101.667 373.82,101.894 374.268,102.118 374.714,102.316 375.161,102.28 375.608,101.171 376.055,98.7373 376.501,96.0093 376.948,93.4209 377.396,91.0317 377.842,88.8477 378.289,86.8691 378.736,85.0957 379.183,83.5259 379.629,82.1577 380.076,80.9883 380.523,80.0127 380.97,79.2261 381.417,78.6196 381.864,78.1836 382.311,77.9048 382.757,77.7651 383.204,77.7451 383.651,77.8198 384.098,77.9653 384.545,78.1577 384.992,78.3784 385.438,78.6133 385.885,78.854 386.332,79.0977 386.779,79.3418 387.226,79.5859 387.673,79.8301 388.12,80.0737 388.566,80.3174 389.013,80.561 389.46,80.8042 389.907,81.0474 390.354,81.2905 390.801,81.5332 391.248,81.7754 391.694,82.0176 392.141,82.2598 392.588,82.502 393.035,82.7437 393.482,82.9854 393.929,83.2266 394.375,83.4678 394.822,83.7085 395.269,83.9492 395.716,84.1899 396.163,84.4302 396.61,84.6704 397.057,84.9106 397.503,85.1504 397.95,85.3896 398.397,85.6294 398.844,85.8687 399.291,86.1074 399.738,86.3462 400.185,86.585 400.631,86.8232 401.078,87.0615 401.525,87.2998 401.972,87.5376 402.419,87.7754 402.866,88.0127 403.312,88.25 403.759,88.4873 404.206,88.7241 404.653,88.9609 405.1,89.1978 405.547,89.4341 405.994,89.6699 406.44,89.9062 406.887,90.1421 407.334,90.3774 407.781,90.6128 408.228,90.8481 408.675,91.083 409.122,91.3179 409.568,91.5527 410.015,91.7871 410.462,92.0215 410.909,92.2559 411.355,92.4897 411.803,92.7231 412.25,92.957 412.696,93.1904 413.143,93.4233 413.59,93.6562 414.037,93.8892 414.483,94.1216 414.931,94.354 415.377,94.5864 415.824,94.8184 416.271,95.0503 416.718,95.2822 417.165,95.5137 417.611,95.7451 418.059,95.9761 418.505,96.207 418.952,96.4375 419.399,96.6685 419.846,96.8984 420.292,97.1289 420.739,97.3589 421.187,97.5889 421.633,97.8184 422.08,98.0479 422.527,98.2773 422.974,98.5063 423.42,98.7354 423.867,98.9639 424.314,99.1924 424.761,99.4209 425.208,99.6489 425.655,99.877 426.102,100.105 426.548,100.333 426.995,100.56 427.442,100.787 427.889,101.014 428.336,101.241 428.783,101.468 429.229,101.694 429.676,101.92 430.123,102.144 430.57,102.335 431.017,102.234 431.464,100.925 431.911,98.3911 432.357,95.6738 432.804,93.1108 433.251,90.7476 433.698,88.5889 434.145,86.6362 434.592,84.8882 435.039,83.3438 435.485,82.001 435.932,80.8555 436.379,79.9043 436.826,79.1406 437.273,78.5562 437.72,78.1406 438.167,77.8804 438.613,77.7573 439.06,77.7505 439.507,77.8354 439.954,77.9883 440.401,78.1855 440.848,78.4087 441.294,78.6445 441.741,78.8862 442.188,79.1299 442.635,79.374 443.082,79.6182 443.529,79.8623 443.976,80.106 444.422,80.3496 444.869,80.5933 445.316,80.8364 445.763,81.0796 446.21,81.3223 446.657,81.5649 447.104,81.8076 447.55,82.0498 447.997,82.292 448.444,82.5337 448.891,82.7754 449.337,83.0171 449.785,83.2583 450.231,83.4995 450.678,83.7402 451.125,83.981 451.572,84.2217 452.019,84.4619 452.466,84.7021 452.913,84.9419 453.359,85.1816 453.806,85.4214 454.253,85.6606 454.7,85.8999 455.146,86.1392 455.594,86.3779 456.041,86.6162 456.487,86.855 456.934,87.0933 457.381,87.3311 457.828,87.5688 458.274,87.8066 458.722,88.0439 459.168,88.2812 459.615,88.5186 460.062,88.7554 460.509,88.9922 460.956,89.2285 461.402,89.4648 461.85,89.7012 462.296,89.937 462.743,90.1729 463.19,90.4087 463.637,90.644 464.083,90.8794 464.53,91.1143 464.977,91.3491 465.424,91.5835 465.871,91.8179 466.318,92.0522 466.765,92.2866 467.211,92.5205 467.658,92.7539 468.105,92.9878 468.552,93.2207 468.999,93.4541 469.446,93.687 469.893,93.9199 470.339,94.1523 470.786,94.3848 471.233,94.6172 471.68,94.8491 472.127,95.0811 472.574,95.3125 473.021,95.5439 473.467,95.7754 473.914,96.0063 474.361,96.2373 474.808,96.4683 475.255,96.6987 475.702,96.9292 476.148,97.1592 476.595,97.3892 477.042,97.6191 477.489,97.8486 477.936,98.0781 478.383,98.3071 478.83,98.5361 479.276,98.7651 479.723,98.9941 480.17,99.2227 480.617,99.4507 481.064,99.6792 481.511,99.9067 481.958,100.135 482.404,100.362 482.851,100.59 483.298,100.817 483.745,101.044 484.192,101.271 484.639,101.498 485.085,101.724 485.532,101.95 485.979,102.172 486.426,102.349 486.873,102.146 487.32,100.645 487.767,98.0542 488.213,95.3452 488.66,92.8047 489.107,90.4663 489.554,88.334 490.001,86.4067 490.448,84.6841 490.895,83.165 491.341,81.8467 491.788,80.7261 492.235,79.7988 492.682,79.0576 493.128,78.4951 493.576,78.0996 494.022,77.8574 494.469,77.75 494.916,77.7554 495.363,77.8506 495.81,78.0098 496.256,78.2104 496.704,78.4355 497.15,78.6724 497.597,78.9146 498.044,79.1582 498.491,79.4023 498.938,79.6465 499.384,79.8906 499.832,80.1343 500.278,80.3779 500.725,80.6216 501.172,80.8647 501.619,81.1079 502.065,81.3506 502.512,81.5933 502.959,81.8354 503.406,82.0781 503.853,82.3198 504.3,82.562 504.747,82.8037 505.193,83.0449 505.64,83.2861 506.087,83.5273 506.534,83.7686 506.981,84.0088 507.428,84.2495 507.875,84.4897 508.321,84.73 508.769,84.9697 509.215,85.21 509.662,85.4492 510.109,85.6885 510.556,85.9277 511.002,86.167 511.449,86.4058 511.896,86.644 512.343,86.8828 512.79,87.1211 513.237,87.3589 513.684,87.5967 514.13,87.8345 514.577,88.0718 515.024,88.3091 515.471,88.5464 515.918,88.7832 516.365,89.0195 516.812,89.2563 517.258,89.4927 517.705,89.7285 518.152,89.9648 518.599,90.2002 519.046,90.436 519.493,90.6714 519.939,90.9067 520.386,91.1416 520.833,91.3765 521.28,91.6108"/>
   <polyline stroke-linejoin="round" stroke="#ecb01f" fill="none" stroke-width="0.5" stroke-linecap="butt" points="74.8799,384.48 75.3267,384.48 75.7734,384.48 76.2207,384.48 76.6675,384.48 77.1143,384.444 77.561,381.199 78.0078,372.638 78.4546,363.931 78.9014,355.268 79.3486,346.653 79.7954,338.093 80.2422,329.593 80.689,321.158 81.1357,312.793 81.5825,304.504 82.0293,296.296 82.4766,288.175 82.9233,280.145 83.3701,272.21 83.8169,264.378 84.2637,256.651 84.7104,249.036 85.1572,241.537 85.6045,234.157 86.0513,226.903 86.498,219.779 86.9448,212.789 87.3916,205.938 87.8384,199.228 88.2856,192.666 88.7324,186.255 89.1792,179.999 89.626,173.9 90.0728,167.965 90.5195,162.196 90.9663,156.596 91.4131,151.17 91.8604,145.919 92.3071,140.848 92.7539,135.959 93.2007,131.255 93.6475,126.739 94.0942,122.414 94.541,118.281 94.9883,114.343 95.4351,110.603 95.8818,107.061 96.3286,103.719 96.7754,100.58 97.2222,97.6431 97.6689,94.9106 98.1162,92.3823 98.563,90.0586 99.0098,87.9395 99.4565,86.0239 99.9033,84.3101 100.35,82.7964 100.797,81.479 101.244,80.353 101.691,79.4131 102.138,78.6499 102.584,78.0522 103.031,77.6055 103.478,77.2915 103.925,77.0879 104.372,76.9712 104.819,76.9155 105.266,76.8999 105.712,76.9067 106.159,76.9243 106.606,76.9463 107.053,76.9702 107.5,76.9946 107.947,77.019 108.394,77.0439 108.84,77.0684 109.287,77.0933 109.734,77.1177 110.181,77.1421 110.628,77.167 111.075,77.1914 111.521,77.2163 111.968,77.2407 112.415,77.2651 112.862,77.29 113.309,77.3145 113.756,77.3394 114.203,77.3638 114.649,77.3882 115.096,77.4131 115.543,77.4375 115.99,77.4619 116.437,77.4868 116.884,77.5112 117.331,77.5356 117.777,77.5605 118.224,77.585 118.671,77.6094 119.118,77.6343 119.564,77.6587 120.012,77.6831 120.458,77.708 120.905,77.7324 121.352,77.7568 121.799,77.7817 122.246,77.8062 122.692,77.8306 123.14,77.8555 123.586,77.8799 124.033,77.9043 124.48,77.9287 124.927,77.9536 125.374,77.978 125.82,78.0024 126.268,78.0269 126.714,78.0518 127.161,78.0762 127.608,78.1006 128.055,78.125 128.501,78.1499 128.948,78.1743 129.396,78.1987 129.842,78.2231 130.289,78.248 130.736,78.2725 131.183,78.2969 131.629,78.3213 132.076,78.3457 132.523,78.3706 132.97,78.395 133.417,78.4194 133.864,78.4438 134.311,78.4683 134.757,78.4932 135.204,78.5176 135.651,78.542 136.098,78.5664 136.545,78.5908 136.992,78.6152 137.438,78.6401 137.885,78.6646 138.332,78.689 138.779,78.7134 139.226,78.7378 139.673,78.7622 140.12,78.7871 140.566,78.8115 141.013,78.8359 141.46,78.8604 141.907,78.8848 142.354,78.9092 142.801,78.9336 143.248,78.958 143.694,78.9824 144.141,79.0073 144.588,79.0317 145.035,79.0562 145.482,79.0806 145.929,79.105 146.375,79.1294 146.822,79.1538 147.269,79.1782 147.716,79.2026 148.163,79.2271 148.61,79.2515 149.057,79.2759 149.503,79.3003 149.95,79.3252 150.397,79.3496 150.844,79.374 151.291,79.3984 151.738,79.4229 152.185,79.4473 152.631,79.4717 153.078,79.4961 153.525,79.5205 153.972,79.5444 154.419,79.5674 154.866,79.5864 155.312,79.5923 155.759,79.564 156.206,79.4634 156.653,79.2461 157.1,78.8975 157.547,78.458 157.994,77.9995 158.44,77.5854 158.887,77.251 159.334,77.0068 159.781,76.8472 160.228,76.7563 160.675,76.7163 161.122,76.7085 161.568,76.7192 162.015,76.7383 162.462,76.7607 162.909,76.7852 163.355,76.8096 163.803,76.834 164.25,76.8589 164.696,76.8833 165.143,76.9082 165.59,76.9326 166.037,76.9575 166.483,76.9819 166.931,77.0063 167.377,77.0312 167.824,77.0557 168.271,77.0806 168.718,77.105 169.165,77.1299 169.611,77.1543 170.059,77.1787 170.505,77.2036 170.952,77.228 171.399,77.2529 171.846,77.2773 172.292,77.3018 172.739,77.3267 173.187,77.3511 173.633,77.3755 174.08,77.4004 174.527,77.4248 174.974,77.4492 175.42,77.4741 175.867,77.4985 176.314,77.5234 176.761,77.5479 177.208,77.5723 177.655,77.5972 178.102,77.6216 178.548,77.646 178.995,77.6709 179.442,77.6953 179.889,77.7197 180.336,77.7441 180.783,77.769 181.229,77.7935 181.676,77.8179 182.123,77.8428 182.57,77.8672 183.017,77.8916 183.464,77.916 183.911,77.9409 184.357,77.9653 184.804,77.9897 185.251,78.0146 185.698,78.0391 186.145,78.0635 186.592,78.0879 187.039,78.1128 187.485,78.1372 187.932,78.1616 188.379,78.186 188.826,78.2109 189.273,78.2354 189.72,78.2598 190.167,78.2842 190.613,78.3086 191.06,78.3335 191.507,78.3579 191.954,78.3823 192.401,78.4067 192.848,78.4312 193.294,78.4561 193.741,78.4805 194.188,78.5049 194.635,78.5293 195.082,78.5537 195.529,78.5786 195.976,78.603 196.422,78.6274 196.869,78.6519 197.316,78.6763 197.763,78.7007 198.21,78.7251 198.657,78.75 199.104,78.7744 199.55,78.7988 199.997,78.8232 200.444,78.8477 200.891,78.8721 201.338,78.8965 201.785,78.9209 202.231,78.9458 202.678,78.9702 203.125,78.9946 203.572,79.019 204.019,79.0435 204.466,79.0679 204.913,79.0923 205.359,79.1167 205.806,79.1411 206.253,79.1655 206.7,79.1904 207.146,79.2148 207.594,79.2393 208.041,79.2637 208.487,79.2881 208.934,79.3125 209.381,79.3369 209.828,79.3608 210.274,79.3838 210.722,79.4023 211.168,79.4082 211.615,79.3799 212.062,79.2817 212.509,79.0718 212.956,78.7383 213.402,78.3203 213.85,77.8857 214.296,77.4946 214.743,77.1802 215.19,76.9526 215.637,76.8057 216.083,76.7241 216.53,76.6899 216.978,76.686 217.424,76.6978 217.871,76.7178 218.318,76.7407 218.765,76.7651 219.211,76.7896 219.658,76.814 220.105,76.8389 220.552,76.8633 220.999,76.8882 221.446,76.9126 221.893,76.9375 222.339,76.9619 222.786,76.9868 223.233,77.0112 223.68,77.0356 224.127,77.0605 224.574,77.085 225.021,77.1099 225.467,77.1343 225.914,77.1587 226.361,77.1836 226.808,77.208 227.255,77.2329 227.702,77.2573 228.148,77.2817 228.595,77.3066 229.042,77.3311 229.489,77.356 229.936,77.3804 230.383,77.4048 230.83,77.4297 231.276,77.4541 231.723,77.4785 232.17,77.5034 232.617,77.5278 233.064,77.5522 233.511,77.5771 233.958,77.6016 234.404,77.626 234.851,77.6509 235.298,77.6753 235.745,77.6997 236.192,77.7246 236.639,77.749 237.085,77.7734 237.532,77.7983 237.979,77.8228 238.426,77.8472 238.873,77.8716 239.32,77.8965 239.767,77.9209 240.213,77.9453 240.66,77.9702 241.107,77.9946 241.554,78.019 242,78.0435 242.448,78.0684 242.895,78.0928 243.341,78.1172 243.788,78.1416 244.235,78.1665 244.682,78.1909 245.128,78.2153 245.576,78.2397 246.022,78.2646 246.469,78.2891 246.916,78.3135 247.363,78.3379 247.81,78.3623 248.256,78.3872 248.704,78.4116 249.15,78.436 249.597,78.4604 250.044,78.4849 250.491,78.5098 250.938,78.5342 251.384,78.5586 251.832,78.583 252.278,78.6074 252.725,78.6318 253.172,78.6567 253.619,78.6812 254.065,78.7056 254.512,78.73 254.959,78.7544 255.406,78.7788 255.853,78.8032 256.3,78.8281 256.747,78.8525 257.193,78.877 257.64,78.9014 258.087,78.9258 258.534,78.9502 258.981,78.9746 259.428,78.999 259.875,79.0234 260.321,79.0483 260.768,79.0728 261.215,79.0972 261.662,79.1216 262.109,79.146 262.556,79.1704 263.002,79.1948 263.449,79.2192 263.896,79.2437 264.343,79.2681 264.79,79.2925 265.237,79.3169 265.684,79.3408 266.13,79.3638 266.577,79.3813 267.024,79.3848 267.471,79.3506 267.918,79.2422 268.365,79.02 268.812,78.6763 269.258,78.2559 269.705,77.8267 270.152,77.4453 270.599,77.1426 271.046,76.9263 271.493,76.7886 271.939,76.7148 272.386,76.6851 272.833,76.6836 273.28,76.6973 273.727,76.7178 274.174,76.7407 274.621,76.7651 275.067,76.7896 275.514,76.8145 275.961,76.8389 276.408,76.8638 276.855,76.8882 277.302,76.9126 277.749,76.9375 278.195,76.9619 278.642,76.9868 279.089,77.0112 279.536,77.0361 279.983,77.0605 280.43,77.085 280.876,77.1099 281.323,77.1343 281.77,77.1592 282.217,77.1836 282.664,77.208 283.111,77.2329 283.558,77.2573 284.004,77.2822 284.451,77.3066 284.898,77.3311 285.345,77.356 285.792,77.3804 286.239,77.4048 286.686,77.4297 287.132,77.4541 287.579,77.479 288.026,77.5034 288.473,77.5278 288.919,77.5527 289.367,77.5771 289.813,77.6016 290.26,77.6265 290.707,77.6509 291.154,77.6753 291.601,77.7002 292.047,77.7246 292.495,77.749 292.941,77.7734 293.388,77.7983 293.835,77.8228 294.282,77.8472 294.729,77.8721 295.175,77.8965 295.623,77.9209 296.069,77.9458 296.516,77.9702 296.963,77.9946 297.41,78.019 297.856,78.0439 298.303,78.0684 298.75,78.0928 299.197,78.1172 299.644,78.1421 300.091,78.1665 300.538,78.1909 300.984,78.2153 301.431,78.2397 301.878,78.2646 302.325,78.2891 302.772,78.3135 303.219,78.3379 303.666,78.3623 304.112,78.3872 304.559,78.4116 305.006,78.436 305.453,78.4604 305.9,78.4854 306.347,78.5098 306.793,78.5342 307.24,78.5586 307.687,78.583 308.134,78.6074 308.581,78.6323 309.028,78.6567 309.475,78.6812 309.921,78.7056 310.368,78.73 310.815,78.7544 311.262,78.7788 311.709,78.8037 312.156,78.8281 312.603,78.8525 313.049,78.877 313.496,78.9014 313.943,78.9258 314.39,78.9502 314.837,78.9746 315.284,78.999 315.73,79.0239 316.177,79.0483 316.624,79.0728 317.071,79.0972 317.518,79.1216 317.965,79.146 318.412,79.1704 318.858,79.1948 319.305,79.2192 319.752,79.2437 320.199,79.2681 320.646,79.2925 321.093,79.3169 321.54,79.3408 321.986,79.3633 322.433,79.3799 322.88,79.3799 323.327,79.3394 323.773,79.2188 324.221,78.981 324.667,78.625 325.114,78.1997 325.561,77.7744 326.008,77.4023 326.455,77.1104 326.902,76.9048 327.349,76.7759 327.795,76.7085 328.242,76.6836 328.689,76.6841 329.136,76.6992 329.583,76.7202 330.03,76.7437 330.477,76.7676 330.923,76.7925 331.37,76.8169 331.817,76.8418 332.264,76.8662 332.71,76.8911 333.157,76.9155 333.604,76.9399 334.051,76.9648 334.498,76.9893 334.945,77.0142 335.392,77.0386 335.838,77.0635 336.286,77.0879 336.732,77.1123 337.179,77.1372 337.626,77.1616 338.073,77.1865 338.52,77.2109 338.966,77.2354 339.414,77.2603 339.86,77.2847 340.307,77.3096 340.754,77.334 341.201,77.3584 341.647,77.3833 342.094,77.4077 342.541,77.4321 342.988,77.457 343.435,77.4814 343.882,77.5059 344.329,77.5308 344.775,77.5552 345.222,77.5796 345.669,77.6045 346.116,77.6289 346.563,77.6533 347.01,77.6782 347.457,77.7026 347.903,77.7271 348.35,77.752 348.797,77.7764 349.244,77.8008 349.691,77.8257 350.138,77.8501 350.584,77.8745 351.031,77.8989 351.478,77.9238 351.925,77.9482 352.372,77.9727 352.819,77.9971 353.266,78.022 353.712,78.0464 354.159,78.0708 354.606,78.0957 355.053,78.1201 355.5,78.1445 355.947,78.1689 356.394,78.1934 356.84,78.2183 357.287,78.2427 357.734,78.2671 358.181,78.2915 358.628,78.3164 359.075,78.3408 359.521,78.3652 359.968,78.3896 360.415,78.4141 360.862,78.439 361.309,78.4634 361.756,78.4878 362.203,78.5122 362.649,78.5366 363.096,78.5615 363.543,78.5859 363.99,78.6104 364.437,78.6348 364.884,78.6592 365.331,78.6836 365.777,78.708 366.224,78.7329 366.671,78.7573 367.118,78.7817 367.564,78.8062 368.012,78.8306 368.458,78.855 368.905,78.8794 369.352,78.9043 369.799,78.9287 370.246,78.9531 370.692,78.9775 371.14,79.002 371.586,79.0264 372.033,79.0508 372.48,79.0752 372.927,79.0996 373.374,79.124 373.82,79.1484 374.268,79.1733 374.714,79.1978 375.161,79.2222 375.608,79.2466 376.055,79.271 376.501,79.2954 376.948,79.3198 377.396,79.3433 377.842,79.3652 378.289,79.3809 378.736,79.3774 379.183,79.3291 379.629,79.1958 380.076,78.9419 380.523,78.5742 380.97,78.145 381.417,77.7241 381.864,77.3608 382.311,77.0801 382.757,76.8843 383.204,76.7646 383.651,76.7031 384.098,76.6821 384.545,76.6855 384.992,76.7012 385.438,76.7227 385.885,76.7466 386.332,76.771 386.779,76.7954 387.226,76.8198 387.673,76.8447 388.12,76.8691 388.566,76.894 389.013,76.9185 389.46,76.9434 389.907,76.9678 390.354,76.9922 390.801,77.0171 391.248,77.0415 391.694,77.0664 392.141,77.0908 392.588,77.1157 393.035,77.1401 393.482,77.1646 393.929,77.1895 394.375,77.2139 394.822,77.2388 395.269,77.2632 395.716,77.2876 396.163,77.3125 396.61,77.3369 397.057,77.3613 397.503,77.3862 397.95,77.4106 398.397,77.4355 398.844,77.46 399.291,77.4844 399.738,77.5093 400.185,77.5337 400.631,77.5581 401.078,77.583 401.525,77.6074 401.972,77.6318 402.419,77.6567 402.866,77.6812 403.312,77.7056 403.759,77.7305 404.206,77.7549 404.653,77.7793 405.1,77.8037 405.547,77.8286 405.994,77.853 406.44,77.8774 406.887,77.9023 407.334,77.9268 407.781,77.9512 408.228,77.9756 408.675,78.0005 409.122,78.0249 409.568,78.0493 410.015,78.0737 410.462,78.0986 410.909,78.123 411.355,78.1475 411.803,78.1719 412.25,78.1968 412.696,78.2212 413.143,78.2456 413.59,78.27 414.037,78.2949 414.483,78.3193 414.931,78.3438 415.377,78.3682 415.824,78.3926 416.271,78.4175 416.718,78.4419 417.165,78.4663 417.611,78.4907 418.059,78.5151 418.505,78.5396 418.952,78.5645 419.399,78.5889 419.846,78.6133 420.292,78.6377 420.739,78.6621 421.187,78.6865 421.633,78.7114 422.08,78.7358 422.527,78.7603 422.974,78.7847 423.42,78.8091 423.867,78.8335 424.314,78.8579 424.761,78.8828 425.208,78.9072 425.655,78.9316 426.102,78.9561 426.548,78.9805 426.995,79.0049 427.442,79.0293 427.889,79.0537 428.336,79.0781 428.783,79.1025 429.229,79.1274 429.676,79.1519 430.123,79.1763 430.57,79.2007 431.017,79.2251 431.464,79.2495 431.911,79.2739 432.357,79.2983 432.804,79.3228 433.251,79.3462 433.698,79.3677 434.145,79.3818 434.592,79.3745 435.039,79.3184 435.485,79.1709 435.932,78.9014 436.379,78.5225 436.826,78.0908 437.273,77.6748 437.72,77.3208 438.167,77.0508 438.613,76.8657 439.06,76.7539 439.507,76.6987 439.954,76.6816 440.401,76.687 440.848,76.7036 441.294,76.7256 441.741,76.7495 442.188,76.7739 442.635,76.7983 443.082,76.8232 443.529,76.8477 443.976,76.8726 444.422,76.897 444.869,76.9214 445.316,76.9463 445.763,76.9707 446.21,76.9956 446.657,77.02 447.104,77.0449 447.55,77.0693 447.997,77.0938 448.444,77.1187 448.891,77.1431 449.337,77.168 449.785,77.1924 450.231,77.2168 450.678,77.2417 451.125,77.2661 451.572,77.291 452.019,77.3154 452.466,77.3398 452.913,77.3647 453.359,77.3892 453.806,77.4141 454.253,77.4385 454.7,77.4629 455.146,77.4878 455.594,77.5122 456.041,77.5366 456.487,77.5615 456.934,77.5859 457.381,77.6104 457.828,77.6353 458.274,77.6597 458.722,77.6841 459.168,77.7085 459.615,77.7334 460.062,77.7578 460.509,77.7822 460.956,77.8071 461.402,77.8315 461.85,77.856 462.296,77.8809 462.743,77.9053 463.19,77.9297 463.637,77.9541 464.083,77.979 464.53,78.0034 464.977,78.0278 465.424,78.0522 465.871,78.0771 466.318,78.1016 466.765,78.126 467.211,78.1504 467.658,78.1753 468.105,78.1997 468.552,78.2241 468.999,78.2485 469.446,78.2734 469.893,78.2979 470.339,78.3223 470.786,78.3467 471.233,78.3711 471.68,78.396 472.127,78.4204 472.574,78.4448 473.021,78.4692 473.467,78.4937 473.914,78.5186 474.361,78.543 474.808,78.5674 475.255,78.5918 475.702,78.6162 476.148,78.6406 476.595,78.6655 477.042,78.6899 477.489,78.7144 477.936,78.7388 478.383,78.7632 478.83,78.7876 479.276,78.812 479.723,78.8369 480.17,78.8613 480.617,78.8857 481.064,78.9102 481.511,78.9346 481.958,78.959 482.404,78.9834 482.851,79.0078 483.298,79.0322 483.745,79.0571 484.192,79.0815 484.639,79.106 485.085,79.1304 485.532,79.1548 485.979,79.1792 486.426,79.2036 486.873,79.228 487.32,79.2524 487.767,79.2769 488.213,79.3013 488.66,79.3257 489.107,79.3491 489.554,79.3701 490.001,79.3823 490.448,79.3711 490.895,79.3057 491.341,79.144 491.788,78.8594 492.235,78.4697 492.682,78.0366 493.128,77.6265 493.576,77.2827 494.022,77.0234 494.469,76.8481 494.916,76.7446 495.363,76.6948 495.81,76.6812 496.256,76.6885 496.704,76.7065 497.15,76.7285 497.597,76.7524 498.044,76.7769 498.491,76.8018 498.938,76.8262 499.384,76.8506 499.832,76.8755 500.278,76.8999 500.725,76.9248 501.172,76.9492 501.619,76.9741 502.065,76.9985 502.512,77.0234 502.959,77.0479 503.406,77.0723 503.853,77.0972 504.3,77.1216 504.747,77.1465 505.193,77.1709 505.64,77.1953 506.087,77.2202 506.534,77.2446 506.981,77.2695 507.428,77.2939 507.875,77.3184 508.321,77.3433 508.769,77.3677 509.215,77.3921 509.662,77.417 510.109,77.4414 510.556,77.4658 511.002,77.4907 511.449,77.5151 511.896,77.54 512.343,77.5645 512.79,77.5889 513.237,77.6133 513.684,77.6382 514.13,77.6626 514.577,77.6875 515.024,77.7119 515.471,77.7363 515.918,77.7607 516.365,77.7856 516.812,77.8101 517.258,77.8345 517.705,77.8594 518.152,77.8838 518.599,77.9082 519.046,77.9326 519.493,77.9575 519.939,77.9819 520.386,78.0063 520.833,78.0312 521.28,78.0557"/>
  </g>
  <clipPath id="cp00576432">
   <polygon points="0,432 576,432 576,0 0,0"/>
  </clipPath>
  <g clip-path="url(#cp00576432)">
   <polygon fill="#ffffff" points="452.905,372.83 509.63,372.83 509.63,330.668 452.905,330.668" shape-rendering="crispEdges"/>
   <polyline stroke-linejoin="miter" stroke-dasharray="16,0" stroke="#262626" fill="none" stroke-width="0.5" stroke-linecap="square" points="452.905,372.83 509.63,372.83"/>
   <polyline stroke-linejoin="miter" stroke-dasharray="16,0" stroke="#262626" fill="none" stroke-width="0.5" stroke-linecap="square" points="452.905,330.668 509.63,330.668"/>
   <polyline stroke-linejoin="miter" stroke-dasharray="16,0" stroke="#262626" fill="none" stroke-width="0.5" stroke-linecap="square" points="452.905,372.83 452.905,330.668"/>
   <polyline stroke-linejoin="miter" stroke-dasharray="16,0" stroke="#262626" fill="none" stroke-width="0.5" stroke-linecap="square" points="509.63,372.83 509.63,330.668"/>
   <text transform="translate(481.546,341.695) rotate(-0,-0,-4)" font-size="9" xml:space="preserve" font-family="FreeSans" font-style="normal" font-weight="normal">
    <tspan y="-0" fill="rgb(0,0,0)" x="0 5 7 12 ">0.1k</tspan>
    <tspan y="-0" fill="rgb(0,0,0)" x="17 ">Ω</tspan>
   </text>
   <text transform="translate(481.546,355.749) rotate(-0,-0,-4)" font-size="9" xml:space="preserve" font-family="FreeSans" font-style="normal" font-weight="normal">
    <tspan y="-0" fill="rgb(0,0,0)" x="0 5 ">1k</tspan>
    <tspan y="-0" fill="rgb(0,0,0)" x="10 ">Ω</tspan>
   </text>
   <text transform="translate(481.546,369.803) rotate(-0,-0,-4)" font-size="9" xml:space="preserve" font-family="FreeSans" font-style="normal" font-weight="normal">
    <tspan y="-0" fill="rgb(0,0,0)" x="0 5 10 ">10k</tspan>
    <tspan y="-0" fill="rgb(0,0,0)" x="15 ">Ω</tspan>
   </text>
   <polyline stroke-linejoin="round" stroke="#0071bc" fill="none" stroke-width="0.5" stroke-linecap="butt" points="456.304,337.695 478.148,337.695"/>
   <polyline stroke-linejoin="round" stroke="#d85218" fill="none" stroke-width="0.5" stroke-linecap="butt" points="456.304,351.749 478.148,351.749"/>
   <polyline stroke-linejoin="round" stroke="#ecb01f" fill="none" stroke-width="0.5" stroke-linecap="butt" points="456.304,365.803 478.148,365.803"/>
  </g>
 </g>
</svg>
